<svg viewBox="0 0 1575.896 324.74" xmlns="http://www.w3.org/2000/svg" data-name="Layer 1" id="Layer_1">
  <defs>
    <style>
      .cls-1 {
        fill: #12ad2a;
        stroke-width: 0px;
      }
    </style>
  </defs>
  <g>
    <path d="m232.561,222.985c-4.177,11.312-9.584,20.4-21.415,20.4H56.408c-6.911.171-12.603-5.546-12.546-12.326.055-6.539,5.441-12.042,12.103-12.119h114.36c8.852,0,16.444-6.352,18.112-15.132L227.541,20.503C230.264,8.573,238.18.086,250.011.086l26.964-.069,10.503-.017h149.27c10.982,0,20.019,9.139,20.019,20.245s-9.037,20.245-20.019,20.245h-130.528c-5.901.086-11.803.172-17.704.258-5.532,0-10.537,2.272-14.163,5.939-3.609,3.649-5.856,8.711-5.856,14.305,0,11.018,8.682,19.969,19.508,20.227.17.017.34.017.511.017h48.617c10.905.169,19.76,9.275,19.764,20.227.004,11.055-9.01,20.215-20.019,20.245-15.979-.006-47.959-.011-63.938-.017-1.272,0-3.034.119-5.052.654-4.885,1.296-7.977,4.154-9.094,5.285-4.431,4.485-5.424,9.764-5.686,11.603" class="cls-1"></path>
    <path d="m238.674,112.917c.134-1.07.368-2.122.668-3.125l-.668,3.125Z" class="cls-1"></path>
    <path d="m154.336,55.372H16.568c-11.902,0-19.911,13.907-15.195,26.366l32.208,84.968c2.624,6.905,8.592,11.384,15.195,11.384h90.622c7.889,0,14.681-6.357,16.224-15.178l14.938-84.948c2.041-11.697-5.78-22.592-16.224-22.592Zm-27.595,94.532c-1.835,2.073-4.339,3.364-7.134,3.364h-55.601c-5.574,0-10.084-5.144-10.084-11.501,0-3.169,1.132-6.044,2.95-8.137,1.835-2.073,4.339-3.364,7.134-3.364h55.601c5.574,0,10.084,5.164,10.084,11.501,0,3.169-1.132,6.063-2.95,8.137Zm10.084-47.022c-1.835,2.073-4.339,3.364-7.134,3.364H38.675c-5.574,0-10.084-5.144-10.084-11.501,0-3.169,1.132-6.064,2.95-8.137,1.818-2.073,4.356-3.364,7.135-3.364h91.016c5.574,0,10.084,5.144,10.084,11.501,0,3.168-1.132,6.063-2.95,8.137Z" class="cls-1"></path>
    <circle r="20.082" cy="304.658" cx="112.483" class="cls-1"></circle>
    <circle r="20.082" cy="304.658" cx="193.594" class="cls-1"></circle>
  </g>
  <g>
    <path d="m469.465,221.934l-10.532-110.41c-1.527-16.089-15.041-28.366-31.203-28.366-11.666,0-22.373,6.473-27.784,16.816l-60.762,116.185c-1.498,2.866-2.182,5.862-2.182,8.772,0,9.935,7.957,18.969,18.969,18.969,7.448,0,14.198-4.349,17.267-11.128l10.727-23.672c.513-1.131,1.655-1.801,2.897-1.799.007,0,.014,0,.021,0h39.089c1.66,0,3.019,1.32,3.067,2.979l.409,14.142c.16,5.426,2.458,10.299,6.066,13.805,3.622,3.52,8.553,5.673,13.979,5.673,11.841,0,21.093-10.197,19.973-21.966Zm-66.461-44.309c-2.23,0-3.715-2.304-2.794-4.335l6.558-14.459c6.924-15.332,7.374-15.938,13.804-31.764.472-1.595,1.996-2.573,3.466-2.352,1.182.178,2.178,1.108,2.513,2.352.189,4.067.375,8.172.498,12.315.172,5.791.168,9.435.491,19.449l.46,15.636c.051,1.729-1.337,3.158-3.066,3.158h-21.93Z" class="cls-1"></path>
    <path d="m494.897,203.753h0c6.599-5.21,15.889-5.088,22.448.172,7.218,5.789,15.681,9.306,23.924,9.306,11.376,0,18.794-5.192,18.794-14.095,0-7.171-7.171-10.386-18.299-17.311l-13.849-8.654c-14.837-9.397-23.74-21.02-23.74-41.05,0-28.933,26.46-51.932,59.102-51.932,12.071,0,23.837,3.877,34.182,10.778,9.237,6.162,10.291,19.351,2.2,26.956h0c-5.878,5.526-14.766,6.198-21.488,1.736-4.995-3.315-10.306-5.344-16.378-5.344-11.375,0-17.063,6.182-17.063,13.848,0,6.678,6.924,9.644,19.783,17.806l14.837,9.15c15.579,9.396,21.762,19.535,21.762,38.329,0,29.427-24.234,53.415-62.812,53.415-14.722,0-29.953-4.326-43.595-15.077-9.032-7.118-8.835-20.907.191-28.033Z" class="cls-1"></path>
    <path d="m635.28,117.036h-.297c-10.417,0-18.25-9.499-16.266-19.725h0c1.511-7.789,8.332-13.413,16.266-13.413h86.922c10.417,0,18.25,9.499,16.266,19.725h0c-1.511,7.789-8.332,13.413-16.266,13.413h-13.279c-7.912,0-14.72,5.594-16.254,13.356l-19.491,98.601c-1.797,9.092-9.772,15.644-19.039,15.644h0c-12.23,0-21.411-11.174-19.039-23.171l16.732-84.648c2.025-10.242-5.814-19.782-16.254-19.782Z" class="cls-1"></path>
    <path d="m779.348,203.753h0c6.599-5.21,15.889-5.089,22.448.172,7.218,5.789,15.681,9.306,23.924,9.306,11.375,0,18.794-5.192,18.794-14.095,0-7.171-7.173-10.386-18.3-17.311l-13.849-8.654c-14.837-9.397-23.739-21.02-23.739-41.05,0-28.933,26.46-51.932,59.103-51.932,12.071,0,23.836,3.877,34.181,10.778,9.237,6.162,10.29,19.35,2.2,26.955h0c-5.878,5.526-14.766,6.198-21.488,1.737-4.995-3.316-10.307-5.344-16.378-5.344-11.375,0-17.063,6.182-17.063,13.848,0,6.678,6.924,9.644,19.783,17.806l14.838,9.15c15.579,9.396,21.762,19.535,21.762,38.329,0,29.427-24.235,53.415-62.812,53.415-14.723,0-29.955-4.326-43.596-15.077-9.032-7.118-8.835-20.907.191-28.033Z" class="cls-1"></path>
    <path d="m939.088,83.156h0c12.244,0,21.408,11.232,18.95,23.227l-2.845,13.886c-2.458,11.995,6.706,23.227,18.95,23.227h8.356c9.244,0,17.195-6.54,18.98-15.61l5.729-29.12c1.784-9.07,9.736-15.61,18.98-15.61h.062c12.207,0,21.362,11.167,18.968,23.137l-24.41,122.052c-1.808,9.042-9.747,15.55-18.968,15.55h-.043c-12.229,0-21.39-11.207-18.957-23.192l3.937-19.396c2.433-11.985-6.727-23.192-18.957-23.192h-8.381c-9.252,0-17.209,6.552-18.984,15.632l-6.747,34.515c-1.775,9.08-9.732,15.632-18.984,15.632h-.044c-12.207,0-21.362-11.167-18.968-23.137l24.41-122.052c1.808-9.042,9.747-15.55,18.968-15.55Z" class="cls-1"></path>
    <path d="m1089.392,83.156h0c12.242,0,21.424,11.2,19.023,23.204l-24.388,121.94c-1.814,9.068-9.775,15.595-19.023,15.595h0c-12.242,0-21.424-11.2-19.023-23.204l24.388-121.94c1.814-9.068,9.775-15.595,19.023-15.595Z" class="cls-1"></path>
    <path d="m1130.486,114.183c3.608-18.041,19.449-31.027,37.847-31.027h21.279c31.901,0,56.877,11.87,56.877,44.018,0,46.985-35.362,64.295-75.671,64.295h-6.435c-5.746,0-10.69,4.061-11.807,9.697l-5.371,27.111c-1.798,9.077-9.762,15.618-19.015,15.618h0c-12.233,0-21.408-11.191-19.009-23.187l21.305-106.525Zm45.03,46.129c20.279,0,31.902-9.397,31.902-27.203,0-12.859-8.656-18.794-23.246-18.794h0c-8.327,0-15.485,5.905-17.068,14.081l-3.405,17.593c-1.438,7.427,4.252,14.324,11.817,14.324h0Z" class="cls-1"></path>
    <path d="m1321.436,83.156h0c12.244,0,21.408,11.232,18.95,23.227l-2.845,13.886c-2.458,11.995,6.706,23.227,18.95,23.227h8.356c9.244,0,17.195-6.54,18.98-15.61l5.729-29.12c1.784-9.07,9.736-15.61,18.98-15.61h.062c12.207,0,21.362,11.167,18.968,23.137l-24.41,122.052c-1.808,9.042-9.747,15.55-18.968,15.55h-.043c-12.229,0-21.39-11.207-18.957-23.192l3.937-19.396c2.433-11.985-6.727-23.192-18.957-23.192h-8.381c-9.252,0-17.209,6.552-18.984,15.632l-6.747,34.515c-1.775,9.08-9.732,15.632-18.984,15.632h-.044c-12.207,0-21.362-11.167-18.968-23.137l24.41-122.052c1.808-9.042,9.747-15.55,18.968-15.55Z" class="cls-1"></path>
    <path d="m1469.887,83.156h0c12.248,0,21.433,11.205,19.032,23.215l-12.667,63.338c-1.22,7.937-2.443,15.118-1.803,22.479,1.088,12.512,12.259,22.112,24.686,20.299,12.105-1.767,19.134-13.036,24.103-38.327l15.251-75.841c1.773-8.818,9.52-15.162,18.515-15.162h0c11.942,0,20.886,10.945,18.507,22.648l-13.696,67.366c-9.891,50.448-30.665,73.693-67.263,73.693-40.062,0-59.845-18.3-59.845-57.866,0-7.42,1.977-18.794,3.462-27.202l12.691-63.06c1.824-9.061,9.784-15.579,19.027-15.579Z" class="cls-1"></path>
    <circle r="20.082" cy="51.578" cx="1096.666" class="cls-1"></circle>
  </g>
</svg>