<svg width="42" height="42" viewBox="0 0 42 42" fill="none" xmlns="http://www.w3.org/2000/svg">
<g clip-path="url(#clip0_1_17552)">
<path d="M21.0002 3.5C11.3227 3.5 3.50024 11.34 3.50024 21C3.50024 30.66 11.3227 38.5 21.0002 38.5C30.6602 38.5 38.5002 30.66 38.5002 21C38.5002 11.34 30.6602 3.5 21.0002 3.5Z" fill="#E6FBDA"/>
<path d="M21.0002 3.5C11.3227 3.5 3.50024 11.34 3.50024 21C3.50024 30.66 11.3227 38.5 21.0002 38.5C30.6602 38.5 38.5002 30.66 38.5002 21C38.5002 11.34 30.6602 3.5 21.0002 3.5" stroke="#74CA45" stroke-width="1.5"/>
<path d="M21 14L21 28M28 21L14 21" stroke="#74CA45" stroke-width="1.5" stroke-linecap="round"/>
</g>
<defs>
<clipPath id="clip0_1_17552">
<rect width="42" height="42" fill="white"/>
</clipPath>
</defs>
</svg>
