<svg width="25" height="24" viewBox="0 0 25 24" fill="none" xmlns="http://www.w3.org/2000/svg">
<path d="M4.46356 5.49432C4.16403 5.85375 4 6.30681 4 6.77469V18.3506C4 20.0074 5.34315 21.3506 7 21.3506H18C19.6569 21.3506 21 20.0074 21 18.3506V6.77469C21 6.30681 20.836 5.85375 20.5364 5.49432L18.7664 3.37022C18.3864 2.91423 17.8235 2.65059 17.2299 2.65059H7.77008C7.17652 2.65059 6.61363 2.91423 6.23364 3.37022L4.46356 5.49432Z" stroke="#847D79" stroke-width="1.5"/>
<path d="M4 6.47559H21" stroke="#847D79" stroke-width="1.5"/>
<path d="M15.9 10.3008C15.9 12.1785 14.3777 13.7008 12.5 13.7008C10.6222 13.7008 9.09998 12.1785 9.09998 10.3008" stroke="#847D79" stroke-width="1.5" stroke-linecap="round"/>
</svg>
