<svg width="30" height="30" viewBox="0 0 30 30" fill="none" xmlns="http://www.w3.org/2000/svg">
<path fill-rule="evenodd" clip-rule="evenodd" d="M0.00012207 15C0.00012207 6.72 6.70512 0 15.0001 0C23.2801 0 30.0001 6.72 30.0001 15C30.0001 23.28 23.2801 30 15.0001 30C6.70512 30 0.00012207 23.28 0.00012207 15ZM12.5066 19.1414C12.7506 19.3838 13.0673 19.5034 13.3839 19.5001C13.7005 19.4984 14.0155 19.3755 14.2563 19.1298L20.6433 12.6203C21.1232 12.1304 21.1182 11.3433 20.6334 10.8601C20.1469 10.3769 19.3636 10.3802 18.8837 10.8701L13.3658 16.4928L11.1065 14.2477C10.62 13.7644 9.83831 13.7694 9.35677 14.2593C8.87688 14.7492 8.88182 15.5363 9.36831 16.0195L12.5066 19.1414Z" fill="#74CA45"/>
</svg>
