<svg width="24" height="24" viewBox="0 0 24 24" fill="none" xmlns="http://www.w3.org/2000/svg">
<path d="M19.3016 19.8516H17.4719C17.7032 20.0922 18.0278 20.2422 18.3868 20.2422C18.7458 20.2422 19.0704 20.0922 19.3016 19.8516Z" fill="#847D79"/>
<path d="M18.3867 20.8281C17.6812 20.8281 17.0668 20.4324 16.7531 19.8516H15.4898C15.8676 21.0934 17.023 22 18.3867 22C19.7504 22 20.9059 21.0934 21.2836 19.8516H20.0203C19.7066 20.4324 19.0918 20.8281 18.3867 20.8281ZM6.78516 4.47383C6.83398 4.47383 6.8832 4.48594 6.92734 4.51055L7.66406 4.91992V2H5.90625V4.91992L6.64297 4.51055C6.68647 4.4864 6.73541 4.47376 6.78516 4.47383ZM6.29688 3.46484C6.29688 3.30313 6.42812 3.17188 6.58984 3.17188H6.98047C7.14219 3.17188 7.27344 3.30313 7.27344 3.46484C7.27344 3.62656 7.14219 3.75781 6.98047 3.75781H6.58984C6.42812 3.75781 6.29688 3.62656 6.29688 3.46484ZM10.5938 2.87891C10.5938 2.39414 10.1996 2 9.71484 2H8.25V3.5625H10.5938V2.87891ZM5.32031 2H3.85547C3.3707 2 2.97656 2.39414 2.97656 2.87891V3.5625H5.32031V2Z" fill="#847D79"/>
<path d="M3.85547 9.22656H9.71484C10.1996 9.22656 10.5938 8.83242 10.5938 8.34766V4.14844H8.25V5.41797C8.25 5.52188 8.19492 5.61797 8.10547 5.67031C8.05977 5.69727 8.0082 5.71094 7.95703 5.71094C7.90586 5.71094 7.85898 5.69883 7.81484 5.67422L6.78516 5.10234L5.75547 5.67422C5.71088 5.69902 5.66058 5.71175 5.60956 5.71115C5.55853 5.71055 5.50855 5.69664 5.46456 5.67079C5.42056 5.64495 5.38407 5.60806 5.35871 5.56379C5.33334 5.51952 5.31997 5.46939 5.31992 5.41836V4.14844H2.97656V8.34766C2.97656 8.83242 3.3707 9.22656 3.85547 9.22656ZM5.22266 7.46875H8.34766C8.50938 7.46875 8.64062 7.6 8.64062 7.76172C8.64062 7.92344 8.50938 8.05469 8.34766 8.05469H5.22266C5.06094 8.05469 4.92969 7.92344 4.92969 7.76172C4.92969 7.6 5.06094 7.46875 5.22266 7.46875ZM19.2508 14.8781C19.2547 15.1836 19.1738 15.4855 19.0133 15.7523L16.8992 19.2656H21.707C21.8687 19.2656 22 19.1344 22 18.9727V18.3867C22 16.6922 20.8273 15.2664 19.2508 14.8781ZM5.80859 14.3828C3.70859 14.3828 2 16.0914 2 18.1914V18.9727C2 19.1344 2.13125 19.2656 2.29297 19.2656H9.32422C9.48594 19.2656 9.61719 19.1344 9.61719 18.9727V18.1914C9.61719 16.0914 7.90859 14.3828 5.80859 14.3828Z" fill="#847D79"/>
<path d="M10.1527 19.2656H16.0496C16.1523 19.2656 16.2477 19.2117 16.3008 19.1238L18.5113 15.4504C18.6538 15.2146 18.6998 14.9329 18.6398 14.6641L17.5395 9.69531H15.2805L15.9859 14.3406L14.4352 16.723H10.7242C10.5625 16.723 10.4312 16.5918 10.4312 16.4301C10.4312 16.2684 10.5625 16.1371 10.7242 16.1371H12.2063L10.5617 12.5461H3.17188V14.6781C3.90703 14.125 4.81992 13.7969 5.80859 13.7969C8.23164 13.7969 10.2031 15.7684 10.2031 18.1914V18.9727C10.2031 19.0754 10.1852 19.1738 10.1527 19.2656ZM19.5645 9.10938V5.39844C19.5645 5.075 19.302 4.8125 18.9785 4.8125H18.3926V9.69531H18.9785C19.302 9.69531 19.5645 9.43281 19.5645 9.10938ZM16.2441 7.25391C16.2441 7.95391 15.6746 8.52344 14.9746 8.52344H14.2988C14.3465 8.8543 14.6309 9.10938 14.9746 9.10938H17.8066V5.39844H14.9746C14.6309 5.39844 14.3465 5.65352 14.2988 5.98438H14.9746C15.6746 5.98438 16.2441 6.55391 16.2441 7.25391ZM11.8496 7.9375H12.7285V6.57031H11.8496C11.6879 6.57031 11.5566 6.70156 11.5566 6.86328V7.64453C11.5566 7.80625 11.6879 7.9375 11.8496 7.9375Z" fill="#847D79"/>
<path d="M15.6582 7.25354C15.6582 6.8762 15.3523 6.56995 14.9746 6.56995H13.3145V7.93714H14.9746C15.3523 7.93714 15.6582 7.63089 15.6582 7.25354ZM20.541 7.25354C20.541 7.41526 20.6723 7.54651 20.834 7.54651H21.6152C21.777 7.54651 21.9082 7.41526 21.9082 7.25354C21.9082 7.09182 21.777 6.96057 21.6152 6.96057H20.834C20.6723 6.96057 20.541 7.09182 20.541 7.25354ZM20.343 8.76253L21.077 9.02972C21.15 9.05617 21.2305 9.05255 21.3009 9.01967C21.3713 8.98679 21.4258 8.92732 21.4523 8.85432C21.5078 8.70237 21.4293 8.53401 21.2773 8.47893L20.5434 8.21175C20.3914 8.15628 20.223 8.23479 20.168 8.38675C20.1125 8.5387 20.191 8.70706 20.343 8.76214V8.76253ZM20.4434 6.31292C20.4766 6.31292 20.5105 6.30706 20.5434 6.29534L21.2773 6.02815C21.4293 5.97268 21.5078 5.80472 21.4523 5.65276C21.3969 5.50081 21.2289 5.42229 21.077 5.47776L20.343 5.74495C20.191 5.80042 20.1125 5.96839 20.168 6.12034C20.1885 6.1769 20.2259 6.22576 20.2752 6.26029C20.3245 6.29482 20.3832 6.31333 20.4434 6.31331V6.31292ZM2.78125 11.9598H11.5703V10.7879C11.5703 10.3563 11.2207 10.0067 10.7891 10.0067H2.78125C2.34961 10.0067 2 10.3563 2 10.7879V11.1785C2 11.6102 2.34961 11.9598 2.78125 11.9598ZM6.72344 19.8512H4.89375C5.125 20.0918 5.44961 20.2418 5.80859 20.2418C6.16758 20.2418 6.49219 20.0918 6.72344 19.8512Z" fill="#847D79"/>
<path d="M5.80862 20.8281C5.10315 20.8281 4.4887 20.4324 4.17502 19.8516H2.91174C3.28948 21.0934 4.44495 22 5.80862 22C7.17229 22 8.32776 21.0934 8.70549 19.8516H7.44221C7.12854 20.4324 6.5137 20.8281 5.80862 20.8281Z" fill="#847D79"/>
</svg>
