<svg width="35" height="13" viewBox="0 0 35 13" fill="none" xmlns="http://www.w3.org/2000/svg">
<path fill-rule="evenodd" clip-rule="evenodd" d="M0.00878906 11.2398L0.36489 11.2043C0.386297 11.3231 0.429803 11.4101 0.495292 11.4659C0.560895 11.5216 0.649287 11.5494 0.760583 11.5494C0.87844 11.5494 0.967177 11.5247 1.02703 11.4752C1.08676 11.4257 1.11657 11.3679 1.11657 11.3017C1.11657 11.2592 1.10402 11.2231 1.07905 11.1932C1.05396 11.1634 1.01022 11.1375 0.947726 11.1153C0.904911 11.1009 0.807542 11.0749 0.655502 11.0376C0.459727 10.9898 0.322535 10.9308 0.243581 10.8608C0.13263 10.7624 0.0771549 10.6425 0.0771549 10.5009C0.0771549 10.4099 0.103281 10.3247 0.155649 10.2454C0.207902 10.1661 0.283403 10.1057 0.381809 10.0642C0.480329 10.0228 0.599221 10.002 0.738485 10.002C0.965911 10.002 1.13706 10.0515 1.25203 10.1503C1.36701 10.2492 1.42732 10.3811 1.43308 10.5462L1.06627 10.5604C1.05062 10.4682 1.01701 10.402 0.965451 10.3614C0.914004 10.321 0.836775 10.3008 0.733766 10.3008C0.627419 10.3008 0.544322 10.3224 0.484127 10.3656C0.445341 10.3933 0.426005 10.4304 0.426005 10.4768C0.426005 10.5193 0.44419 10.5555 0.480444 10.5858C0.526482 10.624 0.638469 10.664 0.816404 10.7053C0.994224 10.7467 1.12578 10.7897 1.21106 10.8343C1.29623 10.8788 1.36299 10.9397 1.41121 11.0169C1.45932 11.0943 1.48349 11.1897 1.48349 11.3033C1.48349 11.4064 1.4546 11.5028 1.39682 11.5927C1.33905 11.6826 1.25744 11.7495 1.1519 11.7932C1.04636 11.8369 0.914809 11.8589 0.757245 11.8589C0.527978 11.8589 0.351884 11.8062 0.228964 11.7007C0.106159 11.5953 0.0327286 11.4418 0.00878906 11.2398Z" fill="#0B4A8E"/>
<path fill-rule="evenodd" clip-rule="evenodd" d="M1.86328 10.5273H2.21213V11.8257H1.86328V10.5273ZM1.86329 10.0352H2.21214V10.3532H1.86329V10.0352Z" fill="#0B4A8E"/>
<path fill-rule="evenodd" clip-rule="evenodd" d="M3.84074 11.8293H3.49189V11.1653C3.49189 11.0248 3.4844 10.934 3.46967 10.8928C3.45483 10.8516 3.43089 10.8193 3.39762 10.7965C3.36436 10.7737 3.32431 10.7622 3.27758 10.7622C3.21762 10.7622 3.16387 10.7786 3.11622 10.8113C3.06857 10.8439 3.036 10.8872 3.01839 10.9411C3.00066 10.995 2.99192 11.0946 2.99192 11.2401V11.8293H2.64307V10.531H2.96671V10.7218C3.08123 10.5732 3.22556 10.499 3.39935 10.499C3.476 10.499 3.5461 10.5128 3.60951 10.5401C3.67293 10.5674 3.72092 10.6024 3.75349 10.6448C3.78607 10.6873 3.80874 10.7354 3.82152 10.7894C3.83429 10.8432 3.84074 10.9204 3.84074 11.0208V11.8293Z" fill="#0B4A8E"/>
<path fill-rule="evenodd" clip-rule="evenodd" d="M4.54613 11.1517C4.54613 11.2899 4.57283 11.3911 4.62647 11.4552C4.67999 11.5195 4.74605 11.5515 4.82466 11.5515C4.90879 11.5515 4.97992 11.5186 5.03805 11.4528C5.09605 11.387 5.12517 11.2894 5.12517 11.1602C5.12517 11.0255 5.09732 10.9253 5.04173 10.8598C4.98602 10.7945 4.91582 10.7617 4.83076 10.7617C4.74812 10.7617 4.67999 10.7939 4.62647 10.858C4.57283 10.9223 4.54613 11.0201 4.54613 11.1517ZM4.23359 11.9137L4.62917 11.9564C4.63584 12.0048 4.65115 12.038 4.67509 12.0563C4.70824 12.0822 4.76038 12.0952 4.8315 12.0952C4.92254 12.0952 4.99079 12.0818 5.03637 12.0549C5.06687 12.0369 5.09012 12.008 5.10589 11.968C5.11659 11.9394 5.122 11.8869 5.122 11.8102L5.12304 11.6206C5.02014 11.7592 4.88963 11.8284 4.73126 11.8284C4.55459 11.8284 4.41486 11.7546 4.31174 11.6067C4.23083 11.49 4.19043 11.3445 4.19043 11.1706C4.19043 10.9525 4.24337 10.7859 4.34937 10.6707C4.45538 10.5556 4.58727 10.498 4.74484 10.498C4.90735 10.498 5.04144 10.5687 5.14709 10.7099V10.53H5.47085V11.6971C5.47085 11.8507 5.45808 11.9654 5.43241 12.0412C5.40686 12.1173 5.37095 12.1768 5.32468 12.2201C5.27841 12.2633 5.21672 12.2972 5.1395 12.3217C5.06227 12.3462 4.96467 12.3585 4.8467 12.3585C4.62376 12.3585 4.46562 12.3205 4.37228 12.2445C4.27894 12.1686 4.23232 12.0723 4.23232 11.9556C4.23232 11.9441 4.23278 11.9302 4.23359 11.9137Z" fill="#0B4A8E"/>
<path fill-rule="evenodd" clip-rule="evenodd" d="M5.88916 10.0332H6.23801V11.826H5.88916V10.0332Z" fill="#0B4A8E"/>
<path fill-rule="evenodd" clip-rule="evenodd" d="M7.4525 11.0726C7.45008 10.971 7.42396 10.894 7.37412 10.8411C7.3244 10.7882 7.26386 10.7617 7.1925 10.7617C7.11619 10.7617 7.05312 10.7897 7.0034 10.8454C6.95357 10.9011 6.92917 10.9769 6.92997 11.0726H7.4525ZM7.43464 11.4194L7.77993 11.4763C7.73527 11.6014 7.66472 11.6968 7.56838 11.7622C7.47205 11.8278 7.35143 11.8605 7.20676 11.8605C6.97761 11.8605 6.80807 11.7864 6.69816 11.6383C6.61126 11.5197 6.56787 11.37 6.56787 11.189C6.56787 10.9732 6.62484 10.8039 6.73902 10.6815C6.85307 10.5592 6.99729 10.498 7.17165 10.498C7.36766 10.498 7.52223 10.5622 7.63548 10.6905C7.74874 10.819 7.80283 11.0156 7.79788 11.2806H6.92397C6.92639 11.3828 6.9547 11.4623 7.0088 11.5192C7.06289 11.5759 7.13034 11.6044 7.21113 11.6044C7.26603 11.6044 7.3123 11.5898 7.3497 11.5605C7.38711 11.5314 7.41554 11.4843 7.43464 11.4194Z" fill="#0B4A8E"/>
<path fill-rule="evenodd" clip-rule="evenodd" d="M8.93848 11.826V10.0332H10.2801V10.3356H9.3054V10.7341H10.2118V11.0364H9.3054V11.5237H10.316V11.826H8.93848Z" fill="#0B4A8E"/>
<path fill-rule="evenodd" clip-rule="evenodd" d="M11.5635 11.8286V11.6342C11.5155 11.7035 11.4525 11.7586 11.3744 11.7995C11.2962 11.8402 11.2138 11.8607 11.127 11.8607C11.0385 11.8607 10.9593 11.8415 10.889 11.8031C10.8188 11.7648 10.7679 11.7108 10.7365 11.6415C10.7051 11.572 10.6895 11.4761 10.6895 11.3536V10.5303H11.0383V11.1274C11.0383 11.3102 11.0446 11.4222 11.0575 11.4633C11.0703 11.5048 11.0935 11.5373 11.1274 11.5615C11.1612 11.5855 11.204 11.5974 11.2561 11.5974C11.3154 11.5974 11.3687 11.5815 11.4157 11.5492C11.4628 11.5169 11.4949 11.477 11.5123 11.4292C11.5295 11.3815 11.5383 11.2646 11.5383 11.0786V10.5303H11.8871V11.8286H11.5635Z" fill="#0B4A8E"/>
<path fill-rule="evenodd" clip-rule="evenodd" d="M12.6535 11.8293H12.3047V10.531H12.6283V10.7156C12.6837 10.6284 12.7334 10.5706 12.7776 10.5419C12.8218 10.5134 12.8719 10.499 12.928 10.499C13.0072 10.499 13.0836 10.5208 13.1571 10.5641L13.051 10.8648C12.9923 10.8273 12.9375 10.8085 12.8871 10.8085C12.8381 10.8085 12.7968 10.8218 12.7629 10.8483C12.7289 10.8749 12.7022 10.9228 12.6828 10.9921C12.6633 11.0615 12.6535 11.2068 12.6535 11.4279V11.8293Z" fill="#0B4A8E"/>
<path fill-rule="evenodd" clip-rule="evenodd" d="M13.6535 11.1775C13.6535 11.3069 13.6845 11.4058 13.7465 11.4745C13.8086 11.5433 13.885 11.5777 13.976 11.5777C14.067 11.5777 14.1433 11.5433 14.2048 11.4745C14.2664 11.4058 14.2973 11.306 14.2973 11.1751C14.2973 11.0475 14.2664 10.9491 14.2048 10.8805C14.1433 10.8117 14.067 10.7773 13.976 10.7773C13.885 10.7773 13.8086 10.8117 13.7465 10.8805C13.6845 10.9491 13.6535 11.0483 13.6535 11.1775ZM13.2979 11.1608C13.2979 11.0462 13.3263 10.9354 13.3833 10.8282C13.4401 10.721 13.5207 10.6392 13.6251 10.5827C13.7293 10.5263 13.8459 10.498 13.9746 10.498C14.1734 10.498 14.3362 10.562 14.4633 10.6901C14.5902 10.8181 14.6538 10.98 14.6538 11.1756C14.6538 11.3727 14.5896 11.5363 14.4613 11.6659C14.3331 11.7956 14.1716 11.8605 13.977 11.8605C13.8566 11.8605 13.7418 11.8334 13.6325 11.7795C13.5232 11.7255 13.4401 11.6464 13.3833 11.542C13.3263 11.4376 13.2979 11.3107 13.2979 11.1608Z" fill="#0B4A8E"/>
<path fill-rule="evenodd" clip-rule="evenodd" d="M16.1572 10.3359V10.8482H16.357C16.5008 10.8482 16.597 10.8388 16.6456 10.8199C16.6941 10.801 16.7322 10.7714 16.7597 10.7312C16.7872 10.691 16.801 10.6442 16.801 10.5908C16.801 10.5251 16.7817 10.4709 16.743 10.4283C16.7043 10.3856 16.6554 10.3589 16.5962 10.3482C16.5526 10.34 16.4651 10.3359 16.3335 10.3359H16.1572ZM15.79 11.828V10.0352H16.3772C16.5997 10.0352 16.7449 10.0443 16.8124 10.0621C16.9162 10.089 17.0031 10.1476 17.0732 10.2378C17.1433 10.3278 17.1783 10.4443 17.1783 10.587C17.1783 10.6971 17.1582 10.7895 17.1178 10.8647C17.0775 10.9396 17.0262 10.9986 16.964 11.0414C16.9018 11.0843 16.8387 11.1126 16.7744 11.1264C16.6871 11.1436 16.5607 11.1522 16.3953 11.1522H16.1568V11.828H15.79Z" fill="#0B4A8E"/>
<path fill-rule="evenodd" clip-rule="evenodd" d="M18.2754 11.207C18.2309 11.2218 18.1606 11.2394 18.0643 11.2598C17.9681 11.2802 17.9052 11.3004 17.8757 11.3199C17.8304 11.3519 17.8079 11.3925 17.8079 11.4415C17.8079 11.4899 17.8259 11.5316 17.862 11.5668C17.8983 11.602 17.9443 11.6197 18.0004 11.6197C18.0628 11.6197 18.1224 11.5992 18.1792 11.5583C18.2211 11.5271 18.2487 11.4891 18.2618 11.444C18.2708 11.4145 18.2754 11.3584 18.2754 11.2757V11.207ZM17.8075 10.9249L17.4945 10.868C17.53 10.7422 17.591 10.6492 17.6775 10.5888C17.7642 10.5283 17.8929 10.498 18.0635 10.498C18.2186 10.498 18.3341 10.5163 18.41 10.5525C18.4858 10.589 18.5393 10.6351 18.5702 10.691C18.6011 10.7469 18.6167 10.8497 18.6167 10.9991L18.6131 11.4009C18.6131 11.5152 18.6186 11.5997 18.6297 11.6539C18.6409 11.7082 18.6617 11.7663 18.6922 11.8284H18.3469C18.3377 11.8059 18.3267 11.7726 18.3134 11.7284C18.3077 11.7083 18.3035 11.6951 18.3012 11.6886C18.2418 11.7458 18.1784 11.7889 18.1108 11.8176C18.0433 11.8461 17.9714 11.8605 17.8947 11.8605C17.7596 11.8605 17.653 11.824 17.5752 11.7514C17.4974 11.6787 17.4585 11.5867 17.4585 11.4756C17.4585 11.4022 17.4762 11.3366 17.5116 11.279C17.5471 11.2214 17.5968 11.1773 17.6607 11.1466C17.7247 11.1161 17.8169 11.0892 17.9373 11.0663C18.0997 11.0361 18.2122 11.008 18.275 10.9818V10.9471C18.275 10.8802 18.2584 10.8325 18.2253 10.8039C18.192 10.7754 18.1295 10.7612 18.0374 10.7612C17.9753 10.7612 17.9268 10.7734 17.8919 10.7975C17.8571 10.8218 17.8289 10.8642 17.8075 10.9249Z" fill="#0B4A8E"/>
<path fill-rule="evenodd" clip-rule="evenodd" d="M18.8657 10.5303H19.2361L19.5509 11.4521L19.8584 10.5303H20.2181L19.6709 12.0081C19.6403 12.0842 19.6112 12.1421 19.5836 12.1822C19.5559 12.2221 19.5241 12.2547 19.4882 12.2795C19.4521 12.3044 19.4082 12.324 19.3557 12.3378C19.3032 12.3518 19.2439 12.3587 19.1779 12.3587C19.111 12.3587 19.0452 12.3518 18.9808 12.3379L18.9484 12.0687C19.003 12.0795 19.0525 12.0847 19.0964 12.0847C19.1777 12.0847 19.2377 12.0609 19.2767 12.0136C19.3157 11.966 19.3455 11.9056 19.3663 11.8323L18.8657 10.5303Z" fill="#0B4A8E"/>
<path fill-rule="evenodd" clip-rule="evenodd" d="M20.4912 10.531H20.8113V10.7084C20.9263 10.5688 21.0631 10.499 21.2219 10.499C21.3062 10.499 21.3794 10.5161 21.4414 10.5504C21.5035 10.5847 21.5543 10.6366 21.5939 10.706C21.6517 10.6366 21.7142 10.5847 21.781 10.5504C21.8479 10.5161 21.9192 10.499 21.9951 10.499C22.0918 10.499 22.1735 10.5184 22.2404 10.5573C22.3073 10.5959 22.3573 10.6529 22.3904 10.7282C22.4142 10.7836 22.4262 10.8734 22.4262 10.9976V11.8293H22.0773V11.0857C22.0773 10.9566 22.0654 10.8734 22.0415 10.8358C22.0093 10.7867 21.9599 10.7622 21.8933 10.7622C21.8446 10.7622 21.7988 10.7769 21.756 10.8064C21.7132 10.8358 21.6823 10.8789 21.6634 10.9357C21.6445 10.9924 21.6349 11.0821 21.6349 11.2045V11.8293H21.2861V11.1164C21.2861 10.9896 21.28 10.9081 21.2675 10.8712C21.2552 10.8345 21.2361 10.8072 21.2101 10.7892C21.1841 10.7713 21.149 10.7622 21.1044 10.7622C21.0509 10.7622 21.0027 10.7765 20.9599 10.8051C20.9171 10.8337 20.8864 10.875 20.8678 10.9288C20.8493 10.9828 20.8401 11.0722 20.8401 11.1971V11.8293H20.4912V10.531Z" fill="#0B4A8E"/>
<path fill-rule="evenodd" clip-rule="evenodd" d="M23.6268 11.0726C23.6243 10.971 23.5982 10.894 23.5483 10.8411C23.4987 10.7882 23.438 10.7617 23.3667 10.7617C23.2905 10.7617 23.2273 10.7897 23.1777 10.8454C23.1279 10.9011 23.1035 10.9769 23.1043 11.0726H23.6268ZM23.6091 11.4194L23.9544 11.4763C23.9096 11.6014 23.8391 11.6968 23.7428 11.7622C23.6464 11.8278 23.5259 11.8605 23.3811 11.8605C23.152 11.8605 22.9825 11.7864 22.8725 11.6383C22.7856 11.5197 22.7422 11.37 22.7422 11.189C22.7422 10.9732 22.7994 10.8039 22.9133 10.6815C23.0275 10.5592 23.1716 10.498 23.3461 10.498C23.5421 10.498 23.6965 10.5622 23.8098 10.6905C23.9231 10.819 23.9773 11.0156 23.9723 11.2806H23.0983C23.1008 11.3828 23.1291 11.4623 23.1832 11.5192C23.2372 11.5759 23.3047 11.6044 23.3856 11.6044C23.4405 11.6044 23.4866 11.5898 23.524 11.5605C23.5617 11.5314 23.59 11.4843 23.6091 11.4194Z" fill="#0B4A8E"/>
<path fill-rule="evenodd" clip-rule="evenodd" d="M25.5258 11.8293H25.1769V11.1653C25.1769 11.0248 25.1695 10.934 25.1548 10.8928C25.14 10.8516 25.1159 10.8193 25.0827 10.7965C25.0494 10.7737 25.0094 10.7622 24.9626 10.7622C24.9028 10.7622 24.8489 10.7786 24.8014 10.8113C24.7537 10.8439 24.7212 10.8872 24.7034 10.9411C24.6858 10.995 24.677 11.0946 24.677 11.2401V11.8293H24.3281V10.531H24.6518V10.7218C24.7664 10.5732 24.9106 10.499 25.0844 10.499C25.1611 10.499 25.2313 10.5128 25.2946 10.5401C25.358 10.5674 25.4061 10.6024 25.4387 10.6448C25.4712 10.6873 25.4938 10.7354 25.5066 10.7894C25.5195 10.8432 25.5258 10.9204 25.5258 11.0208V11.8293Z" fill="#0B4A8E"/>
<path fill-rule="evenodd" clip-rule="evenodd" d="M26.5536 10.5317V10.8056H26.3162V11.3309C26.3162 11.4372 26.3184 11.4993 26.3229 11.5168C26.3272 11.5344 26.3374 11.5489 26.3531 11.5604C26.369 11.5718 26.3881 11.5776 26.4108 11.5776C26.4426 11.5776 26.4881 11.5665 26.5482 11.5446L26.5787 11.8107C26.4983 11.845 26.4072 11.8622 26.3056 11.8622C26.2431 11.8622 26.1871 11.8517 26.137 11.8308C26.087 11.8101 26.0503 11.783 26.0268 11.7499C26.0035 11.7169 25.9874 11.6722 25.9784 11.6158C25.9709 11.5758 25.9673 11.4948 25.9673 11.3731V10.8056H25.8091V10.5317H25.9673V10.2721L26.3162 10.0693V10.5317H26.5536Z" fill="#0B4A8E"/>
<path fill-rule="evenodd" clip-rule="evenodd" d="M26.751 11.463L27.0998 11.4097C27.1147 11.476 27.1447 11.5263 27.1899 11.5608C27.2353 11.5953 27.2986 11.6124 27.3801 11.6124C27.47 11.6124 27.5375 11.596 27.5828 11.5632C27.6133 11.5401 27.6286 11.5095 27.6286 11.4708C27.6286 11.4446 27.6202 11.4227 27.6036 11.4057C27.5861 11.3892 27.5472 11.374 27.4867 11.36C27.2048 11.2984 27.0261 11.2423 26.9508 11.1917C26.8463 11.1214 26.7941 11.0237 26.7941 10.8988C26.7941 10.7859 26.8391 10.6911 26.9295 10.6143C27.02 10.5375 27.16 10.499 27.3498 10.499C27.5305 10.499 27.6647 10.5278 27.7526 10.5853C27.8405 10.6429 27.901 10.7279 27.9343 10.8405L27.6069 10.901C27.5928 10.8505 27.5658 10.8117 27.5263 10.7848C27.4865 10.7579 27.43 10.7444 27.3567 10.7444C27.2642 10.7444 27.1978 10.7571 27.1578 10.7827C27.131 10.8007 27.1178 10.824 27.1178 10.8527C27.1178 10.8774 27.1293 10.8983 27.1525 10.9156C27.184 10.9385 27.2927 10.971 27.4786 11.0128C27.6645 11.0547 27.7943 11.106 27.8681 11.1666C27.9408 11.2281 27.9774 11.3138 27.9774 11.4237C27.9774 11.5433 27.927 11.6462 27.8265 11.7323C27.7258 11.8184 27.5771 11.8614 27.3801 11.8614C27.2013 11.8614 27.0598 11.8256 26.9555 11.7542C26.8512 11.6826 26.7831 11.5858 26.751 11.463Z" fill="#0B4A8E"/>
<path fill-rule="evenodd" clip-rule="evenodd" d="M30.1 11.1193L29.8465 10.4541L29.6016 11.1193H30.1ZM30.7721 11.828H30.3771L30.2204 11.4225H29.4898L29.3404 11.828H28.9521L29.6543 10.0352H30.0401L30.7721 11.828Z" fill="#0B4A8E"/>
<path fill-rule="evenodd" clip-rule="evenodd" d="M31.3723 11.8293H31.0234V10.531H31.3471V10.7156C31.4024 10.6284 31.452 10.5706 31.4964 10.5419C31.5404 10.5134 31.5905 10.499 31.6468 10.499C31.726 10.499 31.8023 10.5208 31.8758 10.5641L31.7697 10.8648C31.7109 10.8273 31.6562 10.8085 31.6058 10.8085C31.5568 10.8085 31.5155 10.8218 31.4815 10.8483C31.4476 10.8749 31.4209 10.9228 31.4015 10.9921C31.382 11.0615 31.3723 11.2068 31.3723 11.4279V11.8293Z" fill="#0B4A8E"/>
<path fill-rule="evenodd" clip-rule="evenodd" d="M32.8832 11.0726C32.8806 10.971 32.8545 10.894 32.8048 10.8411C32.755 10.7882 32.6944 10.7617 32.6232 10.7617C32.5468 10.7617 32.4838 10.7897 32.4341 10.8454C32.3842 10.9011 32.3597 10.9769 32.3606 11.0726H32.8832ZM32.8654 11.4194L33.2107 11.4763C33.166 11.6014 33.0955 11.6968 32.9992 11.7622C32.9028 11.8278 32.7822 11.8605 32.6375 11.8605C32.4084 11.8605 32.2387 11.7864 32.1288 11.6383C32.0419 11.5197 31.9985 11.37 31.9985 11.189C31.9985 10.9732 32.0556 10.8039 32.1698 10.6815C32.2837 10.5592 32.4281 10.498 32.6024 10.498C32.7983 10.498 32.9529 10.5622 33.0663 10.6905C33.1794 10.819 33.2336 11.0156 33.2287 11.2806H32.3546C32.3572 11.3828 32.3855 11.4623 32.4395 11.5192C32.4937 11.5759 32.5611 11.6044 32.6418 11.6044C32.6968 11.6044 32.743 11.5898 32.7805 11.5605C32.8179 11.5314 32.8462 11.4843 32.8654 11.4194Z" fill="#0B4A8E"/>
<path fill-rule="evenodd" clip-rule="evenodd" d="M34.3106 11.207C34.2661 11.2218 34.1957 11.2394 34.0995 11.2598C34.0032 11.2802 33.9404 11.3004 33.9108 11.3199C33.8655 11.3519 33.843 11.3925 33.843 11.4415C33.843 11.4899 33.861 11.5316 33.8972 11.5668C33.9334 11.602 33.9794 11.6197 34.0355 11.6197C34.098 11.6197 34.1575 11.5992 34.2143 11.5583C34.2562 11.5271 34.2838 11.4891 34.297 11.444C34.3059 11.4145 34.3106 11.3584 34.3106 11.2757V11.207ZM33.8425 10.9249L33.5296 10.868C33.565 10.7422 33.626 10.6492 33.7126 10.5888C33.7992 10.5283 33.9279 10.498 34.0986 10.498C34.2536 10.498 34.3692 10.5163 34.445 10.5525C34.5209 10.589 34.5744 10.6351 34.6052 10.691C34.6362 10.7469 34.6517 10.8497 34.6517 10.9991L34.6482 11.4009C34.6482 11.5152 34.6537 11.5997 34.6647 11.6539C34.6759 11.7082 34.6967 11.7663 34.7271 11.8284H34.3819C34.3727 11.8059 34.3618 11.7726 34.3485 11.7284C34.3428 11.7083 34.3386 11.6951 34.3363 11.6886C34.2769 11.7458 34.2136 11.7889 34.146 11.8176C34.0784 11.8461 34.0064 11.8605 33.9297 11.8605C33.7946 11.8605 33.688 11.824 33.6102 11.7514C33.5326 11.6787 33.4937 11.5867 33.4937 11.4756C33.4937 11.4022 33.5113 11.3366 33.5467 11.279C33.5822 11.2214 33.6319 11.1773 33.6958 11.1466C33.7597 11.1161 33.8519 11.0892 33.9723 11.0663C34.1347 11.0361 34.2473 11.008 34.31 10.9818V10.9471C34.31 10.8802 34.2934 10.8325 34.2603 10.8039C34.2271 10.7754 34.1645 10.7612 34.0725 10.7612C34.0103 10.7612 33.9619 10.7734 33.927 10.7975C33.8922 10.8218 33.8639 10.8642 33.8425 10.9249Z" fill="#0B4A8E"/>
<path fill-rule="evenodd" clip-rule="evenodd" d="M7.71291 2.99321H5.3376C5.3376 2.60767 5.29179 2.34893 5.20064 2.21723C5.0593 2.02236 4.66914 1.9248 4.03059 1.9248C3.41047 1.9248 2.99935 1.98092 2.79874 2.09327C2.59825 2.20596 2.49789 2.45104 2.49789 2.82838C2.49789 3.16998 2.58674 3.39491 2.7649 3.50271C2.89254 3.5792 3.06116 3.62416 3.27143 3.6376L3.75045 3.67106C4.77709 3.73845 5.41828 3.78592 5.67402 3.81289C6.48589 3.89383 7.07449 4.10737 7.43968 4.45341C7.72707 4.72342 7.89844 5.07629 7.95311 5.51203C7.98511 5.7727 8.00099 6.06763 8.00099 6.39534C8.00099 7.15072 7.92814 7.70393 7.7822 8.05452C7.51771 8.69777 6.9236 9.10403 5.99916 9.27466C5.61187 9.34683 5.01937 9.38291 4.22246 9.38291C2.8922 9.38291 1.96512 9.3046 1.44167 9.14717C0.799213 8.95434 0.375667 8.56368 0.170684 7.97541C0.0565112 7.64792 0 7.10257 0 6.33911H2.37531C2.37531 6.42426 2.37554 6.48937 2.37554 6.53421C2.37554 6.94161 2.49397 7.20365 2.73026 7.32032C2.89404 7.4008 3.09177 7.44303 3.32426 7.44804H4.19748C4.64312 7.44804 4.92752 7.4255 5.05021 7.3802C5.26854 7.29528 5.41184 7.15857 5.48032 6.96938C5.51669 6.85294 5.53476 6.70223 5.53476 6.51782C5.53476 6.10474 5.38226 5.8534 5.07783 5.76325C4.96401 5.72762 4.43434 5.67799 3.48896 5.61504C2.7298 5.56143 2.20244 5.50986 1.90711 5.45989C1.12942 5.31601 0.611149 5.02017 0.352533 4.571C0.125222 4.18933 0.0115094 3.61187 0.0115094 2.83942C0.0115094 2.25115 0.0729696 1.77944 0.195775 1.42464C0.318695 1.06972 0.516772 0.800282 0.790121 0.615993C1.19053 0.333126 1.70293 0.167049 2.32663 0.117419C2.84558 0.0726844 3.42129 0.0498047 4.05453 0.0498047C5.05148 0.0498047 5.76195 0.106492 6.1855 0.218841C7.21916 0.493512 7.73593 1.26289 7.73593 2.52719C7.73593 2.63089 7.72822 2.78592 7.71291 2.99321Z" fill="#0B4A8E"/>
<path fill-rule="evenodd" clip-rule="evenodd" d="M20.712 4.78609H22.3037C22.8084 4.76811 23.1154 4.72975 23.2259 4.66964C23.3768 4.58757 23.478 4.42332 23.5285 4.17688C23.5607 4.01285 23.5768 3.76903 23.5768 3.44507C23.5768 3.04826 23.5448 2.75412 23.4805 2.56198C23.3886 2.29288 23.1687 2.12897 22.8203 2.06944C22.7515 2.06044 22.5865 2.05566 22.3253 2.05566H20.712V4.78609ZM18.1587 9.38274V0H22.9156C23.5681 0 24.066 0.052703 24.4081 0.157995C25.1905 0.400452 25.7154 0.896863 25.9843 1.64711C26.1231 2.04085 26.1925 2.63367 26.1925 3.42524C26.1925 4.37697 26.1155 5.06097 25.9632 5.47736C25.6581 6.3008 25.03 6.77513 24.0817 6.89807C23.9701 6.91651 23.4956 6.93301 22.6581 6.94622L22.2342 6.96022H20.7119V9.38274H18.1587Z" fill="#0B4A8E"/>
<path fill-rule="evenodd" clip-rule="evenodd" d="M31.1352 5.9315L29.9389 1.86426L28.778 5.9315H31.1352ZM31.6425 7.76112H28.2287L27.7701 9.38274H25.1284L27.9788 0H31.8303L34.7158 9.38274H32.1296L31.6425 7.76112Z" fill="#0B4A8E"/>
<path fill-rule="evenodd" clip-rule="evenodd" d="M14.6342 1.31758C15.6873 1.31758 16.6271 1.79738 17.245 2.54888L17.7953 1.38178C16.9345 0.577124 15.763 0.0810547 14.4708 0.0810547C12.459 0.0810547 10.738 1.28275 10.0317 2.98382H8.95841L8.32471 4.32746H9.70538C9.69502 4.45211 9.68834 4.57686 9.68834 4.70412C9.68834 4.85814 9.6964 5.01033 9.71182 5.1607H9.01792L8.38433 6.50479H10.0646C10.7911 8.16283 12.4905 9.32685 14.4708 9.32685C15.4688 9.32685 16.3949 9.03113 17.1616 8.52595V6.87872C16.5441 7.57399 15.641 8.01338 14.6342 8.01338C13.4572 8.01338 12.4219 7.41315 11.8191 6.50479H15.3376L15.9712 5.1607H11.3014C11.2773 4.99894 11.2644 4.83366 11.2644 4.66531C11.2644 4.55148 11.2704 4.43879 11.2815 4.32746H16.3639L16.9975 2.98382H11.721C12.3045 1.98781 13.3905 1.31758 14.6342 1.31758Z" fill="#F6BC25"/>
</svg>
