<svg width="60" height="56" viewBox="0 0 60 56" fill="none" xmlns="http://www.w3.org/2000/svg">
<path d="M35.805 29.0538C32.6649 25.681 29.6798 22.192 27.1599 18.3152C25.3766 15.524 23.7872 12.3838 21.8876 10.4455C20.1818 8.66218 19.0963 6.76258 18.5536 4.82422C14.7544 5.9097 12.1182 6.84012 8.70669 10.4067C-15.0577 34.9077 19.3677 72.7446 45.807 47.8559C47.7454 46.0339 47.0476 43.8241 48.2106 41.847C44.5277 37.5826 39.6818 33.2019 35.805 29.0538Z" fill="#DE814B"/>
<path d="M45.8088 47.8557C21.3079 67.7433 -12.8073 36.1479 8.70852 10.3677C9.05743 9.98 9.4451 9.55356 9.83277 9.16589C14.7562 4.28121 20.2224 1.99394 25.5723 1.64503C26.115 1.60626 26.5415 2.0327 26.5803 2.53668C26.6578 5.7156 28.7125 7.8478 31.7363 8.27424C32.2015 8.35177 32.4729 8.77821 32.3566 9.24342C32.0464 10.2514 31.9301 11.3369 31.9301 12.4611C32.0464 18.1599 36.7761 22.8507 42.4748 22.8895C43.6379 22.8895 44.7621 22.7344 45.8476 22.3855C46.274 22.2305 46.7393 22.5018 46.8168 22.9671C47.5146 26.7662 50.9649 26.0684 52.5931 25.5257C53.0583 25.3706 53.5623 25.642 53.6786 26.1072C56.8575 37.6986 45.8088 47.8557 45.8088 47.8557Z" fill="#F6B059"/>
<path d="M29.1759 23.356C29.1759 26.2247 26.8499 28.1631 23.9811 28.1631C21.1123 28.1631 18.7863 26.2247 18.7863 23.356C18.7863 20.4872 21.1123 18.1611 23.9811 18.1611C26.8499 18.1611 29.1759 20.4484 29.1759 23.356Z" fill="#6D420D"/>
<path d="M45.4973 35.877C45.4973 38.0868 43.714 39.8701 41.5043 39.8701C39.2945 39.8701 37.7826 38.552 37.7826 36.3422C37.7826 34.1325 39.2945 31.8452 41.5043 31.8452C43.714 31.8452 45.4973 33.6673 45.4973 35.877Z" fill="#6D420D"/>
<path d="M15.6477 30.9923C15.6477 32.6981 14.4071 33.6673 12.7014 33.6673C10.9956 33.6673 9.52246 32.6981 9.52246 30.9923C9.52246 29.2865 10.8793 27.9297 12.5851 27.9297C14.2908 27.9297 15.6477 29.2865 15.6477 30.9923Z" fill="#6D420D"/>
<path d="M25.0276 41.381C25.0276 42.1563 24.4073 42.7766 23.632 42.7766C22.8566 42.7766 22.2363 42.1563 22.2363 41.381C22.2363 40.6056 22.8566 39.9854 23.632 39.9854C24.4073 39.9854 25.0276 40.6056 25.0276 41.381Z" fill="#6D420D"/>
<path d="M15.5684 14.5936C16.4248 14.5936 17.1191 13.8993 17.1191 13.0429C17.1191 12.1865 16.4248 11.4922 15.5684 11.4922C14.712 11.4922 14.0177 12.1865 14.0177 13.0429C14.0177 13.8993 14.712 14.5936 15.5684 14.5936Z" fill="#6D420D"/>
<path d="M43.5953 3.7384C43.7503 5.59923 42.1221 7.11116 39.9511 7.11116C37.7802 7.11116 36.1132 5.44416 36.2295 3.38949C36.3458 1.33483 37.974 -0.177097 39.8736 0.0167399C41.7732 0.210576 43.4402 1.8388 43.5953 3.7384Z" fill="#F6B059"/>
<path d="M40.8059 6.37467C41.6588 6.37467 42.4341 6.14206 43.0544 5.71562C42.3954 6.5685 41.3099 7.11125 39.9918 7.11125C37.8208 7.11125 36.1538 5.44425 36.2701 3.42835C36.3477 2.1878 36.968 1.14108 37.8596 0.55957C37.4332 1.14108 37.123 1.87766 37.0843 2.69177C37.0067 4.66891 38.6737 6.3359 40.8059 6.37467Z" fill="#DE814B"/>
<path d="M43.4041 14.2827C43.3265 15.5232 42.2798 16.57 41.078 16.6863C39.8762 16.7638 38.9071 15.7558 38.9458 14.4378C38.9458 13.1197 39.9925 12.0342 41.2719 12.0342C42.5512 12.0342 43.4816 13.0421 43.4041 14.2827Z" fill="#F6B059"/>
<path d="M41.5415 16.1432C42.0067 16.1044 42.4719 15.9105 42.8595 15.6392C42.4331 16.2207 41.7741 16.6084 41.0375 16.6859C39.8357 16.7634 38.9053 15.7555 38.9053 14.4374C38.9053 13.662 39.2929 12.9255 39.8745 12.499C39.6031 12.8867 39.4092 13.3907 39.4092 13.8946C39.3705 15.2127 40.3397 16.2207 41.5415 16.1432Z" fill="#DE814B"/>
<path d="M59.2572 15.2529C59.1409 16.726 57.9391 17.9666 56.5047 18.0441C55.1091 18.1217 53.9849 16.9586 53.9849 15.4079C54.0236 13.8573 55.2254 12.6167 56.7373 12.6167C58.2493 12.6167 59.3735 13.8185 59.2572 15.2529Z" fill="#F6B059"/>
<path d="M57.0862 17.4625C57.6678 17.4238 58.2105 17.1912 58.6369 16.8423C58.133 17.5401 57.3576 18.0053 56.5047 18.0441C55.1091 18.1216 53.9849 16.9586 53.9849 15.4079C53.9849 14.4775 54.4501 13.6633 55.1091 13.1206C54.7602 13.5858 54.5664 14.1673 54.5664 14.7876C54.5664 16.3771 55.6906 17.5401 57.0862 17.4625Z" fill="#DE814B"/>
</svg>
