<svg width="287" height="314" viewBox="0 0 287 314" fill="none" xmlns="http://www.w3.org/2000/svg">
<rect opacity="0.7" x="0.199219" width="286.086" height="313.771"/>
<rect x="0.199219" width="286.086" height="313.771"/>
<rect x="14.2856" y="10.6857" width="257.429" height="303.086"/>
<rect x="85.6846" y="50.9998" width="113.657" height="18.4571" fill="white"/>
<path d="M109.753 73.457L105.213 59.057H107.693L111.493 71.117L115.343 59.057H117.823L113.283 73.457H109.753ZM123.044 73.757C121.951 73.757 120.991 73.5204 120.164 73.047C119.337 72.5737 118.691 71.917 118.224 71.077C117.764 70.237 117.534 69.2704 117.534 68.177C117.534 66.997 117.761 65.9737 118.214 65.107C118.667 64.2337 119.297 63.557 120.104 63.077C120.911 62.597 121.844 62.357 122.904 62.357C124.024 62.357 124.974 62.6204 125.754 63.147C126.541 63.667 127.124 64.4037 127.504 65.357C127.884 66.3104 128.027 67.4337 127.934 68.727H125.544V67.847C125.537 66.6737 125.331 65.817 124.924 65.277C124.517 64.737 123.877 64.467 123.004 64.467C122.017 64.467 121.284 64.7737 120.804 65.387C120.324 65.9937 120.084 66.8837 120.084 68.057C120.084 69.1504 120.324 69.997 120.804 70.597C121.284 71.197 121.984 71.497 122.904 71.497C123.497 71.497 124.007 71.367 124.434 71.107C124.867 70.8404 125.201 70.457 125.434 69.957L127.814 70.677C127.401 71.6504 126.761 72.407 125.894 72.947C125.034 73.487 124.084 73.757 123.044 73.757ZM119.324 68.727V66.907H126.754V68.727H119.324ZM130.165 73.457V62.657H132.295V65.287L132.035 64.947C132.168 64.587 132.345 64.2604 132.565 63.967C132.792 63.667 133.062 63.4204 133.375 63.227C133.642 63.047 133.935 62.907 134.255 62.807C134.582 62.7004 134.915 62.637 135.255 62.617C135.595 62.5904 135.925 62.6037 136.245 62.657V64.907C135.925 64.8137 135.555 64.7837 135.135 64.817C134.722 64.8504 134.348 64.967 134.015 65.167C133.682 65.347 133.408 65.577 133.195 65.857C132.988 66.137 132.835 66.457 132.735 66.817C132.635 67.1704 132.585 67.5537 132.585 67.967V73.457H130.165ZM143.343 73.757C142.29 73.757 141.407 73.507 140.693 73.007C139.98 72.507 139.443 71.827 139.083 70.967C138.723 70.1004 138.543 69.1304 138.543 68.057C138.543 66.9704 138.723 65.997 139.083 65.137C139.443 64.277 139.97 63.6004 140.663 63.107C141.363 62.607 142.227 62.357 143.253 62.357C144.273 62.357 145.157 62.607 145.903 63.107C146.657 63.6004 147.24 64.277 147.653 65.137C148.067 65.9904 148.273 66.9637 148.273 68.057C148.273 69.137 148.07 70.107 147.663 70.967C147.257 71.827 146.683 72.507 145.943 73.007C145.203 73.507 144.337 73.757 143.343 73.757ZM138.133 73.457V59.057H140.563V65.877H140.263V73.457H138.133ZM142.973 71.597C143.6 71.597 144.117 71.4404 144.523 71.127C144.93 70.8137 145.23 70.3904 145.423 69.857C145.623 69.317 145.723 68.717 145.723 68.057C145.723 67.4037 145.623 66.8104 145.423 66.277C145.223 65.737 144.913 65.3104 144.493 64.997C144.073 64.677 143.54 64.517 142.893 64.517C142.28 64.517 141.78 64.667 141.393 64.967C141.007 65.2604 140.72 65.6737 140.533 66.207C140.353 66.7337 140.263 67.3504 140.263 68.057C140.263 68.757 140.353 69.3737 140.533 69.907C140.72 70.4404 141.01 70.857 141.403 71.157C141.803 71.4504 142.327 71.597 142.973 71.597ZM153.498 73.757C152.718 73.757 152.058 73.6104 151.518 73.317C150.978 73.017 150.568 72.6204 150.288 72.127C150.014 71.6337 149.878 71.0904 149.878 70.497C149.878 69.977 149.964 69.5104 150.138 69.097C150.311 68.677 150.578 68.317 150.938 68.017C151.298 67.7104 151.764 67.4604 152.338 67.267C152.771 67.127 153.278 67.0004 153.858 66.887C154.444 66.7737 155.078 66.6704 155.758 66.577C156.444 66.477 157.161 66.3704 157.908 66.257L157.048 66.747C157.054 66.0004 156.888 65.4504 156.548 65.097C156.208 64.7437 155.634 64.567 154.828 64.567C154.341 64.567 153.871 64.6804 153.418 64.907C152.964 65.1337 152.648 65.5237 152.468 66.077L150.268 65.387C150.534 64.4737 151.041 63.7404 151.788 63.187C152.541 62.6337 153.554 62.357 154.828 62.357C155.788 62.357 156.631 62.5137 157.358 62.827C158.091 63.1404 158.634 63.6537 158.988 64.367C159.181 64.747 159.298 65.137 159.338 65.537C159.378 65.9304 159.398 66.3604 159.398 66.827V73.457H157.288V71.117L157.638 71.497C157.151 72.277 156.581 72.8504 155.928 73.217C155.281 73.577 154.471 73.757 153.498 73.757ZM153.978 71.837C154.524 71.837 154.991 71.7404 155.378 71.547C155.764 71.3537 156.071 71.117 156.298 70.837C156.531 70.557 156.688 70.2937 156.768 70.047C156.894 69.7404 156.964 69.3904 156.978 68.997C156.998 68.597 157.008 68.2737 157.008 68.027L157.748 68.247C157.021 68.3604 156.398 68.4604 155.878 68.547C155.358 68.6337 154.911 68.717 154.538 68.797C154.164 68.8704 153.834 68.9537 153.548 69.047C153.268 69.147 153.031 69.2637 152.838 69.397C152.644 69.5304 152.494 69.6837 152.388 69.857C152.288 70.0304 152.238 70.2337 152.238 70.467C152.238 70.7337 152.304 70.9704 152.438 71.177C152.571 71.377 152.764 71.537 153.018 71.657C153.278 71.777 153.598 71.837 153.978 71.837ZM162.201 73.457V58.757H164.611V73.457H162.201ZM167.807 61.017V58.807H170.217V61.017H167.807ZM167.807 73.457V62.657H170.217V73.457H167.807ZM105.513 100.457V100.127L111.233 91.767H106.093V89.657H114.983V89.997L109.283 98.347H114.743V100.457H105.513ZM121.286 100.757C120.193 100.757 119.233 100.52 118.406 100.047C117.579 99.5737 116.933 98.917 116.466 98.077C116.006 97.237 115.776 96.2704 115.776 95.177C115.776 93.997 116.003 92.9737 116.456 92.107C116.909 91.2337 117.539 90.557 118.346 90.077C119.153 89.597 120.086 89.357 121.146 89.357C122.266 89.357 123.216 89.6204 123.996 90.147C124.783 90.667 125.366 91.4037 125.746 92.357C126.126 93.3104 126.269 94.4337 126.176 95.727H123.786V94.847C123.779 93.6737 123.573 92.817 123.166 92.277C122.759 91.737 122.119 91.467 121.246 91.467C120.259 91.467 119.526 91.7737 119.046 92.387C118.566 92.9937 118.326 93.8837 118.326 95.057C118.326 96.1504 118.566 96.997 119.046 97.597C119.526 98.197 120.226 98.497 121.146 98.497C121.739 98.497 122.249 98.367 122.676 98.107C123.109 97.8404 123.443 97.457 123.676 96.957L126.056 97.677C125.643 98.6504 125.003 99.407 124.136 99.947C123.276 100.487 122.326 100.757 121.286 100.757ZM117.566 95.727V93.907H124.996V95.727H117.566ZM128.607 100.457V86.057H131.017V100.457H128.607ZM140.343 100.457C139.629 100.59 138.929 100.647 138.243 100.627C137.563 100.614 136.953 100.49 136.413 100.257C135.873 100.017 135.463 99.6404 135.183 99.127C134.936 98.6604 134.806 98.1837 134.793 97.697C134.779 97.2104 134.773 96.6604 134.773 96.047V86.657H137.173V95.907C137.173 96.3404 137.176 96.7204 137.183 97.047C137.196 97.3737 137.266 97.6404 137.393 97.847C137.633 98.247 138.016 98.4704 138.543 98.517C139.069 98.5637 139.669 98.537 140.343 98.437V100.457ZM132.813 91.547V89.657H140.343V91.547H132.813Z" fill="black"/>
</svg>
