<svg width="201" height="59" viewBox="0 0 201 59" fill="none" xmlns="http://www.w3.org/2000/svg">
<path d="M192.926 58.1143H7.74078C3.66856 58.1143 0.333374 54.8499 0.333374 50.8643V7.36426C0.333374 3.37857 3.66856 0.114261 7.74078 0.114261H192.926C196.998 0.114261 200.333 3.37857 200.333 7.36426V50.8643C200.333 54.8499 196.998 58.1143 192.926 58.1143Z" fill="black"/>
<path d="M192.926 1.27607C196.356 1.27607 199.146 4.00751 199.146 7.36426V50.8643C199.146 54.221 196.356 56.9524 192.926 56.9524H7.74078C4.31115 56.9524 1.52041 54.221 1.52041 50.8643V7.36426C1.52041 4.00751 4.31115 1.27607 7.74078 1.27607H192.926ZM192.926 0.114261H7.74078C3.66856 0.114261 0.333374 3.37857 0.333374 7.36426V50.8643C0.333374 54.8499 3.66856 58.1143 7.74078 58.1143H192.926C196.998 58.1143 200.333 54.8499 200.333 50.8643V7.36426C200.333 3.37857 196.998 0.114261 192.926 0.114261Z" fill="#A6A6A6"/>
<path d="M15.7926 11.0458C15.3574 11.4917 15.1056 12.1859 15.1056 13.0849V45.1516C15.1056 46.0506 15.3574 46.7448 15.7926 47.1907L15.9 47.2886L34.2593 29.3267V28.9026L15.9 10.9407L15.7926 11.0458Z" fill="url(#paint0_linear_170_5895)"/>
<path d="M40.3722 35.3169L34.2592 29.3266V28.9025L40.3796 22.9121L40.5167 22.9901L47.7648 27.0265C49.8333 28.172 49.8333 30.057 47.7648 31.2098L40.5167 35.239L40.3722 35.3169Z" fill="url(#paint1_linear_170_5895)"/>
<path d="M40.5167 35.2388L34.2593 29.1144L15.7926 47.1905C16.4796 47.8973 17.6 47.9825 18.8741 47.2757L40.5167 35.2388Z" fill="url(#paint2_linear_170_5895)"/>
<path d="M40.5167 22.9898L18.8741 10.953C17.6 10.2534 16.4796 10.3386 15.7926 11.0454L34.2593 29.1143L40.5167 22.9898Z" fill="url(#paint3_linear_170_5895)"/>
<path d="M70.5815 14.968C70.5815 16.1788 70.2112 17.1485 69.4815 17.8717C68.6426 18.729 67.55 19.1603 66.2112 19.1603C64.9315 19.1603 63.8389 18.7217 62.9426 17.8572C62.0445 16.9799 61.5963 15.9033 61.5963 14.6146C61.5963 13.3259 62.0445 12.2493 62.9426 11.3793C63.8389 10.5075 64.9315 10.0688 66.2112 10.0688C66.8482 10.0688 67.4556 10.1975 68.0352 10.4368C68.613 10.6778 69.0834 11.0041 69.4241 11.4065L68.65 12.1713C68.0556 11.4844 67.2463 11.1455 66.2112 11.1455C65.2778 11.1455 64.4686 11.4645 63.7815 12.1079C63.1019 12.7532 62.7612 13.5887 62.7612 14.6146C62.7612 15.6405 63.1019 16.4833 63.7815 17.1285C64.4686 17.7647 65.2778 18.091 66.2112 18.091C67.2019 18.091 68.0352 17.7647 68.6926 17.1213C69.126 16.6953 69.3723 16.1081 69.4371 15.3577H66.2112V14.3101H70.5149C70.5667 14.5367 70.5815 14.756 70.5815 14.968Z" fill="white" stroke="white" stroke-width="0.16" stroke-miterlimit="10"/>
<path d="M77.4093 11.3356H73.3667V14.0906H77.0111V15.1383H73.3667V17.8932H77.4093V18.9608H72.2223V10.2681H77.4093V11.3356Z" fill="white" stroke="white" stroke-width="0.16" stroke-miterlimit="10"/>
<path d="M82.2278 18.9608H81.0834V11.3356H78.6037V10.2681H84.7093V11.3356H82.2278V18.9608Z" fill="white" stroke="white" stroke-width="0.16" stroke-miterlimit="10"/>
<path d="M89.1279 18.9608V10.2681H90.2705V18.9608H89.1279Z" fill="white" stroke="white" stroke-width="0.16" stroke-miterlimit="10"/>
<path d="M95.3352 18.9608H94.2V11.3356H91.7112V10.2681H97.8241V11.3356H95.3352V18.9608Z" fill="white" stroke="white" stroke-width="0.16" stroke-miterlimit="10"/>
<path d="M109.383 17.8427C108.507 18.7217 107.422 19.1603 106.128 19.1603C104.826 19.1603 103.741 18.7217 102.865 17.8427C101.991 16.9654 101.556 15.8888 101.556 14.6146C101.556 13.3404 101.991 12.2638 102.865 11.3865C103.741 10.5075 104.826 10.0688 106.128 10.0688C107.415 10.0688 108.5 10.5075 109.376 11.3938C110.257 12.2783 110.693 13.3477 110.693 14.6146C110.693 15.8888 110.257 16.9654 109.383 17.8427ZM103.711 17.114C104.37 17.7647 105.172 18.091 106.128 18.091C107.076 18.091 107.885 17.7647 108.537 17.114C109.194 16.4633 109.528 15.6278 109.528 14.6146C109.528 13.6014 109.194 12.7658 108.537 12.1152C107.885 11.4645 107.076 11.1382 106.128 11.1382C105.172 11.1382 104.37 11.4645 103.711 12.1152C103.054 12.7658 102.72 13.6014 102.72 14.6146C102.72 15.6278 103.054 16.4633 103.711 17.114Z" fill="white" stroke="white" stroke-width="0.16" stroke-miterlimit="10"/>
<path d="M112.298 18.9608V10.2681H113.687L118.006 17.0287H118.056L118.006 15.3576V10.2681H119.148V18.9608H117.956L113.433 11.8667H113.383L113.433 13.5451V18.9608H112.298Z" fill="white" stroke="white" stroke-width="0.16" stroke-miterlimit="10"/>
<path d="M101.274 31.6556C97.7945 31.6556 94.9519 34.2475 94.9519 37.8235C94.9519 41.3706 97.7945 43.9897 101.274 43.9897C104.761 43.9897 107.604 41.3706 107.604 37.8235C107.604 34.2475 104.761 31.6556 101.274 31.6556ZM101.274 41.5609C99.3649 41.5609 97.7223 40.0185 97.7223 37.8235C97.7223 35.5996 99.3649 34.0844 101.274 34.0844C103.183 34.0844 104.833 35.5996 104.833 37.8235C104.833 40.0185 103.183 41.5609 101.274 41.5609ZM87.4797 31.6556C83.9926 31.6556 81.1575 34.2475 81.1575 37.8235C81.1575 41.3706 83.9926 43.9897 87.4797 43.9897C90.9649 43.9897 93.8019 41.3706 93.8019 37.8235C93.8019 34.2475 90.9649 31.6556 87.4797 31.6556ZM87.4797 41.5609C85.5686 41.5609 83.9204 40.0185 83.9204 37.8235C83.9204 35.5996 85.5686 34.0844 87.4797 34.0844C89.3889 34.0844 91.0315 35.5996 91.0315 37.8235C91.0315 40.0185 89.3889 41.5609 87.4797 41.5609ZM71.0649 33.546V36.1669H77.4593C77.2723 37.6314 76.7723 38.708 76.0056 39.4584C75.0723 40.3647 73.6186 41.3706 71.0649 41.3706C67.1297 41.3706 64.0482 38.2622 64.0482 34.4106C64.0482 30.559 67.1297 27.4506 71.0649 27.4506C73.1927 27.4506 74.7408 28.2644 75.8834 29.3193L77.7704 27.4724C76.1723 25.9789 74.0464 24.8315 71.0649 24.8315C65.6686 24.8315 61.1334 29.129 61.1334 34.4106C61.1334 39.6922 65.6686 43.9897 71.0649 43.9897C73.9815 43.9897 76.1723 43.0544 77.8945 41.2999C79.6593 39.5726 80.2093 37.1439 80.2093 35.1827C80.2093 34.5737 80.1575 34.0137 80.0649 33.546H71.0649ZM138.187 35.5779C137.667 34.1985 136.061 31.6556 132.791 31.6556C129.55 31.6556 126.852 34.155 126.852 37.8235C126.852 41.2782 129.522 43.9897 133.102 43.9897C135.996 43.9897 137.667 42.2624 138.354 41.2564L136.206 39.8554C135.489 40.8812 134.513 41.5609 133.102 41.5609C131.7 41.5609 130.695 40.932 130.05 39.6922L138.478 36.2793L138.187 35.5779ZM129.595 37.6314C129.522 35.2534 131.482 34.0354 132.885 34.0354C133.985 34.0354 134.919 34.5737 135.23 35.344L129.595 37.6314ZM122.745 43.6145H125.515V25.4895H122.745V43.6145ZM118.207 33.0295H118.115C117.493 32.3081 116.306 31.6556 114.802 31.6556C111.646 31.6556 108.761 34.3671 108.761 37.8435C108.761 41.2999 111.646 43.9897 114.802 43.9897C116.306 43.9897 117.493 43.3317 118.115 42.5886H118.207V43.4731C118.207 45.8312 116.92 47.0981 114.845 47.0981C113.152 47.0981 112.102 45.9019 111.669 44.8959L109.259 45.8801C109.954 47.515 111.793 49.5269 114.845 49.5269C118.093 49.5269 120.833 47.6564 120.833 43.1052V32.0308H118.207V33.0295ZM115.039 41.5609C113.13 41.5609 111.532 39.9967 111.532 37.8435C111.532 35.6703 113.13 34.0844 115.039 34.0844C116.92 34.0844 118.404 35.6703 118.404 37.8435C118.404 39.9967 116.92 41.5609 115.039 41.5609ZM151.157 25.4895H144.532V43.6145H147.295V36.7469H151.157C154.226 36.7469 157.235 34.5737 157.235 31.1173C157.235 27.6627 154.219 25.4895 151.157 25.4895ZM151.23 34.2257H147.295V28.0107H151.23C153.293 28.0107 154.47 29.6872 154.47 31.1173C154.47 32.5202 153.293 34.2257 151.23 34.2257ZM168.309 31.6212C166.313 31.6212 164.237 32.4839 163.383 34.3961L165.835 35.402C166.363 34.3961 167.333 34.0699 168.359 34.0699C169.793 34.0699 171.246 34.9127 171.269 36.4007V36.591C170.769 36.3083 169.698 35.8896 168.382 35.8896C165.741 35.8896 163.05 37.3124 163.05 39.9677C163.05 42.3965 165.213 43.9607 167.645 43.9607C169.504 43.9607 170.53 43.1396 171.174 42.1844H171.269V43.5855H173.937V36.6327C173.937 33.4192 171.485 31.6212 168.309 31.6212ZM167.976 41.5537C167.072 41.5537 165.813 41.115 165.813 40.0185C165.813 38.6156 167.383 38.0773 168.743 38.0773C169.959 38.0773 170.53 38.3401 171.269 38.6863C171.052 40.3647 169.576 41.5537 167.976 41.5537ZM183.659 32.0181L180.483 39.8753H180.389L177.106 32.0181H174.126L179.059 42.9982L176.245 49.1082H179.132L186.733 32.0181H183.659ZM158.754 43.6145H161.524V25.4895H158.754V43.6145Z" fill="white"/>
<defs>
<linearGradient id="paint0_linear_170_5895" x1="32.6292" y1="45.4856" x2="8.30034" y2="20.6285" gradientUnits="userSpaceOnUse">
<stop stop-color="#00A0FF"/>
<stop offset="0.0066" stop-color="#00A1FF"/>
<stop offset="0.2601" stop-color="#00BEFF"/>
<stop offset="0.5122" stop-color="#00D2FF"/>
<stop offset="0.7604" stop-color="#00DFFF"/>
<stop offset="1" stop-color="#00E3FF"/>
</linearGradient>
<linearGradient id="paint1_linear_170_5895" x1="50.4584" y1="29.1125" x2="14.6111" y2="29.1125" gradientUnits="userSpaceOnUse">
<stop stop-color="#FFE000"/>
<stop offset="0.4087" stop-color="#FFBD00"/>
<stop offset="0.7754" stop-color="#FFA500"/>
<stop offset="1" stop-color="#FF9C00"/>
</linearGradient>
<linearGradient id="paint2_linear_170_5895" x1="37.1141" y1="25.7851" x2="4.12214" y2="-7.92315" gradientUnits="userSpaceOnUse">
<stop stop-color="#FF3A44"/>
<stop offset="1" stop-color="#C31162"/>
</linearGradient>
<linearGradient id="paint3_linear_170_5895" x1="11.1442" y1="57.8588" x2="25.8765" y2="42.8067" gradientUnits="userSpaceOnUse">
<stop stop-color="#32A071"/>
<stop offset="0.0685" stop-color="#2DA771"/>
<stop offset="0.4762" stop-color="#15CF74"/>
<stop offset="0.8009" stop-color="#06E775"/>
<stop offset="1" stop-color="#00F076"/>
</linearGradient>
</defs>
</svg>
