<svg width="201" height="59" viewBox="0 0 201 59" fill="none" xmlns="http://www.w3.org/2000/svg">
<path d="M199.222 51.4252C199.222 54.5161 196.676 57.0198 193.527 57.0198H7.14719C3.99949 57.0198 1.44449 54.5161 1.44449 51.4252V6.81037C1.44449 3.72094 3.99949 1.2085 7.14719 1.2085H193.526C196.676 1.2085 199.221 3.72094 199.221 6.81037L199.222 51.4252Z" fill="black"/>
<path d="M192.926 1.27607C196.356 1.27607 199.146 4.00751 199.146 7.36426V50.8643C199.146 54.221 196.356 56.9524 192.926 56.9524H7.74078C4.31115 56.9524 1.52041 54.221 1.52041 50.8643V7.36426C1.52041 4.00751 4.31115 1.27607 7.74078 1.27607H192.926ZM192.926 0.114262H7.74078C3.66856 0.114262 0.333374 3.37857 0.333374 7.36426V50.8643C0.333374 54.8499 3.66856 58.1143 7.74078 58.1143H192.926C196.998 58.1143 200.333 54.8499 200.333 50.8643V7.36426C200.333 3.37857 196.998 0.114262 192.926 0.114262Z" fill="#A6A6A6"/>
<path d="M44.9675 28.801C44.9245 24.1277 48.8771 21.8541 49.0578 21.7482C46.8193 18.5539 43.3497 18.1174 42.1304 18.0827C39.2164 17.7825 36.3897 19.7893 34.9052 19.7893C33.3912 19.7893 31.1052 18.1117 28.6415 18.1609C25.4712 18.2088 22.5052 20.0053 20.8786 22.7951C17.5215 28.4835 20.0252 36.8427 23.2415 41.4407C24.8504 43.6925 26.7304 46.2068 29.1912 46.1184C31.5986 46.0212 32.4978 44.6162 35.403 44.6162C38.2815 44.6162 39.126 46.1184 41.6356 46.0618C44.2193 46.0212 45.846 43.7998 47.3986 41.5277C49.2578 38.9467 50.0045 36.4048 50.0341 36.2743C49.9734 36.254 45.0164 34.4024 44.9675 28.801Z" fill="white"/>
<path d="M40.2267 15.058C41.5215 13.4731 42.4075 11.317 42.1615 9.12891C40.2875 9.21011 37.9438 10.3977 36.5941 11.9477C35.4001 13.3136 34.3334 15.5524 34.6089 17.6578C36.7141 17.8115 38.8756 16.6182 40.2267 15.058Z" fill="white"/>
<path d="M73.0001 14.6274C73.0001 16.334 72.4771 17.6187 71.4327 18.4815C70.4652 19.2775 69.0904 19.6763 67.3097 19.6763C66.4267 19.6763 65.6712 19.6386 65.0386 19.5632V10.2382C65.8638 10.1077 66.7526 10.041 67.7126 10.041C69.4089 10.041 70.6875 10.4021 71.5497 11.1242C72.5156 11.9405 73.0001 13.1078 73.0001 14.6274ZM71.363 14.6694C71.363 13.5631 71.0638 12.7148 70.4652 12.1232C69.8667 11.5331 68.9927 11.2373 67.8415 11.2373C67.3527 11.2373 66.9364 11.2692 66.5912 11.3359V18.4249C66.7823 18.4539 67.1319 18.467 67.6401 18.467C68.8282 18.467 69.7452 18.1436 70.3912 17.4969C71.0371 16.8502 71.363 15.9077 71.363 14.6694Z" fill="white"/>
<path d="M81.6801 16.118C81.6801 17.1692 81.3734 18.0305 80.7601 18.7062C80.1171 19.4008 79.2652 19.7473 78.2015 19.7473C77.1764 19.7473 76.3601 19.4153 75.7512 18.7483C75.1438 18.0827 74.8401 17.2432 74.8401 16.2311C74.8401 15.1726 75.1526 14.304 75.7808 13.6298C76.4089 12.9555 77.2534 12.6177 78.3171 12.6177C79.3423 12.6177 80.166 12.9497 80.7897 13.6153C81.3823 14.262 81.6801 15.0972 81.6801 16.118ZM80.0697 16.1673C80.0697 15.5365 79.9304 14.9957 79.6534 14.5447C79.3275 13.9995 78.8638 13.7269 78.2608 13.7269C77.6371 13.7269 77.163 13.9995 76.8371 14.5447C76.5586 14.9957 76.4208 15.5452 76.4208 16.1948C76.4208 16.8256 76.5601 17.3664 76.8371 17.8174C77.1734 18.3626 77.6415 18.6352 78.246 18.6352C78.8386 18.6352 79.3038 18.3582 79.6386 17.8029C79.926 17.3432 80.0697 16.798 80.0697 16.1673Z" fill="white"/>
<path d="M93.3186 12.7568L91.1334 19.5921H89.7112L88.806 16.624C88.5764 15.883 88.3897 15.1464 88.2445 14.4156H88.2163C88.0815 15.1667 87.8949 15.9019 87.6549 16.624L86.6934 19.5921H85.2549L83.2001 12.7568H84.7956L85.5852 16.0063C85.7763 16.7748 85.9334 17.507 86.0593 18.2001H86.0875C86.203 17.6288 86.3941 16.9009 86.6638 16.0208L87.6549 12.7583H88.9201L89.8697 15.9512C90.0993 16.7298 90.286 17.4795 90.4297 18.2016H90.4726C90.5778 17.4983 90.7363 16.7487 90.9467 15.9512L91.7941 12.7583H93.3186V12.7568Z" fill="white"/>
<path d="M101.367 19.5921H99.8149V15.6771C99.8149 14.4707 99.3467 13.8675 98.4075 13.8675C97.9467 13.8675 97.5749 14.0328 97.286 14.3649C97.0001 14.6969 96.8549 15.0884 96.8549 15.5365V19.5907H95.3023V14.71C95.3023 14.1097 95.283 13.4586 95.246 12.7539H96.6104L96.683 13.8226H96.726C96.9067 13.4905 97.1764 13.2165 97.5304 12.9975C97.9512 12.7423 98.4223 12.6133 98.9378 12.6133C99.5897 12.6133 100.132 12.8192 100.563 13.2324C101.099 13.7385 101.367 14.4939 101.367 15.4973V19.5921Z" fill="white"/>
<path d="M105.649 19.5922H104.098V9.62061H105.649V19.5922Z" fill="white"/>
<path d="M114.79 16.118C114.79 17.1692 114.483 18.0305 113.87 18.7062C113.227 19.4008 112.373 19.7473 111.311 19.7473C110.285 19.7473 109.468 19.4153 108.861 18.7483C108.253 18.0827 107.95 17.2432 107.95 16.2311C107.95 15.1726 108.262 14.304 108.89 13.6298C109.519 12.9555 110.363 12.6177 111.425 12.6177C112.452 12.6177 113.274 12.9497 113.899 13.6153C114.492 14.262 114.79 15.0972 114.79 16.118ZM113.178 16.1673C113.178 15.5365 113.039 14.9957 112.762 14.5447C112.437 13.9995 111.972 13.7269 111.37 13.7269C110.745 13.7269 110.271 13.9995 109.947 14.5447C109.668 14.9957 109.53 15.5452 109.53 16.1948C109.53 16.8256 109.67 17.3664 109.947 17.8174C110.283 18.3626 110.751 18.6352 111.356 18.6352C111.948 18.6352 112.412 18.3582 112.747 17.8029C113.036 17.3432 113.178 16.798 113.178 16.1673Z" fill="white"/>
<path d="M122.304 19.5922H120.91L120.794 18.8048H120.751C120.274 19.4327 119.594 19.7473 118.711 19.7473C118.052 19.7473 117.519 19.54 117.117 19.1282C116.753 18.7541 116.57 18.2886 116.57 17.7362C116.57 16.901 116.926 16.2644 117.642 15.8236C118.356 15.3828 119.36 15.1668 120.653 15.1769V15.0493C120.653 14.1489 120.17 13.6994 119.203 13.6994C118.514 13.6994 117.907 13.869 117.382 14.2054L117.067 13.2078C117.716 12.8149 118.517 12.6177 119.462 12.6177C121.287 12.6177 122.203 13.5602 122.203 15.4452V17.9624C122.203 18.6453 122.237 19.1891 122.304 19.5922ZM120.692 17.2432V16.189C118.979 16.16 118.123 16.6197 118.123 17.5665C118.123 17.9232 118.221 18.19 118.421 18.3684C118.621 18.5467 118.876 18.6352 119.179 18.6352C119.52 18.6352 119.839 18.5293 120.129 18.3191C120.421 18.1074 120.6 17.8391 120.667 17.51C120.683 17.436 120.692 17.3461 120.692 17.2432Z" fill="white"/>
<path d="M131.126 19.5923H129.748L129.676 18.4946H129.633C129.193 19.3298 128.443 19.7474 127.39 19.7474C126.548 19.7474 125.847 19.4241 125.292 18.7774C124.736 18.1307 124.459 17.2911 124.459 16.2602C124.459 15.1538 124.76 14.2577 125.365 13.5733C125.95 12.9353 126.667 12.6163 127.52 12.6163C128.458 12.6163 129.114 12.9252 129.487 13.5443H129.517V9.62061H131.071V17.7508C131.071 18.4163 131.089 19.0297 131.126 19.5923ZM129.517 16.7097V15.57C129.517 15.3728 129.502 15.2133 129.474 15.0915C129.387 14.7261 129.199 14.4187 128.913 14.1707C128.624 13.9228 128.276 13.7981 127.874 13.7981C127.295 13.7981 126.842 14.0228 126.508 14.4738C126.178 14.9247 126.01 15.5004 126.01 16.2036C126.01 16.8793 126.169 17.4274 126.487 17.8494C126.824 18.2989 127.277 18.5236 127.844 18.5236C128.354 18.5236 128.762 18.3366 129.071 17.961C129.37 17.6145 129.517 17.1969 129.517 16.7097Z" fill="white"/>
<path d="M144.405 16.118C144.405 17.1692 144.098 18.0305 143.485 18.7062C142.842 19.4008 141.991 19.7473 140.926 19.7473C139.902 19.7473 139.086 19.4153 138.476 18.7483C137.868 18.0827 137.565 17.2432 137.565 16.2311C137.565 15.1726 137.877 14.304 138.505 13.6298C139.133 12.9555 139.978 12.6177 141.043 12.6177C142.067 12.6177 142.892 12.9497 143.514 13.6153C144.107 14.262 144.405 15.0972 144.405 16.118ZM142.796 16.1673C142.796 15.5365 142.656 14.9957 142.379 14.5447C142.052 13.9995 141.59 13.7269 140.985 13.7269C140.363 13.7269 139.889 13.9995 139.562 14.5447C139.283 14.9957 139.145 15.5452 139.145 16.1948C139.145 16.8256 139.285 17.3664 139.562 17.8174C139.898 18.3626 140.366 18.6352 140.97 18.6352C141.563 18.6352 142.03 18.3582 142.365 17.8029C142.65 17.3432 142.796 16.798 142.796 16.1673Z" fill="white"/>
<path d="M152.753 19.5921H151.202V15.6771C151.202 14.4707 150.733 13.8675 149.793 13.8675C149.332 13.8675 148.96 14.0328 148.673 14.3649C148.385 14.6969 148.242 15.0884 148.242 15.5365V19.5907H146.688V14.71C146.688 14.1097 146.67 13.4586 146.633 12.7539H147.996L148.068 13.8226H148.111C148.293 13.4905 148.563 13.2165 148.916 12.9975C149.338 12.7423 149.808 12.6133 150.325 12.6133C150.975 12.6133 151.517 12.8192 151.948 13.2324C152.486 13.7385 152.753 14.4939 152.753 15.4973V19.5921Z" fill="white"/>
<path d="M163.202 13.8952H161.492V17.2157C161.492 18.0596 161.796 18.4816 162.397 18.4816C162.676 18.4816 162.907 18.4584 163.089 18.4105L163.129 19.5633C162.822 19.6764 162.419 19.7329 161.923 19.7329C161.31 19.7329 160.833 19.5502 160.487 19.1848C160.141 18.8194 159.969 18.2046 159.969 17.3419V13.8952H158.948V12.757H159.969V11.5042L161.49 11.0547V12.7555H163.2V13.8952H163.202Z" fill="white"/>
<path d="M171.421 19.5922H169.867V15.7063C169.867 14.481 169.399 13.8677 168.461 13.8677C167.741 13.8677 167.249 14.2229 166.979 14.9334C166.933 15.0828 166.907 15.2655 166.907 15.4801V19.5908H165.356V9.62061H166.907V13.7401H166.936C167.425 12.9904 168.126 12.6163 169.034 12.6163C169.677 12.6163 170.209 12.8222 170.631 13.2355C171.157 13.7502 171.421 14.5158 171.421 15.5279V19.5922Z" fill="white"/>
<path d="M179.899 15.851C179.899 16.1236 179.879 16.3527 179.842 16.5398H175.185C175.206 17.2155 175.428 17.7302 175.859 18.0869C176.253 18.4059 176.762 18.5654 177.384 18.5654C178.073 18.5654 178.701 18.4581 179.267 18.2421L179.51 19.2977C178.847 19.579 178.068 19.7196 177.166 19.7196C176.084 19.7196 175.233 19.4079 174.616 18.7844C173.997 18.1609 173.69 17.3242 173.69 16.2744C173.69 15.2435 173.976 14.3851 174.553 13.7007C175.154 12.9699 175.967 12.6045 176.994 12.6045C177.999 12.6045 178.762 12.9699 179.277 13.7007C179.693 14.2807 179.899 14.9984 179.899 15.851ZM178.418 15.4581C178.43 15.0071 178.327 14.6185 178.117 14.2908C177.847 13.8689 177.437 13.6572 176.882 13.6572C176.375 13.6572 175.962 13.8631 175.646 14.2763C175.388 14.6055 175.236 14.9984 175.185 15.4581H178.418Z" fill="white"/>
<path d="M79.8075 45.7951H76.443L74.6 40.1271H68.1941L66.4386 45.7951H63.163L69.5097 26.4985H73.4297L79.8075 45.7951ZM74.0445 37.7491L72.3778 32.7103C72.2015 32.1956 71.8712 30.9834 71.3837 29.0752H71.3245C71.1304 29.8959 70.8178 31.1081 70.3882 32.7103L68.7512 37.7491H74.0445Z" fill="white"/>
<path d="M96.1289 38.6669C96.1289 41.0333 95.4756 42.9038 94.1689 44.2769C92.9985 45.4993 91.5452 46.1097 89.8104 46.1097C87.9378 46.1097 86.5926 45.4514 85.7734 44.1348H85.7141V51.4646H82.5556V36.4614C82.5556 34.9737 82.5156 33.4469 82.4386 31.8809H85.2163L85.3926 34.0863H85.4519C86.5052 32.4246 88.1037 31.5952 90.2489 31.5952C91.926 31.5952 93.326 32.2434 94.446 33.5411C95.5689 34.8403 96.1289 36.5484 96.1289 38.6669ZM92.9111 38.78C92.9111 37.4257 92.6 36.3092 91.9748 35.4305C91.2919 34.5141 90.3748 34.0559 89.2252 34.0559C88.446 34.0559 87.7378 34.3111 87.1052 34.8142C86.4711 35.3217 86.0563 35.9844 85.8623 36.8051C85.7645 37.1879 85.7156 37.5011 85.7156 37.7476V40.0676C85.7156 41.0797 86.0326 41.9337 86.6667 42.6312C87.3008 43.3286 88.1245 43.6766 89.1378 43.6766C90.3274 43.6766 91.2534 43.2271 91.9156 42.331C92.5793 41.4335 92.9111 40.2503 92.9111 38.78Z" fill="white"/>
<path d="M112.48 38.6669C112.48 41.0333 111.827 42.9038 110.519 44.2769C109.35 45.4993 107.896 46.1097 106.162 46.1097C104.289 46.1097 102.944 45.4514 102.126 44.1348H102.067V51.4646H98.9082V36.4614C98.9082 34.9737 98.8682 33.4469 98.7912 31.8809H101.569L101.745 34.0863H101.804C102.856 32.4246 104.455 31.5952 106.602 31.5952C108.277 31.5952 109.677 32.2434 110.8 33.5411C111.919 34.8403 112.48 36.5484 112.48 38.6669ZM109.262 38.78C109.262 37.4257 108.95 36.3092 108.324 35.4305C107.642 34.5141 106.727 34.0559 105.576 34.0559C104.796 34.0559 104.089 34.3111 103.455 34.8142C102.821 35.3217 102.407 35.9844 102.213 36.8051C102.117 37.1879 102.067 37.5011 102.067 37.7476V40.0676C102.067 41.0797 102.384 41.9337 103.015 42.6312C103.649 43.3272 104.473 43.6766 105.489 43.6766C106.679 43.6766 107.605 43.2271 108.267 42.331C108.93 41.4335 109.262 40.2503 109.262 38.78Z" fill="white"/>
<path d="M130.762 40.3838C130.762 42.0252 130.179 43.3606 129.01 44.3916C127.726 45.5182 125.938 46.0808 123.64 46.0808C121.519 46.0808 119.818 45.6806 118.53 44.8788L119.262 42.3021C120.649 43.1228 122.17 43.5346 123.828 43.5346C125.018 43.5346 125.944 43.2707 126.609 42.7458C127.271 42.2209 127.602 41.5162 127.602 40.6375C127.602 39.8545 127.329 39.1948 126.782 38.6597C126.239 38.1247 125.33 37.6273 124.062 37.1677C120.61 35.9076 118.886 34.0618 118.886 31.6345C118.886 30.0482 119.49 28.7475 120.701 27.7354C121.907 26.7219 123.516 26.2158 125.527 26.2158C127.322 26.2158 128.812 26.5218 130.002 27.1322L129.212 29.6523C128.101 29.0607 126.844 28.7649 125.439 28.7649C124.327 28.7649 123.459 29.0332 122.837 29.5668C122.311 30.0438 122.047 30.6253 122.047 31.314C122.047 32.0767 122.348 32.7075 122.953 33.2034C123.479 33.6616 124.434 34.1575 125.821 34.6925C127.517 35.361 128.763 36.1425 129.564 37.0386C130.363 37.9318 130.762 39.0498 130.762 40.3838Z" fill="white"/>
<path d="M141.204 34.201H137.723V40.9566C137.723 42.6748 138.336 43.5332 139.566 43.5332C140.13 43.5332 140.599 43.4854 140.969 43.3897L141.056 45.7372C140.434 45.9649 139.615 46.0794 138.6 46.0794C137.353 46.0794 136.378 45.7068 135.674 44.9629C134.973 44.2176 134.621 42.9677 134.621 41.2118V34.1981H132.547V31.8781H134.621V29.3305L137.723 28.4141V31.8781H141.204V34.201Z" fill="white"/>
<path d="M156.913 38.7234C156.913 40.8622 156.287 42.6181 155.04 43.9913C153.732 45.405 151.996 46.1097 149.831 46.1097C147.745 46.1097 146.084 45.4326 144.846 44.0783C143.607 42.724 142.988 41.0144 142.988 38.954C142.988 36.7978 143.625 35.0317 144.904 33.6586C146.179 32.284 147.901 31.5967 150.065 31.5967C152.151 31.5967 153.83 32.2738 155.096 33.6296C156.308 34.9447 156.913 36.6427 156.913 38.7234ZM153.636 38.8235C153.636 37.5402 153.356 36.4397 152.788 35.5218C152.126 34.4111 151.179 33.8572 149.953 33.8572C148.683 33.8572 147.719 34.4126 147.056 35.5218C146.489 36.4411 146.209 37.5591 146.209 38.8815C146.209 40.1647 146.489 41.2653 147.056 42.1817C147.739 43.2924 148.693 43.8463 149.924 43.8463C151.13 43.8463 152.077 43.2808 152.76 42.1527C153.342 41.2174 153.636 40.1053 153.636 38.8235Z" fill="white"/>
<path d="M167.179 34.5996C166.867 34.5431 166.533 34.5141 166.184 34.5141C165.073 34.5141 164.213 34.9244 163.609 35.7466C163.083 36.4716 162.819 37.388 162.819 38.4943V45.7951H159.662L159.692 36.2628C159.692 34.6591 159.652 33.1989 159.573 31.8823H162.325L162.44 34.5445H162.528C162.861 33.6296 163.387 32.893 164.107 32.3405C164.81 31.8432 165.57 31.5952 166.39 31.5952C166.682 31.5952 166.945 31.6155 167.179 31.6518V34.5996Z" fill="white"/>
<path d="M181.305 38.1799C181.305 38.7338 181.268 39.2007 181.19 39.582H171.714C171.751 40.9566 172.209 42.0079 173.089 42.7329C173.887 43.381 174.92 43.7058 176.188 43.7058C177.591 43.7058 178.871 43.4869 180.022 43.0475L180.517 45.1935C179.172 45.7677 177.584 46.0534 175.751 46.0534C173.547 46.0534 171.816 45.4183 170.557 44.1495C169.301 42.8808 168.671 41.177 168.671 39.0397C168.671 36.9416 169.256 35.1943 170.428 33.8009C171.655 32.3132 173.313 31.5693 175.399 31.5693C177.447 31.5693 178.999 32.3132 180.052 33.8009C180.886 34.9826 181.305 36.4442 181.305 38.1799ZM178.293 37.378C178.314 36.4616 178.108 35.6699 177.68 35.0015C177.133 34.1416 176.293 33.7124 175.163 33.7124C174.13 33.7124 173.29 34.1315 172.649 34.9725C172.123 35.6409 171.81 36.4428 171.714 37.3766H178.293V37.378Z" fill="white"/>
</svg>
