<svg width="100" height="106" viewBox="0 0 100 106" fill="none" xmlns="http://www.w3.org/2000/svg">
<path d="M32.5702 3.16826L56.3082 0.678696C58.0163 0.516437 59.4037 1.81875 59.4037 3.5877V25.7324C59.4037 27.5013 58.0158 29.0391 56.3082 29.1669L55.0106 29.2639V34.7362C55.0106 35.5565 54.0557 36.0242 53.2664 35.1715L48.3502 29.7618L32.5697 30.8393C31.0735 30.9512 29.863 29.7035 29.863 28.0533V6.41398C29.8636 4.76329 31.074 3.31037 32.5702 3.16826Z" fill="url(#paint0_linear_173_17797)"/>
<path d="M29.1084 5.85755V27.5102C29.1084 29.1614 30.313 30.4102 31.8103 30.2993L47.561 29.1975L54.2151 28.7314L55.5785 28.6359C57.2893 28.5092 58.6851 26.9704 58.6851 25.1998V3.04294C58.6851 1.2724 57.2888 -0.0309793 55.5774 0.13075L52.1086 0.492917L31.8129 2.6113C30.3157 2.75235 29.1084 4.20632 29.1084 5.85755Z" fill="url(#paint1_linear_173_17797)"/>
<path d="M29.8623 5.24087V27.9959C29.8623 28.8767 30.5029 29.5421 31.3006 29.4833L46.7991 28.3591L47.5586 29.1969L52.7388 34.9062C53.2641 35.4837 54.2143 35.0324 54.2143 34.2111V27.8209L56.1253 27.6825C57.0367 27.6141 57.8233 26.7917 57.8233 25.8494V2.53813C57.8233 1.59586 57.0643 0.901753 56.1529 0.987655L51.5028 1.46065L31.3081 3.51116C30.5103 3.58646 29.8623 4.36011 29.8623 5.24087Z" fill="url(#paint2_linear_173_17797)"/>
<g opacity="0.8">
<g opacity="0.3">
<path opacity="0.3" d="M32.9816 17.8963L54.7708 16.1571C55.1288 16.1285 55.4507 15.8008 55.4895 15.4243L55.6557 13.8091C55.695 13.4268 55.4332 13.141 55.0709 13.1723L33.0305 15.0563C32.6985 15.0849 32.4255 15.4025 32.4196 15.7652L32.3968 17.2977C32.3915 17.6545 32.6528 17.9229 32.9816 17.8963Z" fill="url(#paint3_linear_173_17797)"/>
<path opacity="0.3" d="M33.7561 18.406L35.3086 25.6249C35.4047 26.0703 35.7834 26.3625 36.2291 26.3349L50.225 25.4584C50.6961 25.4287 51.1375 25.0756 51.2947 24.5999L53.8633 16.8242L33.7561 18.406ZM48.3703 18.556C48.3942 18.2474 48.6518 17.9786 48.946 17.9558L49.4543 17.9166C49.7496 17.8938 49.9684 18.1265 49.9424 18.4362L49.4548 24.3221C49.4304 24.6169 49.1776 24.8704 48.8908 24.8884L48.3968 24.9202C48.1105 24.9382 47.8976 24.7155 47.9199 24.4218L48.3703 18.556ZM45.5542 18.7703C45.5744 18.4638 45.8267 18.1965 46.1177 18.1743L46.6207 18.1356C46.9128 18.1127 47.1317 18.3445 47.1093 18.652L46.6887 24.5018C46.6674 24.7951 46.4199 25.0469 46.1363 25.065L45.6471 25.0963C45.364 25.1143 45.1505 24.8926 45.1696 24.6005L45.5542 18.7703ZM42.7689 18.9829C42.7859 18.6785 43.0324 18.4129 43.3202 18.3906L43.8174 18.3524C44.1063 18.3302 44.3251 18.5603 44.3066 18.8657L43.9512 24.6795C43.9332 24.9706 43.691 25.2209 43.41 25.2389L42.9261 25.2697C42.6462 25.2877 42.4322 25.0671 42.4481 24.777L42.7689 18.9829ZM40.0134 19.1924C40.0267 18.8896 40.2683 18.626 40.5536 18.6043L41.0454 18.5661C41.3311 18.5438 41.5505 18.7729 41.5351 19.0768L41.2435 24.855C41.2292 25.1445 40.9912 25.3932 40.7134 25.4112L40.2349 25.442C39.9576 25.4595 39.7436 25.2405 39.7563 24.952L40.0134 19.1924ZM37.2876 19.4002C37.2977 19.0996 37.5346 18.8376 37.8161 18.8159L38.3026 18.7782C38.5852 18.7565 38.8051 18.984 38.7928 19.2857L38.5639 25.0289C38.5522 25.3169 38.3201 25.564 38.045 25.5815L37.5712 25.6117C37.2972 25.6292 37.0826 25.4112 37.0927 25.1244L37.2876 19.4002Z" fill="url(#paint4_linear_173_17797)"/>
<g opacity="0.3">
<g opacity="0.3">
<path opacity="0.3" d="M51.7886 12.6341C52.0983 12.9189 52.6145 12.8367 52.9428 12.4501C53.2726 12.062 53.2885 11.5137 52.9773 11.2263C52.6655 10.9389 52.1461 11.0232 51.8178 11.414C51.4907 11.8038 51.4784 12.3494 51.7886 12.6341Z" fill="url(#paint5_linear_173_17797)"/>
<path opacity="0.3" d="M45.1571 5.28433C45.2803 5.12685 45.5156 5.12366 45.6819 5.27691L52.3142 11.3887C52.4767 11.5387 52.5054 11.7821 52.3784 11.9327C52.2515 12.0833 52.0173 12.0838 51.8547 11.9343L45.2352 5.84588C45.069 5.69316 45.0339 5.44182 45.1571 5.28433Z" fill="url(#paint6_linear_173_17797)"/>
</g>
<g opacity="0.3">
<path opacity="0.3" d="M36.169 13.9945C35.8429 14.3249 35.3638 14.3302 35.0972 14.0072C34.83 13.6838 34.8757 13.1519 35.2007 12.8189C35.5268 12.4843 36.0096 12.4774 36.2779 12.8041C36.545 13.1302 36.4956 13.6631 36.169 13.9945Z" fill="url(#paint7_linear_173_17797)"/>
<path opacity="0.3" d="M43.4863 5.45579C43.3806 5.32216 43.1454 5.36723 42.9605 5.556L35.8046 12.864C35.6335 13.0385 35.5793 13.2814 35.6829 13.407C35.7865 13.5327 36.0085 13.494 36.1795 13.3201L43.3424 6.03801C43.5272 5.84977 43.592 5.58941 43.4863 5.45579Z" fill="url(#paint8_linear_173_17797)"/>
</g>
</g>
</g>
<g opacity="0.8">
<path opacity="0.8" d="M32.6623 17.5974L54.4824 15.8635C54.8409 15.8349 55.1628 15.5066 55.2015 15.1296L55.3672 13.5118C55.4065 13.1289 55.1436 12.8426 54.7809 12.8734L32.7091 14.7521C32.3766 14.7802 32.1031 15.0983 32.0983 15.4621L32.0765 16.9972C32.0712 17.3551 32.3336 17.6234 32.6623 17.5974Z" fill="white"/>
<path opacity="0.8" d="M33.4358 18.1068L34.9963 25.3396C35.0929 25.786 35.4727 26.0787 35.9188 26.0512L49.9344 25.1784C50.4066 25.1492 50.8479 24.795 51.0046 24.3183L53.5716 16.5293L33.4358 18.1068ZM48.0722 18.2627C48.0956 17.9536 48.3537 17.6847 48.648 17.6619L49.1568 17.6227C49.4521 17.5999 49.6715 17.8332 49.646 18.1434L49.1621 24.0394C49.1377 24.3347 48.8849 24.5887 48.5975 24.6067L48.1025 24.638C47.8162 24.6561 47.6022 24.4328 47.6245 24.1385L48.0722 18.2627ZM45.2524 18.4764C45.2726 18.1694 45.5249 17.9021 45.8165 17.8793L46.32 17.8406C46.6121 17.8184 46.832 18.0501 46.8097 18.3582L46.3928 24.2181C46.3721 24.5118 46.124 24.7637 45.8399 24.7817L45.3502 24.813C45.0666 24.831 44.8525 24.6089 44.8716 24.3162L45.2524 18.4764ZM42.4629 18.688C42.4794 18.3831 42.7264 18.1169 43.0148 18.0952L43.513 18.057C43.8019 18.0347 44.0218 18.2654 44.0032 18.5713L43.6516 24.3952C43.6341 24.6868 43.3914 24.9376 43.1104 24.9556L42.626 24.9864C42.3456 25.0044 42.131 24.7833 42.1469 24.4927L42.4629 18.688ZM39.7032 18.8974C39.7164 18.5941 39.9581 18.3301 40.2433 18.3083L40.7362 18.2707C41.0225 18.2484 41.2424 18.478 41.227 18.7824L40.9391 24.5712C40.9248 24.8613 40.6874 25.1105 40.409 25.128L39.9294 25.1582C39.6522 25.1757 39.4376 24.9562 39.4498 24.6672L39.7032 18.8974ZM36.9737 19.1042C36.9838 18.803 37.2206 18.5406 37.5027 18.5188L37.9903 18.4812C38.2734 18.4594 38.4932 18.6875 38.4816 18.9897L38.2564 24.7435C38.2452 25.032 38.0126 25.2796 37.7369 25.2971L37.2626 25.3274C36.988 25.3449 36.7734 25.1264 36.783 24.839L36.9737 19.1042Z" fill="white"/>
<g opacity="0.8">
<g opacity="0.8">
<path opacity="0.8" d="M51.4942 12.3332C51.8049 12.6184 52.3217 12.5368 52.6499 12.1492C52.9798 11.7605 52.9952 11.2111 52.6834 10.9232C52.3711 10.6347 51.8506 10.7196 51.5223 11.1109C51.1951 11.5012 51.1835 12.0479 51.4942 12.3332Z" fill="white"/>
<path opacity="0.8" d="M44.8495 4.96715C44.9728 4.80967 45.2086 4.80595 45.3754 4.95973L52.022 11.0853C52.185 11.2354 52.2137 11.4798 52.0868 11.6304C51.9598 11.781 51.7251 11.7815 51.5626 11.632L44.9287 5.52976C44.7619 5.37651 44.7269 5.12464 44.8495 4.96715Z" fill="white"/>
</g>
<g opacity="0.8">
<path opacity="0.8" d="M35.8523 13.6905C35.5262 14.0213 35.0461 14.0261 34.7789 13.7027C34.5112 13.3787 34.5564 12.8458 34.882 12.5122C35.2086 12.1776 35.6919 12.1707 35.9607 12.4979C36.2284 12.824 36.1795 13.3585 35.8523 13.6905Z" fill="white"/>
<path opacity="0.8" d="M43.1766 5.13855C43.0709 5.00492 42.8351 5.04947 42.6498 5.23877L35.4885 12.5574C35.3175 12.7319 35.2633 12.9758 35.3674 13.1015C35.471 13.2271 35.6935 13.1884 35.8645 13.0145L43.0327 5.72183C43.2181 5.53359 43.2823 5.27217 43.1766 5.13855Z" fill="white"/>
</g>
</g>
</g>
</g>
<path opacity="0.2" d="M29.1084 24.1998V27.5102C29.1084 29.1614 30.313 30.4102 31.8103 30.2993L47.561 29.1975L52.7396 34.9068C53.2649 35.4842 54.2135 35.033 54.2135 34.2116V28.7314L55.578 28.6359C57.2888 28.5092 58.6856 26.9704 58.6856 25.1998V3.04293C58.6856 1.2724 57.2893 -0.0309793 55.578 0.13075L52.1091 0.492917C51.8956 0.798877 51.6917 1.12234 51.5042 1.46117C50.8642 2.61077 50.3872 3.94597 50.2518 5.46675C49.7111 11.5584 43.3353 7.80838 39.79 16.7687C37.8806 21.5941 33.2422 22.3587 29.8685 23.8371C29.6034 23.9521 29.4096 24.0688 29.1084 24.1998Z" fill="url(#paint9_linear_173_17797)"/>
<path d="M78.655 14.2004C79.0931 14.308 79.842 14.43 80.7174 14.2375C81.6548 14.0312 83.0044 13.4055 83.0071 12.6669C83.0081 12.3127 82.699 12.1907 82.2709 11.6753C81.3797 10.6031 81.598 9.78226 81.1316 8.96831C80.1076 7.18133 76.5751 6.8144 76.0211 7.6888C75.7906 8.05255 76.0758 8.63266 76.6021 9.7006C77.1412 10.7956 77.5242 11.0448 77.9794 11.9627C78.2157 12.441 78.5121 13.1802 78.655 14.2004Z" fill="url(#paint10_linear_173_17797)"/>
<path d="M97.4912 74.6126L97.6803 74.2854C97.6803 74.2854 98.0192 74.0823 98.1796 74.5023C98.34 74.9217 99.2503 77.1133 99.2987 78.1075C99.0596 78.7025 98.384 78.1987 98.2449 77.7941C98.1057 77.3895 97.6224 75.89 97.6224 75.89L97.4912 74.6126Z" fill="url(#paint11_linear_173_17797)"/>
<path d="M95.3432 76.1778C95.6252 76.1736 95.9062 76.1757 96.1904 76.163C96.7082 76.1396 97.2287 76.1025 97.7514 76.0505C97.6642 75.5081 97.5766 74.9651 97.4895 74.4226C97.2229 74.3208 96.9626 74.219 96.7077 74.1167C96.5776 74.0642 96.4533 74.0117 96.3263 73.9592C96.2063 73.9099 96.0841 73.8606 95.9667 73.8107C95.7947 73.7375 95.6279 73.6644 95.4611 73.5912C95.3947 73.562 95.3262 73.5334 95.2609 73.5037C95.0654 73.4162 94.8753 73.3287 94.6878 73.2412C94.6559 73.2264 94.623 73.2115 94.5916 73.1972C94.3882 73.1018 94.1906 73.0058 93.9962 72.9098C93.9824 72.9029 93.9676 72.896 93.9532 72.8891C93.7487 72.7878 93.5496 72.686 93.3552 72.5842C93.3525 72.5826 93.3499 72.5816 93.3472 72.58C92.9515 72.3727 92.576 72.1653 92.2196 71.9569C87.8022 69.3793 86.3415 66.763 85.8911 64.7051C84.6249 58.9157 90.8254 55.1981 89.2235 48.9204C88.0167 44.1894 82.9226 40.1387 79.7858 41.0831C76.2431 42.15 75.6881 49.0052 75.3465 53.2234C74.962 57.9735 74.5334 63.2649 77.5762 68.0049C80.4576 72.4936 85.6628 75.2551 91.6529 75.9906C91.6529 75.9911 91.6529 75.9911 91.6529 75.9917C91.7952 76.0092 91.9413 76.0171 92.0847 76.032C92.4321 76.0686 92.7789 76.1073 93.131 76.1301C93.292 76.1407 93.4561 76.1412 93.6175 76.1492C93.9607 76.1656 94.3032 76.1847 94.6501 76.1879C94.879 76.1916 95.1116 76.181 95.3432 76.1778Z" fill="url(#paint12_linear_173_17797)"/>
<path opacity="0.25" d="M95.3432 76.1778C95.6252 76.1736 95.9062 76.1757 96.1904 76.163C96.7082 76.1396 97.2287 76.1025 97.7514 76.0505C97.6642 75.5081 97.5766 74.9651 97.4895 74.4226C97.2229 74.3208 96.9626 74.219 96.7077 74.1167C96.5776 74.0642 96.4533 74.0117 96.3263 73.9592C96.2063 73.9099 96.0841 73.8606 95.9667 73.8107C95.7947 73.7375 95.6279 73.6644 95.4611 73.5912C95.3947 73.562 95.3262 73.5334 95.2609 73.5037C95.0654 73.4162 94.8753 73.3287 94.6878 73.2412C94.6559 73.2264 94.623 73.2115 94.5916 73.1972C94.3882 73.1018 94.1906 73.0058 93.9962 72.9098C93.9824 72.9029 93.9676 72.896 93.9532 72.8891C93.7487 72.7878 93.5496 72.686 93.3552 72.5842C93.3525 72.5826 93.3499 72.5816 93.3472 72.58C92.9515 72.3727 92.576 72.1653 92.2196 71.9569C87.8022 69.3793 86.3415 66.763 85.8911 64.7051C84.6249 58.9157 90.8254 55.1981 89.2235 48.9204C88.0167 44.1894 82.9226 40.1387 79.7858 41.0831C76.2431 42.15 75.6881 49.0052 75.3465 53.2234C74.962 57.9735 74.5334 63.2649 77.5762 68.0049C80.4576 72.4936 85.6628 75.2551 91.6529 75.9906C91.6529 75.9911 91.6529 75.9911 91.6529 75.9917C91.7952 76.0092 91.9413 76.0171 92.0847 76.032C92.4321 76.0686 92.7789 76.1073 93.131 76.1301C93.292 76.1407 93.4561 76.1412 93.6175 76.1492C93.9607 76.1656 94.3032 76.1847 94.6501 76.1879C94.879 76.1916 95.1116 76.181 95.3432 76.1778Z" fill="url(#paint13_linear_173_17797)"/>
<path d="M66.4918 42.5273C65.8146 41.4546 68.9722 39.8717 69.9988 35.47C70.8656 31.7535 69.097 30.8117 70.062 25.8363C70.5995 23.0652 71.5168 21.4558 72.586 20.2877C73.4671 19.3247 74.6117 18.0738 75.6432 18.2371C78.8783 18.7499 82.7105 33.4407 76.246 39.8468C72.9243 43.1381 67.3086 43.8211 66.4918 42.5273Z" fill="url(#paint14_linear_173_17797)"/>
<path d="M83.4754 89.0418C83.3282 88.703 82.5183 89.5546 81.764 90.4534C81.8612 91.7472 81.9584 93.0416 82.0556 94.3354C81.7879 94.1652 81.4501 93.9796 81.0693 93.8916C80.6115 93.7861 79.8201 93.951 79.7596 94.1694C79.3846 95.5179 82.753 95.8127 83.1222 95.389C83.4913 94.9653 83.4068 94.4696 83.4068 94.4696C83.0648 92.5262 83.1099 91.2101 83.2725 90.3012C83.3856 89.6628 83.5561 89.2285 83.4754 89.0418Z" fill="url(#paint15_linear_173_17797)"/>
<path d="M92.1043 45.6425C90.1822 42.813 88.3083 39.9507 86.4297 37.0926C86.0606 36.531 85.8465 35.8793 85.744 35.1953C84.9983 35.7866 84.2839 36.4939 83.6253 37.3217C83.0963 39.9692 82.2794 43.9494 81.2017 48.7737C78.4632 61.0322 77.3106 64.1019 76.7296 67.958C75.8357 73.8905 76.1528 82.6318 82.0547 94.3378C82.5051 94.3824 82.955 94.4269 83.4054 94.4715C84.354 84.4586 85.4423 75.4219 85.9915 70.7773C86.1779 69.2014 86.7277 64.4747 89.2628 60.6669C89.3037 60.6054 93.0545 55.4846 94.3489 53.4384C94.7797 52.757 95.3188 51.8736 95.9317 50.6916C94.4785 49.1671 93.3137 47.422 92.1043 45.6425Z" fill="url(#paint16_linear_173_17797)"/>
<path opacity="0.25" d="M92.1033 45.6415C90.1811 42.812 88.3072 39.9502 86.4286 37.0916C86.0595 36.5301 85.8454 35.8784 85.7429 35.1943C84.9972 35.7856 84.2828 36.4929 83.6242 37.3207C82.7856 40.5579 82.188 43.3269 81.77 45.4442C80.6095 51.3169 80.6754 52.9411 81.5071 54.3993C82.6501 56.4036 83.9663 55.8617 84.8012 57.6063C86.2656 60.6648 82.3447 62.7551 82.3808 68.6532C82.401 71.9238 83.5722 72.7446 83.0389 75.747C82.9014 76.5217 82.511 78.2243 82.6836 80.5633C82.759 81.5904 82.8424 81.3667 82.9051 82.2951C83.0846 84.939 82.4531 87.3697 82.7266 89.021C82.8249 89.6143 83.0272 90.0284 83.1058 90.179C83.3167 90.5836 83.5637 90.8731 83.7374 91.0529C84.5973 82.4335 85.505 74.8853 85.9904 70.7763C86.1769 69.2009 86.7266 64.4737 89.2617 60.6659C89.3026 60.6044 93.0535 55.4836 94.3478 53.4374C94.7786 52.7565 95.3177 51.8726 95.9306 50.6912C94.4774 49.1661 93.3127 47.4211 92.1033 45.6415Z" fill="url(#paint17_linear_173_17797)"/>
<path d="M72.4242 20.7042C71.2159 22.9165 71.3534 25.1197 71.4857 26.0837C71.8835 28.9842 73.581 30.917 74.1509 31.6477C76.0614 34.098 77.5518 38.9451 75.1797 49.5705C76.5102 49.3573 78.7001 49.1526 81.2517 49.6834C87.7416 51.034 90.3324 55.845 93.4459 54.968C94.5953 54.644 96.1569 53.4493 97.2451 48.9867C98.1964 46.6663 101.161 38.6143 98.122 29.146C95.9481 22.3735 91.7665 18.1903 89.6951 16.3709C87.9142 15.7723 82.3538 14.1539 77.0631 16.7114C75.7449 17.3493 73.6968 18.3743 72.4242 20.7042Z" fill="url(#paint18_linear_173_17797)"/>
<path d="M79.3732 12.1348C79.3716 12.6025 79.3896 15.1053 80.5034 15.5162C80.7467 15.6058 80.9427 15.5486 82.0225 15.5767C82.6381 15.5926 83.1389 15.6255 83.4618 15.6504C83.4071 16.0767 83.2993 16.6489 83.0704 17.2921C81.6841 21.1858 77.1977 23.8912 75.6781 22.9165C74.8867 22.4091 74.8256 20.8867 74.8001 20.2552C74.7619 19.3065 74.9913 18.5546 75.1586 18.1246C75.7153 17.7211 76.2846 17.3165 76.8668 16.9119C77.2471 16.6473 77.6252 16.3885 78.0013 16.1345C77.9758 15.6557 77.9503 15.1769 77.9253 14.6975C78.4076 13.8438 78.8904 12.989 79.3732 12.1348Z" fill="url(#paint19_linear_173_17797)"/>
<path d="M79.7762 13.8145C79.7762 13.8145 78.4362 15.3809 76.7493 14.8178C75.2388 14.314 76.0265 10.4325 77.2008 9.9606C77.5928 9.80312 78.3209 9.84819 78.8149 10.1377C79.1622 10.3413 80.4168 11.4034 79.9287 12.6861C80.2999 12.4666 80.6818 12.4454 80.9006 12.6289C80.9357 12.658 81.0223 12.7577 81.0531 12.8818C81.1636 13.3309 80.6717 13.7382 79.7762 13.8145Z" fill="url(#paint20_linear_173_17797)"/>
<path opacity="0.3" d="M97.9106 29.3416C96.2099 24.0433 93.2834 20.3362 91.0967 18.0996C88.5898 19.754 86.0393 21.9954 86.2522 24.3991C86.4944 27.1342 90.1545 28.2647 89.8124 29.9939C89.3169 32.5009 81.3446 31.5512 80.4145 34.3102C79.3183 37.5612 88.7709 43.6761 88.2658 44.3681C87.9041 44.8634 83.5562 41.3642 78.6214 42.1798C77.6638 42.3378 76.806 42.7105 76.0417 43.2016C75.8659 45.102 75.5244 47.2729 74.9678 49.7656C76.2983 49.5525 78.4881 49.3478 81.0397 49.8786C87.5296 51.2292 90.1205 56.0402 93.234 55.1632C94.3834 54.8392 95.9449 53.6445 97.0332 49.1818C97.985 46.8619 100.95 38.8105 97.9106 29.3416Z" fill="url(#paint21_linear_173_17797)"/>
<path d="M85.9559 16.7548C87.4627 16.3799 87.4701 15.891 89.4852 16.5682C95.2714 18.5126 101.396 27.2301 98.2309 33.3864C96.4702 36.8103 92.2514 39.8975 87.5997 39.1853C83.8133 38.6057 81.5894 35.7906 81.0238 35.0276C80.8044 34.1521 80.5856 33.2772 80.3662 32.4017C82.8339 33.7984 84.5717 33.7979 85.7365 33.4956C87.7192 32.9818 88.1595 31.5634 91.4356 30.3226C92.7119 29.839 93.4788 29.7387 93.5181 29.3379C93.5994 28.5091 90.3903 28.2323 88.3672 26.493C86.8923 25.2252 85.421 22.6407 85.9559 16.7548Z" fill="url(#paint22_linear_173_17797)"/>
<path d="M80.4443 32.7156L79.5669 32.4627C79.5669 32.4627 78.4446 31.6774 77.7223 31.3614C77.4402 31.2378 77.181 31.1763 76.8921 31.1842V31.1827C76.8921 31.1827 74.2922 30.1073 74.8526 30.7303C75.4129 31.3534 76.0619 31.6912 76.0619 31.6912C76.0619 31.6912 76.0593 31.7108 76.038 31.7453C76.0274 31.7601 76.0216 31.7718 76.011 31.7872C75.9456 31.8847 75.9116 31.9807 75.8936 32.0761C75.7358 32.5682 75.7656 33.4108 77.4875 33.87L77.488 33.8674C77.9023 33.9761 78.4223 33.9845 78.8732 33.9602C79.3438 33.9352 80.8905 34.4989 80.8905 34.4989L80.4443 32.7156Z" fill="url(#paint23_linear_173_17797)"/>
<path d="M10.8542 95.5964C10.8542 97.07 9.94489 98.2642 8.8226 98.2642C7.70085 98.2642 6.79102 97.0695 6.79102 95.5964C6.79102 94.1228 7.70032 92.9287 8.8226 92.9287C9.94489 92.9287 10.8542 94.1228 10.8542 95.5964Z" fill="url(#paint24_linear_173_17797)"/>
<path d="M11.4199 95.8982C11.4199 97.3718 10.5106 98.5659 9.38828 98.5659C8.26652 98.5659 7.35669 97.3713 7.35669 95.8982C7.35669 94.4246 8.26599 93.2305 9.38828 93.2305C10.5106 93.2305 11.4199 94.4246 11.4199 95.8982Z" fill="url(#paint25_linear_173_17797)"/>
<path d="M10.2399 95.9518C10.2399 96.569 9.8591 97.0696 9.38852 97.0696C8.91846 97.0696 8.53711 96.569 8.53711 95.9518C8.53711 95.3346 8.91846 94.834 9.38852 94.834C9.8591 94.834 10.2399 95.3346 10.2399 95.9518Z" fill="url(#paint26_linear_173_17797)"/>
<path d="M8.82324 92.6409V95.5706C8.82324 96.0006 9.17273 96.3495 9.60348 96.3495C9.85258 96.3495 10.0868 96.2307 10.2334 96.0298L12.8726 92.4219L8.82324 92.6409Z" fill="#CBD0D8"/>
<path d="M32.6052 93.2556C32.6052 94.7292 31.6959 95.9234 30.5736 95.9234C29.4518 95.9234 28.542 94.7287 28.542 93.2556C28.542 91.782 29.4513 90.5879 30.5736 90.5879C31.6959 90.5879 32.6052 91.782 32.6052 93.2556Z" fill="url(#paint27_linear_173_17797)"/>
<path d="M33.1711 93.5574C33.1711 95.031 32.2618 96.2251 31.1395 96.2251C30.0177 96.2251 29.1079 95.0304 29.1079 93.5574C29.1079 92.0838 30.0172 90.8896 31.1395 90.8896C32.2613 90.8896 33.1711 92.0838 33.1711 93.5574Z" fill="url(#paint28_linear_173_17797)"/>
<path d="M31.1388 94.7287C31.609 94.7287 31.9902 94.2283 31.9902 93.611C31.9902 92.9936 31.609 92.4932 31.1388 92.4932C30.6685 92.4932 30.2874 92.9936 30.2874 93.611C30.2874 94.2283 30.6685 94.7287 31.1388 94.7287Z" fill="url(#paint29_linear_173_17797)"/>
<path d="M30.573 90.3009V93.2306C30.573 93.6606 30.9225 94.0095 31.3532 94.0095C31.6023 94.0095 31.8366 93.8907 31.9832 93.6898L34.676 89.7568L30.573 90.3009Z" fill="#CBD0D8"/>
<path d="M8.5222 92.8885C8.35968 92.8885 8.21946 92.7665 8.20034 92.6011C8.18015 92.4235 8.30816 92.2633 8.48609 92.2432L34.2424 89.3453C35.7359 89.0892 36.9703 87.9661 37.3681 86.4872L48.1575 46.3842C48.7089 44.3348 50.5046 42.8596 52.6249 42.7143L61.0221 42.1352C61.2011 42.1257 61.3546 42.2604 61.3652 42.4391C61.3759 42.6178 61.2394 42.771 61.0609 42.7816L52.6669 43.3607C50.8254 43.4874 49.2639 44.7701 48.7843 46.5528L37.9948 86.6558C37.5311 88.3781 36.0944 89.6857 34.3342 89.9869L8.55938 92.8875C8.54664 92.888 8.53442 92.8885 8.5222 92.8885Z" fill="#BFC8D6"/>
<path d="M26.4395 77.1014C26.2988 77.1014 26.1686 77.0086 26.1277 76.8665L20.0627 55.6784C20.0139 55.5066 20.1132 55.3274 20.2858 55.2781C20.4563 55.2293 20.6374 55.3279 20.6868 55.5003L26.7518 76.6883C26.8007 76.8601 26.7014 77.0394 26.5288 77.0887C26.499 77.0972 26.4693 77.1014 26.4395 77.1014Z" fill="#BFC8D6"/>
<path d="M32.6461 76.2162C32.4921 76.2162 32.355 76.1059 32.3274 75.9489L28.5861 54.9607C28.5548 54.7846 28.6722 54.6165 28.8485 54.5853C29.0243 54.5534 29.1932 54.6717 29.2245 54.8472L32.9658 75.8354C32.9972 76.0115 32.8798 76.1796 32.7035 76.2108C32.6843 76.2146 32.6647 76.2162 32.6461 76.2162Z" fill="#C2C2C2"/>
<path d="M36.4994 75.5271C36.4946 75.5271 36.4903 75.5271 36.4856 75.5266C36.3066 75.5192 36.1674 75.3686 36.1748 75.1899L37.0379 54.4239C37.0454 54.2452 37.2095 54.1047 37.3752 54.1137C37.5542 54.1211 37.6934 54.2717 37.6859 54.4504L36.8228 75.2164C36.8159 75.3909 36.6725 75.5271 36.4994 75.5271Z" fill="#C2C2C2"/>
<path d="M17.9764 77.8767C17.8409 77.8767 17.7145 77.7914 17.6688 77.6556L10.5474 56.458C10.4906 56.2883 10.5819 56.1048 10.7519 56.0481C10.9218 55.9914 11.1051 56.0826 11.1624 56.2522L18.2839 77.4499C18.3407 77.6196 18.2494 77.803 18.0794 77.8598C18.0454 77.8714 18.0109 77.8767 17.9764 77.8767Z" fill="#BFC8D6"/>
<path d="M78.7701 44.4037C79.0378 44.4037 79.2651 44.1985 79.2874 43.9276C79.3108 43.6418 79.0984 43.3915 78.8121 43.3681L61.2836 41.9296C61 41.9057 60.7466 42.1183 60.7227 42.4041C60.6993 42.69 60.9118 42.9402 61.1981 42.9636L78.7266 44.4021C78.7414 44.4032 78.7558 44.4037 78.7701 44.4037Z" fill="url(#paint30_linear_173_17797)"/>
<path d="M29.9372 102.873C29.9372 104.346 29.0279 105.541 27.9056 105.541C26.7839 105.541 25.874 104.346 25.874 102.873C25.874 101.399 26.7833 100.205 27.9056 100.205C29.0274 100.205 29.9372 101.399 29.9372 102.873Z" fill="url(#paint31_linear_173_17797)"/>
<path d="M30.5031 103.174C30.5031 104.647 29.5938 105.841 28.4715 105.841C27.3498 105.841 26.4399 104.647 26.4399 103.174C26.4399 101.7 27.3492 100.506 28.4715 100.506C29.5938 100.506 30.5031 101.7 30.5031 103.174Z" fill="url(#paint32_linear_173_17797)"/>
<path d="M29.3232 103.227C29.3232 103.844 28.9424 104.345 28.4718 104.345C28.0017 104.345 27.6204 103.844 27.6204 103.227C27.6204 102.61 28.0017 102.109 28.4718 102.109C28.9418 102.109 29.3232 102.61 29.3232 103.227Z" fill="url(#paint33_linear_173_17797)"/>
<path d="M27.905 99.9172V102.847C27.905 103.277 28.2545 103.626 28.6853 103.626C28.9344 103.626 29.1686 103.507 29.3152 103.306L31.9544 99.6982L27.905 99.9172Z" fill="#97A6B7"/>
<path d="M48.7653 100.99C48.7653 102.464 47.856 103.658 46.7337 103.658C45.612 103.658 44.7021 102.463 44.7021 100.99C44.7021 99.5164 45.6114 98.3223 46.7337 98.3223C47.856 98.3217 48.7653 99.5164 48.7653 100.99Z" fill="url(#paint34_linear_173_17797)"/>
<path d="M49.3312 101.291C49.3312 102.764 48.4219 103.959 47.2997 103.959C46.1779 103.959 45.2681 102.764 45.2681 101.291C45.2681 99.8172 46.1774 98.623 47.2997 98.623C48.4219 98.6225 49.3312 99.8172 49.3312 101.291Z" fill="url(#paint35_linear_173_17797)"/>
<path d="M48.1513 101.344C48.1513 101.962 47.7705 102.462 47.2999 102.462C46.8298 102.462 46.4485 101.962 46.4485 101.344C46.4485 100.727 46.8298 100.227 47.2999 100.227C47.7705 100.227 48.1513 100.727 48.1513 101.344Z" fill="url(#paint36_linear_173_17797)"/>
<path d="M46.7344 98.0344V100.964C46.7344 101.394 47.0839 101.743 47.5146 101.743C47.7637 101.743 47.9979 101.624 48.1445 101.423L51.0828 97.4707L46.7344 98.0344Z" fill="#97A6B7"/>
<path d="M0.506383 57.1646C0.338014 57.1646 0.19567 57.0347 0.183454 56.864C0.170707 56.6858 0.305084 56.531 0.483545 56.5177L46.3554 53.2216C46.3815 53.2195 46.4075 53.2211 46.4335 53.2253L65.4237 56.4546C65.6 56.4848 65.719 56.6519 65.6887 56.8279C65.6584 57.004 65.4911 57.1222 65.3148 57.0925L46.3634 53.8701L0.529753 57.1641C0.522317 57.1646 0.51435 57.1646 0.506383 57.1646Z" fill="#BFC8D6"/>
<path d="M16.0935 61.889C16.0617 61.889 16.0298 61.8843 15.9995 61.8753L0.412876 57.1507C0.24132 57.0987 0.144653 56.9179 0.196705 56.7471C0.248756 56.5759 0.430935 56.4793 0.601429 56.5313L16.1265 61.2374L65.3381 56.4518C65.5134 56.4343 65.6749 56.5647 65.6919 56.7423C65.7094 56.92 65.5787 57.0785 65.4008 57.096L16.1249 61.8874C16.1143 61.8885 16.1042 61.889 16.0935 61.889Z" fill="#97A6B7"/>
<path d="M59.4359 78.6049C59.4199 78.6049 59.4029 78.6038 59.3865 78.6011L40.6736 75.7346L12.2175 78.4691C12.0407 78.4866 11.8808 78.3556 11.8638 78.178C11.8468 78.0004 11.9775 77.8418 12.1554 77.8248L40.6518 75.0866C40.6783 75.0839 40.7054 75.0845 40.732 75.0887L59.4847 77.9611C59.6616 77.9882 59.7832 78.1536 59.7561 78.3302C59.7317 78.4903 59.5936 78.6049 59.4359 78.6049Z" fill="#CBD0D8"/>
<path d="M25.5525 81.8214C25.4282 81.8214 25.3134 81.7498 25.2598 81.6364L15.8003 61.7044C15.7233 61.5427 15.7923 61.3497 15.9543 61.2733C16.1153 61.197 16.3091 61.2659 16.3861 61.4271L25.7484 81.1543L59.4043 77.9595C59.5854 77.9431 59.741 78.0735 59.7575 78.2512C59.7745 78.4293 59.6438 78.5874 59.4653 78.6043L25.5827 81.8209C25.5726 81.8209 25.5625 81.8214 25.5525 81.8214Z" fill="#97A6B7"/>
<path d="M25.5533 81.8221C25.5273 81.8221 25.5002 81.8189 25.4742 81.8125L12.1077 78.4618C12.02 78.4401 11.9457 78.3823 11.9021 78.3033L0.222477 56.9974C0.136433 56.8405 0.194327 56.6437 0.351542 56.5584C0.508758 56.4725 0.705808 56.5303 0.791852 56.6867L12.403 77.8684L25.6319 81.1847C25.8056 81.2282 25.9113 81.4042 25.8677 81.5776C25.83 81.724 25.6983 81.8221 25.5533 81.8221Z" fill="#97A6B7"/>
<path d="M19.5344 69.1397C19.5036 69.1397 19.4728 69.1354 19.4431 69.1264L4.7636 64.8308C4.59204 64.7804 4.49325 64.6006 4.54371 64.4288C4.59417 64.257 4.77475 64.1595 4.94578 64.2093L19.5668 68.488L62.952 64.7104C63.1304 64.6961 63.2876 64.8265 63.303 65.0047C63.3184 65.1829 63.1867 65.3398 63.0083 65.3552L19.562 69.1386C19.553 69.1391 19.544 69.1397 19.5344 69.1397Z" fill="#97A6B7"/>
<path d="M23.1207 76.6961C23.0914 76.6961 23.0617 76.6918 23.033 76.6839L8.9702 72.7504C8.79758 72.7021 8.6972 72.5235 8.74553 72.3517C8.79333 72.1793 8.97285 72.0791 9.14494 72.1273L23.1509 76.0449L60.829 72.7541C61.007 72.7382 61.1647 72.8702 61.1801 73.0484C61.1955 73.2266 61.0638 73.3835 60.8853 73.3989L23.1483 76.695C23.1398 76.6955 23.1302 76.6961 23.1207 76.6961Z" fill="#97A6B7"/>
<path d="M32.4727 81.1651C32.333 81.1651 32.204 81.0745 32.162 80.934L26.1299 60.7279C26.0784 60.5566 26.1767 60.3763 26.3482 60.3254C26.5203 60.2734 26.7004 60.3721 26.7513 60.5433L32.784 80.7494C32.8355 80.9207 32.7372 81.101 32.5657 81.1519C32.5343 81.1609 32.503 81.1651 32.4727 81.1651Z" fill="#97A6B7"/>
<path d="M39.1445 80.5313C38.9899 80.5313 38.8534 80.421 38.8258 80.2641L35.2077 59.7929C35.1763 59.6168 35.2943 59.4487 35.4706 59.418C35.6469 59.3872 35.8153 59.5044 35.8461 59.6805L39.4642 80.1517C39.4955 80.3277 39.3776 80.4958 39.2013 80.5265C39.1822 80.5297 39.163 80.5313 39.1445 80.5313Z" fill="#97A6B7"/>
<path d="M46.6711 79.6765C46.5006 79.6765 46.3572 79.5434 46.3477 79.371L45.2073 59.0441C45.1972 58.8654 45.3337 58.7127 45.5127 58.7026C45.6896 58.6931 45.8447 58.8294 45.8542 59.0075L46.9946 79.3345C47.0047 79.5132 46.8682 79.6659 46.6892 79.6759C46.6839 79.6765 46.6775 79.6765 46.6711 79.6765Z" fill="#97A6B7"/>
<path d="M53.8005 78.8789C53.7947 78.8789 53.7894 78.8789 53.783 78.8784C53.6045 78.8688 53.467 78.7166 53.476 78.5379L54.5611 57.887C54.5707 57.7083 54.713 57.5715 54.9021 57.5805C55.0805 57.59 55.2181 57.7422 55.2091 57.9209L54.124 78.5719C54.1149 78.7453 53.9721 78.8789 53.8005 78.8789Z" fill="#97A6B7"/>
<path d="M21.5108 80.8082C21.3902 80.8082 21.2744 80.7408 21.2181 80.6247L11.4681 60.3927C11.3905 60.2315 11.4585 60.0379 11.62 59.9605C11.7809 59.8836 11.9753 59.9509 12.0529 60.1116L21.8029 80.3437C21.8804 80.5049 21.8125 80.6984 21.651 80.7758C21.6058 80.7976 21.558 80.8082 21.5108 80.8082Z" fill="#97A6B7"/>
<path d="M16.0944 79.4504C15.9755 79.4504 15.8607 79.3846 15.8039 79.2711L5.45422 58.573C5.37402 58.4129 5.43935 58.2188 5.59922 58.1387C5.75963 58.0587 5.95402 58.1239 6.03422 58.284L16.3839 78.9821C16.4641 79.1423 16.3988 79.3364 16.2384 79.4164C16.1927 79.4392 16.1428 79.4504 16.0944 79.4504Z" fill="#97A6B7"/>
<path d="M27.8043 100.528C27.7634 100.528 27.723 100.52 27.6848 100.505L8.40304 92.865C8.23626 92.7993 8.155 92.611 8.22139 92.4445C8.28725 92.2786 8.47634 92.1969 8.64258 92.2632L27.8479 99.8729L51.1609 97.0297C52.9009 96.8176 54.3265 95.59 54.7917 93.9027L67.5427 47.6891C68.1014 45.6651 69.8855 44.2026 71.9835 44.0509L78.7491 43.5615C78.9243 43.5477 79.0826 43.6824 79.0959 43.8611C79.1086 44.0393 78.9748 44.1947 78.7958 44.2074L72.0302 44.6968C70.2058 44.8288 68.6538 46.1009 68.1678 47.8614L55.4169 94.0751C54.8815 96.0164 53.2419 97.4284 51.2395 97.6724L27.8447 100.526C27.8303 100.527 27.817 100.528 27.8043 100.528Z" fill="#97A6B7"/>
<path d="M68.2701 42.5017C68.2701 42.5017 66.5944 41.0403 65.0185 41.5568C64.7938 41.6305 64.3971 41.7848 64.1878 42.1825C63.9616 42.612 64.0439 43.1709 64.3291 43.523C64.7365 44.0262 65.5188 44.0273 66.2789 43.3565C66.212 43.339 65.7971 43.4509 65.6867 43.0797C65.6867 43.0797 65.6059 43.0039 65.6628 42.8273C65.8635 42.2048 68.1192 42.4964 68.2701 42.5017Z" fill="url(#paint37_linear_173_17797)"/>
<defs>
<linearGradient id="paint0_linear_173_17797" x1="68.8667" y1="46.8883" x2="-31.6867" y2="-82.4665" gradientUnits="userSpaceOnUse">
<stop stop-color="#AB316D"/>
<stop offset="1" stop-color="#792D3D"/>
</linearGradient>
<linearGradient id="paint1_linear_173_17797" x1="59.1174" y1="34.7921" x2="41.0283" y2="11.5219" gradientUnits="userSpaceOnUse">
<stop stop-color="#FCB148"/>
<stop offset="0.0521" stop-color="#FDBA46"/>
<stop offset="0.1424" stop-color="#FFC244"/>
<stop offset="0.3183" stop-color="#FFC444"/>
<stop offset="0.4849" stop-color="#FDB946"/>
<stop offset="0.7754" stop-color="#F99C4D"/>
<stop offset="0.8658" stop-color="#F8924F"/>
<stop offset="1" stop-color="#F8924F"/>
</linearGradient>
<linearGradient id="paint2_linear_173_17797" x1="67.9365" y1="46.1647" x2="-31.1567" y2="-81.3117" gradientUnits="userSpaceOnUse">
<stop stop-color="#FCB148"/>
<stop offset="0.0521" stop-color="#FDBA46"/>
<stop offset="0.1424" stop-color="#FFC244"/>
<stop offset="0.3183" stop-color="#FFC444"/>
<stop offset="0.4849" stop-color="#FDB946"/>
<stop offset="0.7754" stop-color="#F99C4D"/>
<stop offset="0.8658" stop-color="#F8924F"/>
<stop offset="1" stop-color="#F8924F"/>
</linearGradient>
<linearGradient id="paint3_linear_173_17797" x1="55.6595" y1="15.534" x2="32.3967" y2="15.534" gradientUnits="userSpaceOnUse">
<stop stop-color="#FFC444"/>
<stop offset="0.9964" stop-color="#F36F56"/>
</linearGradient>
<linearGradient id="paint4_linear_173_17797" x1="53.8627" y1="21.5802" x2="33.7559" y2="21.5802" gradientUnits="userSpaceOnUse">
<stop stop-color="#FFC444"/>
<stop offset="0.9964" stop-color="#F36F56"/>
</linearGradient>
<linearGradient id="paint5_linear_173_17797" x1="53.2004" y1="11.9298" x2="51.5638" y2="11.9298" gradientUnits="userSpaceOnUse">
<stop stop-color="#FFC444"/>
<stop offset="0.9964" stop-color="#F36F56"/>
</linearGradient>
<linearGradient id="paint6_linear_173_17797" x1="52.458" y1="8.60519" x2="45.0836" y2="8.60519" gradientUnits="userSpaceOnUse">
<stop stop-color="#FFC444"/>
<stop offset="0.9964" stop-color="#F36F56"/>
</linearGradient>
<linearGradient id="paint7_linear_173_17797" x1="36.4501" y1="13.4048" x2="34.9229" y2="13.4048" gradientUnits="userSpaceOnUse">
<stop stop-color="#FFC444"/>
<stop offset="0.9964" stop-color="#F36F56"/>
</linearGradient>
<linearGradient id="paint8_linear_173_17797" x1="43.537" y1="9.42983" x2="35.6305" y2="9.42983" gradientUnits="userSpaceOnUse">
<stop stop-color="#FFC444"/>
<stop offset="0.9964" stop-color="#F36F56"/>
</linearGradient>
<linearGradient id="paint9_linear_173_17797" x1="58.6859" y1="17.6417" x2="29.1086" y2="17.6417" gradientUnits="userSpaceOnUse">
<stop stop-color="#FCB148"/>
<stop offset="0.0521" stop-color="#FDBA46"/>
<stop offset="0.1424" stop-color="#FFC244"/>
<stop offset="0.3183" stop-color="#FFC444"/>
<stop offset="0.4849" stop-color="#FDB946"/>
<stop offset="0.7754" stop-color="#F99C4D"/>
<stop offset="0.8658" stop-color="#F8924F"/>
<stop offset="1" stop-color="#F8924F"/>
</linearGradient>
<linearGradient id="paint10_linear_173_17797" x1="75.7768" y1="7.9641" x2="82.3888" y2="13.6496" gradientUnits="userSpaceOnUse">
<stop stop-color="#311944"/>
<stop offset="1" stop-color="#6B3976"/>
</linearGradient>
<linearGradient id="paint11_linear_173_17797" x1="87.3272" y1="68.805" x2="104.084" y2="80.2223" gradientUnits="userSpaceOnUse">
<stop stop-color="#AB316D"/>
<stop offset="1" stop-color="#792D3D"/>
</linearGradient>
<linearGradient id="paint12_linear_173_17797" x1="71.9187" y1="65.1226" x2="86.5253" y2="59.4166" gradientUnits="userSpaceOnUse">
<stop stop-color="#40447E"/>
<stop offset="0.9964" stop-color="#3C3B6B"/>
</linearGradient>
<linearGradient id="paint13_linear_173_17797" x1="71.9187" y1="65.1226" x2="86.5253" y2="59.4166" gradientUnits="userSpaceOnUse">
<stop stop-color="#40447E"/>
<stop offset="0.9964" stop-color="#3C3B6B"/>
</linearGradient>
<linearGradient id="paint14_linear_173_17797" x1="63.0791" y1="22.6318" x2="75.2443" y2="34.2139" gradientUnits="userSpaceOnUse">
<stop stop-color="#FFC444"/>
<stop offset="0.9964" stop-color="#F36F56"/>
</linearGradient>
<linearGradient id="paint15_linear_173_17797" x1="80.5543" y1="85.3633" x2="83.6963" y2="104.466" gradientUnits="userSpaceOnUse">
<stop stop-color="#AB316D"/>
<stop offset="1" stop-color="#792D3D"/>
</linearGradient>
<linearGradient id="paint16_linear_173_17797" x1="78.9946" y1="52.8856" x2="88.4912" y2="71.5901" gradientUnits="userSpaceOnUse">
<stop stop-color="#40447E"/>
<stop offset="0.9964" stop-color="#3C3B6B"/>
</linearGradient>
<linearGradient id="paint17_linear_173_17797" x1="83.292" y1="49.487" x2="89.3595" y2="70.083" gradientUnits="userSpaceOnUse">
<stop stop-color="#40447E"/>
<stop offset="0.9964" stop-color="#3C3B6B"/>
</linearGradient>
<linearGradient id="paint18_linear_173_17797" x1="77.07" y1="29.7983" x2="111.192" y2="50.0354" gradientUnits="userSpaceOnUse">
<stop stop-color="#FFC444"/>
<stop offset="0.9964" stop-color="#F36F56"/>
</linearGradient>
<linearGradient id="paint19_linear_173_17797" x1="81.988" y1="24.8763" x2="75.2289" y2="9.89342" gradientUnits="userSpaceOnUse">
<stop stop-color="#311944"/>
<stop offset="1" stop-color="#893976"/>
</linearGradient>
<linearGradient id="paint20_linear_173_17797" x1="73.0819" y1="21.4825" x2="77.8927" y2="13.388" gradientUnits="userSpaceOnUse">
<stop stop-color="#311944"/>
<stop offset="1" stop-color="#A03976"/>
</linearGradient>
<linearGradient id="paint21_linear_173_17797" x1="76.0899" y1="29.8287" x2="111.123" y2="50.6066" gradientUnits="userSpaceOnUse">
<stop stop-color="#FFC444"/>
<stop offset="0.9964" stop-color="#F36F56"/>
</linearGradient>
<linearGradient id="paint22_linear_173_17797" x1="85.395" y1="26.166" x2="103.11" y2="37.4101" gradientUnits="userSpaceOnUse">
<stop stop-color="#FFC444"/>
<stop offset="0.9964" stop-color="#F36F56"/>
</linearGradient>
<linearGradient id="paint23_linear_173_17797" x1="74.7735" y1="32.5173" x2="84.9751" y2="32.5173" gradientUnits="userSpaceOnUse">
<stop stop-color="#311944"/>
<stop offset="1" stop-color="#A03976"/>
</linearGradient>
<linearGradient id="paint24_linear_173_17797" x1="6.62856" y1="93.7541" x2="7.75092" y2="94.6995" gradientUnits="userSpaceOnUse">
<stop stop-color="#AA80F9"/>
<stop offset="0.9964" stop-color="#6165D7"/>
</linearGradient>
<linearGradient id="paint25_linear_173_17797" x1="7.35694" y1="95.8982" x2="11.4198" y2="95.8982" gradientUnits="userSpaceOnUse">
<stop stop-color="#AA80F9"/>
<stop offset="0.9964" stop-color="#6165D7"/>
</linearGradient>
<linearGradient id="paint26_linear_173_17797" x1="8.53775" y1="95.9519" x2="10.2402" y2="95.9519" gradientUnits="userSpaceOnUse">
<stop stop-color="#40447E"/>
<stop offset="0.9964" stop-color="#3C3B6B"/>
</linearGradient>
<linearGradient id="paint27_linear_173_17797" x1="28.3793" y1="91.4134" x2="29.5017" y2="92.3587" gradientUnits="userSpaceOnUse">
<stop stop-color="#AA80F9"/>
<stop offset="0.9964" stop-color="#6165D7"/>
</linearGradient>
<linearGradient id="paint28_linear_173_17797" x1="29.1079" y1="93.5574" x2="33.1708" y2="93.5574" gradientUnits="userSpaceOnUse">
<stop stop-color="#AA80F9"/>
<stop offset="0.9964" stop-color="#6165D7"/>
</linearGradient>
<linearGradient id="paint29_linear_173_17797" x1="30.2878" y1="93.6111" x2="31.9902" y2="93.6111" gradientUnits="userSpaceOnUse">
<stop stop-color="#40447E"/>
<stop offset="0.9964" stop-color="#3C3B6B"/>
</linearGradient>
<linearGradient id="paint30_linear_173_17797" x1="60.7214" y1="43.1654" x2="79.2894" y2="43.1654" gradientUnits="userSpaceOnUse">
<stop stop-color="#40447E"/>
<stop offset="0.9964" stop-color="#3C3B6B"/>
</linearGradient>
<linearGradient id="paint31_linear_173_17797" x1="25.7112" y1="101.03" x2="26.8336" y2="101.976" gradientUnits="userSpaceOnUse">
<stop stop-color="#AA80F9"/>
<stop offset="0.9964" stop-color="#6165D7"/>
</linearGradient>
<linearGradient id="paint32_linear_173_17797" x1="26.4403" y1="103.174" x2="30.5032" y2="103.174" gradientUnits="userSpaceOnUse">
<stop stop-color="#AA80F9"/>
<stop offset="0.9964" stop-color="#6165D7"/>
</linearGradient>
<linearGradient id="paint33_linear_173_17797" x1="27.6206" y1="103.227" x2="29.3231" y2="103.227" gradientUnits="userSpaceOnUse">
<stop stop-color="#40447E"/>
<stop offset="0.9964" stop-color="#3C3B6B"/>
</linearGradient>
<linearGradient id="paint34_linear_173_17797" x1="44.5397" y1="99.1475" x2="45.6621" y2="100.093" gradientUnits="userSpaceOnUse">
<stop stop-color="#AA80F9"/>
<stop offset="0.9964" stop-color="#6165D7"/>
</linearGradient>
<linearGradient id="paint35_linear_173_17797" x1="45.2683" y1="101.291" x2="49.3312" y2="101.291" gradientUnits="userSpaceOnUse">
<stop stop-color="#AA80F9"/>
<stop offset="0.9964" stop-color="#6165D7"/>
</linearGradient>
<linearGradient id="paint36_linear_173_17797" x1="46.4491" y1="101.344" x2="48.1516" y2="101.344" gradientUnits="userSpaceOnUse">
<stop stop-color="#40447E"/>
<stop offset="0.9964" stop-color="#3C3B6B"/>
</linearGradient>
<linearGradient id="paint37_linear_173_17797" x1="67.9141" y1="39.738" x2="66.0807" y2="42.5761" gradientUnits="userSpaceOnUse">
<stop stop-color="#311944"/>
<stop offset="1" stop-color="#A03976"/>
</linearGradient>
</defs>
</svg>
