<svg width="163" height="163" viewBox="0 0 163 163" fill="none" xmlns="http://www.w3.org/2000/svg">
<circle cx="81.5" cy="81.5" r="81.5" fill="#F1EFE9"/>
<path d="M103.317 52.7514C104.062 53.2474 104.533 53.9604 104.73 54.8758L104.764 55.0473C104.908 55.9003 104.746 56.694 104.275 57.4175L104.271 57.4224C103.921 57.932 103.468 58.3152 102.915 58.5686L102.914 58.5673C102.378 58.8162 101.814 58.9301 101.224 58.9072L101.221 58.9077C100.63 58.8767 100.083 58.6932 99.583 58.3602C98.8038 57.8414 98.3156 57.1202 98.1253 56.206L98.1247 56.2033L98.3205 56.1647L98.1253 56.2025C97.948 55.2853 98.1212 54.4365 98.6438 53.6686C99.146 52.8993 99.8569 52.4209 100.766 52.2386L100.767 52.2383L100.938 52.2089C101.79 52.0837 102.587 52.2649 103.317 52.7514ZM115.704 35.1288C117.186 36.1158 118.34 37.2393 119.16 38.5012L119.159 38.5006C119.985 39.7565 120.418 41.0755 120.452 42.4551L120.453 42.714C120.431 44.0095 120.004 45.2759 119.182 46.5102C118.597 47.3896 117.925 48.0803 117.166 48.5761C116.425 49.0658 115.616 49.4017 114.741 49.5838L114.74 49.5841C113.984 49.7357 113.183 49.8018 112.337 49.783L111.972 49.7697C111.174 49.7292 110.473 49.7699 109.869 49.891L109.869 49.8923C109.28 50.0166 108.741 50.2538 108.252 50.607L108.252 50.6083C107.77 50.9665 107.289 51.4937 106.81 52.1978L106.451 52.7375L101.934 49.7306L102.295 49.1884L102.619 48.7199C103.367 47.6619 104.068 46.8516 104.724 46.2959L104.726 46.2942L105.009 46.069C105.673 45.5662 106.348 45.2281 107.034 45.0613C107.705 44.898 108.42 44.8156 109.179 44.814L109.507 44.8187C110.149 44.8279 110.75 44.7951 111.31 44.7204C111.86 44.6467 112.358 44.4941 112.804 44.265C113.244 44.0339 113.615 43.695 113.916 43.2432C114.195 42.8233 114.354 42.3957 114.396 41.9593L114.407 41.7719C114.418 41.2647 114.296 40.7878 114.039 40.3385L114.038 40.3366C113.788 39.8911 113.43 39.5119 112.961 39.1997C112.509 38.8984 112.015 38.7144 111.477 38.6475L111.474 38.6481C110.947 38.5751 110.428 38.6459 109.913 38.8633L109.912 38.8635C109.412 39.0697 108.957 39.4476 108.55 40.0131L108.437 40.1702L103.603 36.9517L103.72 36.7837L103.917 36.5133C104.904 35.1888 106.028 34.2707 107.295 33.7753L107.548 33.6809C108.733 33.2591 109.96 33.1445 111.226 33.3374L111.498 33.3836C112.95 33.6455 114.352 34.2287 115.704 35.1288Z" fill="#F17228" stroke="#120F0F" stroke-width="0.4"/>
<path d="M58.3332 66.2671C58.8197 66.0456 59.3302 66.0315 59.8532 66.2188C60.379 66.4071 60.7641 66.7531 60.997 67.2506L60.9994 67.256C61.1466 67.593 61.1973 67.9428 61.1519 68.3025L61.1532 68.303C61.1107 68.6514 60.9912 68.9728 60.7945 69.2636L60.7922 69.2657C60.5902 69.5557 60.3246 69.7759 59.9987 69.9243C59.4917 70.1552 58.9707 70.1754 58.4486 69.9842L58.446 69.9833C57.9268 69.7847 57.5497 69.4284 57.3256 68.9226C57.0947 68.4266 57.0764 67.9138 57.2695 67.3975L57.27 67.3962L57.3529 67.2083C57.5611 66.7846 57.8896 66.4692 58.3332 66.2671ZM53.5198 54.9483C54.4532 54.5232 55.3569 54.2988 56.2291 54.281L56.23 54.2806C57.1023 54.2583 57.8887 54.449 58.583 54.8573L58.8383 55.0222C59.4151 55.4298 59.8689 56.0034 60.2017 56.7341C60.4556 57.2917 60.5914 57.8368 60.6034 58.3679C60.6177 58.886 60.5352 59.3905 60.3562 59.8797L60.3557 59.881C60.2214 60.2399 60.0456 60.5949 59.8301 60.9466L59.6015 61.2975C59.3439 61.6686 59.1567 62.0154 59.0362 62.3372C58.9238 62.6481 58.878 62.9678 58.9008 63.2981L58.9021 63.2986C58.9296 63.6276 59.0364 64.0105 59.2309 64.4494L59.4195 64.8636L56.444 66.2186L56.2542 65.8018L56.0059 65.2141C55.7837 64.6496 55.6392 64.154 55.5765 63.7293L55.5765 63.7271L55.5522 63.5182C55.5076 63.0353 55.5476 62.5941 55.6775 62.1981C55.7851 61.8709 55.9323 61.5463 56.1176 61.2252L56.315 60.9046C56.5107 60.5993 56.6738 60.3024 56.804 60.0133L56.8895 59.8027C56.9645 59.5932 57.0094 59.3853 57.0262 59.1793C57.0455 58.9117 56.996 58.6442 56.8732 58.3744C56.7589 58.1237 56.6078 57.93 56.4212 57.7872L56.339 57.7292C56.1097 57.5796 55.8572 57.4993 55.5772 57.4891L55.575 57.489C55.2981 57.477 55.0199 57.5337 54.7384 57.6618C54.4682 57.785 54.2406 57.9609 54.0545 58.1911L54.0531 58.1928C53.8693 58.4139 53.7532 58.6728 53.7057 58.9734L53.7053 58.9747C53.6578 59.2601 53.7009 59.579 53.8478 59.9356L53.9213 60.1136L50.7476 61.5589L50.667 61.3702L50.5274 61.0142C50.2736 60.3081 50.1742 59.6346 50.2363 58.9964L50.2801 58.6803C50.4309 57.851 50.7981 57.1175 51.3773 56.483L51.599 56.2512C52.1317 55.7227 52.7728 55.2885 53.5198 54.9483Z" fill="#F17228" stroke="#538D33" stroke-width="0.4"/>
<path d="M68.7064 56.9551C68.7013 53.6841 68.5482 50.3524 67.9716 47.1268C67.9307 46.8993 67.599 46.8285 67.4511 46.9903C65.5273 49.0581 63.6086 51.1259 61.6848 53.1937C61.8481 53.2139 62.0114 53.2341 62.1747 53.2543C58.3322 48.2189 54.4898 43.1783 50.6473 38.1429C50.4636 37.9002 50.086 37.976 50.0656 38.2996C49.6573 44.1692 49.2491 50.0339 48.8409 55.9035C48.9736 55.8024 49.1062 55.7063 49.2389 55.6052C45.3199 54.0177 41.1917 53.0369 36.9767 52.678C36.7471 52.6578 36.5787 52.9611 36.7063 53.1431C37.8391 54.766 38.977 56.3889 40.1609 57.9713C41.2376 59.4071 42.3296 60.8632 43.6155 62.1321C43.687 61.9552 43.7635 61.7782 43.835 61.6013C40.564 61.7075 37.2931 61.8187 34.0221 61.9249C33.6139 61.94 33.6292 62.5063 34.0221 62.5467C34.2365 62.5669 34.711 63.0927 34.8947 63.2596C35.3285 63.6539 35.7418 64.0685 36.1602 64.478C36.5277 64.842 36.8951 65.206 37.2778 65.5548C37.4564 65.7166 37.7166 66.0099 37.9871 65.9997C38.3902 65.9846 38.3902 65.3678 37.9871 65.3779C38.1248 65.3779 38.0687 65.4082 37.9769 65.3374C37.9207 65.2919 37.8646 65.2464 37.8136 65.2009C37.635 65.0442 37.4615 64.8774 37.2931 64.7156C36.8797 64.3162 36.4715 63.9067 36.0582 63.5073C35.6755 63.1332 35.2877 62.754 34.8743 62.4153C34.6294 62.213 34.364 61.9704 34.0323 61.935V62.5568C37.3033 62.4506 40.5742 62.3394 43.8452 62.2332C44.1105 62.2231 44.2636 61.8996 44.0646 61.7024C41.4264 59.0987 39.3648 55.858 37.2523 52.8398C37.1604 52.9965 37.0737 53.1482 36.9818 53.3049C41.1406 53.6588 45.2178 54.6447 49.0807 56.2119C49.2848 56.2928 49.4634 56.0906 49.4787 55.9136C49.887 50.044 50.2952 44.1794 50.7034 38.3097L50.1217 38.4664C53.9642 43.5019 57.8066 48.5424 61.6491 53.5779C61.7665 53.7296 61.991 53.8003 62.139 53.6386C64.0628 51.5708 65.9814 49.503 67.9052 47.4352C67.7317 47.3897 67.5582 47.3442 67.3847 47.2987C67.9511 50.4686 68.0889 53.7498 68.094 56.9652C68.094 57.3646 68.7217 57.3646 68.7217 56.9652L68.7064 56.9551Z" fill="#120F0F"/>
<path d="M40.5559 87.5593C40.5559 87.5593 44.221 121.523 46.9919 119.365C49.7628 117.211 53.9989 108.54 53.9989 108.54L50.741 86.8032" fill="#538D33"/>
<path d="M48.2844 82.2754C48.2844 82.2754 50.5375 107.66 51.9362 108.841C53.3349 110.022 111.294 111.202 113.339 108.841C115.38 106.48 119.266 82.2754 119.266 82.2754H48.2844ZM59.5806 100.174C58.4518 99.5731 56.73 87.1481 56.73 87.1481C56.5928 85.8968 59.8904 86.9978 60.187 87.1481C60.4836 87.2985 62.7366 99.6483 62.7366 100.174C62.7366 100.701 60.7049 100.776 59.5761 100.174H59.5806ZM69.5267 100.365C68.3979 99.7633 68.1634 87.2719 68.1634 87.2719C69.3585 86.1355 71.3238 87.1216 71.6248 87.2719C71.9258 87.4223 72.6871 99.8384 72.6871 100.365C72.6871 100.891 70.6554 100.966 69.5267 100.365ZM77.4853 100.205C76.3566 99.6041 76.2194 87.073 76.2194 87.073C77.4145 85.9366 79.3798 86.9226 79.6764 87.073C79.9774 87.2233 80.6414 99.6793 80.6414 100.205C80.6414 100.732 78.6096 100.807 77.4809 100.205H77.4853ZM87.7767 100.219C87.4846 100.382 85.5679 101.457 84.3197 100.369C84.3197 100.369 84.4923 88.174 85.3422 87.2189C85.9619 86.5202 88.4761 86.7944 88.4982 87.3161C88.5203 87.8423 88.0688 100.051 87.7767 100.214V100.219ZM95.5184 100.219C95.2263 100.382 93.3097 101.457 92.0614 100.369C92.0614 100.369 92.2075 87.8689 93.3097 87.2189C94.4119 86.5689 96.4436 86.5556 96.4657 87.0818C96.4878 87.608 95.8106 100.055 95.5184 100.219ZM102.831 100.033C102.539 100.197 100.622 101.271 99.3738 100.183C99.3738 100.183 100.162 87.6832 101.264 87.0332C102.366 86.3832 104.398 86.3699 104.42 86.8961C104.442 87.4223 103.123 99.8694 102.831 100.033Z" fill="#74CA45"/>
<path d="M131.244 82.081C130.297 81.2674 119.319 74.0909 117.827 74.228C116.336 74.3651 48.1781 74.228 48.1781 74.228C46.6244 74.228 33 80.4538 33 83.2969C33 86.1401 33.2036 90.0887 35.3725 90.7652C37.5415 91.4417 129.345 92.6356 130.429 90.0666C131.514 87.4931 132.191 82.8946 131.244 82.081ZM103.889 82.134H100.179C98.8249 82.134 97.4483 82.134 96.0451 82.134H92.3402C90.9503 82.134 89.5427 82.134 88.1174 82.134H84.5188C82.912 82.134 81.2875 82.134 79.6542 82.134H75.9493C74.5063 82.134 73.0544 82.134 71.6026 82.134H67.9065C65.4145 82.134 62.918 82.134 60.4348 82.134H56.7387C54.074 82.134 51.4226 82.134 48.8155 82.134H56.7387C56.5041 80.6881 56.3581 79.7154 56.3581 79.7154C56.2208 78.8089 59.5185 79.6048 59.8151 79.7154C59.8948 79.7419 60.1294 80.7147 60.4348 82.1385H67.9065C67.8268 80.7412 67.787 79.8038 67.787 79.8038C68.9821 78.9814 70.9475 79.6933 71.244 79.8038C71.3193 79.8303 71.4521 80.7633 71.6026 82.1385H75.9493C75.874 80.6616 75.8386 79.6579 75.8386 79.6579C77.0337 78.8354 78.9991 79.5473 79.2956 79.6579C79.3753 79.6844 79.5037 80.6837 79.6542 82.1385H84.5188C84.6161 80.8429 84.7578 79.9276 84.9614 79.764C85.5811 79.2599 88.0953 79.4545 88.1174 79.8347C88.1219 79.9276 88.1219 80.8296 88.1174 82.1385H92.3402C92.473 80.8031 92.6589 79.879 92.9289 79.764C94.0311 79.2953 96.0628 79.282 96.0849 79.6623C96.0894 79.7596 96.0761 80.7324 96.0451 82.1385H100.179C100.374 80.7324 100.604 79.7463 100.883 79.6269C101.985 79.1582 104.017 79.145 104.039 79.5252C104.044 79.6225 103.986 80.6616 103.889 82.1385H117.858C113.844 82.1385 109.112 82.1385 103.889 82.1385V82.134Z" fill="#F17228"/>
<path d="M45.5532 123.764C45.5532 123.764 51.2411 109.133 52.4761 109.045C53.7066 108.956 107.208 108.717 109.187 109.045C111.166 109.372 119.275 123.596 119.275 123.596L45.5532 123.764Z" fill="#538D33"/>
<path d="M110.046 110.203C110.121 110.818 118.642 124.043 118.642 124.043L121.413 91.8618H113.251L110.635 110.203" fill="#538D33"/>
<path d="M53.9988 82.5057C52.631 82.5057 51.3208 82.5057 50.077 82.5057C42.4105 82.5057 37.4308 82.488 37.09 82.4659C36.8244 82.4482 36.7757 82.2758 36.7669 82.2227C36.727 81.9663 36.6783 81.6788 42.7469 78.7075C45.7923 77.2173 48.7889 75.8333 48.9881 75.7538L49.0722 75.7361C51.7546 75.7272 114.813 75.4885 116.243 75.7361C117.655 75.9837 124.985 80.9448 125.308 81.6346L125.361 81.7496L125.295 81.8646C125.175 82.0503 125.042 82.2625 96.6427 82.4084C82.4384 82.4792 65.9943 82.5057 54.0032 82.5057H53.9988ZM37.4839 82.0105C38.8296 82.0282 43.5304 82.037 50.0814 82.0414C79.1938 82.0547 120.222 81.922 124.644 81.5772C123.329 80.4452 117.442 76.4126 116.167 76.1871C115.061 75.9925 71.8549 76.1031 49.1253 76.1871C48.0143 76.6469 39.2014 80.8122 37.4884 82.0061L37.4839 82.0105Z" fill="#120F0F"/>
<path d="M33.3364 83.673C41.5651 83.673 49.7938 83.6818 58.0224 83.6818C66.5919 83.6818 75.157 83.6862 83.7265 83.6862C91.4328 83.6862 99.1348 83.6862 106.841 83.6862C112.538 83.6862 118.235 83.6862 123.936 83.6862C125.671 83.6862 127.406 83.6862 129.141 83.6862C129.92 83.6862 130.726 83.7481 131.505 83.6862C131.536 83.6862 131.567 83.6862 131.598 83.6862C131.97 83.6862 131.97 83.1114 131.598 83.1114C130.903 83.1114 130.212 83.1114 129.518 83.1114C129.146 83.1114 129.146 83.6862 129.518 83.6862C130.212 83.6862 130.903 83.6862 131.598 83.6862V83.1114C129.544 83.1247 127.495 83.1114 125.441 83.1114C120.049 83.1114 114.654 83.1114 109.262 83.1114C101.737 83.1114 94.2082 83.1114 86.6833 83.1114C78.1802 83.1114 69.6771 83.1114 61.174 83.107C52.8391 83.107 44.5087 83.1026 36.1738 83.0981C35.2309 83.0981 34.2837 83.0981 33.3409 83.0981C32.9691 83.0981 32.9691 83.673 33.3409 83.673H33.3364Z" fill="#120F0F"/>
<path d="M38.9846 91C38.9846 91 42.9507 122.358 44.5043 123.672C46.058 124.985 117.226 126.298 119.501 123.672C121.771 121.045 125.105 91 125.105 91H38.9846ZM49.8381 119.577C48.581 118.909 46.5803 93.52 46.5803 93.52C46.4254 92.1271 50.0949 93.3519 50.4313 93.52C50.7677 93.688 53.3571 118.989 53.3571 119.577C53.3571 120.165 51.0952 120.245 49.8426 119.577H49.8381ZM58.0756 119.577C56.8185 118.909 54.8178 93.52 54.8178 93.52C54.6629 92.1271 58.3324 93.3519 58.6688 93.52C59.0052 93.688 61.5946 118.989 61.5946 119.577C61.5946 120.165 59.3327 120.245 58.0801 119.577H58.0756ZM67.6145 119.772C66.3574 119.104 66.0077 93.6438 66.0077 93.6438C67.3401 92.3792 69.5223 93.4758 69.8587 93.6438C70.1951 93.8118 71.1291 119.184 71.1291 119.772C71.1291 120.36 68.8672 120.439 67.6145 119.772ZM76.4673 119.595C75.2102 118.927 74.9712 93.4227 74.9712 93.4227C76.3035 92.1581 78.4857 93.2547 78.8221 93.4227C79.1586 93.5907 79.9819 119.011 79.9819 119.595C79.9819 120.178 77.72 120.262 76.4673 119.595ZM87.9272 119.608C87.5997 119.789 85.4662 120.983 84.0807 119.776C84.0807 119.776 84.1825 94.6475 85.1298 93.5863C85.8203 92.8081 88.6177 93.1132 88.6443 93.6968C88.6709 94.2805 88.2548 119.427 87.9317 119.608H87.9272ZM96.541 119.608C96.2134 119.789 94.0799 120.983 92.6945 119.776C92.6945 119.776 92.7697 94.307 93.9958 93.5863C95.2219 92.8611 97.4838 92.8479 97.5059 93.4315C97.5325 94.0152 96.8685 119.427 96.541 119.608ZM104.681 119.4C104.354 119.582 102.22 120.775 100.835 119.568C100.835 119.568 101.627 94.0992 102.849 93.3785C104.075 92.6533 106.337 92.6401 106.359 93.2237C106.385 93.8074 105.004 119.219 104.677 119.4H104.681ZM113.206 119.188C112.879 119.369 109.267 120.758 109.36 119.356C109.36 119.356 111.091 93.887 112.312 93.1662C113.538 92.4411 115.8 92.4278 115.822 93.0115C115.849 93.5951 113.529 119.007 113.202 119.188H113.206Z" fill="#74CA45"/>
<path d="M45.7569 122.504C48.9926 119.033 51.7591 115.116 54.5566 111.291C55.0568 110.61 55.5525 109.925 56.0571 109.248C56.2032 109.049 56.3537 108.85 56.5042 108.66C56.5529 108.603 56.6149 108.541 56.6547 108.479C56.7831 108.262 56.7477 108.576 56.5573 108.457C56.7078 108.554 57.2257 108.457 57.3939 108.457C62.5374 108.457 67.6764 108.466 72.8199 108.479C80.2474 108.496 87.6749 108.523 95.1023 108.581C97.9972 108.603 100.892 108.629 103.787 108.678C105.19 108.7 106.655 108.625 108.05 108.815C107.992 108.806 108.103 108.824 108.103 108.824C108.244 108.89 108.368 108.983 108.492 109.08C108.926 109.429 109.315 109.845 109.692 110.247C110.847 111.481 111.923 112.79 112.976 114.112C114.167 115.602 115.327 117.119 116.438 118.666C117.248 119.794 118.093 120.935 118.748 122.164C118.823 122.306 118.903 122.447 118.956 122.597C119.049 122.849 118.916 122.69 119.098 122.58C118.784 122.774 119.071 123.269 119.39 123.075C119.983 122.708 118.992 121.412 118.779 121.076C117.907 119.679 116.929 118.344 115.946 117.022C114.769 115.443 113.556 113.887 112.299 112.365C111.334 111.198 110.36 110.013 109.249 108.978C108.824 108.581 108.443 108.258 107.855 108.214C107.248 108.165 106.638 108.156 106.031 108.143C103.535 108.076 101.043 108.054 98.5461 108.028C94.9873 107.992 91.4284 107.97 87.8696 107.953C83.9478 107.931 80.0305 107.917 76.1087 107.908C72.5986 107.9 69.0884 107.891 65.5783 107.886C63.1792 107.886 60.7845 107.877 58.3854 107.877C57.8454 107.877 57.301 107.873 56.7609 107.877C56.243 107.882 56.0262 108.333 55.734 108.722C53.0118 112.33 50.4312 116.04 47.5673 119.542C46.8502 120.413 46.1199 121.275 45.3497 122.098C45.0974 122.367 45.5046 122.774 45.7569 122.504Z" fill="#74CA45"/>
<path d="M56.8673 108.063C56.075 102.695 56.1768 97.2254 55.681 91.8265C55.6456 91.4595 55.0702 91.4595 55.1056 91.8265C55.6058 97.2785 55.5128 102.797 56.314 108.218C56.3671 108.585 56.9204 108.426 56.8673 108.063Z" fill="#74CA45"/>
<path d="M115.898 76.0938C116.013 78.0217 115.946 79.954 115.937 81.8863C115.937 82.2577 116.513 82.2577 116.513 81.8863C116.522 79.954 116.588 78.0217 116.473 76.0938C116.451 75.7268 115.875 75.7224 115.898 76.0938Z" fill="#120F0F"/>
<path d="M49.9842 119.329C49.9842 119.329 49.9931 119.356 49.9621 119.285C49.9223 119.201 49.9001 119.157 49.8736 119.09C49.7806 118.852 49.7187 118.6 49.6567 118.352C49.4619 117.556 49.3291 116.747 49.2008 115.942C48.8201 113.546 48.5457 111.131 48.2845 108.722C47.7799 104.101 47.3594 99.4713 46.9787 94.8418C46.9433 94.4306 46.8946 94.0149 46.8769 93.6037C46.8681 93.4092 46.8636 93.2986 47.0761 93.2058C47.5763 92.9935 48.3465 93.2146 48.8467 93.3296C49.13 93.3959 49.4088 93.4711 49.6833 93.5551C49.7585 93.5772 50.2011 93.7894 50.272 93.7541C50.1967 93.7894 50.2233 93.5905 50.1967 93.6656C50.1834 93.6966 50.2321 93.8204 50.241 93.8558C50.3516 94.3775 50.4136 94.9125 50.48 95.4387C51.1174 100.223 51.5999 105.034 52.1045 109.831C52.3479 112.14 52.5825 114.448 52.8127 116.756C52.8835 117.45 52.9499 118.144 53.0163 118.838C53.034 119.015 53.0872 119.232 53.065 119.409C53.0385 119.656 52.9455 119.643 52.6357 119.701C51.7814 119.864 50.7677 119.705 49.9931 119.316C49.6611 119.152 49.369 119.648 49.701 119.811C50.4844 120.205 51.4051 120.368 52.2815 120.315C52.7552 120.284 53.5519 120.205 53.6449 119.621C53.698 119.285 53.5962 118.878 53.5652 118.542C53.3749 116.508 53.1624 114.479 52.9544 112.449C52.4055 107.116 51.8566 101.784 51.1927 96.4646C51.0953 95.704 51.0023 94.9391 50.8828 94.183C50.8341 93.8646 50.8341 93.4269 50.5375 93.2411C50.1303 92.9891 49.5195 92.8918 49.0636 92.7813C48.4704 92.6398 47.8197 92.5071 47.2045 92.5911C46.5449 92.6796 46.2705 93.0864 46.3192 93.7054C46.6512 97.9635 47.0451 102.217 47.4789 106.462C47.7578 109.173 48.0543 111.883 48.4306 114.58C48.5722 115.606 48.7272 116.632 48.9263 117.649C49.0414 118.242 49.1432 118.887 49.4088 119.44C49.4796 119.586 49.5593 119.732 49.7054 119.82C50.0241 120.01 50.3162 119.511 49.9975 119.325L49.9842 119.329Z" fill="#120F0F"/>
<path d="M58.2218 119.329C58.2218 119.329 58.2306 119.356 58.1996 119.285C58.1598 119.201 58.1377 119.157 58.1111 119.09C58.0182 118.852 57.9562 118.6 57.8942 118.352C57.6995 117.556 57.5667 116.747 57.4383 115.942C57.0576 113.546 56.7832 111.131 56.522 108.722C56.0174 104.101 55.5969 99.4713 55.2162 94.8418C55.1808 94.4306 55.1321 94.0149 55.1144 93.6037C55.1056 93.4092 55.1012 93.2986 55.3136 93.2058C55.8138 92.9935 56.584 93.2146 57.0842 93.3296C57.3675 93.3959 57.6463 93.4711 57.9208 93.5551C57.996 93.5772 58.4387 93.7894 58.5095 93.7541C58.4342 93.7894 58.4608 93.5905 58.4342 93.6656C58.421 93.6966 58.4696 93.8204 58.4785 93.8558C58.5892 94.3775 58.6511 94.9125 58.7175 95.4387C59.3549 100.223 59.8374 105.034 60.342 109.831C60.5855 112.14 60.8201 114.448 61.0502 116.756C61.1211 117.45 61.1874 118.144 61.2538 118.838C61.2715 119.015 61.3247 119.232 61.3025 119.409C61.276 119.656 61.183 119.643 60.8732 119.701C60.0189 119.864 59.0052 119.705 58.2306 119.316C57.8986 119.152 57.6065 119.648 57.9385 119.811C58.7219 120.205 59.6426 120.368 60.5191 120.315C60.9927 120.284 61.7894 120.205 61.8824 119.621C61.9355 119.285 61.8337 118.878 61.8027 118.542C61.6124 116.508 61.3999 114.479 61.1919 112.449C60.643 107.116 60.0941 101.784 59.4302 96.4646C59.3328 95.704 59.2398 94.9391 59.1203 94.183C59.0716 93.8646 59.0716 93.4269 58.7751 93.2411C58.3678 92.9891 57.757 92.8918 57.3011 92.7813C56.7079 92.6398 56.0573 92.5071 55.4464 92.5911C54.7869 92.6796 54.5125 93.0864 54.5611 93.7054C54.8931 97.9635 55.2871 102.217 55.7209 106.462C55.9997 109.173 56.2963 111.883 56.6725 114.58C56.8142 115.606 56.9691 116.632 57.1683 117.649C57.2834 118.242 57.3852 118.887 57.6508 119.44C57.7216 119.586 57.8013 119.732 57.9473 119.82C58.266 120.01 58.5582 119.511 58.2395 119.325L58.2218 119.329Z" fill="#120F0F"/>
<path d="M67.7607 119.524C67.7607 119.524 67.7828 119.573 67.7474 119.493C67.712 119.409 67.7075 119.409 67.6721 119.303C67.5924 119.069 67.5438 118.816 67.4995 118.573C67.3579 117.817 67.2782 117.052 67.2029 116.287C66.9772 113.961 66.8577 111.622 66.747 109.288C66.5345 104.654 66.4106 100.015 66.3265 95.377C66.3176 94.8817 66.2645 94.3644 66.2999 93.8736C66.2999 93.8294 66.269 93.6879 66.2999 93.6481C66.2291 93.7498 66.6983 93.5596 66.539 93.6083C66.6496 93.5773 66.778 93.4889 66.8842 93.4491C67.0923 93.3784 67.3092 93.343 67.5305 93.3341C67.9687 93.3164 68.4025 93.4005 68.8186 93.5287C69.0841 93.6127 69.3453 93.7719 69.6109 93.8382C69.8012 93.8868 69.6242 93.9266 69.6109 93.7719C69.602 93.6834 69.6065 93.7984 69.6109 93.7896C69.5755 93.8338 69.6596 94.1079 69.6684 94.1787C69.7348 94.8021 69.7747 95.4256 69.8145 96.0535C70.1243 100.851 70.3058 105.662 70.5006 110.464C70.5891 112.679 70.6776 114.89 70.7573 117.105C70.7839 117.773 70.806 118.441 70.8281 119.108C70.8326 119.267 70.8768 119.48 70.8458 119.639C70.7972 119.878 70.6378 119.873 70.3545 119.922C69.5091 120.063 68.5308 119.909 67.7695 119.528C67.4375 119.365 67.1454 119.86 67.4774 120.024C68.2431 120.408 69.1328 120.567 69.9871 120.528C70.4386 120.506 71.2531 120.448 71.408 119.904C71.501 119.581 71.408 119.144 71.3947 118.821C71.3283 116.897 71.2531 114.978 71.1778 113.055C70.9698 107.771 70.7662 102.487 70.4608 97.2076C70.4121 96.3763 70.3634 95.545 70.2925 94.7181C70.266 94.3777 70.2925 93.909 70.1509 93.5906C70.0093 93.2722 69.4958 93.1573 69.1992 93.0511C68.4645 92.7903 67.6367 92.6488 66.8709 92.8522C66.4726 92.9583 65.7909 93.2236 65.7245 93.679C65.7068 93.7984 65.7245 93.9355 65.7289 94.0549C65.7953 98.4014 65.906 102.752 66.0786 107.099C66.1849 109.743 66.3044 112.387 66.5168 115.023C66.5921 115.987 66.6806 116.955 66.8134 117.914C66.8931 118.476 66.955 119.086 67.1719 119.612C67.2383 119.772 67.3136 119.931 67.4685 120.019C67.7872 120.209 68.0794 119.71 67.7607 119.524Z" fill="#120F0F"/>
<path d="M76.6133 119.343C76.6133 119.343 76.6355 119.391 76.6001 119.312C76.5647 119.228 76.5602 119.228 76.5248 119.121C76.4451 118.883 76.4009 118.635 76.3522 118.392C76.215 117.636 76.1353 116.866 76.0645 116.101C75.8476 113.771 75.7369 111.428 75.6395 109.093C75.4448 104.45 75.343 99.803 75.2766 95.1558C75.2677 94.6606 75.219 94.1432 75.2589 93.648C75.2589 93.6038 75.2279 93.4623 75.2589 93.4225C75.188 93.5242 75.6572 93.334 75.4979 93.3827C75.6086 93.3517 75.7369 93.2633 75.8432 93.2235C76.0512 93.1528 76.2681 93.1174 76.4894 93.1085C76.9276 93.0909 77.3614 93.1749 77.7775 93.3031C78.0431 93.3871 78.3042 93.5463 78.5698 93.6126C78.7601 93.6613 78.5831 93.7011 78.5698 93.5463C78.5654 93.4579 78.5654 93.5728 78.5698 93.564C78.5344 93.6038 78.6141 93.8779 78.6229 93.9531C78.6893 94.5766 78.7247 95.2044 78.7601 95.8279C79.0479 100.634 79.2072 105.45 79.3843 110.265C79.4639 112.484 79.5392 114.7 79.6144 116.919C79.6366 117.587 79.6587 118.255 79.6764 118.927C79.6808 119.086 79.7251 119.298 79.6897 119.458C79.641 119.696 79.4816 119.692 79.1939 119.741C78.3485 119.882 77.3703 119.727 76.6089 119.347C76.2769 119.183 75.9848 119.679 76.3168 119.842C77.0825 120.227 77.9722 120.386 78.8265 120.346C79.278 120.324 80.0925 120.267 80.2474 119.723C80.3404 119.4 80.2474 118.962 80.2386 118.635C80.181 116.707 80.1146 114.784 80.0482 112.86C79.8623 107.568 79.6808 102.275 79.3975 96.9864C79.3533 96.1551 79.309 95.3238 79.2426 94.4925C79.2161 94.1565 79.2426 93.6789 79.1054 93.365C78.9638 93.0466 78.4503 92.9317 78.1537 92.8256C77.4189 92.5647 76.5912 92.4232 75.8254 92.6266C75.4226 92.7327 74.7498 92.998 74.679 93.4534C74.6613 93.5728 74.679 93.7099 74.679 93.8293C74.7277 98.1847 74.8207 102.54 74.9756 106.895C75.0685 109.544 75.1792 112.193 75.3784 114.832C75.4492 115.796 75.5333 116.76 75.6617 117.715C75.7369 118.281 75.7989 118.896 76.0158 119.431C76.0822 119.59 76.1574 119.749 76.3124 119.838C76.6311 120.028 76.9232 119.528 76.6045 119.343H76.6133Z" fill="#120F0F"/>
<path d="M87.7811 119.361C87.2101 119.679 86.5815 119.931 85.9309 120.002C85.7051 120.028 85.4838 120.028 85.258 120.002C85.0013 119.966 84.8066 119.825 84.5631 119.772C84.4215 119.741 84.417 119.812 84.3683 119.732C84.3241 119.661 84.3683 119.414 84.3683 119.334C84.3683 119.091 84.3683 118.843 84.3728 118.6C84.3861 116.716 84.4038 114.837 84.4303 112.953C84.5011 107.922 84.5675 102.885 84.8685 97.8622C84.9216 96.9734 84.9792 96.0846 85.0766 95.2003C85.1253 94.7537 85.1474 94.2319 85.3289 93.8074C85.3333 93.7986 85.351 93.7632 85.4307 93.7057C85.7007 93.5156 86.0592 93.4581 86.3779 93.4272C86.7365 93.3962 87.0994 93.4051 87.458 93.4537C87.6793 93.4847 88.1618 93.52 88.3167 93.7102C88.4008 93.8119 88.3477 94.3425 88.3477 94.568C88.299 98.9013 88.2105 103.23 88.1086 107.563C88.0511 110.022 87.9936 112.48 87.9095 114.939C87.8608 116.389 87.8696 117.87 87.697 119.312C87.6837 119.414 87.6926 119.338 87.6793 119.436C87.666 119.555 87.6527 119.462 87.7191 119.409C87.427 119.639 87.8386 120.041 88.1263 119.816C88.3477 119.644 88.299 119.047 88.3167 118.808C88.3698 118.061 88.4008 117.313 88.4273 116.566C88.5247 114.108 88.5867 111.645 88.6442 109.186C88.7593 104.406 88.8567 99.622 88.9142 94.8421C88.9187 94.4795 88.9674 94.0772 88.9231 93.7146C88.7903 92.6666 86.7055 92.7772 85.9973 92.901C85.2536 93.0292 84.8154 93.3255 84.6649 94.0374C84.5188 94.7272 84.4657 95.4391 84.4082 96.1377C83.9788 101.293 83.9478 106.493 83.8726 111.662C83.8416 113.82 83.815 115.982 83.7973 118.14C83.7973 118.635 83.7664 119.139 83.7885 119.635C83.8328 120.647 85.621 120.656 86.3292 120.523C86.9401 120.408 87.5244 120.161 88.0644 119.86C88.3875 119.679 88.0998 119.184 87.7722 119.365L87.7811 119.361Z" fill="#120F0F"/>
<path d="M96.3994 119.36C95.8284 119.679 95.1999 119.931 94.5492 120.002C94.08 120.055 93.509 120.019 93.1151 119.727C92.9955 119.639 93.0398 119.833 92.9911 119.723C92.876 119.466 92.9911 118.887 92.9955 118.613C93.0088 116.756 93.0265 114.903 93.0575 113.046C93.1328 108.019 93.208 102.978 93.571 97.9637C93.6639 96.6549 93.7082 95.0896 94.1243 93.9046C94.1553 93.8161 94.1597 93.8294 94.1818 93.8117C94.1331 93.8559 94.4164 93.6968 94.5005 93.6614C94.7218 93.5685 94.9476 93.4978 95.1822 93.4447C95.6071 93.343 96.0453 93.2944 96.4835 93.3076C96.6694 93.3121 96.8509 93.3386 97.0324 93.3784C97.09 93.3917 97.2582 93.4934 97.2316 93.4403C97.3423 93.6348 97.2227 94.2185 97.2183 94.4308C97.1254 98.8215 96.9926 103.212 96.8509 107.599C96.7713 110.062 96.6872 112.524 96.5809 114.983C96.519 116.416 96.5234 117.884 96.3286 119.307C96.3198 119.365 96.3242 119.334 96.3109 119.427C96.2932 119.546 96.2888 119.449 96.3507 119.4C96.0586 119.63 96.4703 120.032 96.758 119.807C96.9793 119.635 96.935 119.046 96.9527 118.808C97.0147 118.056 97.0501 117.304 97.0855 116.553C97.205 114.107 97.2891 111.658 97.3732 109.213C97.537 104.388 97.6787 99.5644 97.7849 94.7403C97.7938 94.3246 97.8469 93.8869 97.807 93.4712C97.7008 92.3083 95.492 92.7461 94.8059 92.9406C94.0402 93.1573 93.6462 93.3607 93.4603 94.1036C93.2877 94.7978 93.2169 95.5229 93.146 96.2348C92.6237 101.364 92.5927 106.564 92.5042 111.715C92.4688 113.864 92.4422 116.013 92.4245 118.158C92.4245 118.644 92.3936 119.135 92.4157 119.617C92.4599 120.638 94.2438 120.647 94.9564 120.51C95.5673 120.395 96.1516 120.147 96.6916 119.847C97.0147 119.665 96.727 119.17 96.3994 119.352V119.36Z" fill="#120F0F"/>
<path d="M104.535 119.153C103.964 119.471 103.336 119.723 102.685 119.794C102.216 119.847 101.64 119.812 101.251 119.52C101.131 119.431 101.175 119.63 101.127 119.515C101.021 119.254 101.153 118.68 101.162 118.405C101.224 116.548 101.299 114.696 101.379 112.839C101.596 107.811 101.813 102.766 102.309 97.7561C102.441 96.4384 102.525 94.8908 102.968 93.6969C102.999 93.6085 103.008 93.6217 103.026 93.6041C102.981 93.6483 103.256 93.4935 103.344 93.4537C103.566 93.3609 103.791 93.2901 104.026 93.2371C104.451 93.1354 104.889 93.0867 105.327 93.1C105.513 93.1044 105.695 93.1309 105.876 93.1707C105.934 93.184 106.102 93.2857 106.075 93.2326C106.182 93.4272 106.049 94.0153 106.036 94.2231C105.832 98.6139 105.575 103.005 105.31 107.391C105.164 109.854 105.009 112.317 104.836 114.775C104.739 116.177 104.694 117.711 104.469 119.051C104.46 119.109 104.447 119.166 104.438 119.223C104.416 119.343 104.411 119.246 104.478 119.197C104.185 119.422 104.597 119.829 104.885 119.604C105.106 119.431 105.075 118.839 105.102 118.604C105.181 117.853 105.239 117.101 105.296 116.349C105.482 113.904 105.637 111.455 105.788 109.009C106.084 104.185 106.368 99.3611 106.598 94.537C106.615 94.1258 106.682 93.6792 106.651 93.268C106.558 92.1007 104.327 92.5473 103.65 92.7374C102.88 92.9585 102.494 93.1619 102.291 93.9003C102.101 94.5945 102.012 95.3197 101.923 96.0316C101.264 101.156 101.091 106.356 100.857 111.512C100.759 113.661 100.675 115.805 100.6 117.954C100.582 118.441 100.542 118.932 100.551 119.414C100.573 120.435 102.388 120.444 103.088 120.307C103.698 120.192 104.283 119.944 104.823 119.644C105.146 119.462 104.858 118.967 104.531 119.148L104.535 119.153Z" fill="#120F0F"/>
<path d="M113.06 118.936C112.657 119.148 112.193 119.281 111.759 119.405C111.214 119.564 110.502 119.798 109.935 119.661C109.537 119.564 109.661 119.166 109.683 118.843C109.798 117.203 109.922 115.562 110.046 113.922C110.444 108.766 110.86 103.601 111.502 98.4678C111.697 96.898 111.803 95.1603 112.352 93.6614C112.387 93.5597 112.383 93.5552 112.432 93.4712C112.485 93.3828 112.489 93.3872 112.449 93.4182C113.056 92.9273 114.238 92.8257 114.977 92.8964C115.114 92.9097 115.512 92.9893 115.535 93.0335C115.548 93.0644 115.526 93.1352 115.53 93.1705C115.535 93.3518 115.504 93.5375 115.49 93.7188C115.154 98.0742 114.725 102.425 114.308 106.776C114.065 109.323 113.813 111.866 113.543 114.412C113.388 115.88 113.29 117.384 113.003 118.834C112.989 118.896 112.976 118.958 112.963 119.015C112.941 119.126 112.958 119.015 112.998 118.989C112.706 119.214 113.118 119.621 113.406 119.396C113.627 119.228 113.618 118.622 113.649 118.388C113.76 117.596 113.853 116.796 113.941 116C114.224 113.466 114.477 110.928 114.725 108.39C115.194 103.584 115.659 98.7729 116.044 93.962C116.07 93.6348 116.203 93.1308 116.061 92.8124C115.831 92.295 114.981 92.2995 114.517 92.3127C113.777 92.3348 112.759 92.4586 112.153 92.9273C111.808 93.1927 111.715 93.7321 111.622 94.1301C111.422 94.9569 111.294 95.8059 111.175 96.646C110.396 102.01 109.984 107.431 109.555 112.829C109.404 114.744 109.258 116.654 109.125 118.569C109.103 118.883 109.019 119.267 109.085 119.581C109.333 120.766 111.347 120.134 112.064 119.913C112.494 119.78 112.95 119.643 113.348 119.431C113.676 119.259 113.383 118.763 113.056 118.936H113.06Z" fill="#120F0F"/>
<path d="M38.3958 91.34C42.4371 91.34 46.474 91.34 50.5153 91.34C57.0088 91.34 63.5023 91.3444 69.9958 91.3488C77.3746 91.3488 84.7578 91.3577 92.1366 91.3577C98.8205 91.3577 105.509 91.3621 112.193 91.3665C116.619 91.3665 121.045 91.3665 125.472 91.3709C125.773 91.3709 126.074 91.3709 126.375 91.3709C126.747 91.3709 126.747 90.7961 126.375 90.7961C122.333 90.7961 118.297 90.7961 114.255 90.7961C107.762 90.7961 101.268 90.7917 94.7748 90.7872C87.396 90.7872 80.0127 90.7784 72.6339 90.7784C65.9501 90.7784 59.2618 90.774 52.578 90.7696C48.1516 90.7696 43.7252 90.7696 39.2988 90.7651C38.9978 90.7651 38.6968 90.7651 38.3958 90.7651C38.024 90.7651 38.024 91.34 38.3958 91.34Z" fill="#120F0F"/>
<path d="M49.0368 76.5142C49.3422 78.4244 49.5591 80.3522 49.7893 82.2713C49.8335 82.6338 50.409 82.6383 50.3647 82.2713C50.1301 80.2992 49.9044 78.3227 49.5901 76.3594C49.5325 75.9968 48.9748 76.1516 49.0368 76.5142Z" fill="#120F0F"/>
<path d="M69.345 50.9387C69.1503 51.3101 75.781 81.6785 76.6884 82.1118C77.5958 82.5451 82.6242 82.2665 82.6242 82.2665C82.6242 82.2665 74.3513 50.6601 73.2225 50.0986C72.0982 49.537 69.345 50.9387 69.345 50.9387Z" fill="#538D33"/>
<path d="M70.6377 49.7052C70.1552 49.9617 69.509 50.1164 69.3452 50.9345C69.177 51.7569 76.994 74.5641 76.994 74.5641L79.3533 74.0202L71.3813 51.5358C71.3813 51.5358 78.0386 50.059 78.4459 50.4481C78.7867 50.7753 84.2002 70.8543 85.9176 77.2569C86.223 78.3977 87.2101 79.1671 88.3123 79.1229C89.9235 79.061 91.0257 77.3365 90.4989 75.6916C87.967 67.7502 81.686 48.2372 80.9733 48.025C80.0792 47.7597 70.6377 49.6964 70.6377 49.6964V49.7052Z" fill="#538D33"/>
<path d="M73.975 51.35C76.2635 50.8636 78.5563 50.2799 80.8758 49.9748C80.7828 49.9041 80.6899 49.8333 80.5969 49.7626C81.6858 53.1187 82.7703 56.4747 83.8591 59.8352C85.4394 64.7168 87.0196 69.5984 88.6042 74.48C88.799 75.0901 88.9938 75.6959 89.1929 76.3061C89.4762 77.1595 89.7197 78.0571 88.7901 78.6585C88.4803 78.8574 88.768 79.3571 89.0823 79.1537C89.7728 78.7071 90.1225 78.0262 90.0384 77.2037C90.0118 76.9605 89.9543 76.7262 89.8746 76.4918C89.8436 76.4034 89.7817 76.2531 89.8126 76.3415C89.6887 75.9878 89.5825 75.6296 89.4674 75.2714C88.83 73.2994 88.1882 71.3273 87.5508 69.3552C85.8377 64.0624 84.1247 58.774 82.4117 53.4812C81.9912 52.1901 81.5751 50.899 81.1546 49.6034C81.1192 49.4973 81.0041 49.3779 80.8758 49.3912C78.5032 49.7007 76.1616 50.2888 73.8201 50.784C73.4571 50.8592 73.612 51.4163 73.975 51.3367V51.35Z" fill="#74CA45"/>
<path d="M87.9847 78.252C88.5127 78.252 88.9408 77.8244 88.9408 77.2969C88.9408 76.7694 88.5127 76.3418 87.9847 76.3418C87.4566 76.3418 87.0286 76.7694 87.0286 77.2969C87.0286 77.8244 87.4566 78.252 87.9847 78.252Z" fill="#74CA45"/>
</svg>
