<svg width="159" height="113" viewBox="0 0 159 113" fill="none" xmlns="http://www.w3.org/2000/svg">
<path d="M115.542 9.21145C95.413 2.66833 55.4194 7.75349 36.0682 21.6627C-24.4483 65.1607 42.9193 112.865 96.637 100.929C150.355 88.9944 147.714 19.6697 115.542 9.21145Z" fill="#FCDBDB"/>
<path d="M144.5 42.5C144.5 24 139.5 10.5 116 3" stroke="#74CA45" stroke-width="3" stroke-linecap="round"/>
<path d="M9 66.5C10 80 20.5 89.5 27.5 92" stroke="#F17228" stroke-width="3" stroke-linecap="round"/>
<g clip-path="url(#clip0_170_2410)">
<path d="M75.1555 13.672C69.1267 14.3442 63.3048 16.268 58.0626 19.3204C52.8203 22.3728 48.2734 26.4864 44.713 31.3978C44.3653 31.8782 44.1226 32.4263 44.0006 33.0066C43.8785 33.5869 43.88 34.1864 44.0048 34.7661C44.1296 35.3458 44.3749 35.8928 44.7249 36.3714C45.0749 36.8501 45.5217 37.2498 46.0363 37.5445L80 57L79.8665 17.8584C79.8631 17.2641 79.7347 16.6771 79.4896 16.1355C79.2446 15.594 78.8883 15.1101 78.444 14.7153C77.9997 14.3205 77.4773 14.0236 76.9108 13.8438C76.3442 13.6641 75.7462 13.6056 75.1555 13.672Z" fill="#F7A231"/>
<path d="M115.111 31.1574C111.518 26.2705 106.943 22.1882 101.68 19.1719C96.4172 16.1556 90.5823 14.2717 84.5493 13.6411C83.9581 13.5783 83.3603 13.6407 82.7948 13.8242C82.2293 14.0077 81.7087 14.3082 81.267 14.7062C80.8253 15.1041 80.4723 15.5906 80.231 16.1339C79.9897 16.6773 79.8655 17.2653 79.8665 17.8599L80.0001 57L113.83 37.3125C114.343 37.0143 114.787 36.6115 115.133 36.1305C115.48 35.6495 115.722 35.1009 115.842 34.5204C115.963 33.9399 115.961 33.3405 115.835 32.7611C115.709 32.1817 115.462 31.6353 115.111 31.1574Z" fill="#FAB44B"/>
<path d="M80 57L46.1699 76.6875C45.6572 76.9858 45.213 77.3885 44.8662 77.8697C44.5194 78.3508 44.2778 78.8996 44.1569 79.4802C44.0361 80.0609 44.0388 80.6605 44.1649 81.24C44.291 81.8196 44.5376 82.3661 44.8888 82.8441C48.4826 87.7307 53.0574 91.8127 58.3203 94.8288C63.5831 97.8449 69.4178 99.7285 75.4508 100.359C76.042 100.422 76.6398 100.359 77.2053 100.176C77.7708 99.9923 78.2913 99.6918 78.733 99.2939C79.1748 98.896 79.5277 98.4095 79.769 97.8661C80.0104 97.3228 80.1346 96.7347 80.1336 96.1402L80 57ZM119.818 39.2278C119.575 38.6881 119.221 38.2056 118.779 37.8114C118.337 37.4172 117.818 37.1202 117.254 36.9397C116.69 36.7591 116.094 36.699 115.506 36.7632C114.917 36.8275 114.349 37.0146 113.837 37.3125L80 57L113.971 76.4583C114.484 76.7539 115.054 76.938 115.643 76.9988C116.233 77.0595 116.828 76.9955 117.391 76.8108C117.954 76.6261 118.471 76.325 118.91 75.927C119.349 75.529 119.699 75.0431 119.938 74.5008C122.369 68.9357 123.614 62.9249 123.594 56.8517C123.573 50.7786 122.287 44.7764 119.818 39.2278Z" fill="#F7A231"/>
<path d="M109.053 73.6416C109.574 73.9395 110.152 74.1234 110.749 74.181C111.346 74.2387 111.948 74.1687 112.516 73.9757C113.084 73.7827 113.605 73.4712 114.043 73.0619C114.482 72.6525 114.828 72.1545 115.059 71.6011C116.997 66.9326 117.986 61.9251 117.969 56.8704C117.952 51.8158 116.929 46.8151 114.959 42.1598C114.724 41.6081 114.374 41.1126 113.933 40.7063C113.492 40.3 112.969 39.9921 112.4 39.803C111.831 39.614 111.228 39.548 110.631 39.6096C110.035 39.6711 109.458 39.8588 108.939 40.1602L80 57" fill="#FCCB3F"/>
<path d="M80 57L85.6166 60.2175C86.0463 60.4636 86.4034 60.8189 86.6518 61.2473C86.9002 61.6757 87.0311 62.1621 87.0312 62.6573V72.4688C87.0312 73.2147 87.3276 73.93 87.855 74.4575C88.3825 74.9849 89.0978 75.2812 89.8438 75.2812C90.5897 75.2812 91.305 74.9849 91.8325 74.4575C92.3599 73.93 92.6562 73.2147 92.6562 72.4688V69.1022C92.6561 68.6093 92.7856 68.1249 93.0316 67.6978C93.2776 67.2706 93.6315 66.9157 94.058 66.6684C94.4844 66.4211 94.9683 66.2903 95.4613 66.289C95.9542 66.2877 96.4388 66.4159 96.8666 66.6609C97.2965 66.9072 97.6538 67.2626 97.9022 67.6913C98.1506 68.12 98.2814 68.6067 98.2812 69.1022V85.125C98.2812 85.8709 98.5776 86.5863 99.105 87.1137C99.6325 87.6412 100.348 87.9375 101.094 87.9375C101.84 87.9375 102.555 87.6412 103.082 87.1137C103.61 86.5863 103.906 85.8709 103.906 85.125V75.5456C103.906 75.0528 104.036 74.5687 104.282 74.1417C104.528 73.7148 104.882 73.36 105.309 73.1129C105.735 72.8658 106.219 72.7351 106.712 72.7338C107.204 72.7326 107.689 72.8609 108.117 73.1058L109.053 73.6416" fill="#FCCB3F"/>
<path d="M46.0293 37.5417C45.5159 37.2461 44.946 37.062 44.3568 37.0012C43.7675 36.9405 43.172 37.0045 42.6092 37.1892C42.0463 37.3739 41.5286 37.675 41.0899 38.073C40.6511 38.471 40.3011 38.9569 40.0626 39.4992C37.6309 45.0643 36.3857 51.0751 36.4063 57.1483C36.4269 63.2214 37.7128 69.2236 40.1821 74.7722C40.4254 75.3119 40.7795 75.7944 41.2212 76.1886C41.6629 76.5828 42.1826 76.8798 42.7464 77.0603C43.3102 77.2409 43.9057 77.301 44.4942 77.2368C45.0828 77.1726 45.6513 76.9854 46.1629 76.6875L80 57L46.0293 37.5417Z" fill="#FAB44B"/>
<path d="M75.1752 19.335C70.153 19.9767 65.3101 21.6172 60.9319 24.1598C56.5537 26.7025 52.7288 30.0959 49.6827 34.14C49.3204 34.619 49.0642 35.1695 48.9311 35.7551C48.798 36.3407 48.7911 36.9479 48.9108 37.5364C49.0305 38.1249 49.2741 38.6812 49.6254 39.1682C49.9767 39.6553 50.4277 40.062 50.9483 40.3613L80 57L79.8861 23.5186C79.8852 22.9236 79.7585 22.3355 79.5142 21.7929C79.2699 21.2504 78.9136 20.7656 78.4687 20.3705C78.0238 19.9754 77.5004 19.6789 76.9327 19.5004C76.3651 19.322 75.7662 19.2656 75.1752 19.335Z" fill="#FCCB3F"/>
<path d="M110.161 33.9375C107.087 29.9154 103.238 26.5493 98.8429 24.0376C94.4474 21.5258 89.5936 19.9192 84.5675 19.3125C83.9758 19.247 83.3769 19.3075 82.8103 19.4899C82.2436 19.6724 81.722 19.9728 81.2796 20.3712C80.8373 20.7697 80.4844 21.2573 80.2439 21.8019C80.0035 22.3466 79.8811 22.9359 79.8847 23.5312L80 57L108.932 40.1644C109.451 39.8618 109.899 39.4525 110.247 38.9635C110.595 38.4745 110.835 37.9171 110.951 37.3282C111.068 36.7393 111.057 36.1324 110.921 35.5478C110.785 34.9632 110.526 34.4143 110.161 33.9375Z" fill="#FFD65A"/>
<path d="M80 57L51.0678 73.8356C50.549 74.1381 50.1004 74.5476 49.752 75.0368C49.4036 75.526 49.1633 76.0838 49.047 76.673C48.9308 77.2623 48.9413 77.8695 49.0778 78.4544C49.2143 79.0393 49.4737 79.5884 49.8388 80.0653C52.9126 84.0887 56.7607 87.4561 61.1562 89.9691C65.5518 92.482 70.4059 94.0897 75.4325 94.6973C76.0242 94.7628 76.6231 94.7024 77.1898 94.5199C77.7565 94.3374 78.2781 94.037 78.7204 93.6386C79.1627 93.2401 79.5157 92.7525 79.7561 92.2079C79.9965 91.6633 80.119 91.0739 80.1153 90.4786L80 57Z" fill="#FCCB3F"/>
<path d="M50.9469 40.3584C50.4263 40.0604 49.8483 39.8765 49.2512 39.8189C48.6542 39.7613 48.0517 39.8313 47.4837 40.0243C46.9158 40.2172 46.3953 40.5287 45.9569 40.9381C45.5185 41.3475 45.1721 41.8455 44.9408 42.3989C43.0032 47.0674 42.0141 52.0749 42.0313 57.1295C42.0484 62.1842 43.0714 67.1848 45.0406 71.8401C45.2759 72.3919 45.6257 72.8873 46.067 73.2937C46.5082 73.7 47.0307 74.0079 47.6 74.197C48.1692 74.386 48.7721 74.452 49.3688 74.3904C49.9654 74.3288 50.5422 74.1412 51.0608 73.8398L80 57L50.9469 40.3584Z" fill="#FFD65A"/>
<path d="M102.641 39.3712C101.322 38.0527 99.5336 37.3119 97.6688 37.3119C95.804 37.3119 94.0156 38.0527 92.697 39.3712L102.641 49.3162C103.294 48.6633 103.812 47.8881 104.165 47.0349C104.519 46.1817 104.701 45.2673 104.701 44.3437C104.701 43.4202 104.519 42.5058 104.165 41.6526C103.812 40.7994 103.294 40.0242 102.641 39.3712Z" fill="#B47850"/>
<path d="M95.6741 42.3553L92.6914 45.338C92.4301 45.5992 92.2229 45.9093 92.0814 46.2506C91.94 46.5919 91.8672 46.9577 91.8672 47.3271C91.8672 47.6966 91.94 48.0624 92.0814 48.4037C92.2229 48.745 92.4301 49.0551 92.6914 49.3163C92.9526 49.5776 93.2627 49.7848 93.604 49.9263C93.9453 50.0677 94.3111 50.1404 94.6806 50.1404C95.05 50.1404 95.4158 50.0677 95.7571 49.9263C96.0984 49.7848 96.4085 49.5776 96.6697 49.3163L99.6523 46.3322L95.6741 42.3553Z" fill="#FFF8E6"/>
<path d="M64.5312 62.625C62.6664 62.625 60.878 63.3658 59.5594 64.6844C58.2408 66.003 57.5 67.7914 57.5 69.6562H71.5625C71.5625 67.7914 70.8217 66.003 69.5031 64.6844C68.1845 63.3658 66.3961 62.625 64.5312 62.625Z" fill="#B47850"/>
<path d="M61.7188 69.6562V73.875C61.7188 74.6209 62.0151 75.3363 62.5425 75.8637C63.07 76.3912 63.7853 76.6875 64.5312 76.6875C65.2772 76.6875 65.9925 76.3912 66.52 75.8637C67.0474 75.3363 67.3438 74.6209 67.3438 73.875V69.6562H61.7188Z" fill="#FFF8E6"/>
<path d="M61.7188 51.375C64.8254 51.375 67.3438 48.8566 67.3438 45.75C67.3438 42.6434 64.8254 40.125 61.7188 40.125C58.6121 40.125 56.0938 42.6434 56.0938 45.75C56.0938 48.8566 58.6121 51.375 61.7188 51.375Z" fill="#FF7896"/>
<path d="M80 42.9375C82.33 42.9375 84.2188 41.0487 84.2188 38.7188C84.2188 36.3888 82.33 34.5 80 34.5C77.67 34.5 75.7812 36.3888 75.7812 38.7188C75.7812 41.0487 77.67 42.9375 80 42.9375Z" fill="#FF7896"/>
<path d="M108.125 61.2188C110.455 61.2188 112.344 59.33 112.344 57C112.344 54.67 110.455 52.7812 108.125 52.7812C105.795 52.7812 103.906 54.67 103.906 57C103.906 59.33 105.795 61.2188 108.125 61.2188Z" fill="#FF7896"/>
<path d="M74.375 80.9062C74.375 82.3981 74.9676 83.8288 76.0225 84.8837C77.0774 85.9386 78.5082 86.5312 80 86.5312V75.2812C78.5082 75.2812 77.0774 75.8739 76.0225 76.9288C74.9676 77.9837 74.375 79.4144 74.375 80.9062Z" fill="#FF7896"/>
<path d="M49.0625 55.5938H50.4688C51.5876 55.5938 52.6607 56.0382 53.4519 56.8294C54.243 57.6206 54.6875 58.6936 54.6875 59.8125V61.2188H53.2812C52.1624 61.2188 51.0893 60.7743 50.2981 59.9831C49.507 59.1919 49.0625 58.1189 49.0625 57V55.5938ZM64.5312 30.2812H65.9375C67.0564 30.2812 68.1294 30.7257 68.9206 31.5169C69.7118 32.3081 70.1562 33.3811 70.1562 34.5V35.9062H68.75C67.6311 35.9062 66.5581 35.4618 65.7669 34.6706C64.9757 33.8794 64.5312 32.8064 64.5312 31.6875V30.2812ZM94.0625 31.6875H92.6562C91.5374 31.6875 90.4643 31.243 89.6731 30.4519C88.882 29.6607 88.4375 28.5876 88.4375 27.4688V26.0625H89.8438C90.9626 26.0625 92.0357 26.507 92.8269 27.2981C93.618 28.0893 94.0625 29.1624 94.0625 30.2812V31.6875Z" fill="#8BE89B"/>
<path d="M101.094 97.7812C102.647 97.7812 103.906 96.5221 103.906 94.9688C103.906 93.4154 102.647 92.1562 101.094 92.1562C99.5404 92.1562 98.2812 93.4154 98.2812 94.9688C98.2812 96.5221 99.5404 97.7812 101.094 97.7812Z" fill="#FCCB3F"/>
<path d="M101.094 91.1016C100.329 91.1016 99.5812 91.3284 98.9453 91.7533C98.3093 92.1782 97.8137 92.7822 97.521 93.4888C97.2283 94.1955 97.1517 94.973 97.3009 95.7232C97.4501 96.4734 97.8184 97.1624 98.3593 97.7033C98.9001 98.2441 99.5892 98.6124 100.339 98.7616C101.089 98.9109 101.867 98.8343 102.574 98.5416C103.28 98.2489 103.884 97.7532 104.309 97.1172C104.734 96.4813 104.961 95.7336 104.961 94.9688C104.96 93.9433 104.553 92.9601 103.827 92.2351C103.102 91.51 102.119 91.1023 101.094 91.1016ZM101.094 96.7266C100.746 96.7266 100.406 96.6235 100.117 96.4303C99.8281 96.2372 99.6028 95.9626 99.4698 95.6414C99.3367 95.3202 99.3019 94.9668 99.3697 94.6258C99.4376 94.2848 99.605 93.9716 99.8508 93.7258C100.097 93.48 100.41 93.3125 100.751 93.2447C101.092 93.1769 101.445 93.2117 101.766 93.3447C102.088 93.4778 102.362 93.7031 102.555 93.9922C102.748 94.2812 102.852 94.6211 102.852 94.9688C102.851 95.4347 102.665 95.8814 102.336 96.2109C102.006 96.5404 101.56 96.7258 101.094 96.7266ZM120.788 38.8298C120.416 37.9903 119.83 37.2624 119.091 36.7179C118.351 36.1734 117.482 35.8311 116.57 35.7248C116.929 34.8814 117.062 33.9587 116.956 33.048C116.85 32.1372 116.509 31.2699 115.965 30.5316C112.279 25.5308 107.591 21.3528 102.201 18.2639C96.8104 15.1749 90.8358 13.2428 84.6575 12.5906C83.9166 12.5141 83.1679 12.5942 82.46 12.8258C81.7521 13.0574 81.1008 13.4353 80.5485 13.935C80.2933 14.1648 80.062 14.4197 79.858 14.6958C79.6498 14.417 79.4143 14.1598 79.1549 13.928C78.6024 13.4357 77.9526 13.065 77.2476 12.8402C76.5426 12.6154 75.7982 12.5414 75.0627 12.623C68.8892 13.3151 62.9276 15.2856 57.5577 18.4089C52.1879 21.5322 47.5275 25.7398 43.8735 30.7636C43.4365 31.3673 43.1315 32.0561 42.9781 32.7853C42.8248 33.5146 42.8265 34.2679 42.9833 34.9964C43.0543 35.3341 43.1589 35.6639 43.2955 35.9808C42.9495 36.0233 42.6085 36.0996 42.2774 36.2086C41.5748 36.4411 40.9291 36.8188 40.382 37.3172C39.835 37.8155 39.3989 38.4234 39.1021 39.1013C36.6166 44.7921 35.3434 50.9381 35.3635 57.148C35.3836 63.3579 36.6966 69.4955 39.2188 75.1702C39.5915 76.0097 40.1766 76.7376 40.9164 77.2821C41.6562 77.8266 42.5251 78.1689 43.4375 78.2752C43.078 79.1186 42.9447 80.0413 43.0507 80.952C43.1568 81.8628 43.4985 82.7301 44.0422 83.4684C47.7276 88.4682 52.4139 92.6456 57.8026 95.7345C63.1913 98.8234 69.1643 100.756 75.3411 101.409C76.0794 101.487 76.8257 101.408 77.5316 101.179C78.2375 100.949 78.8873 100.573 79.4387 100.076C79.99 99.5794 80.4308 98.972 80.7322 98.2936C81.0336 97.6153 81.189 96.8811 81.1883 96.1388L81.0603 58.8281L85.092 61.1386C85.3601 61.2928 85.5828 61.5149 85.7378 61.7825C85.8928 62.0501 85.9747 62.3537 85.9752 62.663V72.4688C85.9752 73.4944 86.3826 74.478 87.1078 75.2033C87.8331 75.9285 88.8167 76.3359 89.8424 76.3359C90.868 76.3359 91.8516 75.9285 92.5769 75.2033C93.3021 74.478 93.7096 73.4944 93.7096 72.4688V69.1022C93.7096 68.636 93.8947 68.1889 94.2244 67.8592C94.5541 67.5296 95.0012 67.3444 95.4674 67.3444C95.9336 67.3444 96.3807 67.5296 96.7103 67.8592C97.04 68.1889 97.2252 68.636 97.2252 69.1022V85.125C97.2252 86.1506 97.6326 87.1343 98.3578 87.8595C99.0831 88.5848 100.067 88.9922 101.092 88.9922C102.118 88.9922 103.102 88.5848 103.827 87.8595C104.552 87.1343 104.96 86.1506 104.96 85.125V75.5456C104.958 75.2368 105.039 74.9332 105.192 74.6653C105.346 74.3974 105.567 74.1747 105.834 74.0196C106.101 73.8645 106.405 73.7824 106.713 73.7817C107.022 73.7811 107.326 73.8617 107.593 74.0156L113.439 77.3653C114.082 77.7338 114.796 77.9627 115.533 78.0373C116.271 78.1119 117.016 78.0304 117.72 77.7981C118.424 77.5659 119.071 77.1881 119.619 76.6893C120.167 76.1905 120.605 75.5818 120.902 74.903C123.389 69.2117 124.663 63.0651 124.643 56.8544C124.623 50.6438 123.311 44.5053 120.788 38.8298ZM81.9688 15.4988C82.5559 14.9678 83.3189 14.6732 84.1105 14.6719C84.2209 14.6717 84.3312 14.6778 84.441 14.6902C90.3264 15.312 96.0177 17.153 101.152 20.096C106.287 23.0389 110.752 27.0192 114.263 31.7831C114.529 32.1392 114.715 32.5479 114.809 32.9818C114.904 33.4156 114.905 33.8647 114.812 34.2989C114.722 34.737 114.541 35.1512 114.281 35.5147C114.02 35.8781 113.686 36.1826 113.3 36.4083L112.051 37.1353C112.213 35.7682 111.835 34.3918 110.998 33.2991C107.831 29.1744 103.874 25.7208 99.3599 23.1392C94.8453 20.5577 89.8624 18.8998 84.7011 18.262C83.3597 18.1022 82.0087 18.4703 80.9338 19.2886V17.8373C80.9312 17.3965 81.0222 16.9602 81.2006 16.5571C81.379 16.154 81.6408 15.7933 81.9688 15.4988ZM78.875 33.5691C77.6985 33.8281 76.6461 34.4821 75.893 35.4224C75.1399 36.3627 74.7314 37.5325 74.7355 38.7372C74.7396 39.9418 75.156 41.1088 75.9156 42.0439C76.6751 42.979 77.7319 43.6259 78.9102 43.8769L78.9481 55.1761L67.6981 48.7341C68.4587 47.2086 68.6072 45.45 68.1132 43.8186C67.6191 42.1872 66.52 40.8065 65.0409 39.9593C63.5618 39.112 61.8147 38.8625 60.1575 39.2617C58.5004 39.6609 57.0586 40.6786 56.1275 42.1064L51.4531 39.4345C51.0647 39.2077 50.7285 38.9014 50.4666 38.5358C50.2046 38.1701 50.0228 37.7533 49.933 37.3125C49.8394 36.8824 49.8399 36.4371 49.9346 36.0072C50.0293 35.5774 50.2158 35.173 50.4814 34.822C53.446 30.8954 57.1618 27.5975 61.4128 25.1203C65.6637 22.6431 70.3649 21.036 75.2427 20.3925C75.6899 20.3342 76.1443 20.3718 76.5759 20.5027C77.0074 20.6336 77.4062 20.8549 77.7456 21.1517C78.0851 21.4486 78.3574 21.8144 78.5447 22.2246C78.7319 22.6349 78.8296 23.0803 78.8314 23.5313L78.875 33.5691ZM73.3203 80.9062C73.3232 82.5121 73.9035 84.0633 74.9553 85.2767C76.0071 86.4901 77.4603 87.2848 79.0494 87.5156L79.0592 90.4842C79.06 90.9357 78.965 91.3822 78.7805 91.7943C78.5961 92.2064 78.3263 92.5747 77.9891 92.8748C77.6635 93.1712 77.2776 93.3936 76.8578 93.5266C76.4381 93.6597 75.9946 93.7002 75.5577 93.6455C70.6744 93.0435 65.9596 91.4761 61.6878 89.0346C57.4161 86.593 53.6726 83.3261 50.6755 79.4241C50.4016 79.0661 50.2071 78.6539 50.1047 78.2149C50.0024 77.776 49.9946 77.3203 50.0818 76.878C50.1691 76.4358 50.3494 76.0172 50.6108 75.65C50.8722 75.2829 51.2087 74.9755 51.598 74.7483L58.535 70.7109H60.6641V73.875C60.6641 74.9006 61.0715 75.8843 61.7968 76.6095C62.522 77.3348 63.5056 77.7422 64.5313 77.7422C65.5569 77.7422 66.5405 77.3348 67.2658 76.6095C67.991 75.8843 68.3985 74.9006 68.3985 73.875V70.7109H71.5625C71.8422 70.7109 72.1105 70.5998 72.3083 70.402C72.5061 70.2042 72.6172 69.936 72.6172 69.6563C72.6177 68.5877 72.4057 67.5296 71.9936 66.5437C71.5815 65.5577 70.9775 64.6636 70.2167 63.9131L78.951 58.8281L79.0044 74.2969C77.4233 74.5372 75.9807 75.3361 74.938 76.5486C73.8952 77.7611 73.3213 79.307 73.3203 80.9062ZM79.0156 76.4442L79.0466 85.3753C78.0266 85.1568 77.112 84.596 76.4548 83.7859C75.7976 82.9759 75.4373 81.9654 75.4337 80.9222C75.43 79.8791 75.7834 78.8661 76.435 78.0516C77.0866 77.237 77.9972 76.6698 79.0156 76.4442ZM61.7188 52.4297C62.5989 52.4308 63.4706 52.2573 64.2833 51.9194C65.096 51.5815 65.8337 51.0858 66.4536 50.4609L77.8906 57.007L68.3746 62.5434C67.1558 61.8844 65.7882 61.5496 64.4029 61.5713C63.0175 61.593 61.661 61.9705 60.4636 62.6674C59.2661 63.3643 58.2679 64.3574 57.5647 65.5512C56.8616 66.745 56.4771 68.0995 56.4481 69.4847L50.5067 72.9412C50.1179 73.1627 49.6869 73.2999 49.2416 73.344C48.7963 73.3881 48.3468 73.3381 47.9221 73.1972C47.5033 73.0642 47.1183 72.8423 46.7933 72.5467C46.4683 72.2511 46.211 71.8887 46.0391 71.4844C44.1193 66.9538 43.1199 62.0866 43.0992 57.1661C43.0784 52.2457 44.0367 47.3702 45.9181 42.8236C46.0905 42.4067 46.3496 42.0312 46.6783 41.7222C47.007 41.4132 47.3977 41.1776 47.8244 41.0313C48.2512 40.885 48.7042 40.8312 49.1533 40.8735C49.6025 40.9158 50.0375 41.0533 50.4294 41.2767L55.2599 44.0442C54.9993 45.0329 54.9691 46.0682 55.1715 47.0704C55.374 48.0726 55.8037 49.015 56.4276 49.825C57.0515 50.635 57.853 51.291 58.7703 51.7426C59.6876 52.1942 60.6963 52.4292 61.7188 52.4297ZM57.1485 45.75C57.1485 44.8461 57.4165 43.9625 57.9187 43.2109C58.4209 42.4593 59.1347 41.8735 59.9698 41.5276C60.8049 41.1817 61.7238 41.0912 62.6104 41.2675C63.4969 41.4439 64.3113 41.8791 64.9505 42.5183C65.5896 43.1575 66.0249 43.9718 66.2013 44.8584C66.3776 45.7449 66.2871 46.6639 65.9412 47.499C65.5953 48.3341 65.0095 49.0479 64.2579 49.5501C63.5063 50.0523 62.6227 50.3203 61.7188 50.3203C60.5071 50.3188 59.3455 49.8368 58.4887 48.9801C57.6319 48.1233 57.1499 46.9617 57.1485 45.75ZM58.6475 68.6016C58.8955 67.2216 59.6206 65.9726 60.6961 65.0731C61.7717 64.1736 63.1292 63.6808 64.5313 63.6808C65.9334 63.6808 67.2909 64.1736 68.3664 65.0731C69.4419 65.9726 70.1671 67.2216 70.415 68.6016H58.6475ZM66.2891 70.7109V73.875C66.2891 74.3412 66.1039 74.7883 65.7742 75.118C65.4446 75.4476 64.9975 75.6328 64.5313 75.6328C64.0651 75.6328 63.618 75.4476 63.2883 75.118C62.9587 74.7883 62.7735 74.3412 62.7735 73.875V70.7109H66.2891ZM45.4063 32.2767C45.4609 32.1796 45.521 32.0857 45.5863 31.9955C49.0672 27.2112 53.5063 23.2042 58.6209 20.2299C63.7355 17.2555 69.4136 15.379 75.2933 14.7197C75.7343 14.6682 76.1812 14.7114 76.6041 14.8465C77.0271 14.9816 77.4163 15.2054 77.7458 15.503C78.079 15.7995 78.3459 16.1629 78.5293 16.5695C78.7127 16.976 78.8085 17.4166 78.8103 17.8627V19.3083C77.7076 18.4838 76.3266 18.1226 74.9614 18.3014C69.8057 18.9832 64.837 20.6837 60.3446 23.3039C55.8522 25.924 51.9258 29.4115 48.7939 33.5634C47.984 34.6448 47.6264 35.9989 47.7969 37.3392L46.558 36.6361L46.5439 36.6277C46.1603 36.4077 45.8278 36.1086 45.5686 35.7502C45.3094 35.3919 45.1295 34.9825 45.0406 34.5492C44.8765 33.7726 45.0068 32.9627 45.4063 32.2767ZM43.0775 76.0505C42.3221 75.8066 41.6842 75.2909 41.2874 74.6034C41.2328 74.5078 41.1825 74.4097 41.1369 74.3095C38.7337 68.9012 37.4831 63.0518 37.4647 57.1336C37.4463 51.2154 38.6605 45.3583 41.03 39.9352C41.2055 39.5271 41.4662 39.1614 41.7946 38.8623C42.123 38.5633 42.5115 38.3379 42.9341 38.2013C43.3579 38.0615 43.8064 38.0123 44.2504 38.0569C44.6944 38.1014 45.1242 38.2388 45.5117 38.46L46.7647 39.1786C45.4998 39.722 44.4965 40.7369 43.9677 42.008C41.9799 46.8148 40.9678 51.969 40.9902 57.1706C41.0127 62.3723 42.0692 67.5175 44.0985 72.307C44.6312 73.5482 45.6256 74.5336 46.8716 75.0548L45.6369 75.7734L45.6228 75.7819C45.2417 76.004 44.8177 76.1428 44.379 76.1891C43.9402 76.2354 43.4967 76.1882 43.0775 76.0505ZM78.0313 98.5013C77.4427 99.0335 76.6775 99.3282 75.8839 99.3281C75.7735 99.3283 75.6632 99.3223 75.5535 99.3099C69.669 98.6873 63.9788 96.8459 58.8453 93.903C53.7117 90.9601 49.2474 86.9802 45.7367 82.2169C45.4714 81.8608 45.2853 81.4521 45.1907 81.0182C45.0961 80.5844 45.0953 80.1353 45.1883 79.7011C45.2779 79.263 45.4589 78.8488 45.7194 78.4853C45.9798 78.1219 46.314 77.8174 46.7 77.5917L47.9488 76.8647C47.7868 78.2318 48.1647 79.6082 49.0021 80.7009C52.1695 84.8257 56.1256 88.2793 60.6401 90.8608C65.1547 93.4423 70.1376 95.1002 75.2989 95.738C76.6405 95.8974 77.9916 95.5288 79.0663 94.71V96.1388C79.0718 96.5835 78.9823 97.0243 78.8038 97.4317C78.6253 97.8391 78.3619 98.2038 78.0313 98.5013ZM76.836 38.7188C76.836 38.093 77.0215 37.4812 77.3692 36.9609C77.7169 36.4406 78.211 36.035 78.7892 35.7955C79.3673 35.5561 80.0035 35.4934 80.6173 35.6155C81.2311 35.7376 81.7948 36.0389 82.2374 36.4814C82.6799 36.9239 82.9812 37.4877 83.1033 38.1015C83.2254 38.7152 83.1627 39.3514 82.9232 39.9296C82.6838 40.5077 82.2782 41.0019 81.7579 41.3496C81.2376 41.6972 80.6258 41.8828 80 41.8828C79.1611 41.8821 78.3567 41.5485 77.7635 40.9553C77.1703 40.362 76.8367 39.5577 76.836 38.7188ZM81.0547 55.1719L81.0167 43.898C82.2205 43.6631 83.3047 43.0161 84.0829 42.0681C84.8611 41.1202 85.2845 39.9307 85.2803 38.7042C85.2762 37.4778 84.8447 36.2912 84.0601 35.3485C83.2755 34.4059 82.1869 33.7662 80.9816 33.5395L80.9464 23.4905C80.949 23.043 81.0455 22.6011 81.2299 22.1933C81.4143 21.7856 81.6823 21.4212 82.0166 21.1238C82.3422 20.8274 82.7281 20.605 83.1478 20.472C83.5675 20.3389 84.0111 20.2984 84.448 20.3531C89.3304 20.956 94.0442 22.524 98.3149 24.9657C102.586 27.4075 106.328 30.6742 109.325 34.5759C109.598 34.934 109.793 35.3461 109.895 35.7851C109.998 36.224 110.005 36.6798 109.918 37.122C109.831 37.5642 109.651 37.9828 109.389 38.35C109.128 38.7172 108.791 39.0245 108.402 39.2517L105.102 41.1727C104.583 39.9557 103.774 38.8846 102.745 38.0532C101.716 37.2218 100.499 36.6556 99.2004 36.4042C97.9018 36.1528 96.5613 36.2239 95.2965 36.6113C94.0317 36.9986 92.8813 37.6904 91.9461 38.6259C91.8481 38.7238 91.7704 38.8399 91.7174 38.9678C91.6644 39.0957 91.6371 39.2328 91.6371 39.3713C91.6371 39.5097 91.6644 39.6468 91.7174 39.7747C91.7704 39.9026 91.8481 40.0187 91.9461 40.1166L94.1835 42.3539L91.9461 44.5913C91.3528 45.186 90.969 45.9576 90.8525 46.7896C90.7361 47.6216 90.8934 48.4689 91.3006 49.2038L81.0547 55.1719ZM94.2552 39.4402C95.4061 38.6386 96.8023 38.2674 98.1994 38.3915C99.5965 38.5156 100.905 39.1271 101.897 40.1189C102.889 41.1108 103.5 42.4198 103.624 43.8169C103.748 45.214 103.376 46.6101 102.575 47.7609L94.2552 39.4402ZM98.166 46.3308L95.9286 48.5681C95.7664 48.736 95.5724 48.8698 95.3579 48.9619C95.1434 49.054 94.9128 49.1024 94.6794 49.1043C94.446 49.1063 94.2145 49.0618 93.9985 48.9733C93.7825 48.8849 93.5863 48.7543 93.4213 48.5892C93.2563 48.4241 93.1258 48.2278 93.0375 48.0118C92.9492 47.7957 92.9048 47.5642 92.9068 47.3308C92.9089 47.0974 92.9575 46.8668 93.0497 46.6523C93.1419 46.4379 93.2758 46.244 93.4438 46.0819L95.6811 43.8445L98.166 46.3308ZM109.582 72.7247L108.647 72.1889C108.059 71.852 107.392 71.6756 106.715 71.6773C106.037 71.679 105.372 71.8587 104.785 72.1986C104.199 72.5384 103.712 73.0263 103.374 73.6135C103.035 74.2007 102.857 74.8665 102.857 75.5442V85.125C102.857 85.5912 102.672 86.0383 102.342 86.368C102.013 86.6976 101.566 86.8828 101.099 86.8828C100.633 86.8828 100.186 86.6976 99.8564 86.368C99.5268 86.0383 99.3416 85.5912 99.3416 85.125V69.1022C99.3416 68.0765 98.9341 67.0929 98.2089 66.3677C97.4837 65.6424 96.5 65.235 95.4744 65.235C94.4488 65.235 93.4651 65.6424 92.7399 66.3677C92.0146 67.0929 91.6072 68.0765 91.6072 69.1022V72.4688C91.6072 72.935 91.422 73.3821 91.0924 73.7117C90.7627 74.0414 90.3156 74.2266 89.8494 74.2266C89.3832 74.2266 88.9361 74.0414 88.6064 73.7117C88.2768 73.3821 88.0916 72.935 88.0916 72.4688V62.6573C88.0907 61.9765 87.9104 61.308 87.569 60.7189C87.2276 60.1299 86.7371 59.6412 86.1467 59.302L82.1094 57L92.8602 50.745C93.5919 51.1346 94.4294 51.279 95.2493 51.157C96.0693 51.0349 96.8284 50.6529 97.415 50.0672L99.6524 47.8313L101.89 50.0672C101.988 50.1652 102.104 50.2429 102.232 50.296C102.36 50.349 102.497 50.3763 102.636 50.3763C102.774 50.3763 102.911 50.349 103.039 50.296C103.167 50.2429 103.284 50.1652 103.382 50.0672C104.259 49.1894 104.923 48.1211 105.321 46.9454C105.718 45.7696 105.84 44.518 105.675 43.2877L109.493 41.0658C109.882 40.8445 110.313 40.7072 110.758 40.6629C111.204 40.6185 111.653 40.6681 112.078 40.8084C112.497 40.9427 112.883 41.166 113.208 41.4631C113.533 41.7602 113.79 42.124 113.961 42.5297C115.881 47.0602 116.88 51.9274 116.901 56.8479C116.922 61.7684 115.963 66.6439 114.082 71.1905C113.91 71.606 113.651 71.9802 113.323 72.2882C112.995 72.5963 112.606 72.8312 112.18 72.9775C111.755 73.1237 111.303 73.1779 110.855 73.1365C110.407 73.0951 109.973 72.9591 109.582 72.7374V72.7247ZM118.976 74.0634C118.8 74.4715 118.539 74.8372 118.211 75.1363C117.883 75.4353 117.494 75.6607 117.072 75.7973C116.648 75.9371 116.199 75.9863 115.755 75.9417C115.311 75.8972 114.882 75.7598 114.494 75.5386L113.241 74.82C114.506 74.2766 115.509 73.2617 116.038 71.9906C118.026 67.1838 119.038 62.0296 119.015 56.828C118.993 51.6263 117.936 46.4811 115.907 41.6916C115.375 40.4499 114.38 39.464 113.134 38.9423L114.369 38.2252L114.384 38.2153C114.766 37.9936 115.19 37.8551 115.628 37.809C116.067 37.763 116.51 37.8104 116.93 37.9481C117.685 38.192 118.323 38.7077 118.72 39.3952C118.775 39.4894 118.824 39.5878 118.87 39.6891C121.272 45.098 122.522 50.948 122.539 56.8664C122.556 62.7849 121.341 68.642 118.97 74.0648L118.976 74.0634Z" fill="black"/>
<path d="M108.125 51.7266C107.082 51.7266 106.062 52.0358 105.195 52.6153C104.328 53.1947 103.652 54.0183 103.253 54.9819C102.854 55.9455 102.749 57.0059 102.953 58.0288C103.156 59.0517 103.659 59.9914 104.396 60.7289C105.134 61.4664 106.073 61.9686 107.096 62.1721C108.119 62.3756 109.179 62.2712 110.143 61.872C111.107 61.4729 111.93 60.797 112.51 59.9298C113.089 59.0626 113.398 58.043 113.398 57C113.397 55.6019 112.841 54.2614 111.852 53.2728C110.864 52.2841 109.523 51.7281 108.125 51.7266ZM108.125 60.1641C107.499 60.1641 106.887 59.9785 106.367 59.6308C105.847 59.2831 105.441 58.789 105.202 58.2108C104.962 57.6327 104.9 56.9965 105.022 56.3827C105.144 55.769 105.445 55.2052 105.888 54.7627C106.33 54.3202 106.894 54.0188 107.508 53.8967C108.121 53.7746 108.758 53.8373 109.336 54.0768C109.914 54.3163 110.408 54.7218 110.756 55.2421C111.103 55.7625 111.289 56.3742 111.289 57C111.288 57.8389 110.955 58.6433 110.362 59.2365C109.768 59.8297 108.964 60.1633 108.125 60.1641ZM50.4688 54.5391H49.0625C48.7828 54.5391 48.5145 54.6502 48.3167 54.848C48.1189 55.0458 48.0078 55.314 48.0078 55.5938V57C48.0093 58.3981 48.5654 59.7386 49.554 60.7272C50.5426 61.7159 51.8831 62.2719 53.2812 62.2734H54.6875C54.9672 62.2734 55.2355 62.1623 55.4333 61.9645C55.6311 61.7667 55.7422 61.4985 55.7422 61.2188V59.8125C55.7407 58.4144 55.1846 57.0739 54.196 56.0853C53.2074 55.0966 51.8669 54.5406 50.4688 54.5391ZM53.6328 60.1641H53.2812C52.4423 60.1633 51.638 59.8297 51.0447 59.2365C50.4515 58.6433 50.1179 57.8389 50.1172 57V56.6484H50.4688C51.3077 56.6492 52.112 56.9828 52.7053 57.576C53.2985 58.1692 53.6321 58.9736 53.6328 59.8125V60.1641ZM65.9375 29.2266H64.5312C64.2515 29.2266 63.9833 29.3377 63.7855 29.5355C63.5877 29.7333 63.4766 30.0015 63.4766 30.2812V31.6875C63.4781 33.0856 64.0341 34.4261 65.0228 35.4147C66.0114 36.4034 67.3519 36.9594 68.75 36.9609H70.1562C70.436 36.9609 70.7042 36.8498 70.902 36.652C71.0998 36.4542 71.2109 36.186 71.2109 35.9062V34.5C71.2094 33.1019 70.6534 31.7614 69.6647 30.7728C68.6761 29.7841 67.3356 29.2281 65.9375 29.2266ZM69.1016 34.8516H68.75C67.9111 34.8508 67.1067 34.5172 66.5135 33.924C65.9203 33.3308 65.5867 32.5264 65.5859 31.6875V31.3359H65.9375C66.7764 31.3367 67.5808 31.6703 68.174 32.2635C68.7672 32.8567 69.1008 33.6611 69.1016 34.5V34.8516ZM94.0625 32.7422C94.3422 32.7422 94.6105 32.6311 94.8083 32.4333C95.0061 32.2355 95.1172 31.9672 95.1172 31.6875V30.2812C95.1157 28.8831 94.5596 27.5426 93.571 26.554C92.5824 25.5654 91.2419 25.0093 89.8438 25.0078H88.4375C88.1578 25.0078 87.8895 25.1189 87.6917 25.3167C87.4939 25.5145 87.3828 25.7828 87.3828 26.0625V27.4688C87.3843 28.8669 87.9404 30.2074 88.929 31.196C89.9176 32.1846 91.2581 32.7407 92.6562 32.7422H94.0625ZM89.4922 27.4688V27.1172H89.8438C90.6827 27.1179 91.487 27.4515 92.0803 28.0447C92.6735 28.638 93.0071 29.4423 93.0078 30.2812V30.6328H92.6562C91.8173 30.6321 91.013 30.2985 90.4197 29.7053C89.8265 29.112 89.4929 28.3077 89.4922 27.4688Z" fill="black"/>
<path d="M96.875 59.4609C97.4575 59.4609 97.9297 58.9887 97.9297 58.4062C97.9297 57.8238 97.4575 57.3516 96.875 57.3516C96.2925 57.3516 95.8203 57.8238 95.8203 58.4062C95.8203 58.9887 96.2925 59.4609 96.875 59.4609Z" fill="black"/>
<path d="M110.938 48.2109C111.52 48.2109 111.992 47.7387 111.992 47.1562C111.992 46.5738 111.52 46.1016 110.938 46.1016C110.355 46.1016 109.883 46.5738 109.883 47.1562C109.883 47.7387 110.355 48.2109 110.938 48.2109Z" fill="black"/>
<path d="M87.0312 45.3984C87.6137 45.3984 88.0859 44.9262 88.0859 44.3438C88.0859 43.7613 87.6137 43.2891 87.0312 43.2891C86.4488 43.2891 85.9766 43.7613 85.9766 44.3438C85.9766 44.9262 86.4488 45.3984 87.0312 45.3984Z" fill="black"/>
<path d="M74.375 29.9297C74.9575 29.9297 75.4297 29.4575 75.4297 28.875C75.4297 28.2925 74.9575 27.8203 74.375 27.8203C73.7925 27.8203 73.3203 28.2925 73.3203 28.875C73.3203 29.4575 73.7925 29.9297 74.375 29.9297Z" fill="black"/>
<path d="M64.5312 58.0547C65.1137 58.0547 65.5859 57.5825 65.5859 57C65.5859 56.4175 65.1137 55.9453 64.5312 55.9453C63.9488 55.9453 63.4766 56.4175 63.4766 57C63.4766 57.5825 63.9488 58.0547 64.5312 58.0547Z" fill="black"/>
<path d="M65.9375 83.3672C66.52 83.3672 66.9922 82.895 66.9922 82.3125C66.9922 81.73 66.52 81.2578 65.9375 81.2578C65.355 81.2578 64.8828 81.73 64.8828 82.3125C64.8828 82.895 65.355 83.3672 65.9375 83.3672Z" fill="black"/>
</g>
<defs>
<clipPath id="clip0_170_2410">
<rect width="90" height="90" fill="white" transform="translate(35 12)"/>
</clipPath>
</defs>
</svg>
