<svg width="159" height="113" viewBox="0 0 159 113" fill="none" xmlns="http://www.w3.org/2000/svg">
<g clip-path="url(#clip0_170_2381)">
<path d="M35.254 9.21145C55.3824 2.66833 95.376 7.75349 114.727 21.6627C175.244 65.1607 107.876 112.865 54.1585 100.929C0.440826 88.9944 3.08142 19.6697 35.254 9.21145Z" fill="#F8F1D5"/>
<path d="M7 46.5C7 22.7518 22.5 7.5 46 0" stroke="#74CA45" stroke-width="3" stroke-linecap="round"/>
<path d="M143.38 60C143.923 73.5261 134.572 84.1594 127.902 87.4399" stroke="#F17228" stroke-width="3" stroke-linecap="round"/>
<g clip-path="url(#clip1_170_2381)">
<path d="M92.6177 71.8101C92.6177 71.8101 92.6177 60.8907 103.538 60.8907C103.538 60.8907 103.679 71.8101 92.6177 71.8101Z" fill="#74CA45"/>
<path d="M100.731 26.6228H123.682V21.1627H100.731C98.1715 21.1627 95.7078 20.1863 93.8429 18.4326C91.9779 16.6789 89.5143 15.7025 86.9543 15.7025H60.9082C59.4004 15.7025 58.1782 16.9249 58.1782 18.4326C58.1782 19.9405 59.4006 21.1627 60.9082 21.1627H80.019C81.5268 21.1627 82.7491 22.3851 82.7491 23.8928C82.7491 25.4006 81.5267 26.6228 80.019 26.6228H60.9082C59.4004 26.6228 58.1782 27.8452 58.1782 29.3529C58.1782 30.8608 59.4006 32.083 60.9082 32.083H86.9541C89.5141 32.083 91.9777 31.1066 93.8427 29.3529C95.7078 27.5992 98.1714 26.6229 100.731 26.6228Z" fill="#B5DBFF"/>
<path d="M77.2699 73.0345H71.8098V14.9004C71.8098 14.4808 71.9764 14.0784 72.2731 13.7817C72.5698 13.485 72.9722 13.3184 73.3918 13.3184H75.6879C76.1075 13.3184 76.5099 13.485 76.8065 13.7817C77.1032 14.0784 77.2699 14.4808 77.2699 14.9004V73.0345Z" fill="#FFEABB"/>
<path d="M69.0797 56.6549C67.5718 56.6549 66.3496 55.4325 66.3496 53.9249V21.5086H71.8098V53.9247C71.8098 55.4325 70.5874 56.6549 69.0797 56.6549ZM82.7301 73.0345H77.2699V14.5488C77.2699 14.2225 77.3996 13.9095 77.6303 13.6788C77.8611 13.448 78.1741 13.3184 78.5004 13.3184H81.4996C81.826 13.3184 82.1389 13.448 82.3697 13.6788C82.6005 13.9095 82.7301 14.2225 82.7301 14.5488V73.0345Z" fill="#FCD258"/>
<path d="M81.1782 89.7622C88.7177 89.7622 94.8297 83.6502 94.8297 76.1107C94.8297 68.5713 88.7177 62.4593 81.1782 62.4593C73.6388 62.4593 67.5268 68.5713 67.5268 76.1107C67.5268 83.6502 73.6388 89.7622 81.1782 89.7622Z" fill="#FCD258"/>
<path d="M81.1782 84.3008C85.7015 84.3008 89.3684 80.634 89.3684 76.1107C89.3684 71.5873 85.7015 67.9205 81.1782 67.9205C76.6549 67.9205 72.988 71.5873 72.988 76.1107C72.988 80.634 76.6549 84.3008 81.1782 84.3008Z" fill="#FFEABB"/>
<path d="M112.761 100.682H47.2387C42.7153 100.682 39.0485 97.0146 39.0485 92.4914L80 89.7613L120.952 92.4914C120.952 97.0146 117.285 100.682 112.761 100.682Z" fill="#EBF3FF"/>
<path d="M44.3219 92.4914L82.6367 89.9371L80 89.7613L39.0485 92.4914C39.0485 97.0148 42.7155 100.682 47.2387 100.682H52.5122C47.9889 100.682 44.3219 97.0146 44.3219 92.4914Z" fill="#DBEAFC"/>
<path d="M112.568 87.031C111.243 77.7698 103.278 70.6504 93.6505 70.6504C84.0229 70.6504 76.0582 77.7698 74.7335 87.031L93.6505 90.8656L112.568 87.031Z" fill="#FCD258"/>
<path d="M107.029 87.0311C105.764 80.7997 100.255 76.1097 93.6506 76.1097C87.0461 76.1097 81.537 80.7997 80.2723 87.0311L93.6506 90.8656L107.029 87.0311Z" fill="#FFEABB"/>
<path d="M101.375 87.0311C100.25 83.8499 97.2165 81.5709 93.6504 81.5709C90.0843 81.5709 87.0505 83.8501 85.9262 87.0311L93.6504 90.8656L101.375 87.0311ZM60.8893 67.9203C50.3348 67.9203 41.7785 76.4766 41.7785 87.0311L61.0431 90.4754L80 87.0311C80 76.4766 71.4438 67.9203 60.8893 67.9203Z" fill="#FCD258"/>
<path d="M60.8893 73.3798C53.3498 73.3798 47.2378 79.4917 47.2378 87.0312L61.0431 90.4755L74.5407 87.0312C74.5407 79.4915 68.4288 73.3798 60.8893 73.3798Z" fill="#FFEABB"/>
<path d="M60.8892 78.8408C56.3658 78.8408 52.699 82.5078 52.699 87.031L61.0432 90.4753L69.0796 87.031C69.0796 82.5076 65.4126 78.8408 60.8892 78.8408Z" fill="#FCD258"/>
<path d="M120.952 92.4914H39.0484C37.5406 92.4914 36.3184 91.269 36.3184 89.7613C36.3184 88.2535 37.5408 87.0312 39.0484 87.0312H120.952C122.459 87.0312 123.682 88.2536 123.682 89.7613C123.682 91.269 122.459 92.4914 120.952 92.4914Z" fill="#B5DBFF"/>
<path d="M41.5918 89.7611C41.5918 88.2533 42.8142 87.0311 44.3219 87.0311H39.0484C37.5406 87.0311 36.3184 88.2533 36.3184 89.7611C36.3184 91.269 37.5407 92.4912 39.0484 92.4912H44.3219C42.8142 92.4914 41.5918 91.269 41.5918 89.7611Z" fill="#A5CFF2"/>
<path d="M94.7459 30.3134C96.3646 28.7868 98.5064 27.938 100.731 27.9412H123.682C124.031 27.9412 124.367 27.8023 124.614 27.5551C124.861 27.3078 125 26.9725 125 26.6228V21.1627C125 20.813 124.861 20.4777 124.614 20.2304C124.367 19.9832 124.031 19.8443 123.682 19.8443H100.731C98.5064 19.8475 96.3646 18.9987 94.7459 17.4721C90.4508 13.4333 85.6091 14.5842 84.0434 14.3841C83.9581 13.0552 82.8498 12 81.4996 12H78.5004C78.02 11.9995 77.5493 12.1355 77.1432 12.3922C76.7014 12.1347 76.1992 11.9994 75.6879 12H73.3918C71.9687 12 70.7816 13.0303 70.5374 14.3841H60.9083C58.6758 14.3841 56.8598 16.2003 56.8598 18.4326C56.8598 20.6649 58.676 22.481 60.9083 22.481H65.0311V25.3045H60.9083C58.6758 25.3045 56.8598 27.1206 56.8598 29.3529C56.8598 31.5854 58.676 33.4014 60.9083 33.4014H65.0311V53.9247C65.0311 56.1569 66.8472 57.9731 69.0795 57.9731C69.5757 57.9731 70.0514 57.8833 70.4912 57.7191V65.6211C69.7552 66.3723 69.1003 67.1989 68.5372 68.0871C55.6773 62.8766 41.3897 71.8462 40.5022 85.7127H39.0484C36.8162 85.7127 35 87.5289 35 89.7613C35 91.5566 36.1748 93.0827 37.7958 93.6113C38.3518 98.3286 42.3746 102 47.2389 102H95.3785C96.1068 102 96.6969 101.41 96.6969 100.682C96.6969 99.9535 96.1068 99.3633 95.3785 99.3633H47.2389C43.9004 99.3633 41.1106 96.9703 40.4939 93.8096H119.506C118.89 96.9703 116.1 99.3633 112.761 99.3633H101.124C100.396 99.3633 99.8058 99.9535 99.8058 100.682C99.8058 101.41 100.396 102 101.124 102H112.761C117.626 102 121.648 98.3286 122.204 93.6113C123.825 93.0825 125 91.5566 125 89.7613C125 87.5289 123.184 85.7129 120.952 85.7129H113.678C112.272 78.7366 107.303 72.976 100.607 70.5521C104.877 67.0252 104.86 61.166 104.856 60.8739C104.852 60.5272 104.711 60.1963 104.464 59.9527C104.217 59.7092 103.885 59.5726 103.538 59.5726C99.8754 59.5726 96.9302 60.7018 94.784 62.9291C93.7548 63.9974 93.0343 65.2031 92.5301 66.349C90.3363 63.8002 87.3489 62.0635 84.0485 61.4181V33.4015C85.6366 33.1985 90.4459 34.3571 94.7459 30.3134ZM92.9395 19.3931C95.0572 21.3845 97.8244 22.481 100.731 22.481H122.363V25.3045H100.731C97.8245 25.3045 95.0574 26.4012 92.9397 28.3924C89.5308 31.598 85.6883 30.5744 84.0486 30.7646V17.0209C85.7066 17.2132 89.5323 16.1889 92.9395 19.3931ZM59.4965 18.4326C59.4965 17.6542 60.1299 17.0209 60.9083 17.0209H70.4914V19.8571H66.5331C66.4723 19.8486 66.4109 19.8443 66.3494 19.8443H60.9083C60.1299 19.8443 59.4965 19.211 59.4965 18.4326ZM60.9083 30.7648C60.1299 30.7648 59.4965 30.1315 59.4965 29.3531C59.4965 28.5747 60.1299 27.9414 60.9083 27.9414H65.0311V30.7648H60.9083ZM69.0797 55.3366C68.3013 55.3366 67.668 54.7032 67.668 53.9249V22.4939H70.4914V53.9249C70.4914 54.7032 69.858 55.3366 69.0797 55.3366ZM102.257 85.7127C98.8358 78.4458 88.4639 78.4485 85.0444 85.7127H81.9972C83.6948 80.828 88.3611 77.428 93.6506 77.428C98.9399 77.428 103.606 80.8279 105.304 85.7127H102.257ZM99.2046 85.7127H88.0966C90.8412 81.9573 96.4511 81.9451 99.2046 85.7127ZM78.2801 76.3046C77.4379 74.9399 76.4372 73.6794 75.299 72.5496C75.9119 71.539 76.7748 70.7035 77.8046 70.1236C78.8344 69.5437 79.9963 69.239 81.1781 69.2389C82.8624 69.2389 84.4635 69.8545 85.7024 70.9382C82.9067 72.124 80.34 73.9574 78.2801 76.3046ZM60.8893 69.2389C70.2565 69.2389 77.9564 76.5154 78.6331 85.7129H75.8014C74.9364 75.8453 64.801 69.4878 55.5214 73.053C55.3598 73.1151 55.212 73.2084 55.0864 73.3276C54.9608 73.4468 54.86 73.5896 54.7896 73.7478C54.7192 73.906 54.6807 74.0765 54.6763 74.2495C54.6718 74.4226 54.7015 74.5949 54.7636 74.7565C54.8257 74.9181 54.919 75.0659 55.0382 75.1915C55.1574 75.317 55.3002 75.4178 55.4584 75.4882C55.6166 75.5586 55.7871 75.5971 55.9602 75.6016C56.1332 75.6061 56.3055 75.5764 56.4671 75.5143C64.0224 72.6116 72.2967 77.6973 73.1524 85.7129H70.307C69.6633 81.0915 65.6853 77.5226 60.8894 77.5226C56.0936 77.5226 52.1154 81.0914 51.4717 85.7127H48.6256C48.9186 82.9418 50.133 80.3691 52.1182 78.3609C52.364 78.1123 52.501 77.7762 52.499 77.4265C52.497 77.0769 52.3562 76.7424 52.1075 76.4966C51.8589 76.2508 51.5228 76.1138 51.1731 76.1158C50.8235 76.1179 50.489 76.2587 50.2432 76.5073C47.7662 79.0129 46.2779 82.2424 45.9766 85.7129H43.1454C43.8222 76.5152 51.522 69.2389 60.8893 69.2389ZM67.6342 85.7127H54.1443C54.761 82.5519 57.551 80.1592 60.8893 80.1592C64.2276 80.1592 67.0176 82.5521 67.6342 85.7127ZM122.363 89.7613C122.363 90.5397 121.73 91.173 120.952 91.173H39.0484C38.2701 91.173 37.6367 90.5397 37.6367 89.7613C37.6367 88.9829 38.2701 88.3496 39.0484 88.3496H120.952C121.73 88.3494 122.363 88.9828 122.363 89.7613ZM110.98 85.7127H108.066C106.274 79.3233 100.377 74.7913 93.6504 74.7913C88.2456 74.7913 83.3763 77.717 80.742 82.1812C80.4623 81.0348 80.0828 79.915 79.6077 78.8348C88.8788 66.9523 107.626 71.3222 110.98 85.7127ZM102.1 62.2839C102.005 62.936 101.832 63.7622 101.521 64.6344C100.671 67.021 99.1951 68.6992 97.1312 69.6279C96.2737 69.481 95.4077 69.3886 94.5385 69.3514C94.4838 69.2436 94.428 69.1365 94.3709 69.03C95.1727 66.0811 97.1819 62.8149 102.1 62.2839ZM91.5553 69.4405C90.5603 69.5435 89.525 69.7256 88.4671 70.004C87.5748 68.9385 86.4596 68.0817 85.2002 67.4939C83.9409 66.9061 82.5679 66.6016 81.1781 66.602C77.9799 66.602 75.0373 68.2054 73.2904 70.7977C72.5419 70.2243 71.7546 69.7033 70.9342 69.2385C75.8779 61.8627 86.768 61.9971 91.5553 69.4405ZM78.5883 61.3645V46.2226C78.5883 45.8729 78.4494 45.5376 78.2021 45.2904C77.9549 45.0431 77.6196 44.9042 77.2699 44.9042C76.9203 44.9042 76.5849 45.0431 76.3377 45.2904C76.0905 45.5376 75.9516 45.8729 75.9516 46.2226V62.0777C74.9634 62.4447 74.017 62.9155 73.1281 63.4822V14.9004C73.1281 14.755 73.2464 14.6367 73.3918 14.6367H75.6879C75.8333 14.6367 75.9516 14.755 75.9516 14.9004V40.477C75.9516 40.8266 76.0905 41.1619 76.3377 41.4092C76.5849 41.6564 76.9203 41.7953 77.2699 41.7953C77.6196 41.7953 77.9549 41.6564 78.2021 41.4092C78.4494 41.1619 78.5883 40.8266 78.5883 40.477V14.9004C78.5883 14.8298 78.5857 14.7596 78.5807 14.6902C78.5827 14.6724 78.5843 14.6547 78.5855 14.6367H81.4119V61.1428C80.4658 61.1279 79.5204 61.2022 78.5883 61.3645Z" fill="black"/>
</g>
</g>
<defs>
<clipPath id="clip0_170_2381">
<rect width="159" height="113" rx="12" fill="white"/>
</clipPath>
<clipPath id="clip1_170_2381">
<rect width="90" height="90" fill="white" transform="translate(35 12)"/>
</clipPath>
</defs>
</svg>
