<svg width="159" height="113" viewBox="0 0 159 113" fill="none" xmlns="http://www.w3.org/2000/svg">
<path d="M35.4333 97.6226C14.5613 85.6439 2.5365 66.2887 12.6324 45.5" stroke="#74CA45" stroke-width="3" stroke-linecap="round"/>
<path d="M123.469 7.10852C135.51 10.9937 143.817 22.2676 147.243 36" stroke="#F17228" stroke-width="3" stroke-linecap="round"/>
<path d="M119.336 11.8272C99.2073 5.28405 59.2137 10.3692 39.8625 24.2785C-20.654 67.7764 46.7135 115.48 100.431 103.545C154.149 91.6101 151.508 22.2854 119.336 11.8272Z" fill="#74CA45" fill-opacity="0.28"/>
<path d="M85.965 22.9755H48.2122V20.3051C48.2122 18.0675 50.0261 16.2535 52.2638 16.2535H79.8242C82.0617 16.2535 85.965 18.0674 85.965 20.3051V22.9755Z" fill="#74CA45"/>
<path d="M83.9269 16.2535H78.6529C80.8904 16.2535 82.7045 18.0674 82.7045 20.3051V22.9755H87.9785V20.3051C87.9783 18.0674 86.1644 16.2535 83.9269 16.2535Z" fill="#488F21"/>
<path d="M84.1328 89.8336H52.0578C51.5482 89.8336 51.0577 89.64 50.6854 89.292C50.3132 88.9441 50.087 88.4677 50.0527 87.9593L46.1598 30.2889L48.2122 28.471H87.9784L88.1645 30.2889L86.1379 87.9593C86.1036 88.4677 85.8775 88.9441 85.5052 89.2921C85.133 89.6401 84.6424 89.8336 84.1328 89.8336Z" fill="#F3F0F3"/>
<path d="M87.9783 28.471H82.7043L84.7567 30.2891L84.2746 37.4334C84.2504 37.788 84.1197 38.127 83.8996 38.406C83.6795 38.6851 83.3803 38.8912 83.0411 38.9973C80.8094 39.6985 79.1859 41.7857 79.1859 44.246V49.6941C79.1859 50.2651 78.9512 50.8084 78.5443 51.209C77.4456 52.2908 76.8991 53.8528 77.1238 55.4125L77.1296 55.4527L81.3272 81.0934L80.8637 87.96C80.8294 88.4684 80.6032 88.9448 80.231 89.2928C79.8587 89.6407 79.3681 89.8343 78.8586 89.8343H84.1324C84.6419 89.8343 85.1325 89.6407 85.5047 89.2928C85.877 88.9448 86.1032 88.4684 86.1375 87.96L90.0304 30.2896L87.9783 28.471Z" fill="#E2DEE2"/>
<path d="M44.9519 22.2503H86.2975L90.8396 22.595C91.0637 22.595 91.2813 22.6699 91.458 22.8078C91.6346 22.9457 91.7601 23.1387 91.8144 23.3561L93.2645 28.7621C93.423 29.3963 92.9433 30.0107 92.2896 30.0107L87.691 30.289H43.4445C42.7908 30.289 42.3111 29.6746 42.4697 29.0404L43.977 23.0113C44.0314 22.7939 44.1569 22.6009 44.3335 22.4631C44.5101 22.3252 44.7278 22.2503 44.9519 22.2503Z" fill="#74CA45"/>
<path d="M93.7209 29.0403L92.2135 23.0112C92.1592 22.7938 92.0337 22.6008 91.8571 22.4629C91.6804 22.3249 91.4628 22.25 91.2387 22.2501H85.9647C86.1888 22.25 86.4065 22.3249 86.5831 22.4629C86.7598 22.6008 86.8852 22.7938 86.9396 23.0112L88.4469 29.0403C88.6054 29.6745 88.1257 30.2889 87.472 30.2889H92.746C93.3997 30.2889 93.8794 29.6745 93.7209 29.0403Z" fill="#488F21"/>
<path d="M90.8413 69.9249H48.2126C47.754 69.9249 47.3125 69.7507 46.9774 69.4375C46.6424 69.1243 46.4389 68.6955 46.408 68.2379L44.5818 58.5559L43.8202 47.2732C43.7497 46.2287 44.578 45.3426 45.6247 45.3426H79.1858L90.8413 69.9249Z" fill="#74CA45"/>
<path d="M90.8413 69.9249L87.3657 45.3426H79.1859V51.3427C79.1859 52.5066 78.2369 53.4468 77.073 53.4356C76.0277 53.4254 74.8944 53.4155 74.4427 53.4155L57.5914 53.4152C52.8217 53.4152 48.2732 55.2261 44.5816 58.5561L45.2352 68.2381C45.2661 68.6957 45.4696 69.1244 45.8047 69.4376C46.1397 69.7508 46.5812 69.925 47.0398 69.9251H90.8413V69.9249Z" fill="#488F21"/>
<path d="M108.886 69.9029H115.279L116.63 53.3825L115.279 48.2108C115.279 45.6755 113.224 43.6203 110.688 43.6203H110.175C109.833 43.6203 109.505 43.7561 109.264 43.9977C109.022 44.2393 108.886 44.5671 108.886 44.9088L107.876 53.2399L108.886 69.9029Z" fill="#FFE177"/>
<path d="M108.886 65.9175H102.493L101.114 53.6768L102.493 44.2252C102.493 41.6899 104.548 39.6346 107.084 39.6346H107.598C107.767 39.6346 107.934 39.668 108.091 39.7327C108.247 39.7975 108.389 39.8924 108.509 40.012C108.628 40.1317 108.723 40.2737 108.788 40.43C108.853 40.5864 108.886 40.7539 108.886 40.9231V65.9175ZM121.647 65.9175H115.254V44.2253C115.254 41.6901 117.31 39.6348 119.845 39.6348H120.359C120.528 39.6348 120.695 39.6681 120.852 39.7329C121.008 39.7977 121.15 39.8926 121.27 40.0122C121.389 40.1319 121.484 40.2739 121.549 40.4302C121.614 40.5865 121.647 40.7541 121.647 40.9233V65.9175Z" fill="#FFB301"/>
<path d="M83.4046 64.587H89.7675L91.3269 53.6768L89.7675 47.532C89.7675 45.0086 87.722 42.9631 85.1986 42.9631H84.6871C84.347 42.9631 84.0208 43.0982 83.7802 43.3387C83.5397 43.5792 83.4046 43.9054 83.4046 44.2456V64.587Z" fill="#FFE177"/>
<path d="M96.1303 66.7565H89.7674V45.1661C89.7674 42.6428 91.8129 40.5972 94.3363 40.5972H94.8478C95.1879 40.5972 95.5141 40.7323 95.7547 40.9729C95.9952 41.2134 96.1303 41.5396 96.1303 41.8797L97.2701 51.6743L96.1303 66.7565Z" fill="#FFB301"/>
<path d="M114.636 97.2978L110.793 97.5457H92.499L90.4204 97.1804C90.0952 97.1804 89.7833 97.0512 89.5534 96.8213C89.3235 96.5914 89.1943 96.2795 89.1943 95.9543L88.942 91.3982L102.747 90.5939L115.738 91.3981L115.862 96.0719C115.862 96.2329 115.83 96.3923 115.769 96.5411C115.707 96.6898 115.617 96.825 115.503 96.9388C115.389 97.0527 115.254 97.143 115.105 97.2046C114.956 97.2661 114.797 97.2978 114.636 97.2978Z" fill="#F69790"/>
<path d="M94.813 91.3215C95.0839 91.233 95.3495 91.129 95.6084 91.0098L88.942 91.3983V96.3196C88.942 96.6448 89.0712 96.9567 89.3012 97.1866C89.5311 97.4165 89.8429 97.5457 90.1681 97.5457H92.499C93.8555 95.812 94.7033 93.6618 94.813 91.3215ZM116.11 91.3983V96.3191C116.11 96.4802 116.078 96.6397 116.017 96.7885C115.955 96.9374 115.865 97.0726 115.751 97.1865C115.637 97.3004 115.502 97.3908 115.353 97.4524C115.204 97.514 115.044 97.5457 114.883 97.5457H110.423C110.584 97.5457 110.744 97.514 110.892 97.4524C111.041 97.3908 111.177 97.3004 111.29 97.1865C111.404 97.0726 111.495 96.9374 111.556 96.7885C111.618 96.6397 111.65 96.4802 111.65 96.3191V91.3983L114.116 90.7688L116.11 91.3983Z" fill="#E3766E"/>
<path d="M96.1303 69.1049H102.493V40.2462C102.493 37.7229 100.448 35.6773 97.9243 35.6773H97.4128C97.0726 35.6773 96.7464 35.8124 96.5059 36.0529C96.2654 36.2935 96.1303 36.6197 96.1303 36.9598V69.1049Z" fill="#FFE177"/>
<path d="M122.9 54.5475C122.9 54.5475 121.177 52.9906 120.9 52.9282C120.108 52.7486 119.287 52.7297 118.488 52.8726C117.688 53.0155 116.924 53.3172 116.243 53.76C115.672 54.1325 115.197 54.6337 114.855 55.2234C112.489 59.2875 107.568 61.7213 102.526 61.7213C97.4845 61.7213 92.566 59.2871 90.2 55.2238C89.8578 54.634 89.3819 54.1327 88.8108 53.7602L88.8085 53.7588C87.8222 53.1178 86.6712 52.7767 85.4949 52.7767C84.3186 52.7768 83.1676 53.118 82.1814 53.759L81.6073 54.1322C81.5107 54.1949 81.4314 54.2806 81.3764 54.3818C81.3214 54.4829 81.2926 54.5961 81.2924 54.7112C81.2924 54.7442 81.3469 54.8179 81.3517 54.8513L87.4796 89.537C87.5033 89.7017 87.5856 89.8523 87.7114 89.9613C87.8372 90.0703 87.998 90.1302 88.1644 90.1302L94.8074 91.3983H111.842L116.474 91.0524C116.64 91.0524 116.801 90.9924 116.927 90.8835C117.053 90.7745 117.135 90.6238 117.159 90.4591L123.207 55.2262C123.226 55.0955 123.207 54.9621 123.153 54.8419C123.098 54.7216 123.01 54.6195 122.9 54.5475Z" fill="#F69790"/>
<path d="M94.8083 91.3653C94.8098 91.2632 94.8421 91.164 94.9008 91.0804C94.9595 90.9969 95.042 90.9329 95.1375 90.8968C97.9417 89.8569 99.9409 87.4329 99.9409 84.2615C99.9422 83.2337 99.7287 82.2171 99.3142 81.2767C99.2836 81.2075 99.2678 81.1328 99.2678 81.0571C99.2678 80.9815 99.2836 80.9067 99.3142 80.8376C99.7287 79.8972 99.9422 78.8805 99.9409 77.8528C99.9409 74.5086 97.718 71.6736 94.672 70.7484C94.492 70.6938 94.3597 70.5426 94.3189 70.3589C93.4711 66.5322 91.5844 62.8884 88.8781 59.9657C86.6998 57.6134 84.1448 55.8496 81.3761 54.7483L81.2924 54.7103L87.1924 90.8047C87.2161 90.9695 87.2984 91.1201 87.4242 91.2291C87.5499 91.338 87.7108 91.398 87.8772 91.398H94.8074L94.8083 91.3653ZM123.753 54.8109L117.86 90.8051C117.836 90.9698 117.754 91.1205 117.628 91.2294C117.502 91.3383 117.341 91.3983 117.174 91.3983H111.842C113.431 91.1276 114.729 89.8385 115.039 88.2116L120.901 52.9279C121.386 53.0578 122.504 53.5203 122.872 53.7595L123.444 54.1315C123.555 54.2036 123.643 54.3058 123.698 54.4262C123.752 54.5465 123.771 54.68 123.753 54.8109Z" fill="#E3766E"/>
<path d="M41.4271 74.9283V74.9188C41.4271 65.9914 48.6642 57.6337 57.5916 57.6337H70.1295L74.4333 58.054C83.3607 58.054 89.1944 66.9997 89.1944 74.9188L41.4271 74.9283Z" fill="#FF9801"/>
<path d="M90.6064 74.9183V74.9278H84.9376V74.9183C84.9376 65.9918 77.7005 57.6343 68.774 57.6343H74.4428C83.3691 57.6341 90.6064 65.9918 90.6064 74.9183Z" fill="#F57C00"/>
<path d="M41.4271 83.9814H89.1944V90.8024C89.1944 94.5267 87.3343 97.1084 83.6102 97.1084L78.9508 97.5455H48.1702C44.4459 97.5455 41.4269 94.5265 41.4269 90.8022L41.4271 83.9814Z" fill="#FF9801"/>
<path d="M90.6064 83.9808V90.8022C90.6064 94.5267 87.5868 97.5462 83.8643 97.5462H78.2806C82.005 97.5462 85.0246 94.5267 85.0246 90.8022L84.9698 83.9808H90.6064Z" fill="#F57C00"/>
<path d="M39.5225 87.4657C37.7529 87.4657 36.3184 86.0312 36.3184 84.2616C36.3184 82.492 37.7529 81.0574 39.5225 81.0574L42.6584 79.9117H88.7068L89.672 81.0574C91.4416 81.0574 93.7285 82.492 93.7285 84.2616C93.7285 86.0312 91.5116 87.4657 89.742 87.4657H73.6121L71.1447 85.7655L67.3798 87.4657H39.5225Z" fill="#795548"/>
<path d="M92.518 81.0572L91.4257 79.2535L89.002 81.0572C90.7716 81.0572 92.2062 82.4918 92.2062 84.2615C92.2062 86.0311 90.7716 87.4659 89.002 87.4659H92.518C94.2876 87.4659 95.7221 86.0313 95.7221 84.2615C95.7221 82.4918 94.2876 81.0572 92.518 81.0572Z" fill="#5B3A2E"/>
<path d="M64.6154 81.0572L75.2637 89.6014C75.3573 89.6765 75.4737 89.7175 75.5937 89.7175C75.7137 89.7175 75.8301 89.6765 75.9237 89.6014L86.572 81.0572L75.4149 80.3759L64.6154 81.0572Z" fill="#F57C00"/>
<path d="M55.8364 81.0572L66.4847 89.6014C66.5783 89.6765 66.6947 89.7175 66.8147 89.7175C66.9347 89.7175 67.0511 89.6765 67.1447 89.6014L77.793 81.0572L66.6358 80.3759L55.8364 81.0572Z" fill="#FF9801"/>
<path d="M39.5225 81.0573C37.7529 81.0573 36.3184 79.6227 36.3184 77.8531C36.3184 76.0835 37.7529 74.649 39.5225 74.649H89.8098C91.5794 74.649 93.7287 76.0835 93.7287 77.8531C93.7287 79.6227 91.5269 81.0573 89.7573 81.0573H39.5225Z" fill="#4CAF50"/>
<path d="M92.518 74.6488H89.002C90.7716 74.6488 92.2062 76.0834 92.2062 77.8529C92.2062 79.6225 90.7716 81.0571 89.002 81.0571H92.518C94.2876 81.0571 95.7221 79.6225 95.7221 77.8529C95.7221 76.0834 94.2876 74.6488 92.518 74.6488Z" fill="#8ED884"/>
<path d="M89.9956 30.8095L89.0329 45.073M47.1449 44.8836L46.2113 31.0508M83.0762 30.2888H92.7459C93.3998 30.2888 93.8797 29.6753 93.7215 29.0407L92.2133 23.0114C92.1594 22.794 92.0342 22.6008 91.8577 22.4629C91.6812 22.3249 91.4635 22.2501 91.2395 22.2503H44.951C44.727 22.2503 44.5095 22.3253 44.333 22.4632C44.1565 22.6011 44.0313 22.7941 43.9772 23.0114L42.469 29.0407C42.3107 29.6753 42.7906 30.2888 43.4445 30.2888H76.9238M44.9408 63.8721L43.8204 47.2731C43.7499 46.2286 44.5782 45.3425 45.6249 45.3425H83.108M48.2123 21.5936V20.0801C48.2123 17.9667 49.9256 16.2534 52.039 16.2534H84.1518C86.2652 16.2534 87.9785 17.9667 87.9785 20.0801V21.7131M89.7678 47.8235C89.7678 45.3002 87.7222 43.2546 85.1989 43.2546H84.6874C84.3472 43.2546 84.021 43.3897 83.7805 43.6302C83.54 43.8707 83.4049 44.1969 83.4049 44.5371V52.9185M102.494 61.1781V40.5377C102.494 38.0144 100.448 35.9688 97.9246 35.9688H97.4131C97.0729 35.9688 96.7467 36.1039 96.5062 36.3444C96.2657 36.585 96.1306 36.9112 96.1306 37.2513V42.1712" stroke="black" stroke-width="2" stroke-miterlimit="10" stroke-linecap="round" stroke-linejoin="round"/>
<path d="M89.7677 54.3263V45.4576C89.7677 42.9342 91.8133 40.8887 94.3366 40.8887H94.8481C95.1883 40.8887 95.5145 41.0238 95.755 41.2643C95.9955 41.5048 96.1306 41.831 96.1306 42.1712V59.7718M115.279 54.3862V48.5023C115.279 45.967 113.224 43.9119 110.689 43.9119H110.175C110.006 43.9119 109.838 43.9453 109.682 44.01C109.525 44.0748 109.383 44.1697 109.264 44.2893C109.144 44.409 109.049 44.551 108.984 44.7073C108.92 44.8637 108.886 45.0312 108.886 45.2004V60.071M102.493 44.5168C102.493 41.9815 104.549 39.9265 107.084 39.9265H107.598C107.767 39.9265 107.934 39.9598 108.091 40.0245C108.247 40.0893 108.389 40.1842 108.509 40.3038C108.628 40.4235 108.723 40.5655 108.788 40.7219C108.853 40.8782 108.886 41.0457 108.886 41.2149V45.2004" stroke="black" stroke-width="2" stroke-miterlimit="10" stroke-linecap="round" stroke-linejoin="round"/>
<path d="M115.254 48.5023V44.5168C115.254 41.9815 117.31 39.9265 119.845 39.9265H120.359C120.7 39.9265 121.028 40.0622 121.27 40.3038C121.511 40.5455 121.647 40.8732 121.647 41.2149V52.9184M82.1181 59.4684L81.378 54.9456C81.3394 54.6784 81.4589 54.4147 81.6839 54.2688L82.2569 53.8979C83.2393 53.2588 84.3859 52.9184 85.5579 52.9181C86.7298 52.9178 87.8766 53.2576 88.8593 53.8961L88.861 53.8979C89.4301 54.2697 89.9044 54.7693 90.2462 55.3569C92.6034 59.4051 97.5042 61.8309 102.526 61.8309C107.55 61.8309 112.453 59.4051 114.81 55.3569C115.151 54.7698 115.624 54.2688 116.193 53.8979C117.176 53.2595 118.323 52.9197 119.495 52.9197C120.667 52.9197 121.814 53.2595 122.797 53.8979L123.369 54.2688C123.594 54.4147 123.713 54.6784 123.675 54.9456L120.396 74.9688M91.0671 91.3991H117.121C117.464 91.3991 117.754 91.1459 117.803 90.8067L119.401 81.042M116.345 92.0257V95.486C116.345 96.6238 115.423 97.5463 114.285 97.5463H90.767C89.8832 97.5463 89.1295 96.9898 88.8368 96.2081" stroke="black" stroke-width="2" stroke-miterlimit="10" stroke-linecap="round" stroke-linejoin="round"/>
<path d="M57.8551 57.6525C58.0432 57.6455 58.233 57.642 58.4229 57.642H73.6174C82.8371 57.642 90.3412 64.9826 90.6066 74.139M41.4301 74.3588C41.5426 67.4242 45.807 61.5004 51.8434 58.9621M41.4266 87.8218V90.6572C41.4266 94.5736 44.6012 97.7465 48.5176 97.7465H69.1842M90.6137 87.8218V90.6572C90.6137 94.5736 87.4391 97.7465 83.5227 97.7465H75.3365M39.5225 81.0573C37.7529 81.0573 36.3184 79.6227 36.3184 77.8531C36.3184 76.0835 37.7529 74.649 39.5225 74.649H92.5179C94.2875 74.649 95.7221 76.0835 95.7221 77.8531C95.7221 79.6227 94.2875 81.0573 92.5179 81.0573M63.7513 87.4872H39.5225C37.7529 87.4872 36.3184 86.0526 36.3184 84.283C36.3184 82.5134 37.7529 81.0789 39.5225 81.0789H92.5179C94.2875 81.0789 95.7221 82.5134 95.7221 84.283C95.7221 86.0526 94.2875 87.4872 92.5179 87.4872H78.9789" stroke="black" stroke-width="2" stroke-miterlimit="10" stroke-linecap="round" stroke-linejoin="round"/>
<path d="M70.3533 87.2463L75.4884 89.8233L87.2664 81.2473M56.073 81.2473L66.8146 89.8663L77.5562 81.2473" stroke="black" stroke-width="2" stroke-miterlimit="10" stroke-linecap="round" stroke-linejoin="round"/>
</svg>
