<svg width="159" height="113" viewBox="0 0 159 113" fill="none" xmlns="http://www.w3.org/2000/svg">
<path d="M35.254 9.21145C55.3824 2.66833 95.376 7.75349 114.727 21.6627C175.244 65.1607 107.876 112.865 54.1585 100.929C0.440826 88.9944 3.08142 19.6697 35.254 9.21145Z" fill="#E1E4FF"/>
<path d="M147.5 55C147.5 31.2518 132 16 108.5 8.5" stroke="#74CA45" stroke-width="3" stroke-linecap="round"/>
<path d="M12 79C13 92.5 23.5 102 30.5 104.5" stroke="#F17228" stroke-width="3" stroke-linecap="round"/>
<g clip-path="url(#clip0_170_2450)">
<path d="M63.8222 78.0391H46.9002L42.8313 39.5769C42.7583 38.8875 43.2988 38.2869 43.9921 38.2869H66.7303C67.4236 38.2869 67.9641 38.8875 67.8912 39.5769L63.8222 78.0391Z" fill="#F2F5FB"/>
<path d="M66.7303 38.2869H61.4568C62.1501 38.2869 62.6906 38.8875 62.6177 39.5769L58.5487 78.0391H63.8221L67.8911 39.5769C67.9641 38.8875 67.4235 38.2869 66.7303 38.2869Z" fill="#E6E8F0"/>
<path d="M102.171 79.9016H100.735C94.0727 79.9016 88.6718 74.5008 88.6718 67.8383V53.4112C88.6718 53.2932 88.695 53.1764 88.7402 53.0674C88.7853 52.9584 88.8515 52.8593 88.9349 52.7759C89.0183 52.6925 89.1174 52.6263 89.2264 52.5812C89.3354 52.536 89.4522 52.5128 89.5702 52.5128H113.336C113.454 52.5128 113.571 52.536 113.68 52.5812C113.789 52.6263 113.888 52.6925 113.972 52.7759C114.055 52.8593 114.121 52.9584 114.166 53.0674C114.211 53.1764 114.235 53.2932 114.235 53.4112V67.8383C114.235 74.5006 108.834 79.9016 102.171 79.9016Z" fill="#CCEFFD"/>
<path d="M113.336 52.5128H108.063C108.181 52.5128 108.298 52.536 108.407 52.5812C108.516 52.6263 108.615 52.6925 108.698 52.7759C108.782 52.8593 108.848 52.9584 108.893 53.0674C108.938 53.1764 108.961 53.2932 108.961 53.4112V67.8383C108.961 73.8476 104.567 78.8289 98.8165 79.748C99.4416 79.848 100.082 79.9016 100.735 79.9016H102.171C108.834 79.9016 114.235 74.5008 114.235 67.8383V53.4112C114.235 53.2932 114.211 53.1764 114.166 53.0674C114.121 52.9584 114.055 52.8593 113.972 52.7759C113.888 52.6925 113.789 52.6263 113.68 52.5812C113.571 52.536 113.454 52.5128 113.336 52.5128Z" fill="#B4EEFE"/>
<path d="M86.1108 20.4741C83.8564 20.4741 81.9209 21.8339 81.0761 23.7773C80.2313 21.8339 78.2958 20.4741 76.0414 20.4741C73.01 20.4741 70.5526 22.9315 70.5526 25.9628C70.5526 27.6215 71.4308 29.046 72.4512 30.1965C73.5829 31.4725 75.173 32.9821 79.9228 35.841C80.271 36.0505 80.6697 36.1611 81.076 36.1611C81.4824 36.1611 81.881 36.0505 82.2292 35.841C86.979 32.9821 88.5691 31.4725 89.7008 30.1965C90.7214 29.0459 91.5996 27.6215 91.5996 25.9628C91.5996 22.9315 89.1422 20.4741 86.1108 20.4741Z" fill="#F5BBE3"/>
<path d="M86.1108 20.4741C85.1898 20.4733 84.2835 20.7058 83.4766 21.1498C85.1748 22.083 86.3262 23.8883 86.3262 25.9628C86.3262 27.6215 85.448 29.046 84.4274 30.1965C83.423 31.3291 82.0552 32.6466 78.4394 34.9275C78.9307 35.2372 79.4252 35.5417 79.9228 35.841C80.271 36.0505 80.6697 36.1611 81.076 36.1611C81.4824 36.1611 81.881 36.0505 82.2292 35.841C86.979 32.9821 88.5691 31.4725 89.7008 30.1965C90.7214 29.0459 91.5996 27.6215 91.5996 25.9628C91.5996 22.9315 89.1422 20.4741 86.1108 20.4741Z" fill="#F5ADDC"/>
<path d="M43.8182 48.9063L46.9002 78.0391H63.8221L66.9041 48.9063H43.8182Z" fill="#FFAC7B"/>
<path d="M61.6307 48.9063L58.5487 78.0391H63.8221L66.9041 48.9063H61.6307Z" fill="#F67F58"/>
<path d="M60.4206 78.0391H52.1285C51.853 76.5479 51.9195 75.0136 52.3231 73.5519C52.7267 72.0902 53.4567 70.7391 54.4583 69.6005L57.0287 66.6782L59.5266 69.0762L60.4206 78.0391Z" fill="#FFEAB0"/>
<path d="M68.7454 78.0391H59.1274L56.8543 65.7356C56.5654 64.1714 57.4471 62.6268 58.941 62.0804C62.1667 60.9006 65.7059 60.9006 68.9316 62.0804C69.6551 62.3451 70.2615 62.8573 70.6435 63.5264C71.0254 64.1954 71.1582 64.9781 71.0183 65.7356L68.7454 78.0391Z" fill="#FDD76F"/>
<path d="M86.6973 78.0391H94.9896C95.265 76.5479 95.1985 75.0136 94.7949 73.5519C94.3914 72.0902 93.6613 70.7391 92.6598 69.6005L90.0893 66.6782L87.5915 69.0762L86.6973 78.0391Z" fill="#FFEAB0"/>
<path d="M78.3725 78.0391H87.9905L90.2634 65.7356C90.5523 64.1714 89.6706 62.6268 88.1767 62.0804C84.951 60.9006 81.4118 60.9006 78.1861 62.0804C77.4626 62.3451 76.8562 62.8573 76.4742 63.5264C76.0923 64.1954 75.9595 64.9781 76.0994 65.7356L78.3725 78.0391Z" fill="#FDD76F"/>
<path d="M64.1552 61.5144C63.7671 59.4135 64.9514 57.3391 66.9579 56.6052C71.2903 55.0205 76.0438 55.0205 80.3762 56.6052C82.3827 57.3391 83.5669 59.4135 83.1788 61.5144L80.126 78.0392H67.2082L64.1552 61.5144Z" fill="#FFEAB0"/>
<path d="M80.376 56.6052C77.3893 55.5132 74.1811 55.1672 71.0302 55.5973C72.4199 55.786 73.7852 56.1239 75.1025 56.6052C77.1091 57.3391 78.2933 59.4135 77.9052 61.5144L74.8524 78.0393H80.1258L83.1786 61.5144C83.5668 59.4135 82.3825 57.3391 80.376 56.6052Z" fill="#FDD76F"/>
<path d="M116.447 87.9945H43.5531C43.3347 87.9945 43.1209 87.9316 42.9372 87.8135C42.7535 87.6953 42.6077 87.5268 42.5171 87.3281L36.4222 79.7545C36.0786 79.0006 36.6296 78.1439 37.4583 78.1439H122.542C123.37 78.1439 123.921 79.0006 123.578 79.7545L117.483 87.3281C117.392 87.5268 117.246 87.6953 117.063 87.8135C116.879 87.9316 116.665 87.9945 116.447 87.9945Z" fill="#B28477"/>
<path d="M122.542 78.1439H117.268C118.097 78.1439 118.648 79.0006 118.305 79.7545L112.209 87.3283C112.119 87.527 111.973 87.6955 111.789 87.8137C111.606 87.9318 111.392 87.9946 111.173 87.9946H116.447C116.665 87.9946 116.879 87.9318 117.063 87.8136C117.246 87.6955 117.392 87.527 117.483 87.3283L123.578 79.7545C123.921 79.0006 123.37 78.1439 122.542 78.1439ZM59.9748 93.5259H53.9849C52.874 93.5259 51.9734 92.6254 51.9734 91.5145V87.9945H61.9865V91.5145C61.9863 92.6254 61.0858 93.5259 59.9748 93.5259ZM106.015 93.5259H100.025C98.9144 93.5259 98.0139 92.6254 98.0139 91.5145V87.9945H108.027V91.5145C108.027 92.6254 107.126 93.5259 106.015 93.5259Z" fill="#99674F"/>
<path d="M79.2596 36.9806C79.8079 37.3113 80.436 37.4861 81.0763 37.4862C81.7043 37.4862 82.3326 37.3176 82.8926 36.9806C87.9449 33.941 89.5651 32.3367 90.6871 31.0714C92.1881 29.379 92.918 27.708 92.918 25.9628C92.918 22.2094 89.8643 19.1557 86.1108 19.1557C85.1629 19.1556 84.2254 19.3535 83.3583 19.7368C82.4913 20.1202 81.714 20.6804 81.0761 21.3816C80.4383 20.6803 79.6609 20.1201 78.7939 19.7367C77.9269 19.3534 76.9894 19.1555 76.0414 19.1557C72.2879 19.1557 69.2343 22.2094 69.2343 25.9628C69.2343 27.7078 69.9639 29.3788 71.4649 31.0714C72.5871 32.3367 74.2075 33.9412 79.2596 36.9806ZM76.0414 21.7924C76.8543 21.7925 77.6495 22.0302 78.3291 22.4763C79.0088 22.9223 79.5433 23.5572 79.8669 24.3029C79.9693 24.5385 80.1382 24.7391 80.353 24.88C80.5678 25.0208 80.8191 25.0959 81.0759 25.0959C81.3328 25.0959 81.5841 25.0208 81.7989 24.88C82.0137 24.7391 82.1826 24.5385 82.285 24.3029C82.6086 23.5572 83.1432 22.9223 83.8228 22.4763C84.5025 22.0302 85.2977 21.7926 86.1107 21.7924C88.4102 21.7924 90.2811 23.6633 90.2811 25.9628C90.2811 27.0344 89.7687 28.1332 88.7143 29.3218C87.7217 30.441 86.2664 31.8735 81.5331 34.7211C81.3952 34.8044 81.2371 34.8483 81.0759 34.8483C80.9148 34.8483 80.7567 34.8044 80.6187 34.7211C75.8856 31.8735 74.4302 30.441 73.4375 29.3218C72.3834 28.1332 71.8708 27.0344 71.8708 25.9628C71.871 23.6634 73.7418 21.7924 76.0414 21.7924ZM105.251 36.8275H95.4213C92.9213 36.8275 90.8875 38.8615 90.8875 41.3613C90.8875 43.8612 92.9213 45.895 95.4213 45.895H99.7321C100.612 45.895 101.327 46.6106 101.327 47.4902V47.6358C101.327 47.9854 101.466 48.3208 101.713 48.568C101.961 48.8152 102.296 48.9541 102.646 48.9541C102.995 48.9541 103.331 48.8152 103.578 48.568C103.825 48.3208 103.964 47.9854 103.964 47.6358V47.4902C103.964 45.1567 102.066 43.2583 99.7321 43.2583H95.4213C94.3752 43.2583 93.5242 42.4073 93.5242 41.3613C93.5242 40.3152 94.3752 39.4642 95.4213 39.4642H105.251C107.622 39.4642 109.551 37.5352 109.551 35.1643C109.551 32.7933 107.622 30.8643 105.251 30.8643H101.518C101.168 30.8643 100.833 31.0032 100.586 31.2505C100.339 31.4977 100.2 31.833 100.2 32.1827C100.2 32.5323 100.339 32.8677 100.586 33.1149C100.833 33.3621 101.168 33.501 101.518 33.501H105.251C106.168 33.501 106.915 34.2472 106.915 35.1643C106.915 36.0813 106.168 36.8275 105.251 36.8275Z" fill="black"/>
<path d="M124.608 77.9531C124.386 77.6066 124.081 77.3215 123.72 77.1244C123.358 76.9273 122.953 76.8244 122.542 76.8253H112.091C114.299 74.3972 115.553 71.2218 115.553 67.8381V66.2164C119.452 65.9768 122.552 62.7301 122.552 58.7717V55.3019C122.552 54.1675 121.629 53.2444 120.494 53.2444H115.545C115.459 52.0999 114.503 51.1943 113.336 51.1943H89.5702C88.3479 51.1943 87.3535 52.1887 87.3535 53.4111V60.4365C86.4255 60.1838 85.4765 60.0163 84.5181 59.9359C84.3776 58.9105 83.9598 57.9429 83.3096 57.1377C82.6594 56.3324 81.8016 55.72 80.8288 55.3666C76.5673 53.808 71.9074 53.6911 67.5842 55.0089L69.2023 39.7153C69.2763 39.0155 69.0488 38.3143 68.5783 37.7911C68.1077 37.268 67.4341 36.9681 66.7305 36.9681H54.3472C53.9975 36.9681 53.6622 37.107 53.415 37.3543C53.1677 37.6015 53.0288 37.9368 53.0288 38.2865C53.0288 38.6361 53.1677 38.9715 53.415 39.2187C53.6622 39.466 53.9975 39.6049 54.3472 39.6049H66.5626L65.7181 47.5876H45.0044L44.1598 39.6049H49.0736C49.4232 39.6049 49.7586 39.466 50.0058 39.2187C50.253 38.9715 50.3919 38.6361 50.3919 38.2865C50.3919 37.9368 50.253 37.6015 50.0058 37.3543C49.7586 37.107 49.4232 36.9681 49.0736 36.9681H43.9921C43.6436 36.9684 43.2991 37.0418 42.9808 37.1835C42.6625 37.3253 42.3775 37.5323 42.1443 37.7911C41.9114 38.0503 41.7356 38.3555 41.6281 38.687C41.5206 39.0184 41.4838 39.3687 41.5203 39.7153L45.4462 76.825H37.4583C37.0468 76.824 36.6418 76.9269 36.2806 77.124C35.9194 77.3211 35.6138 77.6062 35.392 77.9528C35.1686 78.2983 35.036 78.6946 35.0065 79.105C34.9769 79.5154 35.0512 79.9267 35.2227 80.3007C35.2684 80.4007 35.3263 80.4947 35.3953 80.5805L41.4065 88.05C41.6199 88.4322 41.9313 88.7507 42.3086 88.9726C42.6859 89.1945 43.1156 89.3118 43.5533 89.3125H50.6551V91.5141C50.6551 93.3501 52.1489 94.8439 53.9849 94.8439H59.9748C61.8109 94.8439 63.3047 93.3501 63.3047 91.5141V89.3125H66.3163C66.666 89.3125 67.0013 89.1736 67.2485 88.9263C67.4958 88.6791 67.6347 88.3438 67.6347 87.9941C67.6347 87.6444 67.4958 87.3091 67.2485 87.0619C67.0013 86.8146 66.666 86.6757 66.3163 86.6757H43.663C43.6282 86.6145 43.5884 86.5561 43.5442 86.5012L37.8793 79.4622H122.121L116.456 86.5015C116.412 86.5564 116.372 86.6148 116.337 86.6761H71.5897C71.2401 86.6761 70.9048 86.815 70.6575 87.0622C70.4103 87.3095 70.2714 87.6448 70.2714 87.9945C70.2714 88.3441 70.4103 88.6794 70.6575 88.9267C70.9048 89.1739 71.2401 89.3128 71.5897 89.3128H96.6955V91.5145C96.6955 93.3505 98.1893 94.8443 100.025 94.8443H106.015C107.851 94.8443 109.345 93.3505 109.345 91.5145V89.3128H116.447C117.341 89.3128 118.163 88.8233 118.594 88.0505L124.605 80.581C124.674 80.4953 124.732 80.4013 124.777 80.3012C124.949 79.9272 125.023 79.5159 124.994 79.1055C124.964 78.695 124.832 78.2987 124.608 77.9531ZM60.6679 89.3128V91.5145C60.6677 91.6982 60.5946 91.8744 60.4647 92.0043C60.3347 92.1342 60.1586 92.2073 59.9748 92.2076H53.9849C53.8012 92.2073 53.625 92.1342 53.4951 92.0043C53.3651 91.8744 53.292 91.6982 53.2918 91.5145V89.3128H60.6679ZM119.915 58.772C119.915 61.2759 117.997 63.3404 115.553 63.5737V55.8815H119.915V58.772ZM112.916 53.8312V67.8381C112.916 71.483 111.104 74.8281 108.061 76.8253H96.4566C96.6138 73.8769 95.6103 70.9588 93.6498 68.7297L91.5019 66.2879L91.5597 65.975C91.709 65.176 91.6422 64.3516 91.3663 63.587C91.0903 62.8225 90.6153 62.1454 89.9902 61.6259V53.8312H112.916ZM89.5553 76.8255L90.8925 69.5875L91.6699 70.4713C93.2059 72.2176 93.976 74.5148 93.815 76.8255H89.5553ZM81.6908 76.8255L84.3251 62.5659C85.4863 62.6657 86.6291 62.9188 87.7238 63.3186C88.1555 63.4754 88.5174 63.7804 88.7451 64.1792C88.9728 64.5781 89.0514 65.0448 88.967 65.4962L86.8741 76.8255H81.6908ZM60.2438 76.8255L58.1509 65.4962C58.0665 65.0448 58.1452 64.578 58.3729 64.1792C58.6006 63.7804 58.9626 63.4754 59.3942 63.3186C60.5559 62.8936 61.7715 62.634 63.0055 62.5473L65.6432 76.8255H60.2438ZM53.3029 76.8255C53.1417 74.5148 53.9118 72.2179 55.4479 70.4713L56.2254 69.5875L57.5626 76.8255H53.3029ZM79.9232 57.8432C80.6034 58.0903 81.1737 58.571 81.5325 59.1995C81.8913 59.828 82.0153 60.5634 81.8823 61.2748L79.0288 76.7207H68.3051L65.4516 61.2748C65.3186 60.5634 65.4425 59.8279 65.8013 59.1994C66.1601 58.5709 66.7305 58.0903 67.4107 57.8432C71.451 56.3675 75.8829 56.3675 79.9232 57.8432ZM45.2834 50.2247H65.439L64.7979 56.284C64.7955 56.3078 64.7953 56.3313 64.794 56.3549C63.7177 57.2572 63.014 58.5264 62.8188 59.9173C61.3391 60.0213 59.8814 60.3326 58.4884 60.8422C57.471 61.2118 56.6179 61.9307 56.0813 62.8708C55.5446 63.8109 55.3593 64.911 55.5583 65.975L55.6172 66.2941C55.5944 66.3166 55.5713 66.3389 55.5497 66.3633L53.4683 68.7297C51.5074 70.959 50.5041 73.8768 50.6614 76.8253H48.0976L45.2834 50.2247ZM106.708 91.5145C106.708 91.6982 106.635 91.8744 106.505 92.0043C106.375 92.1342 106.199 92.2073 106.015 92.2076H100.025C99.8416 92.2073 99.6654 92.1342 99.5355 92.0043C99.4056 91.8744 99.3325 91.6982 99.3323 91.5145V89.3128H106.709L106.708 91.5145Z" fill="black"/>
</g>
<defs>
<clipPath id="clip0_170_2450">
<rect width="90" height="90" fill="white" transform="translate(35 12)"/>
</clipPath>
</defs>
</svg>
