<svg width="159" height="113" viewBox="0 0 159 113" fill="none" xmlns="http://www.w3.org/2000/svg">
<path d="M33.5064 9.21145C53.6349 2.66833 93.6285 7.75349 112.98 21.6627C173.496 65.1607 106.129 112.865 52.411 100.929C-1.30673 88.9944 1.33386 19.6697 33.5064 9.21145Z" fill="#DBEDFE"/>
<path d="M5.30786 51.1748C3.67226 35.4148 8.62201 19.7447 18.5482 11.1367" stroke="#F17228" stroke-width="3" stroke-linecap="round"/>
<path d="M144.048 54.6748C144.048 78.423 128.548 93.6748 105.048 101.175" stroke="#74CA45" stroke-width="3" stroke-linecap="round"/>
<g clip-path="url(#clip0_170_2479)">
<path d="M48.9432 59.6188C51.7454 66.2572 64.7368 72.7228 82.4781 72.7228C100.219 72.7228 113.211 66.257 116.013 59.6186C114.196 55.3131 108.09 51.0808 99.1845 48.6376C98.9648 48.0197 98.8064 47.3512 98.3573 46.9021C97.8391 46.3839 97.0289 46.2531 96.3413 45.968C95.678 45.6931 95.0181 45.203 94.2554 45.203C93.4927 45.203 92.8328 45.6929 92.1696 45.968C91.4821 46.2531 90.6718 46.3839 90.1536 46.9019C90.1444 46.9112 90.1374 46.922 90.1284 46.9315C87.6974 46.6613 85.1417 46.5145 82.4781 46.5145C75.8792 46.5145 69.9382 47.4096 64.9335 48.8747L71.0481 55.9311C71.0481 55.9311 68.2526 56.1405 66.7457 56.1405C64.9617 56.1405 63.2719 56.044 61.7593 55.8719L57.7882 51.2891L58.0039 51.538C53.3397 53.8481 50.1681 56.7167 48.9432 59.6185V59.6188Z" fill="#FFEE93"/>
<path d="M82.478 37.0195C73.3905 37.0195 65.0437 38.6684 58.4747 41.4216L61.3911 44.7871C67.0353 42.6312 74.245 41.2383 82.478 41.2383C102.575 41.2383 116.58 49.5346 116.58 56.9807C116.58 64.4268 102.575 72.7232 82.478 72.7232C62.3815 72.7232 48.3765 64.4268 48.3765 56.9807C48.3765 53.9181 50.7478 50.7118 54.9359 47.9979L52.1484 44.781C47.1398 48.1546 44.1577 52.386 44.1577 56.9807C44.1577 68.0048 61.3143 76.9417 82.478 76.9417C103.642 76.9417 120.798 68.0048 120.798 56.9807C120.798 45.9566 103.642 37.0197 82.478 37.0197V37.0195Z" fill="black"/>
<path d="M82.478 37.0195C73.3905 37.0195 65.0437 38.6684 58.4747 41.4216L61.3911 44.7871C67.0353 42.6312 74.245 41.2383 82.478 41.2383C102.575 41.2383 116.58 49.5346 116.58 56.9807C116.58 64.4268 102.575 72.7232 82.478 72.7232C62.3815 72.7232 48.3765 64.4268 48.3765 56.9807C48.3765 53.9181 50.7478 50.7118 54.9359 47.9979L52.1484 44.781C47.1398 48.1546 44.1577 52.386 44.1577 56.9807C44.1577 68.0048 61.3143 76.9417 82.478 76.9417C103.642 76.9417 120.798 68.0048 120.798 56.9807C120.798 45.9566 103.642 37.0197 82.478 37.0197V37.0195ZM82.478 95.4766C77.7036 95.4766 73.1346 94.6011 68.9191 93.0057C70.473 97.2185 74.5234 100.223 79.2758 100.223H85.6804C90.4328 100.223 94.4832 97.2185 96.0371 93.0057C91.8217 94.6009 87.2524 95.4766 82.4782 95.4766H82.478Z" fill="#B4D9FB"/>
<path d="M68.1227 63.6015C67.6045 63.0833 66.7943 62.9525 66.1066 62.6674C65.4434 62.3923 64.7835 61.9024 64.0208 61.9024C63.2581 61.9024 62.5982 62.3923 61.935 62.6674C61.2475 62.9525 60.4372 63.0833 59.919 63.6013C59.4007 64.1195 59.27 64.9299 58.9848 65.6174C58.7098 66.2806 58.2198 66.9405 58.2198 67.7032C58.2198 67.738 58.222 67.7724 58.2239 67.8067C61.1213 69.2167 64.58 70.4121 68.4953 71.271C68.7302 70.8113 68.8565 70.271 69.0564 69.789C69.3315 69.1258 69.8214 68.4659 69.8214 67.7032C69.8214 66.9405 69.3315 66.2806 69.0564 65.6174C68.7713 64.9299 68.6405 64.1195 68.1223 63.6013L68.1227 63.6015Z" fill="#906F65"/>
<path d="M90.6945 67.3718C92.0435 68.0115 93.5666 67.8438 94.7203 67.0647C94.5933 65.6785 93.7591 64.393 92.4101 63.7536C91.0612 63.1139 89.5381 63.2816 88.3844 64.0606C88.5113 65.4469 89.3456 66.7323 90.6945 67.3718Z" fill="#29D0B3"/>
<path d="M99.0544 53.7518C99.1292 53.5275 99.2029 53.3028 99.2911 53.0898C99.5662 52.4266 100.056 51.7667 100.056 51.004C100.056 50.2412 99.5662 49.5814 99.2911 48.9181C99.006 48.2307 98.8752 47.4203 98.357 46.9021C97.8388 46.3839 97.0287 46.2531 96.341 45.968C95.6778 45.6929 95.0179 45.203 94.2552 45.203C93.4925 45.203 92.8326 45.6929 92.1694 45.968C91.4819 46.2531 90.6715 46.3839 90.1533 46.9019C89.6351 47.4201 89.5043 48.2305 89.2192 48.918C88.9441 49.5812 88.4542 50.2411 88.4542 51.0038C88.4542 51.7665 88.9441 52.4264 89.2192 53.0896C89.3022 53.2896 89.3722 53.4999 89.4423 53.7105C90.9909 53.8917 92.6719 53.9921 94.4308 53.9921C96.0522 53.9921 97.6073 53.9068 99.054 53.7516L99.0544 53.7518Z" fill="#906F65"/>
<path d="M105.681 61.0235C106.846 61.0235 107.791 60.0791 107.791 58.9141C107.791 57.7491 106.846 56.8047 105.681 56.8047C104.516 56.8047 103.572 57.7491 103.572 58.9141C103.572 60.0791 104.516 61.0235 105.681 61.0235Z" fill="#EA4E4E"/>
<path d="M80.3686 59.9688C81.5336 59.9688 82.478 59.0244 82.478 57.8594C82.478 56.6945 81.5336 55.7501 80.3686 55.7501C79.2037 55.7501 78.2593 56.6945 78.2593 57.8594C78.2593 59.0244 79.2037 59.9688 80.3686 59.9688Z" fill="#EA4E4E"/>
<path d="M66.7456 56.1406C68.2524 56.1406 71.048 55.9313 71.048 55.9313L48.3422 29.7283C47.6143 28.8883 46.6367 28.3034 45.5524 28.0591C44.4681 27.8148 43.3341 27.924 42.3164 28.3707C39.1058 29.78 38.1785 33.8959 40.4747 36.5456L41.3129 37.5129C42.7362 39.1555 44.5807 40.3788 46.6477 41.0511C48.7146 41.7233 50.559 42.9466 51.9824 44.5892L61.7594 55.872C63.272 56.044 64.9618 56.1405 66.7458 56.1405L66.7456 56.1406Z" fill="#DCEBFD"/>
<path d="M82.478 41.2383C74.245 41.2383 67.0353 42.6313 61.3911 44.7871L64.9333 48.8749C69.938 47.4098 75.879 46.5147 82.478 46.5147C85.1416 46.5147 87.6973 46.6615 90.1284 46.9317C90.1373 46.9222 90.1444 46.9114 90.1535 46.9021C90.6717 46.3841 91.4819 46.2533 92.1695 45.9682C92.8328 45.6933 93.4927 45.2032 94.2554 45.2032C95.0181 45.2032 95.678 45.6931 96.3412 45.9682C97.0287 46.2533 97.839 46.3841 98.3572 46.9023C98.8064 47.3514 98.9646 48.0199 99.1845 48.6378C108.09 51.0811 114.195 55.3133 116.013 59.6188C116.385 58.7375 116.58 57.8533 116.58 56.9805C116.58 49.5346 102.575 41.2383 82.478 41.2383ZM54.9359 47.9978C50.7478 50.7117 48.3765 53.9177 48.3765 56.9805C48.3765 57.8531 48.5712 58.7375 48.9432 59.6188C50.168 56.7172 53.3396 53.8485 58.0038 51.5384L54.9359 47.9978Z" fill="#688E96"/>
<path d="M82.478 76.9415C61.3143 76.9415 44.1577 68.0047 44.1577 56.9805V57.1563C44.1577 78.32 61.3143 95.4766 82.478 95.4766C103.642 95.4766 120.798 78.32 120.798 57.1563V56.9805C120.798 68.0047 103.642 76.9415 82.478 76.9415Z" fill="#DCEBFD"/>
<path d="M92.8621 62.8003C91.233 62.0277 89.291 62.1757 87.7942 63.1863C87.6376 63.292 87.5124 63.4379 87.4315 63.6085C87.3505 63.7792 87.3169 63.9685 87.3342 64.1566C87.4989 65.955 88.6133 67.5522 90.2426 68.3249C90.9274 68.6487 91.6755 68.8163 92.4329 68.8155C93.4433 68.8155 94.4505 68.5195 95.3104 67.9389C95.4669 67.8332 95.5922 67.6873 95.6731 67.5166C95.754 67.346 95.7876 67.1567 95.7704 66.9686C95.6059 65.1704 94.4916 63.573 92.8621 62.8003ZM91.1465 66.4188C90.3924 66.0614 89.8257 65.4033 89.571 64.623C90.3365 64.3264 91.2045 64.3488 91.9586 64.7065C92.7127 65.064 93.2794 65.7221 93.5341 66.5022C92.7688 66.7988 91.9006 66.7765 91.1465 66.4188ZM105.681 55.7501C103.937 55.7501 102.517 57.1695 102.517 58.9141C102.517 60.6588 103.937 62.0782 105.681 62.0782C107.426 62.0782 108.845 60.6588 108.845 58.9141C108.845 57.1695 107.426 55.7501 105.681 55.7501ZM105.681 59.9688C105.099 59.9688 104.626 59.4958 104.626 58.9141C104.626 58.3325 105.099 57.8594 105.681 57.8594C106.263 57.8594 106.736 58.3325 106.736 58.9141C106.736 59.4958 106.263 59.9688 105.681 59.9688ZM80.3686 54.6954C78.624 54.6954 77.2046 56.1148 77.2046 57.8594C77.2046 59.6041 78.624 61.0235 80.3686 61.0235C82.1133 61.0235 83.5327 59.6041 83.5327 57.8594C83.5327 56.1148 82.1133 54.6954 80.3686 54.6954ZM80.3686 58.9141C79.787 58.9141 79.314 58.4411 79.314 57.8594C79.314 57.2778 79.787 56.8047 80.3686 56.8047C80.9503 56.8047 81.4233 57.2778 81.4233 57.8594C81.4233 58.4411 80.9503 58.9141 80.3686 58.9141Z" fill="black"/>
<path d="M78.4351 67.879C79.0175 67.879 79.4897 67.4068 79.4897 66.8243C79.4897 66.2418 79.0175 65.7696 78.4351 65.7696C77.8526 65.7696 77.3804 66.2418 77.3804 66.8243C77.3804 67.4068 77.8526 67.879 78.4351 67.879Z" fill="black"/>
<path d="M78.2593 51.5313C78.8418 51.5313 79.314 51.0591 79.314 50.4766C79.314 49.8941 78.8418 49.4219 78.2593 49.4219C77.6768 49.4219 77.2046 49.8941 77.2046 50.4766C77.2046 51.0591 77.6768 51.5313 78.2593 51.5313Z" fill="black"/>
<path d="M92.6733 58.9141C93.2558 58.9141 93.728 58.4419 93.728 57.8594C93.728 57.2769 93.2558 56.8047 92.6733 56.8047C92.0909 56.8047 91.6187 57.2769 91.6187 57.8594C91.6187 58.4419 92.0909 58.9141 92.6733 58.9141Z" fill="black"/>
<path d="M58.2202 59.9688C58.8027 59.9688 59.2749 59.4966 59.2749 58.9141C59.2749 58.3316 58.8027 57.8594 58.2202 57.8594C57.6377 57.8594 57.1655 58.3316 57.1655 58.9141C57.1655 59.4966 57.6377 59.9688 58.2202 59.9688Z" fill="black"/>
<path d="M80.4303 25.4033H85.7173C87.1044 25.4033 88.2329 26.5319 88.2329 27.919C88.2329 29.306 87.1046 30.4346 85.7173 30.4346H80.3456C80.0659 30.4346 79.7976 30.5457 79.5998 30.7435C79.402 30.9413 79.2909 31.2095 79.2909 31.4892C79.2909 31.769 79.402 32.0372 79.5998 32.235C79.7976 32.4328 80.0659 32.5439 80.3456 32.5439H85.7173C88.2675 32.5439 90.3423 30.4692 90.3423 27.919C90.3423 25.3687 88.2675 23.294 85.7173 23.294H80.4303C79.0687 23.294 77.9611 22.1862 77.9611 20.8248C77.9611 19.4633 79.0687 18.3556 80.4303 18.3556H84.3351C84.6109 18.3556 84.8757 18.2476 85.0728 18.0547C85.2699 17.8619 85.3837 17.5994 85.3896 17.3237L85.4661 13.8C85.4721 13.5204 85.3668 13.2498 85.1734 13.0477C84.9799 12.8457 84.7141 12.7288 84.4344 12.7227C84.296 12.7196 84.1582 12.7439 84.0292 12.7941C83.9001 12.8443 83.7821 12.9195 83.6821 13.0153C83.5821 13.1111 83.5019 13.2257 83.4462 13.3525C83.3904 13.4793 83.3602 13.6158 83.3573 13.7543L83.3031 16.2462H80.4305C77.9059 16.2462 75.8519 18.3002 75.8519 20.8248C75.8519 23.3493 77.9059 25.4033 80.4305 25.4033H80.4303Z" fill="black"/>
<path d="M106.457 42.4658C107.039 42.4658 107.511 41.9936 107.511 41.4111C107.511 40.8286 107.039 40.3564 106.457 40.3564C105.874 40.3564 105.402 40.8286 105.402 41.4111C105.402 41.9936 105.874 42.4658 106.457 42.4658Z" fill="black"/>
<path d="M110.769 42.3091C110.648 42.2415 110.514 42.1985 110.376 42.1827C110.238 42.1669 110.098 42.1786 109.964 42.2171C109.83 42.2557 109.706 42.3202 109.597 42.4071C109.488 42.494 109.398 42.6016 109.331 42.7235C109.264 42.8455 109.222 42.9795 109.207 43.1177C109.193 43.256 109.205 43.3959 109.245 43.5293C109.284 43.6627 109.349 43.787 109.437 43.895C109.525 44.003 109.633 44.0926 109.755 44.1587C116.196 47.6901 119.743 52.2436 119.743 56.9805C119.743 61.8996 115.959 66.5801 109.087 70.1597C101.997 73.8531 92.5469 75.887 82.4778 75.887C72.4087 75.887 62.9587 73.8531 55.8686 70.1597C48.9968 66.5803 45.2122 61.8998 45.2122 56.9805C45.2122 53.1052 47.5464 49.3887 51.9735 46.1898L53.3634 47.7938C49.4577 50.5877 47.3216 53.8194 47.3216 56.9805C47.3216 61.1502 51.0021 65.3808 57.4193 68.5874C64.1173 71.9342 73.0164 73.7775 82.4778 73.7775C91.9393 73.7775 100.838 71.9342 107.536 68.5874C113.954 65.3808 117.634 61.1501 117.634 56.9805C117.634 52.3715 113.089 47.6771 105.472 44.4213C98.8791 41.6308 91.1435 40.205 82.4778 40.1836C74.9243 40.1836 67.7657 41.3471 61.7116 43.5466L60.2426 41.8514C66.6542 39.4101 74.4833 38.0742 82.4778 38.0742C89.4548 38.0742 96.2658 39.0728 102.174 40.9617C102.729 41.1393 103.322 40.8333 103.5 40.2783C103.585 40.0119 103.561 39.7225 103.433 39.4739C103.304 39.2253 103.083 39.0377 102.816 38.9526C96.7029 36.9979 89.6701 35.9648 82.4778 35.9648C73.8078 35.9648 65.6366 37.4173 58.7794 40.1628L49.139 29.0376C47.3316 26.952 44.4193 26.296 41.8922 27.4051C40.052 28.213 38.7431 29.8007 38.3014 31.7614C37.8596 33.722 38.3611 35.7177 39.6774 37.2364L40.5157 38.2039C42.0648 39.9914 44.0719 41.3226 46.3212 42.0542C47.9096 42.5713 49.3577 43.4468 50.5537 44.6129C45.6118 48.2526 43.0489 52.5264 43.1028 57.1563C43.1028 67.6738 47.1985 77.5617 54.6355 84.9986C58.5403 88.9035 63.1213 91.8854 68.1139 93.8389C69.9793 98.3083 74.4019 101.278 79.2756 101.278H85.6802C90.5539 101.278 94.9764 98.3083 96.842 93.8389C101.835 91.8854 106.416 88.9035 110.32 84.9986C117.757 77.5617 121.853 67.6738 121.853 57.1563C121.917 51.4933 117.987 46.2805 110.769 42.3091ZM54.7512 49.3954L56.3321 51.22C53.3414 52.8533 50.9854 54.7497 49.4369 56.7525C49.5514 54.348 51.4626 51.7097 54.7512 49.3954ZM68.3881 68.7417C68.284 68.9467 68.1765 69.1583 68.0826 69.385C67.99 69.6083 67.9154 69.8285 67.8435 70.0425C64.7842 69.3198 61.9411 68.3648 59.4004 67.1967C59.4698 67.0278 59.5602 66.8489 59.6537 66.6648C59.7578 66.46 59.8653 66.2484 59.9594 66.0215C60.0555 65.7894 60.132 65.5601 60.2058 65.3384C60.3424 64.9281 60.4716 64.5405 60.6648 64.3473C60.858 64.1542 61.2454 64.025 61.6555 63.8884C61.8773 63.8145 62.1067 63.7383 62.3391 63.6417C62.5659 63.5479 62.7777 63.4403 62.9825 63.3362C63.3662 63.1415 63.7285 62.9574 64.021 62.9574C64.3135 62.9574 64.6758 63.1415 65.0595 63.3362C65.2643 63.4403 65.4761 63.5479 65.7029 63.6417C65.9351 63.7381 66.1643 63.8144 66.3861 63.8884C66.7962 64.025 67.1836 64.1542 67.377 64.3475C67.5702 64.5407 67.6992 64.9281 67.836 65.3382C67.9098 65.56 67.9863 65.7894 68.0826 66.0218C68.1766 66.2484 68.2842 66.4602 68.3881 66.6648C68.5829 67.0486 68.7671 67.4109 68.7671 67.7034C68.7671 67.9959 68.583 68.3583 68.3883 68.7417H68.3881ZM106.593 66.7007C100.183 69.9043 91.6183 71.6684 82.4778 71.6684C78.1018 71.6684 73.8586 71.2631 69.9197 70.49C70.0167 70.2007 70.1208 69.9843 70.2686 69.6971C70.5393 69.1641 70.8761 68.5007 70.8761 67.7034C70.8761 66.906 70.5391 66.2424 70.2684 65.7095C70.0742 65.3419 69.9626 65.0661 69.8367 64.6715C69.6383 64.0761 69.4134 63.4013 68.8682 62.856C68.3227 62.3104 67.6479 62.0856 67.0525 61.8871C66.8574 61.8221 66.673 61.7605 66.5104 61.693C66.3585 61.6303 66.1914 61.5452 66.0142 61.4552C65.4812 61.1845 64.818 60.8477 64.0206 60.8477C63.2233 60.8477 62.5599 61.1847 62.0269 61.4552C61.8499 61.5452 61.6827 61.6301 61.5309 61.6932C61.3683 61.7607 61.1839 61.8219 60.9886 61.8871C60.3934 62.0856 59.7186 62.3102 59.1729 62.8558C58.6275 63.4015 58.4027 64.0761 58.2044 64.6716C58.0363 65.2531 57.7618 65.7001 57.509 66.2574C53.8376 64.2835 51.2526 61.9449 50.1028 59.6209C51.2899 57.2148 53.9709 54.842 57.7477 52.8541L60.9619 56.5632C61.1351 56.7631 61.3771 56.8906 61.6399 56.9204C63.246 57.103 64.9637 57.1955 66.7452 57.1955C68.2738 57.1955 71.0106 56.9919 71.1262 56.9833C71.3212 56.9688 71.5083 56.9003 71.6666 56.7856C71.8249 56.6708 71.9482 56.5143 72.0227 56.3336C72.0972 56.1528 72.1201 55.9549 72.0886 55.762C72.0572 55.569 71.9727 55.3886 71.8447 55.2408L66.8275 49.4509C71.6193 48.2191 76.9907 47.5695 82.4775 47.5695C84.5009 47.5695 86.5152 47.6581 88.4864 47.8302C88.3461 48.2651 88.2243 48.607 88.007 49.0102C87.7363 49.5432 87.3994 50.2066 87.3994 51.0041C87.3994 51.8017 87.7363 52.465 88.007 52.998C88.0969 53.175 88.1818 53.3422 88.2449 53.4939C88.3127 53.6575 88.3744 53.8426 88.4417 54.0444C88.5051 54.2346 88.6214 54.4027 88.7769 54.5292C88.9324 54.6557 89.1207 54.7352 89.3198 54.7585C90.9577 54.9501 92.6772 55.0473 94.4308 55.0473C96.0494 55.0473 97.6427 54.9643 99.1665 54.801C99.3675 54.7794 99.558 54.7005 99.7154 54.5738C99.8728 54.4471 99.9905 54.2778 100.055 54.0861C100.185 53.6772 100.301 53.3782 100.503 52.9982C100.774 52.4652 101.11 51.8018 101.11 51.0045C101.11 50.7519 101.074 50.5144 101.019 50.2887C107.901 52.5229 113.059 55.9845 114.853 59.6204C113.616 62.1211 110.719 64.6393 106.593 66.701L106.593 66.7007ZM99.0013 51.0041C99.0013 51.2966 98.8172 51.6591 98.6225 52.0426C98.5184 52.2474 98.4108 52.4591 98.317 52.6857C98.3055 52.7133 98.2945 52.7407 98.2836 52.7683C97.0355 52.8808 95.7426 52.9377 94.4311 52.9377C92.9896 52.9377 91.574 52.869 90.2133 52.7335L90.1939 52.6858C90.0999 52.4591 89.9923 52.2474 89.8882 52.0426C89.6935 51.6589 89.5093 51.2966 89.5093 51.0041C89.5093 50.7116 89.6933 50.3492 89.8882 49.9656C89.9923 49.7608 90.0999 49.5492 90.1939 49.3223C90.2901 49.0902 90.3666 48.8608 90.4404 48.6392C90.5724 48.2428 90.6981 47.8692 90.8805 47.6701C90.8841 47.6666 90.8879 47.6636 90.8914 47.6599C90.8974 47.6536 90.9027 47.6467 90.9085 47.6402C91.1045 47.4514 91.4857 47.3238 91.89 47.189C92.1119 47.1151 92.3413 47.0389 92.5737 46.9424C92.8004 46.8485 93.0122 46.7409 93.217 46.6368C93.6007 46.4421 93.963 46.258 94.2555 46.258C94.548 46.258 94.9103 46.4421 95.2941 46.6368C95.4988 46.7409 95.7107 46.8485 95.9374 46.9424C96.1696 47.0387 96.3988 47.115 96.6207 47.189C97.0308 47.3256 97.4182 47.4548 97.6115 47.6481C97.8047 47.8413 97.9338 48.2287 98.0705 48.6388C98.1443 48.8607 98.2208 49.09 98.3171 49.3224C98.4112 49.549 98.5188 49.7608 98.6226 49.9654C98.8174 50.3492 99.0016 50.7115 99.0016 51.004L99.0013 51.0041ZM82.4752 42.2929C90.8559 42.3137 98.3168 43.6834 104.647 46.3623C111.213 49.1692 115.342 53.1251 115.516 56.743C112.665 53.0442 107.125 49.8104 100.005 47.7742C99.8195 47.2306 99.5884 46.6425 99.1027 46.1566C98.5573 45.611 97.8824 45.3862 97.2871 45.1877C97.0919 45.1227 96.9075 45.0611 96.7449 44.9936C96.5931 44.9309 96.4259 44.8458 96.2487 44.7558C95.7158 44.4851 95.0525 44.1483 94.2552 44.1483C93.4578 44.1483 92.7944 44.4851 92.2615 44.7558C91.8937 44.95 91.6179 45.0617 91.2231 45.1875C90.7614 45.3415 90.2525 45.5133 89.7924 45.8363C87.3624 45.5847 84.9209 45.459 82.4778 45.4598C76.3399 45.4598 70.563 46.2072 65.2919 47.678L63.1953 45.2584C68.8564 43.3167 75.484 42.2926 82.4754 42.2926L82.4752 42.2929ZM42.1097 36.8226L41.2716 35.8551C40.3988 34.8481 40.0664 33.525 40.3592 32.2251C40.6523 30.925 41.5199 29.8722 42.74 29.3366C44.4161 28.6013 46.3469 29.0364 47.5448 30.4191L57.6661 42.0994L57.6691 42.1029L68.8567 55.0135C68.117 55.0533 67.3267 55.0859 66.7452 55.0859C65.1929 55.0859 63.6946 55.0126 62.2844 54.8682L52.7791 43.8987C51.23 42.1113 49.2228 40.7801 46.9735 40.0484C45.0891 39.4354 43.4075 38.3202 42.1097 36.8226ZM85.68 99.1682H79.2755C75.9632 99.1682 72.9044 97.5062 71.0668 94.8607C74.7199 95.9611 78.5549 96.5315 82.4777 96.5315C86.4004 96.5315 90.2354 95.9611 93.8885 94.8607C92.0509 97.5062 88.9923 99.1682 85.68 99.1682ZM82.4778 94.4221C64.6397 94.4221 49.6913 81.8228 46.0577 65.0564C48.056 67.6518 51.0337 70.02 54.8939 72.0307C62.2795 75.8779 72.0756 77.9964 82.4777 77.9964C92.8797 77.9964 102.676 75.8777 110.061 72.0307C113.922 70.0198 116.899 67.6518 118.898 65.0564C115.264 81.8228 100.316 94.4221 82.4775 94.4221H82.4778Z" fill="black"/>
<path d="M48.9432 59.6188C51.7454 66.2572 64.7368 72.7228 82.4781 72.7228C100.219 72.7228 113.211 66.257 116.013 59.6186C114.196 55.3131 108.09 51.0808 99.1845 48.6376C98.9648 48.0197 98.8064 47.3512 98.3573 46.9021C97.8391 46.3839 97.0289 46.2531 96.3413 45.968C95.678 45.6931 95.0181 45.203 94.2554 45.203C93.4927 45.203 92.8328 45.6929 92.1696 45.968C91.4821 46.2531 90.6718 46.3839 90.1536 46.9019C90.1444 46.9112 90.1374 46.922 90.1284 46.9315C87.6974 46.6613 85.1417 46.5145 82.4781 46.5145C75.8792 46.5145 69.9382 47.4096 64.9335 48.8747L71.0481 55.9311C71.0481 55.9311 68.2526 56.1405 66.7457 56.1405C64.9617 56.1405 63.2719 56.044 61.7593 55.8719L57.7882 51.2891L58.0039 51.538C53.3397 53.8481 50.1681 56.7167 48.9432 59.6185V59.6188Z" fill="#FFEE93"/>
<path d="M82.478 37.0195C73.3905 37.0195 65.0437 38.6684 58.4747 41.4216L61.3911 44.7871C67.0353 42.6312 74.245 41.2383 82.478 41.2383C102.575 41.2383 116.58 49.5346 116.58 56.9807C116.58 64.4268 102.575 72.7232 82.478 72.7232C62.3815 72.7232 48.3765 64.4268 48.3765 56.9807C48.3765 53.9181 50.7478 50.7118 54.9359 47.9979L52.1484 44.781C47.1398 48.1546 44.1577 52.386 44.1577 56.9807C44.1577 68.0048 61.3143 76.9417 82.478 76.9417C103.642 76.9417 120.798 68.0048 120.798 56.9807C120.798 45.9566 103.642 37.0197 82.478 37.0197V37.0195Z" fill="black"/>
<path d="M82.478 37.0195C73.3905 37.0195 65.0437 38.6684 58.4747 41.4216L61.3911 44.7871C67.0353 42.6312 74.245 41.2383 82.478 41.2383C102.575 41.2383 116.58 49.5346 116.58 56.9807C116.58 64.4268 102.575 72.7232 82.478 72.7232C62.3815 72.7232 48.3765 64.4268 48.3765 56.9807C48.3765 53.9181 50.7478 50.7118 54.9359 47.9979L52.1484 44.781C47.1398 48.1546 44.1577 52.386 44.1577 56.9807C44.1577 68.0048 61.3143 76.9417 82.478 76.9417C103.642 76.9417 120.798 68.0048 120.798 56.9807C120.798 45.9566 103.642 37.0197 82.478 37.0197V37.0195ZM82.478 95.4766C77.7036 95.4766 73.1346 94.6011 68.9191 93.0057C70.473 97.2185 74.5234 100.223 79.2758 100.223H85.6804C90.4328 100.223 94.4832 97.2185 96.0371 93.0057C91.8217 94.6009 87.2524 95.4766 82.4782 95.4766H82.478Z" fill="#B4D9FB"/>
<path d="M68.1227 63.6015C67.6045 63.0833 66.7943 62.9525 66.1066 62.6674C65.4434 62.3923 64.7835 61.9024 64.0208 61.9024C63.2581 61.9024 62.5982 62.3923 61.935 62.6674C61.2475 62.9525 60.4372 63.0833 59.919 63.6013C59.4007 64.1195 59.27 64.9299 58.9848 65.6174C58.7098 66.2806 58.2198 66.9405 58.2198 67.7032C58.2198 67.738 58.222 67.7724 58.2239 67.8067C61.1213 69.2167 64.58 70.4121 68.4953 71.271C68.7302 70.8113 68.8565 70.271 69.0564 69.789C69.3315 69.1258 69.8214 68.4659 69.8214 67.7032C69.8214 66.9405 69.3315 66.2806 69.0564 65.6174C68.7713 64.9299 68.6405 64.1195 68.1223 63.6013L68.1227 63.6015Z" fill="#906F65"/>
<path d="M90.6945 67.3718C92.0435 68.0115 93.5666 67.8438 94.7203 67.0647C94.5933 65.6785 93.7591 64.393 92.4101 63.7536C91.0612 63.1139 89.5381 63.2816 88.3844 64.0606C88.5113 65.4469 89.3456 66.7323 90.6945 67.3718Z" fill="#29D0B3"/>
<path d="M99.0544 53.7518C99.1292 53.5275 99.2029 53.3028 99.2911 53.0898C99.5662 52.4266 100.056 51.7667 100.056 51.004C100.056 50.2412 99.5662 49.5814 99.2911 48.9181C99.006 48.2307 98.8752 47.4203 98.357 46.9021C97.8388 46.3839 97.0287 46.2531 96.341 45.968C95.6778 45.6929 95.0179 45.203 94.2552 45.203C93.4925 45.203 92.8326 45.6929 92.1694 45.968C91.4819 46.2531 90.6715 46.3839 90.1533 46.9019C89.6351 47.4201 89.5043 48.2305 89.2192 48.918C88.9441 49.5812 88.4542 50.2411 88.4542 51.0038C88.4542 51.7665 88.9441 52.4264 89.2192 53.0896C89.3022 53.2896 89.3722 53.4999 89.4423 53.7105C90.9909 53.8917 92.6719 53.9921 94.4308 53.9921C96.0522 53.9921 97.6073 53.9068 99.054 53.7516L99.0544 53.7518Z" fill="#906F65"/>
<path d="M105.681 61.0235C106.846 61.0235 107.791 60.0791 107.791 58.9141C107.791 57.7491 106.846 56.8047 105.681 56.8047C104.516 56.8047 103.572 57.7491 103.572 58.9141C103.572 60.0791 104.516 61.0235 105.681 61.0235Z" fill="#EA4E4E"/>
<path d="M80.3686 59.9688C81.5336 59.9688 82.478 59.0244 82.478 57.8594C82.478 56.6945 81.5336 55.7501 80.3686 55.7501C79.2037 55.7501 78.2593 56.6945 78.2593 57.8594C78.2593 59.0244 79.2037 59.9688 80.3686 59.9688Z" fill="#EA4E4E"/>
<path d="M66.7456 56.1406C68.2524 56.1406 71.048 55.9313 71.048 55.9313L48.3422 29.7283C47.6143 28.8883 46.6367 28.3034 45.5524 28.0591C44.4681 27.8148 43.3341 27.924 42.3164 28.3707C39.1058 29.78 38.1785 33.8959 40.4747 36.5456L41.3129 37.5129C42.7362 39.1555 44.5807 40.3788 46.6477 41.0511C48.7146 41.7233 50.559 42.9466 51.9824 44.5892L61.7594 55.872C63.272 56.044 64.9618 56.1405 66.7458 56.1405L66.7456 56.1406Z" fill="#DCEBFD"/>
<path d="M82.478 41.2383C74.245 41.2383 67.0353 42.6313 61.3911 44.7871L64.9333 48.8749C69.938 47.4098 75.879 46.5147 82.478 46.5147C85.1416 46.5147 87.6973 46.6615 90.1284 46.9317C90.1373 46.9222 90.1444 46.9114 90.1535 46.9021C90.6717 46.3841 91.4819 46.2533 92.1695 45.9682C92.8328 45.6933 93.4927 45.2032 94.2554 45.2032C95.0181 45.2032 95.678 45.6931 96.3412 45.9682C97.0287 46.2533 97.839 46.3841 98.3572 46.9023C98.8064 47.3514 98.9646 48.0199 99.1845 48.6378C108.09 51.0811 114.195 55.3133 116.013 59.6188C116.385 58.7375 116.58 57.8533 116.58 56.9805C116.58 49.5346 102.575 41.2383 82.478 41.2383ZM54.9359 47.9978C50.7478 50.7117 48.3765 53.9177 48.3765 56.9805C48.3765 57.8531 48.5712 58.7375 48.9432 59.6188C50.168 56.7172 53.3396 53.8485 58.0038 51.5384L54.9359 47.9978Z" fill="#688E96"/>
<path d="M82.478 76.9415C61.3143 76.9415 44.1577 68.0047 44.1577 56.9805V57.1563C44.1577 78.32 61.3143 95.4766 82.478 95.4766C103.642 95.4766 120.798 78.32 120.798 57.1563V56.9805C120.798 68.0047 103.642 76.9415 82.478 76.9415Z" fill="#DCEBFD"/>
<path d="M92.8621 62.8003C91.233 62.0277 89.291 62.1757 87.7942 63.1863C87.6376 63.292 87.5124 63.4379 87.4315 63.6085C87.3505 63.7792 87.3169 63.9685 87.3342 64.1566C87.4989 65.955 88.6133 67.5522 90.2426 68.3249C90.9274 68.6487 91.6755 68.8163 92.4329 68.8155C93.4433 68.8155 94.4505 68.5195 95.3104 67.9389C95.4669 67.8332 95.5922 67.6873 95.6731 67.5166C95.754 67.346 95.7876 67.1567 95.7704 66.9686C95.6059 65.1704 94.4916 63.573 92.8621 62.8003ZM91.1465 66.4188C90.3924 66.0614 89.8257 65.4033 89.571 64.623C90.3365 64.3264 91.2045 64.3488 91.9586 64.7065C92.7127 65.064 93.2794 65.7221 93.5341 66.5022C92.7688 66.7988 91.9006 66.7765 91.1465 66.4188ZM105.681 55.7501C103.937 55.7501 102.517 57.1695 102.517 58.9141C102.517 60.6588 103.937 62.0782 105.681 62.0782C107.426 62.0782 108.845 60.6588 108.845 58.9141C108.845 57.1695 107.426 55.7501 105.681 55.7501ZM105.681 59.9688C105.099 59.9688 104.626 59.4958 104.626 58.9141C104.626 58.3325 105.099 57.8594 105.681 57.8594C106.263 57.8594 106.736 58.3325 106.736 58.9141C106.736 59.4958 106.263 59.9688 105.681 59.9688ZM80.3686 54.6954C78.624 54.6954 77.2046 56.1148 77.2046 57.8594C77.2046 59.6041 78.624 61.0235 80.3686 61.0235C82.1133 61.0235 83.5327 59.6041 83.5327 57.8594C83.5327 56.1148 82.1133 54.6954 80.3686 54.6954ZM80.3686 58.9141C79.787 58.9141 79.314 58.4411 79.314 57.8594C79.314 57.2778 79.787 56.8047 80.3686 56.8047C80.9503 56.8047 81.4233 57.2778 81.4233 57.8594C81.4233 58.4411 80.9503 58.9141 80.3686 58.9141Z" fill="black"/>
<path d="M78.4351 67.879C79.0175 67.879 79.4897 67.4068 79.4897 66.8243C79.4897 66.2418 79.0175 65.7696 78.4351 65.7696C77.8526 65.7696 77.3804 66.2418 77.3804 66.8243C77.3804 67.4068 77.8526 67.879 78.4351 67.879Z" fill="black"/>
<path d="M78.2593 51.5313C78.8418 51.5313 79.314 51.0591 79.314 50.4766C79.314 49.8941 78.8418 49.4219 78.2593 49.4219C77.6768 49.4219 77.2046 49.8941 77.2046 50.4766C77.2046 51.0591 77.6768 51.5313 78.2593 51.5313Z" fill="black"/>
<path d="M92.6733 58.9141C93.2558 58.9141 93.728 58.4419 93.728 57.8594C93.728 57.2769 93.2558 56.8047 92.6733 56.8047C92.0909 56.8047 91.6187 57.2769 91.6187 57.8594C91.6187 58.4419 92.0909 58.9141 92.6733 58.9141Z" fill="black"/>
<path d="M58.2202 59.9688C58.8027 59.9688 59.2749 59.4966 59.2749 58.9141C59.2749 58.3316 58.8027 57.8594 58.2202 57.8594C57.6377 57.8594 57.1655 58.3316 57.1655 58.9141C57.1655 59.4966 57.6377 59.9688 58.2202 59.9688Z" fill="black"/>
<path d="M80.4303 25.4033H85.7173C87.1044 25.4033 88.2329 26.5319 88.2329 27.919C88.2329 29.306 87.1046 30.4346 85.7173 30.4346H80.3456C80.0659 30.4346 79.7976 30.5457 79.5998 30.7435C79.402 30.9413 79.2909 31.2095 79.2909 31.4892C79.2909 31.769 79.402 32.0372 79.5998 32.235C79.7976 32.4328 80.0659 32.5439 80.3456 32.5439H85.7173C88.2675 32.5439 90.3423 30.4692 90.3423 27.919C90.3423 25.3687 88.2675 23.294 85.7173 23.294H80.4303C79.0687 23.294 77.9611 22.1862 77.9611 20.8248C77.9611 19.4633 79.0687 18.3556 80.4303 18.3556H84.3351C84.6109 18.3556 84.8757 18.2476 85.0728 18.0547C85.2699 17.8619 85.3837 17.5994 85.3896 17.3237L85.4661 13.8C85.4721 13.5204 85.3668 13.2498 85.1734 13.0477C84.9799 12.8457 84.7141 12.7288 84.4344 12.7227C84.296 12.7196 84.1582 12.7439 84.0292 12.7941C83.9001 12.8443 83.7821 12.9195 83.6821 13.0153C83.5821 13.1111 83.5019 13.2257 83.4462 13.3525C83.3904 13.4793 83.3602 13.6158 83.3573 13.7543L83.3031 16.2462H80.4305C77.9059 16.2462 75.8519 18.3002 75.8519 20.8248C75.8519 23.3493 77.9059 25.4033 80.4305 25.4033H80.4303Z" fill="black"/>
<path d="M106.457 42.4658C107.039 42.4658 107.511 41.9936 107.511 41.4111C107.511 40.8286 107.039 40.3564 106.457 40.3564C105.874 40.3564 105.402 40.8286 105.402 41.4111C105.402 41.9936 105.874 42.4658 106.457 42.4658Z" fill="black"/>
<path d="M110.769 42.3091C110.648 42.2415 110.514 42.1985 110.376 42.1827C110.238 42.1669 110.098 42.1786 109.964 42.2171C109.83 42.2557 109.706 42.3202 109.597 42.4071C109.488 42.494 109.398 42.6016 109.331 42.7235C109.264 42.8455 109.222 42.9795 109.207 43.1177C109.193 43.256 109.205 43.3959 109.245 43.5293C109.284 43.6627 109.349 43.787 109.437 43.895C109.525 44.003 109.633 44.0926 109.755 44.1587C116.196 47.6901 119.743 52.2436 119.743 56.9805C119.743 61.8996 115.959 66.5801 109.087 70.1597C101.997 73.8531 92.5469 75.887 82.4778 75.887C72.4087 75.887 62.9587 73.8531 55.8686 70.1597C48.9968 66.5803 45.2122 61.8998 45.2122 56.9805C45.2122 53.1052 47.5464 49.3887 51.9735 46.1898L53.3634 47.7938C49.4577 50.5877 47.3216 53.8194 47.3216 56.9805C47.3216 61.1502 51.0021 65.3808 57.4193 68.5874C64.1173 71.9342 73.0164 73.7775 82.4778 73.7775C91.9393 73.7775 100.838 71.9342 107.536 68.5874C113.954 65.3808 117.634 61.1501 117.634 56.9805C117.634 52.3715 113.089 47.6771 105.472 44.4213C98.8791 41.6308 91.1435 40.205 82.4778 40.1836C74.9243 40.1836 67.7657 41.3471 61.7116 43.5466L60.2426 41.8514C66.6542 39.4101 74.4833 38.0742 82.4778 38.0742C89.4548 38.0742 96.2658 39.0728 102.174 40.9617C102.729 41.1393 103.322 40.8333 103.5 40.2783C103.585 40.0119 103.561 39.7225 103.433 39.4739C103.304 39.2253 103.083 39.0377 102.816 38.9526C96.7029 36.9979 89.6701 35.9648 82.4778 35.9648C73.8078 35.9648 65.6366 37.4173 58.7794 40.1628L49.139 29.0376C47.3316 26.952 44.4193 26.296 41.8922 27.4051C40.052 28.213 38.7431 29.8007 38.3014 31.7614C37.8596 33.722 38.3611 35.7177 39.6774 37.2364L40.5157 38.2039C42.0648 39.9914 44.0719 41.3226 46.3212 42.0542C47.9096 42.5713 49.3577 43.4468 50.5537 44.6129C45.6118 48.2526 43.0489 52.5264 43.1028 57.1563C43.1028 67.6738 47.1985 77.5617 54.6355 84.9986C58.5403 88.9035 63.1213 91.8854 68.1139 93.8389C69.9793 98.3083 74.4019 101.278 79.2756 101.278H85.6802C90.5539 101.278 94.9764 98.3083 96.842 93.8389C101.835 91.8854 106.416 88.9035 110.32 84.9986C117.757 77.5617 121.853 67.6738 121.853 57.1563C121.917 51.4933 117.987 46.2805 110.769 42.3091ZM54.7512 49.3954L56.3321 51.22C53.3414 52.8533 50.9854 54.7497 49.4369 56.7525C49.5514 54.348 51.4626 51.7097 54.7512 49.3954ZM68.3881 68.7417C68.284 68.9467 68.1765 69.1583 68.0826 69.385C67.99 69.6083 67.9154 69.8285 67.8435 70.0425C64.7842 69.3198 61.9411 68.3648 59.4004 67.1967C59.4698 67.0278 59.5602 66.8489 59.6537 66.6648C59.7578 66.46 59.8653 66.2484 59.9594 66.0215C60.0555 65.7894 60.132 65.5601 60.2058 65.3384C60.3424 64.9281 60.4716 64.5405 60.6648 64.3473C60.858 64.1542 61.2454 64.025 61.6555 63.8884C61.8773 63.8145 62.1067 63.7383 62.3391 63.6417C62.5659 63.5479 62.7777 63.4403 62.9825 63.3362C63.3662 63.1415 63.7285 62.9574 64.021 62.9574C64.3135 62.9574 64.6758 63.1415 65.0595 63.3362C65.2643 63.4403 65.4761 63.5479 65.7029 63.6417C65.9351 63.7381 66.1643 63.8144 66.3861 63.8884C66.7962 64.025 67.1836 64.1542 67.377 64.3475C67.5702 64.5407 67.6992 64.9281 67.836 65.3382C67.9098 65.56 67.9863 65.7894 68.0826 66.0218C68.1766 66.2484 68.2842 66.4602 68.3881 66.6648C68.5829 67.0486 68.7671 67.4109 68.7671 67.7034C68.7671 67.9959 68.583 68.3583 68.3883 68.7417H68.3881ZM106.593 66.7007C100.183 69.9043 91.6183 71.6684 82.4778 71.6684C78.1018 71.6684 73.8586 71.2631 69.9197 70.49C70.0167 70.2007 70.1208 69.9843 70.2686 69.6971C70.5393 69.1641 70.8761 68.5007 70.8761 67.7034C70.8761 66.906 70.5391 66.2424 70.2684 65.7095C70.0742 65.3419 69.9626 65.0661 69.8367 64.6715C69.6383 64.0761 69.4134 63.4013 68.8682 62.856C68.3227 62.3104 67.6479 62.0856 67.0525 61.8871C66.8574 61.8221 66.673 61.7605 66.5104 61.693C66.3585 61.6303 66.1914 61.5452 66.0142 61.4552C65.4812 61.1845 64.818 60.8477 64.0206 60.8477C63.2233 60.8477 62.5599 61.1847 62.0269 61.4552C61.8499 61.5452 61.6827 61.6301 61.5309 61.6932C61.3683 61.7607 61.1839 61.8219 60.9886 61.8871C60.3934 62.0856 59.7186 62.3102 59.1729 62.8558C58.6275 63.4015 58.4027 64.0761 58.2044 64.6716C58.0363 65.2531 57.7618 65.7001 57.509 66.2574C53.8376 64.2835 51.2526 61.9449 50.1028 59.6209C51.2899 57.2148 53.9709 54.842 57.7477 52.8541L60.9619 56.5632C61.1351 56.7631 61.3771 56.8906 61.6399 56.9204C63.246 57.103 64.9637 57.1955 66.7452 57.1955C68.2738 57.1955 71.0106 56.9919 71.1262 56.9833C71.3212 56.9688 71.5083 56.9003 71.6666 56.7856C71.8249 56.6708 71.9482 56.5143 72.0227 56.3336C72.0972 56.1528 72.1201 55.9549 72.0886 55.762C72.0572 55.569 71.9727 55.3886 71.8447 55.2408L66.8275 49.4509C71.6193 48.2191 76.9907 47.5695 82.4775 47.5695C84.5009 47.5695 86.5152 47.6581 88.4864 47.8302C88.3461 48.2651 88.2243 48.607 88.007 49.0102C87.7363 49.5432 87.3994 50.2066 87.3994 51.0041C87.3994 51.8017 87.7363 52.465 88.007 52.998C88.0969 53.175 88.1818 53.3422 88.2449 53.4939C88.3127 53.6575 88.3744 53.8426 88.4417 54.0444C88.5051 54.2346 88.6214 54.4027 88.7769 54.5292C88.9324 54.6557 89.1207 54.7352 89.3198 54.7585C90.9577 54.9501 92.6772 55.0473 94.4308 55.0473C96.0494 55.0473 97.6427 54.9643 99.1665 54.801C99.3675 54.7794 99.558 54.7005 99.7154 54.5738C99.8728 54.4471 99.9905 54.2778 100.055 54.0861C100.185 53.6772 100.301 53.3782 100.503 52.9982C100.774 52.4652 101.11 51.8018 101.11 51.0045C101.11 50.7519 101.074 50.5144 101.019 50.2887C107.901 52.5229 113.059 55.9845 114.853 59.6204C113.616 62.1211 110.719 64.6393 106.593 66.701L106.593 66.7007ZM99.0013 51.0041C99.0013 51.2966 98.8172 51.6591 98.6225 52.0426C98.5184 52.2474 98.4108 52.4591 98.317 52.6857C98.3055 52.7133 98.2945 52.7407 98.2836 52.7683C97.0355 52.8808 95.7426 52.9377 94.4311 52.9377C92.9896 52.9377 91.574 52.869 90.2133 52.7335L90.1939 52.6858C90.0999 52.4591 89.9923 52.2474 89.8882 52.0426C89.6935 51.6589 89.5093 51.2966 89.5093 51.0041C89.5093 50.7116 89.6933 50.3492 89.8882 49.9656C89.9923 49.7608 90.0999 49.5492 90.1939 49.3223C90.2901 49.0902 90.3666 48.8608 90.4404 48.6392C90.5724 48.2428 90.6981 47.8692 90.8805 47.6701C90.8841 47.6666 90.8879 47.6636 90.8914 47.6599C90.8974 47.6536 90.9027 47.6467 90.9085 47.6402C91.1045 47.4514 91.4857 47.3238 91.89 47.189C92.1119 47.1151 92.3413 47.0389 92.5737 46.9424C92.8004 46.8485 93.0122 46.7409 93.217 46.6368C93.6007 46.4421 93.963 46.258 94.2555 46.258C94.548 46.258 94.9103 46.4421 95.2941 46.6368C95.4988 46.7409 95.7107 46.8485 95.9374 46.9424C96.1696 47.0387 96.3988 47.115 96.6207 47.189C97.0308 47.3256 97.4182 47.4548 97.6115 47.6481C97.8047 47.8413 97.9338 48.2287 98.0705 48.6388C98.1443 48.8607 98.2208 49.09 98.3171 49.3224C98.4112 49.549 98.5188 49.7608 98.6226 49.9654C98.8174 50.3492 99.0016 50.7115 99.0016 51.004L99.0013 51.0041ZM82.4752 42.2929C90.8559 42.3137 98.3168 43.6834 104.647 46.3623C111.213 49.1692 115.342 53.1251 115.516 56.743C112.665 53.0442 107.125 49.8104 100.005 47.7742C99.8195 47.2306 99.5884 46.6425 99.1027 46.1566C98.5573 45.611 97.8824 45.3862 97.2871 45.1877C97.0919 45.1227 96.9075 45.0611 96.7449 44.9936C96.5931 44.9309 96.4259 44.8458 96.2487 44.7558C95.7158 44.4851 95.0525 44.1483 94.2552 44.1483C93.4578 44.1483 92.7944 44.4851 92.2615 44.7558C91.8937 44.95 91.6179 45.0617 91.2231 45.1875C90.7614 45.3415 90.2525 45.5133 89.7924 45.8363C87.3624 45.5847 84.9209 45.459 82.4778 45.4598C76.3399 45.4598 70.563 46.2072 65.2919 47.678L63.1953 45.2584C68.8564 43.3167 75.484 42.2926 82.4754 42.2926L82.4752 42.2929ZM42.1097 36.8226L41.2716 35.8551C40.3988 34.8481 40.0664 33.525 40.3592 32.2251C40.6523 30.925 41.5199 29.8722 42.74 29.3366C44.4161 28.6013 46.3469 29.0364 47.5448 30.4191L57.6661 42.0994L57.6691 42.1029L68.8567 55.0135C68.117 55.0533 67.3267 55.0859 66.7452 55.0859C65.1929 55.0859 63.6946 55.0126 62.2844 54.8682L52.7791 43.8987C51.23 42.1113 49.2228 40.7801 46.9735 40.0484C45.0891 39.4354 43.4075 38.3202 42.1097 36.8226ZM85.68 99.1682H79.2755C75.9632 99.1682 72.9044 97.5062 71.0668 94.8607C74.7199 95.9611 78.5549 96.5315 82.4777 96.5315C86.4004 96.5315 90.2354 95.9611 93.8885 94.8607C92.0509 97.5062 88.9923 99.1682 85.68 99.1682ZM82.4778 94.4221C64.6397 94.4221 49.6913 81.8228 46.0577 65.0564C48.056 67.6518 51.0337 70.02 54.8939 72.0307C62.2795 75.8779 72.0756 77.9964 82.4777 77.9964C92.8797 77.9964 102.676 75.8777 110.061 72.0307C113.922 70.0198 116.899 67.6518 118.898 65.0564C115.264 81.8228 100.316 94.4221 82.4775 94.4221H82.4778Z" fill="black"/>
</g>
<defs>
<clipPath id="clip0_170_2479">
<rect width="90" height="90" fill="white" transform="translate(35 12)"/>
</clipPath>
</defs>
</svg>
