<svg width="159" height="113" viewBox="0 0 159 113" fill="none" xmlns="http://www.w3.org/2000/svg">
<path d="M115.542 99.9634C95.4134 106.506 55.4197 101.421 36.0685 87.5121C-24.448 44.0141 42.9196 -3.6897 96.6373 8.24536C150.355 20.1804 147.714 89.5051 115.542 99.9634Z" fill="#DBEDFE"/>
<path d="M143.74 58C145.376 73.76 140.426 89.4301 130.5 98.0381" stroke="#F17228" stroke-width="3" stroke-linecap="round"/>
<path d="M5 54.5C5 30.7518 20.5 15.5 44 8" stroke="#74CA45" stroke-width="3" stroke-linecap="round"/>
<path d="M78.1597 30.348C78.3736 33.401 79.6984 36.2699 81.8837 38.4125C84.069 40.5552 86.9635 41.8231 90.0201 41.9766C93.0767 42.1302 96.0837 41.1588 98.4728 39.246C100.862 37.3332 102.468 34.6115 102.986 31.5954C103.049 31.2369 103.029 30.8689 102.929 30.5192C102.828 30.1696 102.649 29.8473 102.406 29.5769C102.162 29.3065 101.861 29.095 101.523 28.9584C101.186 28.8218 100.822 28.7637 100.459 28.7885L78.1597 30.348Z" fill="#FFC443"/>
<path d="M113.836 35.0321C97.969 32.349 88.8791 41.4033 91.5243 57.254L91.5372 57.3308L91.614 57.3438C107.465 59.9887 116.518 50.8988 113.836 35.0321Z" fill="#8BC932"/>
<path d="M88.7496 61.3161C88.5129 61.3159 88.2815 61.2455 88.0847 61.1139C87.8879 60.9822 87.7345 60.7952 87.644 60.5765C87.5534 60.3577 87.5297 60.1171 87.5758 59.8848C87.6219 59.6526 87.7359 59.4393 87.9032 59.2718L108.808 38.3658C109.033 38.1412 109.338 38.015 109.655 38.0151C109.973 38.0151 110.278 38.1414 110.502 38.3661C110.727 38.5908 110.853 38.8955 110.853 39.2132C110.853 39.5309 110.727 39.8355 110.502 40.0601L89.5961 60.9652C89.485 61.0765 89.3531 61.1648 89.2078 61.225C89.0626 61.2852 88.9069 61.3162 88.7496 61.3161Z" fill="#80B524"/>
<path d="M112.665 48.7405C109.526 55.7454 102.041 59.0833 91.6132 57.3441L91.5366 57.3313L91.5238 57.2547C91.0047 54.1419 90.9377 51.2911 91.2858 48.7405H112.665Z" fill="#80B524"/>
<path d="M102.325 56.2495C105.412 56.2495 107.915 53.7468 107.915 50.6596C107.915 47.5724 105.412 45.0698 102.325 45.0698C99.2378 45.0698 96.7351 47.5724 96.7351 50.6596C96.7351 53.7468 99.2378 56.2495 102.325 56.2495Z" fill="#FFAC3E"/>
<path d="M107.915 50.6603C107.914 51.4765 107.735 52.2828 107.389 53.0223C107.044 53.7619 106.541 54.4168 105.915 54.941C105.289 55.4653 104.556 55.8461 103.768 56.0568C102.979 56.2675 102.154 56.303 101.35 56.1606C100.547 56.0183 99.7837 55.7017 99.1154 55.233C98.4471 54.7643 97.8895 54.1549 97.4819 53.4477C97.0743 52.7405 96.8265 51.9526 96.756 51.1394C96.6855 50.3262 96.7939 49.5074 97.0737 48.7405H107.576C107.801 49.3556 107.915 50.0054 107.915 50.6603Z" fill="#F99E32"/>
<path d="M83.1892 49.7745C84.0584 48.9054 84.7018 47.8368 85.0632 46.6619C85.4245 45.4869 85.4929 44.2415 85.2623 43.0341C85.0317 41.8267 84.5091 40.6941 83.7402 39.735C82.9713 38.776 81.9794 38.0197 80.851 37.5321C81.6714 36.0971 81.9971 34.4321 81.7778 32.7937C81.5586 31.1554 80.8066 29.6346 79.6378 28.4658C78.4689 27.297 76.9482 26.545 75.3098 26.3257C73.6715 26.1065 72.0065 26.4322 70.5715 27.2525C70.0839 26.1242 69.3276 25.1322 68.3685 24.3633C67.4095 23.5944 66.2769 23.0719 65.0695 22.8413C63.8621 22.6107 62.6166 22.679 61.4417 23.0404C60.2668 23.4017 59.1982 24.0451 58.3291 24.9144C56.9162 23.5015 55 22.7078 53.0019 22.7078C51.0039 22.7078 49.0877 23.5015 47.6748 24.9144C46.262 26.3272 45.4683 28.2434 45.4683 30.2415C45.4683 32.2396 46.262 34.1558 47.6748 35.5686C46.8056 36.4377 46.1622 37.5064 45.8008 38.6813C45.4395 39.8562 45.3711 41.1017 45.6017 42.309C45.8323 43.5164 46.3549 44.6491 47.1238 45.6081C47.8927 46.5671 48.8846 47.3234 50.013 47.811C49.1926 49.246 48.8669 50.911 49.0862 52.5494C49.3054 54.1877 50.0574 55.7085 51.2262 56.8773C52.395 58.0461 53.9158 58.7981 55.5542 59.0174C57.1925 59.2366 58.8575 58.911 60.2925 58.0906C60.7801 59.219 61.5364 60.2109 62.4955 60.9798C63.4545 61.7487 64.5871 62.2713 65.7945 62.5019C67.0019 62.7325 68.2474 62.6641 69.4223 62.3027C70.5972 61.9414 71.6658 61.298 72.5349 60.4287C73.9478 61.8416 75.864 62.6353 77.8621 62.6353C79.8601 62.6353 81.7763 61.8416 83.1892 60.4287C84.602 59.0159 85.3957 57.0997 85.3957 55.1016C85.3957 53.1036 84.602 51.1873 83.1892 49.7745Z" fill="#8BC932"/>
<path d="M73.6178 57.9718C73.59 57.9718 73.562 57.9708 73.5339 57.9687C73.377 57.9579 73.2237 57.9162 73.0829 57.8461C72.942 57.7761 72.8164 57.6789 72.7131 57.5603C72.6098 57.4416 72.5309 57.3038 72.4809 57.1547C72.4308 57.0055 72.4107 56.848 72.4215 56.691C72.732 52.1949 71.4906 47.3985 68.926 43.1853C65.6787 37.851 60.4867 33.4969 53.4942 30.2444C53.35 30.179 53.2202 30.0858 53.1123 29.97C53.0044 29.8541 52.9205 29.7181 52.8655 29.5697C52.8105 29.4212 52.7854 29.2634 52.7918 29.1052C52.7982 28.9471 52.8358 28.7917 52.9026 28.6482C52.9693 28.5047 53.0639 28.3758 53.1807 28.269C53.2976 28.1623 53.4345 28.0797 53.5834 28.0262C53.7324 27.9726 53.8905 27.9491 54.0486 27.9571C54.2067 27.965 54.3616 28.0042 54.5045 28.0723C61.934 31.528 67.4745 36.1936 70.9723 41.9398C73.7925 46.5725 75.1558 51.8697 74.8116 56.8567C74.7907 57.1591 74.6558 57.4424 74.4343 57.6493C74.2127 57.8562 73.9209 57.9715 73.6178 57.9718Z" fill="#80B524"/>
<path d="M83.1885 60.4281C82.4891 61.128 81.6587 61.6831 80.7446 62.0619C79.8306 62.4407 78.8508 62.6357 77.8614 62.6357C76.872 62.6357 75.8923 62.4407 74.9782 62.0619C74.0642 61.6831 73.2337 61.128 72.5343 60.4281C71.6653 61.2975 70.5967 61.941 69.4218 62.3024C68.247 62.6638 67.0015 62.7322 65.7941 62.5016C64.5867 62.271 63.4541 61.7484 62.4951 60.9794C61.5361 60.2104 60.78 59.2184 60.2925 58.09C58.9344 58.867 57.3679 59.2018 55.8108 59.0477C54.2537 58.8937 52.7832 58.2586 51.6036 57.2305C50.424 56.2025 49.5938 54.8326 49.2285 53.3111C48.8631 51.7896 48.9807 50.1921 49.5648 48.7405H84.0542C83.7967 49.1099 83.5071 49.4557 83.1885 49.7739C83.8884 50.4733 84.4436 51.3037 84.8224 52.2178C85.2011 53.1318 85.3961 54.1116 85.3961 55.101C85.3961 56.0904 85.2011 57.0701 84.8224 57.9842C84.4436 58.8982 83.8884 59.7287 83.1885 60.4281Z" fill="#80B524"/>
<path d="M67.4284 39.0217C64.5855 39.0217 61.8064 39.8647 59.4427 41.4442C57.0789 43.0236 55.2366 45.2685 54.1486 47.895C53.0607 50.5214 52.7761 53.4116 53.3307 56.1998C53.8853 58.9881 55.2543 61.5493 57.2645 63.5595C59.2747 65.5697 61.8359 66.9387 64.6242 67.4933C67.4124 68.0479 70.3025 67.7633 72.929 66.6754C75.5555 65.5874 77.8004 63.7451 79.3798 61.3813C80.9592 59.0175 81.8022 56.2385 81.8022 53.3956C81.8024 51.508 81.4307 49.6388 80.7084 47.8948C79.986 46.1508 78.9273 44.5662 77.5925 43.2315C76.2578 41.8967 74.6731 40.8379 72.9292 40.1156C71.1852 39.3933 69.316 39.0216 67.4284 39.0217ZM67.4284 62.9782C65.5331 62.9782 63.6804 62.4162 62.1046 61.3632C60.5287 60.3103 59.3005 58.8137 58.5752 57.0627C57.8499 55.3117 57.6602 53.385 58.0299 51.5261C58.3996 49.6673 59.3123 47.9598 60.6525 46.6197C61.9926 45.2795 63.7001 44.3669 65.5589 43.9971C67.4177 43.6274 69.3445 43.8172 71.0955 44.5425C72.8465 45.2677 74.3431 46.496 75.396 48.0718C76.4489 49.6477 77.011 51.5004 77.011 53.3956C77.0082 55.9362 75.9977 58.372 74.2012 60.1684C72.4047 61.9649 69.969 62.9754 67.4284 62.9782Z" fill="#F3EADE"/>
<path d="M81.0308 48.7405H75.8019C76.6136 50.1992 77.0301 51.8445 77.0103 53.5136C76.9905 55.1827 76.535 56.8177 75.6889 58.2567C74.8429 59.6956 73.6357 60.8886 72.1868 61.7175C70.7379 62.5464 69.0976 62.9824 67.4284 62.9824C65.7591 62.9824 64.1188 62.5464 62.67 61.7175C61.2211 60.8886 60.0138 59.6956 59.1678 58.2567C58.3217 56.8177 57.8663 55.1827 57.8464 53.5136C57.8266 51.8445 58.2431 50.1992 59.0548 48.7405H53.8259C53.0869 50.9043 52.8748 53.2132 53.2071 55.4754C53.5395 57.7376 54.4067 59.8879 55.7368 61.7477C57.067 63.6075 58.8216 65.1232 60.855 66.1688C62.8884 67.2145 65.1419 67.76 67.4284 67.76C69.7149 67.76 71.9684 67.2145 74.0018 66.1688C76.0352 65.1232 77.7898 63.6075 79.1199 61.7477C80.45 59.8879 81.3172 57.7376 81.6496 55.4754C81.9819 53.2132 81.7698 50.9043 81.0308 48.7405Z" fill="#F1DDC8"/>
<path d="M83.3993 62.2386C91.3378 62.2386 97.7732 55.8031 97.7732 47.8647C97.7732 39.9262 91.3378 33.4908 83.3993 33.4908C75.4609 33.4908 69.0255 39.9262 69.0255 47.8647C69.0255 55.8031 75.4609 62.2386 83.3993 62.2386Z" fill="#F15D40"/>
<path d="M83.3993 57.4473C88.6916 57.4473 92.9819 53.157 92.9819 47.8647C92.9819 42.5724 88.6916 38.2821 83.3993 38.2821C78.107 38.2821 73.8167 42.5724 73.8167 47.8647C73.8167 53.157 78.107 57.4473 83.3993 57.4473Z" fill="#DA4F3C"/>
<path d="M83.3993 43.4727C84.0609 43.4727 84.5972 42.9364 84.5972 42.2749C84.5972 41.6133 84.0609 41.077 83.3993 41.077C82.7378 41.077 82.2015 41.6133 82.2015 42.2749C82.2015 42.9364 82.7378 43.4727 83.3993 43.4727Z" fill="#FFCB80"/>
<path d="M88.1906 47.4654C88.8522 47.4654 89.3884 46.9291 89.3884 46.2676C89.3884 45.606 88.8522 45.0698 88.1906 45.0698C87.5291 45.0698 86.9928 45.606 86.9928 46.2676C86.9928 46.9291 87.5291 47.4654 88.1906 47.4654Z" fill="#FFCB80"/>
<path d="M78.608 47.4654C79.2696 47.4654 79.8059 46.9291 79.8059 46.2676C79.8059 45.606 79.2696 45.0698 78.608 45.0698C77.9465 45.0698 77.4102 45.606 77.4102 46.2676C77.4102 46.9291 77.9465 47.4654 78.608 47.4654Z" fill="#FFCB80"/>
<path d="M97.7461 48.7405C97.5213 52.393 95.9119 55.8221 93.2461 58.3289C90.5802 60.8357 87.0587 62.2314 83.3993 62.2314C79.74 62.2314 76.2185 60.8357 73.5526 58.3289C70.8868 55.8221 69.2774 52.393 69.0526 48.7405H97.7461Z" fill="#DA4F3C"/>
<path d="M92.942 48.7405C92.724 51.1208 91.6244 53.3336 89.8589 54.9448C88.0934 56.556 85.7895 57.4493 83.3994 57.4493C81.0092 57.4493 78.7053 56.556 76.9398 54.9448C75.1743 53.3336 74.0747 51.1208 73.8567 48.7405H92.942Z" fill="#CC4032"/>
<path d="M99.8495 86.2723V88.668C99.8492 89.3033 99.5968 89.9125 99.1475 90.3617C98.6983 90.811 98.0891 91.0634 97.4538 91.0636H62.3176C61.6823 91.0634 61.0731 90.811 60.6239 90.3617C60.1747 89.9125 59.9222 89.3033 59.922 88.668V86.2723H99.8495Z" fill="#92BCCD"/>
<path d="M43.0726 70.3013V52.7333C43.0726 52.3097 43.2409 51.9035 43.5404 51.6039C43.8399 51.3044 44.2461 51.1362 44.6697 51.1362H115.102C115.525 51.1362 115.932 51.3044 116.231 51.6039C116.531 51.9035 116.699 52.3097 116.699 52.7333V70.3013C116.699 72.3987 116.286 74.4755 115.483 76.4132C114.68 78.3509 113.504 80.1115 112.021 81.5945C110.538 83.0776 108.777 84.254 106.84 85.0566C104.902 85.8592 102.825 86.2723 100.728 86.2723H59.0436C54.8078 86.2723 50.7455 84.5897 47.7504 81.5945C44.7553 78.5994 43.0726 74.5371 43.0726 70.3013Z" fill="#E8F2F8"/>
<path d="M65.432 86.2723H59.0436C54.8078 86.2723 50.7455 84.5897 47.7504 81.5945C44.7553 78.5994 43.0726 74.5371 43.0726 70.3013V52.7333C43.0726 52.3097 43.2409 51.9035 43.5404 51.6039C43.8399 51.3044 44.2461 51.1362 44.6697 51.1362H49.461V70.3013C49.461 72.3987 49.8741 74.4755 50.6767 76.4132C51.4793 78.3509 52.6557 80.1115 54.1388 81.5945C57.1339 84.5897 61.1962 86.2723 65.432 86.2723Z" fill="#ACD1E4"/>
<path d="M115.102 49.9383H113.419C115.458 45.8927 116.012 40.7204 115.016 34.8325C114.975 34.5873 114.858 34.361 114.682 34.1851C114.506 34.0093 114.28 33.8925 114.035 33.8511C110.239 33.2092 106.737 33.2215 103.646 33.8533C103.872 33.1832 104.046 32.4965 104.166 31.7993C104.26 31.2619 104.23 30.7103 104.079 30.1862C103.927 29.6621 103.659 29.1792 103.294 28.774C102.929 28.3689 102.476 28.052 101.97 27.8475C101.465 27.643 100.919 27.5561 100.375 27.5935L85.3117 28.6476C84.9948 28.6697 84.6996 28.8169 84.4912 29.0566C84.2828 29.2964 84.1781 29.6091 84.2003 29.9261C84.2224 30.243 84.3696 30.5381 84.6093 30.7466C84.8491 30.955 85.1618 31.0596 85.4788 31.0375L100.542 29.9834C100.723 29.9694 100.904 29.9972 101.071 30.0647C101.239 30.1321 101.389 30.2375 101.509 30.3725C101.633 30.509 101.724 30.6721 101.776 30.8493C101.827 31.0265 101.837 31.213 101.805 31.3946C101.607 32.5447 101.232 33.6569 100.691 34.6913C98.7231 35.4079 96.9121 36.4987 95.3584 37.9036C93.8994 36.1475 92.0714 34.7345 90.0045 33.7648C87.9376 32.7951 85.6824 32.2926 83.3993 32.293C83.2369 32.293 83.0753 32.2962 82.9141 32.3013C82.6924 31.0228 82.1885 29.8099 81.4392 28.7506C80.6899 27.6914 79.7139 26.8124 78.5823 26.1776C77.4507 25.5428 76.1918 25.1682 74.8972 25.081C73.6026 24.9937 72.3049 25.1961 71.0983 25.6733C70.4576 24.6301 69.6047 23.7332 68.595 23.0408C67.5853 22.3485 66.4414 21.8761 65.2373 21.6543C64.0333 21.4326 62.7961 21.4664 61.606 21.7536C60.4159 22.0408 59.2994 22.5749 58.3291 23.3214C56.6483 22.0283 54.5544 21.391 52.4382 21.5283C50.322 21.6657 48.3281 22.5683 46.8286 24.0678C45.329 25.5673 44.4263 27.5612 44.2889 29.6774C44.1515 31.7936 44.7888 33.8875 46.0819 35.5683C45.5266 36.2866 45.0883 37.088 44.7829 37.943C44.7281 38.0915 44.7033 38.2493 44.7098 38.4074C44.7164 38.5655 44.7542 38.7208 44.821 38.8642C44.8879 39.0076 44.9826 39.1364 45.0995 39.243C45.2164 39.3496 45.3533 39.432 45.5023 39.4854C45.6513 39.5389 45.8093 39.5622 45.9674 39.5542C46.1254 39.5462 46.2803 39.5069 46.4231 39.4387C46.5659 39.3705 46.6937 39.2746 46.7992 39.1567C46.9048 39.0388 46.9859 38.9011 47.0379 38.7516C47.3526 37.8723 47.8595 37.0742 48.5217 36.4156C48.633 36.3043 48.7212 36.1723 48.7814 36.0269C48.8416 35.8816 48.8726 35.7258 48.8726 35.5685C48.8726 35.4112 48.8416 35.2555 48.7814 35.1101C48.7212 34.9648 48.633 34.8327 48.5217 34.7215C47.3547 33.529 46.7052 31.9243 46.7142 30.2558C46.7232 28.5873 47.39 26.9897 48.5698 25.8099C49.7497 24.6301 51.3473 23.9632 53.0158 23.9542C54.6843 23.9452 56.289 24.5948 57.4815 25.7618C57.5927 25.873 57.7247 25.9613 57.8701 26.0215C58.0154 26.0817 58.1712 26.1127 58.3285 26.1127C58.4858 26.1127 58.6416 26.0817 58.7869 26.0215C58.9322 25.9613 59.0643 25.873 59.1755 25.7618C59.9064 25.0307 60.805 24.4896 61.7931 24.1857C62.7811 23.8817 63.8286 23.8242 64.844 24.0181C65.8594 24.212 66.8119 24.6514 67.6184 25.2981C68.425 25.9447 69.061 26.7789 69.471 27.7278C69.5379 27.8826 69.6367 28.0216 69.7609 28.1356C69.8852 28.2496 70.0321 28.336 70.192 28.3894C70.352 28.4427 70.5214 28.4616 70.6892 28.4449C70.857 28.4282 71.0194 28.3763 71.1657 28.2926C72.038 27.7934 73.0165 27.5089 74.0204 27.4627C75.0244 27.4165 76.0249 27.6099 76.9393 28.0269C77.8537 28.4439 78.6558 29.0725 79.2792 29.8607C79.9026 30.649 80.3295 31.5743 80.5246 32.5602C76.8074 33.2627 73.4726 35.2929 71.1416 38.2723C70.0978 38.0167 69.0303 37.8697 67.9562 37.8336C64.5601 33.9305 60.0391 30.6467 54.5051 28.0726C54.3623 28.0045 54.2073 27.9653 54.0492 27.9574C53.8911 27.9495 53.733 27.973 53.5841 28.0265C53.4351 28.0801 53.2982 28.1626 53.1814 28.2694C53.0645 28.3761 52.97 28.505 52.9032 28.6485C52.8364 28.792 52.7988 28.9474 52.7924 29.1055C52.7861 29.2637 52.8111 29.4216 52.8661 29.57C52.9211 29.7184 53.005 29.8545 53.1129 29.9703C53.2208 30.0861 53.3506 30.1793 53.4948 30.2447C58.0547 32.3656 61.8729 34.9823 64.881 38.0371C61.8308 38.5409 58.9998 39.9421 56.7493 42.0618C54.4989 44.1816 52.931 46.9237 52.2457 49.9383H50.4296C50.5693 49.4025 50.7787 48.8874 51.0525 48.4061C51.1361 48.2598 51.188 48.0975 51.2046 47.9298C51.2212 47.7621 51.2022 47.5928 51.1489 47.4329C51.0957 47.2731 51.0092 47.1262 50.8953 47.002C50.7814 46.8778 50.6426 46.7791 50.4879 46.7122C49.5348 46.3002 48.6975 45.6603 48.0497 44.8488C47.4019 44.0374 46.9634 43.0791 46.7728 42.0584C46.711 41.7499 46.5303 41.4782 46.2697 41.3018C46.0092 41.1254 45.6897 41.0587 45.3803 41.1159C45.071 41.1732 44.7965 41.3498 44.6164 41.6077C44.4362 41.8656 44.3647 42.1841 44.4174 42.4943C44.6416 43.695 45.1149 44.8354 45.8069 45.842C46.4988 46.8486 47.3941 47.699 48.4349 48.3384C48.2311 48.856 48.0767 49.3917 47.9738 49.9383H44.6697C43.9287 49.9392 43.2183 50.2339 42.6943 50.7579C42.1704 51.2819 41.8756 51.9923 41.8748 52.7333V70.3013C41.8801 74.7978 43.6471 79.1131 46.7969 82.3219C49.9468 85.5308 54.2286 87.3775 58.7242 87.4662V88.668C58.7253 89.6207 59.1042 90.5341 59.7779 91.2077C60.4516 91.8814 61.3649 92.2604 62.3176 92.2615H97.4538C98.4065 92.2604 99.3199 91.8814 99.9936 91.2077C100.667 90.5341 101.046 89.6207 101.047 88.668V87.4662C105.543 87.3775 109.825 85.5308 112.975 82.3219C116.124 79.1131 117.891 74.7978 117.897 70.3013V68.4757C117.897 68.3184 117.866 68.1626 117.805 68.0173C117.745 67.872 117.657 67.7399 117.546 67.6287C117.435 67.5175 117.303 67.4293 117.157 67.3691C117.012 67.3089 116.856 67.2779 116.699 67.2779C116.542 67.2779 116.386 67.3089 116.24 67.3691C116.095 67.4293 115.963 67.5175 115.852 67.6287C115.741 67.7399 115.652 67.872 115.592 68.0173C115.532 68.1626 115.501 68.3184 115.501 68.4757V70.3013C115.497 74.2181 113.939 77.9733 111.169 80.7429C108.4 83.5125 104.645 85.0703 100.728 85.0745H72.5498C72.2321 85.0745 71.9274 85.2007 71.7028 85.4253C71.4781 85.65 71.3519 85.9547 71.3519 86.2723C71.3519 86.59 71.4781 86.8947 71.7028 87.1193C71.9274 87.344 72.2321 87.4702 72.5498 87.4702H98.6516V88.668C98.6512 88.9855 98.5249 89.29 98.3004 89.5145C98.0758 89.7391 97.7714 89.8654 97.4538 89.8658H62.3176C62.0001 89.8654 61.6956 89.7391 61.4711 89.5145C61.2465 89.29 61.1202 88.9855 61.1198 88.668V87.4702H68.0402C68.3579 87.4702 68.6626 87.344 68.8872 87.1193C69.1118 86.8947 69.238 86.59 69.238 86.2723C69.238 85.9547 69.1118 85.65 68.8872 85.4253C68.6626 85.2007 68.3579 85.0745 68.0402 85.0745H59.0436C55.1268 85.0703 51.3716 83.5125 48.6021 80.7429C45.8325 77.9733 44.2747 74.2181 44.2704 70.3013V60.3195H99.4716C99.7893 60.3195 100.094 60.1933 100.319 59.9687C100.543 59.744 100.669 59.4393 100.669 59.1217C100.669 58.804 100.543 58.4993 100.319 58.2747C100.094 58.05 99.7893 57.9238 99.4716 57.9238H44.2704V52.7333C44.2704 52.6274 44.3125 52.5258 44.3874 52.4509C44.4623 52.3761 44.5638 52.334 44.6697 52.334H115.102C115.208 52.334 115.309 52.3761 115.384 52.4509C115.459 52.5258 115.501 52.6274 115.501 52.7333V57.9238H103.612C103.294 57.9238 102.989 58.05 102.765 58.2747C102.54 58.4993 102.414 58.804 102.414 59.1217C102.414 59.4393 102.54 59.744 102.765 59.9687C102.989 60.1933 103.294 60.3195 103.612 60.3195H115.501V61.5173C115.501 61.835 115.627 62.1397 115.852 62.3643C116.076 62.5889 116.381 62.7151 116.699 62.7151C117.017 62.7151 117.321 62.5889 117.546 62.3643C117.77 62.1397 117.897 61.835 117.897 61.5173V52.7333C117.896 51.9923 117.601 51.2819 117.077 50.7579C116.553 50.2339 115.843 49.9392 115.102 49.9383ZM112.788 36.0806C113.588 41.6499 112.863 46.4139 110.676 49.9383H109.071C108.957 48.8835 108.598 47.87 108.022 46.9788C107.447 46.0876 106.67 45.3436 105.756 44.8062L110.502 40.0601C110.613 39.9489 110.702 39.8169 110.762 39.6715C110.822 39.5262 110.853 39.3704 110.853 39.2131C110.853 39.0558 110.822 38.9 110.762 38.7547C110.702 38.6094 110.613 38.4773 110.502 38.3661C110.391 38.2549 110.259 38.1666 110.113 38.1064C109.968 38.0462 109.812 38.0152 109.655 38.0152C109.498 38.0152 109.342 38.0462 109.197 38.1064C109.051 38.1666 108.919 38.2549 108.808 38.3661L103.239 43.9352C101.654 43.7171 100.043 44.0667 98.6914 44.9222C98.3486 43.1387 97.6945 41.4295 96.7589 39.873C100.35 36.439 105.978 35.1039 112.788 36.0806ZM98.971 47.8247C99.5122 47.1848 100.225 46.7131 101.026 46.4653C101.826 46.2175 102.681 46.2039 103.489 46.4261C104.297 46.6483 105.025 47.0971 105.586 47.7194C106.147 48.3418 106.519 49.1117 106.657 49.9383H98.8329C98.9246 49.2509 98.9707 48.5582 98.971 47.8647V47.8247ZM83.3993 34.6886C85.3048 34.6894 87.1874 35.1034 88.9175 35.9019C90.6476 36.7004 92.184 37.8645 93.4209 39.314C94.6578 40.7634 95.5657 42.4638 96.0821 44.298C96.5985 46.1322 96.7111 48.0565 96.4122 49.9383H93.9772C94.2601 48.5012 94.2471 47.0216 93.9391 45.5896C93.631 44.1577 93.0345 42.8036 92.1858 41.6099C91.337 40.4161 90.254 39.4079 89.0026 38.6467C87.7513 37.8854 86.358 37.3872 84.9077 37.1823C83.4575 36.9774 81.9806 37.0702 80.5674 37.455C79.1542 37.8398 77.8342 38.5085 76.688 39.4204C75.5418 40.3323 74.5935 41.4682 73.9009 42.7588C73.2082 44.0493 72.7858 45.4675 72.6595 46.9267C72.644 47.0844 72.6599 47.2436 72.7064 47.3951C72.7529 47.5466 72.8289 47.6874 72.9302 47.8092C73.0315 47.9311 73.1559 48.0317 73.2963 48.1052C73.4367 48.1786 73.5903 48.2235 73.7482 48.2372C73.906 48.2509 74.065 48.2331 74.216 48.1849C74.3669 48.1367 74.5068 48.059 74.6275 47.9563C74.7482 47.8537 74.8474 47.7281 74.9192 47.5869C74.9911 47.4456 75.0342 47.2915 75.046 47.1335C75.148 45.9802 75.4878 44.8605 76.0439 43.8449C76.6001 42.8294 77.3605 41.94 78.2773 41.2329C79.1941 40.5258 80.2475 40.0162 81.3709 39.7362C82.4944 39.4563 83.6637 39.4121 84.8052 39.6063C85.9466 39.8006 87.0354 40.2292 88.003 40.8651C88.9706 41.5009 89.796 42.3303 90.4273 43.301C91.0585 44.2716 91.4819 45.3625 91.6707 46.5048C91.8595 47.6471 91.8097 48.8162 91.5244 49.9383H70.3865C70.0876 48.0565 70.2002 46.1322 70.7166 44.298C71.233 42.4638 72.1409 40.7634 73.3778 39.314C74.6146 37.8645 76.1511 36.7004 77.8811 35.9019C79.6112 35.1034 81.4939 34.6894 83.3993 34.6886ZM67.9658 49.9383H59.7886C60.453 48.4691 61.5272 47.2226 62.8823 46.3486C64.2374 45.4746 65.8158 45.0101 67.4284 45.0108C67.648 45.0108 67.8668 45.0225 68.0851 45.0396C67.788 46.6561 67.7477 48.3093 67.9658 49.9383ZM58.8652 43.3808C60.3447 42.1164 62.0858 41.1953 63.9635 40.6835C65.8412 40.1717 67.809 40.082 69.7255 40.4208C69.3272 41.15 68.9883 41.9101 68.7118 42.6936C66.2549 42.3953 63.7704 42.9529 61.6767 44.2725C59.583 45.5922 58.0081 47.5932 57.2175 49.9383H54.7134C55.4091 47.3859 56.8555 45.1014 58.8652 43.3808Z" fill="#282828"/>
<path d="M116.699 66.1904C117.36 66.1904 117.897 65.6542 117.897 64.9926C117.897 64.3311 117.36 63.7948 116.699 63.7948C116.037 63.7948 115.501 64.3311 115.501 64.9926C115.501 65.6542 116.037 66.1904 116.699 66.1904Z" fill="#282828"/>
</svg>
