<svg width="225" height="188" viewBox="0 0 225 188" fill="none" xmlns="http://www.w3.org/2000/svg">
<path d="M63.2247 30.4273C53.1369 62.1734 45.9285 71.5186 22.3302 80.1157C-8.38044 91.304 -14.3136 147.756 49.351 177.068C104 202.228 117.5 172.985 178.063 169.767C247.338 166.085 231 96 178.063 71.0113C137.724 51.9695 159.235 31.4144 143.023 13.3769C126.811 -4.66065 75.8344 -9.25525 63.2247 30.4273Z" fill="white"/>
<path d="M150.289 127.583H60.7111C57.1447 127.583 54.2535 124.692 54.2535 121.125V54.0736C54.2535 50.5071 57.1447 47.616 60.7111 47.616H150.289C153.855 47.616 156.747 50.5071 156.747 54.0736V121.125C156.747 124.692 153.855 127.583 150.289 127.583Z" fill="#A3DCF4"/>
<path d="M118.364 144.94H92.6354L98.4283 122.622H112.572L118.364 144.94Z" fill="#25ABE5"/>
<path d="M128.372 150.286H82.6281C81.3936 150.286 80.3929 149.286 80.3929 148.051C80.3929 143.381 84.179 139.595 88.8492 139.595H122.151C126.821 139.595 130.607 143.381 130.607 148.051C130.607 149.286 129.606 150.286 128.372 150.286Z" fill="#EAF2FF"/>
<path d="M122.151 139.595H108.313C112.264 139.595 115.467 142.798 115.467 146.748V150.286H128.372C129.606 150.286 130.607 149.286 130.607 148.051C130.607 143.381 126.821 139.595 122.151 139.595Z" fill="#DBE8F9"/>
<path d="M150.289 47.616H135.2C138.767 47.616 141.658 50.5071 141.658 54.0736V121.125C141.658 124.692 138.767 127.583 135.2 127.583H150.289C153.855 127.583 156.746 124.692 156.746 121.125V54.0736C156.747 50.5071 153.855 47.616 150.289 47.616Z" fill="#25ABE5"/>
<path d="M54.2533 115.373V121.125C54.2533 124.692 57.1445 127.583 60.7109 127.583H150.289C153.855 127.583 156.747 124.692 156.747 121.125V115.373H54.2533Z" fill="#EAF2FF"/>
<path d="M141.658 115.373V121.125C141.658 124.692 138.767 127.583 135.2 127.583H150.289C153.855 127.583 156.747 124.692 156.747 121.125V115.373H141.658Z" fill="#DBE8F9"/>
<path d="M100.53 40.6407C97.2055 37.3167 92.5047 36.0766 88.2317 37.0212C87.0859 37.2747 86.6801 38.7029 87.5098 39.5326L93.9279 45.9505C95.8152 47.8378 95.8152 50.8974 93.9279 52.7847C92.0406 54.672 88.981 54.672 87.0937 52.7847L80.6758 46.3668C79.8461 45.5371 78.4179 45.943 78.1645 47.0887C77.2196 51.3617 78.4599 56.0625 81.7839 59.3865C84.1822 61.7848 87.2708 63.0718 90.4099 63.2475C90.5369 63.2556 90.6636 63.2669 90.79 63.2816C94.0484 63.6422 97.0814 65.1202 99.3995 67.4383L127.83 95.8686C130.365 98.4042 134.476 98.4042 137.012 95.8686C139.547 93.333 139.547 89.2222 137.012 86.6866L108.581 58.2563C106.263 55.9382 104.785 52.9051 104.425 49.6467C104.41 49.5204 104.399 49.3937 104.391 49.2667C104.215 46.1276 102.928 43.039 100.53 40.6407Z" fill="#F0FBFF"/>
<path d="M131.979 79.3878C131.157 78.6404 130.085 78.3433 129.048 78.4639C128.897 78.4813 128.747 78.4347 128.641 78.3261L128.613 78.2973C128.533 78.215 128.486 78.1061 128.481 77.9913C128.475 77.8765 128.512 77.7638 128.585 77.6744C128.764 77.4532 128.985 77.1664 129.079 76.9836C129.777 75.6287 129.594 73.9242 128.468 72.7956C127.232 71.5571 125.512 71.2486 124.099 71.9065C124.045 71.9314 123.925 71.9682 123.877 71.9097C123.826 71.8489 123.881 71.7426 123.914 71.6969C124.946 70.2518 124.9 68.2317 123.655 66.9004C122.494 65.6588 120.703 65.3816 119.269 66.0841C119.253 66.0921 119.137 66.1499 119.098 66.1019C119.035 66.0254 119.14 65.9209 119.14 65.9209L119.519 65.5425C120.95 64.1116 121.082 61.78 119.72 60.2835C118.267 58.6868 115.787 58.6491 114.278 60.1585L105.14 69.2815C105.07 69.3516 104.997 69.4163 104.922 69.4757L104.876 69.5219C103.891 70.5066 102.439 70.478 101.455 69.4931L99.1244 67.1702C96.9946 69.4245 95.7401 72.419 96.1066 75.5031L96.4946 78.7653C96.6111 79.7452 96.5039 80.7387 96.1808 81.6711C95.8578 82.6035 95.3274 83.4505 94.6297 84.1483L84.6155 94.1625L100.776 110.323L112.681 98.4181C113.266 97.8336 113.956 97.3654 114.716 97.0386L120.039 94.7482C122.739 93.4213 125.201 91.659 127.328 89.5321L132.11 84.8256C133.619 83.316 133.576 80.8414 131.979 79.3878Z" fill="#FFDDCE"/>
<path d="M131.979 79.3881C131.157 78.6406 130.085 78.3435 129.048 78.4642C128.897 78.4815 128.747 78.4349 128.641 78.3264L128.613 78.2976C128.533 78.2152 128.486 78.1063 128.481 77.9915C128.475 77.8767 128.512 77.764 128.585 77.6747C128.764 77.4535 128.985 77.1667 129.079 76.9839C129.777 75.629 129.594 73.9245 128.468 72.7958C127.232 71.5573 125.512 71.2488 124.099 71.9067L116.733 78.9372C114.606 81.0641 112.143 82.8264 109.444 84.1533L104.12 86.4437C103.361 86.7704 102.67 87.2386 102.086 87.8233L98.0787 91.8303C98.0787 91.8303 100.875 94.6266 98.3646 97.0046C97.2563 98.1129 95.5826 98.3112 94.2718 97.5996L91.1771 100.725L100.776 110.324L112.681 98.4186C113.265 97.834 113.956 97.3659 114.715 97.0391L120.039 94.7487C122.738 93.4217 125.201 91.6595 127.328 89.5326L132.109 84.8261C133.619 83.3162 133.576 80.8417 131.979 79.3881Z" fill="#FFCBBE"/>
<path d="M97.6888 115.372L108.465 104.597L90.5653 86.6973L61.8903 115.372H97.6888Z" fill="#FFE07D"/>
<path d="M98.3645 97.0036C97.2562 98.1119 95.5826 98.3103 94.2718 97.5987L76.6729 115.372H97.6888L108.465 104.596L99.3252 95.4568C99.1938 95.9707 98.8997 96.4968 98.3645 97.0036Z" fill="#FFD064"/>
<path d="M86.8727 85.5121C85.5229 86.862 85.5229 89.0507 86.8727 90.4005L104.072 107.599C105.421 108.949 107.61 108.949 108.96 107.599C110.31 106.249 110.31 104.061 108.96 102.711L91.7611 85.5121C90.4113 84.1623 88.2228 84.1623 86.8727 85.5121Z" fill="#FFD064"/>
<path d="M98.0787 91.8298C98.0787 91.8298 100.875 94.6262 98.3646 97.0041C97.2563 98.1124 95.5826 98.3108 94.2719 97.5992L94.172 97.6999L104.071 107.599C105.421 108.949 107.61 108.949 108.96 107.599C110.31 106.249 110.31 104.061 108.96 102.711L98.0787 91.8298Z" fill="#FFC250"/>
<path d="M156.729 60.8248C157.189 60.8248 157.631 60.6418 157.956 60.3163C158.282 59.9907 158.465 59.5491 158.465 59.0887V54.0851C158.465 49.5683 154.79 45.8938 150.273 45.8938H105.569C104.868 43.4505 103.557 41.2258 101.759 39.4295C98.1434 35.8137 92.8189 34.2482 87.8631 35.3439C87.3004 35.4686 86.7815 35.7424 86.3608 36.1365C85.9402 36.5306 85.6333 37.0306 85.4722 37.584C85.3095 38.1406 85.2994 38.7306 85.4431 39.2924C85.5867 39.8541 85.8788 40.3669 86.2886 40.7771L91.4053 45.8938H82.6521L81.9117 45.1534C80.3804 43.6221 77.8114 44.0062 76.7897 45.8938H60.7269C56.2101 45.8938 52.5355 49.5683 52.5355 54.0851V121.113C52.5355 125.63 56.2103 129.305 60.7269 129.305H94.8998L92.6843 137.84H88.8553C83.2368 137.84 78.6661 142.411 78.6661 148.03C78.6661 150.219 80.4471 152 82.6363 152H128.364C130.553 152 132.334 150.219 132.334 148.03C132.334 142.411 127.763 137.84 122.145 137.84H118.316L116.1 129.305H150.273C154.79 129.305 158.464 125.63 158.464 121.113V67.249C158.464 66.2902 157.687 65.513 156.728 65.513C155.77 65.513 154.992 66.2902 154.992 67.249V113.626H101.883L105.309 110.2C106.997 110.6 108.853 110.153 110.186 108.82C111.885 107.121 112.158 104.529 111.005 102.542L113.906 99.6418C114.334 99.2127 114.841 98.8692 115.398 98.6299C121.284 96.0968 120.735 96.3354 120.8 96.3034C121.898 95.7637 122.961 95.1554 123.983 94.4821L126.594 97.0934C129.809 100.308 135.013 100.309 138.228 97.0932C141.442 93.8786 141.443 88.6746 138.228 85.4594L134.936 82.1674C134.935 80.6384 134.314 79.178 133.137 78.1069C132.519 77.545 131.777 77.1352 130.972 76.91C131.561 75.0352 131.093 72.9827 129.688 71.5744C128.74 70.6242 127.567 70.0488 126.351 69.8843C126.47 68.3845 125.984 66.8635 124.916 65.7216C124.169 64.9236 123.238 64.3875 122.242 64.1357C122.675 62.4033 122.267 60.5181 120.998 59.1239C118.849 56.7629 115.226 56.7604 113.048 58.9393L112.377 59.6088L109.807 57.0392C107.763 54.9944 106.464 52.3061 106.15 49.4689C106.146 49.4328 106.143 49.3983 106.139 49.3658H150.273C152.875 49.3658 154.993 51.483 154.993 54.0851V59.0887C154.993 59.5491 155.175 59.9907 155.501 60.3163C155.827 60.6418 156.268 60.8248 156.729 60.8248ZM93.6091 49.3658C93.6119 49.7747 93.5333 50.1801 93.378 50.5583C93.2227 50.9366 92.9937 51.2802 92.7045 51.5692C91.4924 52.7812 89.5349 52.7764 88.3277 51.5692L86.1243 49.3658H93.6091ZM122.145 141.313C125.849 141.313 128.862 144.326 128.862 148.03C128.862 148.162 128.809 148.288 128.716 148.382C128.623 148.475 128.496 148.528 128.364 148.528H82.6361C82.5039 148.528 82.3773 148.475 82.2838 148.382C82.1904 148.288 82.1378 148.162 82.1377 148.03C82.1377 144.326 85.1511 141.313 88.8549 141.313H122.145ZM96.2711 137.84L98.4866 129.305H112.513L114.729 137.84H96.2711ZM154.993 117.099V121.113C154.993 123.715 152.875 125.833 150.273 125.833H60.7267C58.1243 125.833 56.0071 123.715 56.0071 121.113V117.099H154.993ZM96.9724 113.626H66.0968L74.6526 105.071C74.9743 104.744 75.1539 104.304 75.1523 103.846C75.1507 103.387 74.9679 102.948 74.6439 102.624C74.3199 102.3 73.8809 102.118 73.4226 102.116C72.9644 102.114 72.5241 102.294 72.1977 102.615L61.1864 113.627H56.0074V54.0851C56.0074 51.483 58.1246 49.3658 60.7269 49.3658H76.1446C75.9977 53.5038 77.5849 57.644 80.5648 60.6239C83.1679 63.2301 86.6411 64.7845 90.319 64.9892C92.1946 65.0943 94.6553 65.9101 96.6914 67.4012C94.8788 69.9096 94.047 72.8572 94.3863 75.7123L94.7741 78.9735C94.8617 79.6923 94.784 80.4217 94.5469 81.1059C94.3098 81.7901 93.9196 82.4112 93.406 82.9218L92.4878 83.8402C90.4677 82.2805 87.5325 82.4051 85.6525 84.2853C84.0229 85.9144 83.7366 88.3024 84.6308 90.1831L77.9465 96.8674C77.6248 97.1937 77.4451 97.634 77.4468 98.0923C77.4484 98.5505 77.6312 98.9896 77.9552 99.3136C78.2792 99.6376 78.7182 99.8204 79.1764 99.8221C79.6347 99.8238 80.075 99.6442 80.4014 99.3226L86.8746 92.8494L102.312 108.287L96.9724 113.626ZM107.731 106.364C107.571 106.524 107.382 106.651 107.173 106.737C106.965 106.824 106.741 106.868 106.515 106.868C106.289 106.868 106.066 106.824 105.857 106.737C105.649 106.651 105.459 106.524 105.3 106.364L88.1069 89.1717C87.9472 89.0121 87.8204 88.8226 87.734 88.614C87.6475 88.4054 87.603 88.1818 87.6029 87.956C87.6029 87.7302 87.6474 87.5066 87.7338 87.298C87.8203 87.0894 87.947 86.8999 88.1067 86.7403L88.1069 86.74C88.2665 86.5802 88.456 86.4535 88.6646 86.367C88.8733 86.2805 89.0969 86.236 89.3227 86.236C89.5485 86.2361 89.7721 86.2806 89.9807 86.3671C90.1893 86.4536 90.3788 86.5804 90.5384 86.7403C92.2735 88.4754 106.493 102.696 107.731 103.933C108.401 104.603 108.401 105.694 107.731 106.364ZM133.609 85.7503L135.773 87.9144C137.627 89.7679 137.627 92.7843 135.773 94.6378C133.919 96.491 130.903 96.4912 129.049 94.638L126.79 92.3789C128.127 91.245 133.463 85.9206 133.609 85.7503ZM115.502 61.3951C116.304 60.5937 117.639 60.5908 118.431 61.4612C119.145 62.245 119.079 63.5285 118.286 64.3222L117.915 64.6931C116.41 66.1812 118.053 68.613 120.028 67.6503C120.823 67.2607 121.768 67.4389 122.38 68.0934C123.028 68.7855 123.076 69.879 122.494 70.6943C121.329 72.3282 122.995 74.3405 124.825 73.4852C125.599 73.1255 126.543 73.3374 127.23 74.0261C127.783 74.5807 127.905 75.4427 127.535 76.1762C127.517 76.2045 127.437 76.3263 127.228 76.5836C125.97 78.1339 127.273 80.4202 129.24 80.1912C129.829 80.1227 130.383 80.2943 130.801 80.6745C131.685 81.4794 131.659 82.8125 130.883 83.589C126.223 88.1017 124.143 90.7806 119.307 93.1682L114.026 95.4401C113.065 95.8529 112.19 96.4456 111.451 97.1862L108.673 99.9642L94.9732 86.2643L95.8609 85.3765C97.6619 83.5753 98.5225 81.092 98.2217 78.5628L97.8339 75.3017C97.6127 73.4411 98.1296 71.4955 99.2713 69.7723L100.228 70.7259C101.84 72.3383 104.378 72.4672 106.088 70.7707C106.36 70.5424 105.863 71.0106 115.502 61.3951ZM107.353 59.4941L109.92 62.0617C98.3853 73.535 106.965 65.0009 103.648 68.3004C103.335 68.6144 102.98 68.5687 102.681 68.2696L100.352 65.9474C100.331 65.9267 100.31 65.9066 100.288 65.8871C97.4871 63.2434 93.7403 61.702 90.5121 61.5224C87.6868 61.365 85.019 60.1707 83.0195 58.1685C80.3495 55.4985 79.1297 51.6236 79.7748 47.952L79.7787 47.9305L85.8723 54.0244C88.4388 56.5908 92.5925 56.591 95.1592 54.0244C96.3996 52.784 97.0826 51.1348 97.0826 49.3809C97.0826 47.6268 96.3996 45.9776 95.1592 44.7373L89.0656 38.6437C92.7435 37.9894 96.6285 39.2095 99.3035 41.8847C102.224 44.8056 102.472 47.8023 102.699 49.851C103.1 53.4688 104.752 56.8934 107.353 59.4941Z" fill="black"/>
</svg>
