<svg width="211" height="186" viewBox="0 0 211 186" fill="none" xmlns="http://www.w3.org/2000/svg">
<path d="M63.2247 30.4273C53.1369 62.1734 45.9285 71.5186 22.3302 80.1157C-8.38044 91.304 -14.3136 147.756 49.351 177.068C95.1993 198.176 133.028 176.08 178.063 169.767C223.098 163.454 220.846 83.6377 178.063 71.0113C135.28 58.3848 159.235 31.4144 143.023 13.3769C126.811 -4.66066 75.8344 -9.25525 63.2247 30.4273Z" fill="white"/>
<path d="M120.348 123.703H105.753V72.7541C105.753 69.5384 108.36 66.9321 111.575 66.9321H114.526C117.741 66.9321 120.348 69.5384 120.348 72.7541V123.703Z" fill="#F16128"/>
<path d="M120.348 98.8494C115.912 100.927 111.032 102.744 105.753 104.049V123.703H120.348V98.8494Z" fill="#F5926B"/>
<path d="M99.4127 123.703H84.8176V85.6154C84.8176 82.8118 87.0904 80.5386 89.8938 80.5386H94.3357C97.1393 80.5386 99.4127 82.8118 99.4127 85.6154V123.703Z" fill="#B2E59C"/>
<path d="M141.283 115.566H126.688V56.7764C126.688 53.5814 129.278 50.9917 132.473 50.9917H135.498C138.693 50.9917 141.283 53.5814 141.283 56.7764V115.566Z" fill="#FFDE55"/>
<path d="M141.283 85.2444C137.593 88.4084 132.673 92.1325 126.688 95.5561V115.565H141.283V85.2444Z" fill="#FFCD00"/>
<path d="M78.3812 105.144L107.727 89.5672C111.39 87.6221 115.666 90.8173 114.838 94.8813C114.231 97.852 112.853 100.987 109.971 103.321L106.963 105.758C105.469 106.967 106.324 109.384 108.247 109.384L120.307 109.389C124.24 109.391 128.078 108.177 131.295 105.915L144.773 96.4368C147.315 94.6496 150.778 94.9685 152.95 97.1912C155.546 99.8474 155.31 104.157 152.44 106.515L134.786 121.022C132.576 122.838 129.986 124.134 127.208 124.814L88.5111 134.288L78.3812 105.144Z" fill="#FFE2D9"/>
<path d="M94.6389 120.441C83.5254 117.18 84.353 101.974 84.353 101.974L78.3812 105.144L88.5111 134.288L118.007 127.066C111.793 125.339 101.795 122.541 94.6389 120.441Z" fill="#FFCFC2"/>
<path d="M78.3812 105.144L89.3464 134.409C91.1639 139.259 88.2853 144.598 83.2349 145.745L72.748 148.127C68.2443 149.15 63.7433 146.41 62.5811 141.941L56.9333 120.211C55.7305 115.584 58.4394 110.843 63.0362 109.53L78.3812 105.144Z" fill="#F16128"/>
<path d="M89.3463 134.409L87.6368 129.846C83.2512 127.802 78.501 127.396 74.6669 127.549C69.6735 127.751 65.551 123.71 65.7139 118.716C65.8924 113.249 67.0381 108.386 67.0381 108.386L63.0361 109.529C58.4393 110.843 55.7306 115.585 56.9332 120.211L62.581 141.94C63.743 146.41 68.2451 149.15 72.7479 148.127L83.2348 145.745C88.2852 144.597 91.1638 139.259 89.3463 134.409Z" fill="#F5926B"/>
<path d="M79.8019 136.049C79.8019 138.737 77.6233 140.915 74.936 140.915C72.2487 140.915 70.0702 138.737 70.0702 136.049C70.0702 133.361 72.2487 131.183 74.936 131.183C77.6233 131.183 79.8019 133.361 79.8019 136.049Z" fill="#FFEB99"/>
<path d="M116.568 38.6553H103.332C101.434 38.6553 99.8955 40.1942 99.8955 42.0916C99.8955 43.9901 101.434 45.528 103.332 45.528H108.043L94.2382 58.817L87.693 55.4314C87.0431 55.0954 86.303 54.9755 85.5803 55.0892C84.8576 55.2028 84.19 55.5441 83.6747 56.0633L56.9799 82.9634C55.6426 84.3108 55.6503 86.4869 56.998 87.8239C57.6413 88.4633 58.5118 88.8217 59.4189 88.8206C60.3032 88.8206 61.1869 88.4818 61.8585 87.8049L86.7767 62.6955L93.2684 66.0537C93.9064 66.3833 94.6316 66.5049 95.3422 66.4014C96.0528 66.298 96.7132 65.9746 97.2307 65.4768L113.132 50.1707V55.4442C113.132 57.3427 114.67 58.8817 116.568 58.8817C118.466 58.8817 120.005 57.3427 120.005 55.4442V42.0916C120.005 42.0883 120.004 42.085 120.004 42.0813C120.004 39.3286 117.97 38.6553 116.568 38.6553Z" fill="#F16128"/>
<path d="M154.133 96.0341C148.941 90.865 142.939 95.703 142.939 95.703V68.4902C142.939 68.0512 142.764 67.6302 142.454 67.3198C142.143 67.0093 141.722 66.8349 141.283 66.8349C140.844 66.8349 140.423 67.0093 140.113 67.3198C139.802 67.6302 139.628 68.0512 139.628 68.4902V98.0314C139.628 98.0314 131.735 104.254 128.343 105.774V56.7764C128.343 54.4987 130.196 52.6461 132.473 52.6461H135.498C137.775 52.6461 139.628 54.4987 139.628 56.7764V61.7139C139.628 62.6285 140.369 63.3692 141.283 63.3692C141.722 63.3692 142.143 63.1948 142.454 62.8844C142.764 62.574 142.939 62.153 142.939 61.7139V56.7764C142.939 52.6735 139.6 49.3364 135.498 49.3364H132.473C128.37 49.3364 125.032 52.6735 125.032 56.7764V107.087C124.041 107.364 123.027 107.553 122.003 107.651V72.7542C122.003 68.6306 118.648 65.2761 114.526 65.2761H111.575C107.452 65.2761 104.097 68.6308 104.097 72.7542V89.6191L101.068 91.228V85.6155C101.068 81.9033 98.0479 78.8832 94.3356 78.8832H89.8937C86.1815 78.8832 83.1623 81.9031 83.1623 85.6153V100.732L77.7575 103.6L62.5807 107.938C59.94 108.692 57.7347 110.421 56.3723 112.806C55.0104 115.191 54.6398 117.969 55.3311 120.627L57.0285 127.159C57.1441 127.578 57.42 127.934 57.7965 128.152C58.1729 128.369 58.6198 128.43 59.0405 128.32C59.4613 128.211 59.8221 127.941 60.0451 127.567C60.2681 127.194 60.3353 126.748 60.2322 126.326L58.5348 119.794C57.5502 116.006 59.727 112.196 63.4911 111.121L77.3668 107.155L87.7962 134.989C88.4945 136.853 88.3841 142.172 82.8683 144.13L72.3813 146.512C68.7267 147.343 65.1257 145.151 64.1826 141.524L62.0541 133.332C61.9436 132.907 61.6688 132.544 61.2902 132.321C60.9115 132.099 60.4601 132.036 60.0351 132.147C59.8247 132.201 59.6272 132.297 59.4537 132.428C59.2802 132.559 59.1343 132.723 59.0242 132.91C58.9141 133.098 58.842 133.305 58.812 133.52C58.7821 133.736 58.7948 133.955 58.8495 134.165L60.9791 142.357C62.1749 146.96 66.2639 150 70.8141 150C74.1584 150 83.6012 147.359 83.6012 147.359C85.0212 147.037 86.3556 146.414 87.5149 145.533C88.6742 144.652 89.6314 143.533 90.3223 142.251C91.4675 140.126 91.8221 137.665 91.3232 135.303L127.601 126.421C130.602 125.686 133.45 124.261 135.837 122.3L153.491 107.794C158.874 103.02 155.716 97.6092 154.133 96.0341ZM111.575 68.5867H114.526C116.823 68.5867 118.692 70.4567 118.692 72.7542V107.733L108.248 107.729C107.288 107.72 107.953 107.086 108.004 107.043L111.013 104.607C113.82 102.334 115.652 99.1734 116.459 95.2117C116.972 92.6986 116.014 90.183 113.959 88.6467C112.04 87.2121 109.573 86.9362 107.408 87.8846V72.7542C107.408 70.4567 109.277 68.5867 111.575 68.5867ZM86.473 85.6153C86.473 83.7292 88.0076 82.1937 89.894 82.1937H94.3356C96.2226 82.1937 97.7574 83.7292 97.7574 85.6153V92.9848L86.4728 98.9747L86.473 85.6153ZM151.39 105.237L133.735 119.743C131.715 121.398 129.35 122.581 126.814 123.206L90.2689 132.154L80.4408 105.925L108.503 91.0296C109.643 90.4235 110.943 90.5242 111.977 91.2978C113.011 92.0709 113.474 93.2865 113.216 94.5505C112.566 97.7394 111.123 100.258 108.929 102.035L105.921 104.472C104.688 105.47 104.234 107.081 104.763 108.577C105.292 110.072 106.66 111.04 108.246 111.04L120.307 111.045H120.315C124.609 111.045 128.735 109.738 132.247 107.268L145.725 97.7902C147.613 96.4627 150.153 96.6979 151.766 98.3473C152.694 99.2963 154.511 102.115 151.39 105.237Z" fill="black"/>
<path d="M81.4572 136.05C81.4572 132.454 78.532 129.527 74.936 129.527C71.3401 129.527 68.4149 132.454 68.4149 136.05C68.4149 139.645 71.3401 142.571 74.936 142.571C78.532 142.57 81.4572 139.645 81.4572 136.05ZM71.7255 136.05C71.7255 134.279 73.1653 132.838 74.936 132.838C76.707 132.838 78.1466 134.279 78.1466 136.049C78.1466 137.82 76.707 139.26 74.936 139.26C73.1653 139.26 71.7255 137.82 71.7255 136.049V136.05ZM63.0337 88.9714L87.0953 64.7242L92.5069 67.5236C93.452 68.0127 94.5267 68.1933 95.5797 68.0401C96.6328 67.8868 97.6114 67.4074 98.3779 66.6692L111.475 54.0615C111.475 54.0615 111.115 60.537 116.568 60.537C119.375 60.537 121.66 58.2522 121.66 55.4442V42.0916C121.66 42.0762 121.66 42.0599 121.659 42.0435C121.641 38.5595 119.093 37 116.568 37H103.332C100.524 37 98.2402 39.2847 98.2402 42.0916C98.2402 47.6887 103.936 47.1833 103.936 47.1833L93.9442 56.8016L88.4533 53.9618C86.4678 52.9339 84.0754 53.3107 82.4996 54.8971L55.8048 81.7978C53.827 83.7908 53.839 87.0214 55.8323 88.999C56.7926 89.9517 60.0721 91.9321 63.0337 88.9714ZM58.1539 84.1298L84.8496 57.2288C85.1937 56.8823 85.7472 56.2754 86.9326 56.9022L93.4769 60.2869C93.7842 60.4459 94.1335 60.5047 94.4759 60.4549C94.8182 60.4051 95.1364 60.2492 95.3856 60.0093L109.19 46.7213C109.428 46.4925 109.591 46.1978 109.66 45.8751C109.729 45.5524 109.7 45.2165 109.577 44.9104C109.454 44.6044 109.242 44.3422 108.968 44.1575C108.695 43.9728 108.372 43.874 108.043 43.8738H103.332C102.35 43.8738 101.551 43.0744 101.551 42.0916C101.551 41.1097 102.35 40.3106 103.332 40.3106H116.568C117.055 40.3106 118.348 40.3106 118.348 42.0813C118.348 42.0961 118.349 42.1106 118.349 42.1263V55.4442C118.349 56.427 117.55 57.2264 116.568 57.2264C115.585 57.2264 114.787 56.427 114.787 55.4442V50.1707C114.787 49.8459 114.692 49.5282 114.512 49.2573C114.333 48.9864 114.078 48.7742 113.779 48.6472C113.48 48.5201 113.151 48.4837 112.831 48.5426C112.512 48.6015 112.217 48.753 111.983 48.9783L96.0823 64.2845C95.8142 64.5428 95.472 64.7105 95.1036 64.7642C94.7352 64.8178 94.3593 64.7547 94.0287 64.5836L87.5369 61.2258C87.2239 61.064 86.8674 61.0063 86.5193 61.0611C86.1712 61.1158 85.8496 61.2801 85.6013 61.5301L60.6836 86.6396C59.5973 87.7255 58.5 86.9826 58.1645 86.6489C57.4671 85.9566 57.4627 84.8263 58.1542 84.1298H58.1539Z" fill="black"/>
</svg>
