<svg width="193" height="170" viewBox="0 0 193 170" fill="none" xmlns="http://www.w3.org/2000/svg">
<path d="M57.8311 27.8099C48.6039 56.8251 42.0104 65.3664 20.4252 73.2241C-7.66552 83.4499 -13.0925 135.046 45.1409 161.836C87.078 181.129 121.68 160.933 162.873 155.163C204.066 149.393 202.006 76.4431 162.873 64.9028C123.74 53.3625 145.651 28.7121 130.822 12.2262C115.993 -4.25974 69.3651 -8.4591 57.8311 27.8099Z" fill="white"/>
<path d="M43.4123 131.511H76.3614V64.2085H40V128.099C40 129.984 41.5277 131.511 43.4123 131.511Z" fill="#D9FBC7"/>
<path d="M49.5827 128.099V64.2085H40V128.099C40 129.984 41.5277 131.511 43.4123 131.511H52.995C51.1104 131.511 49.5827 129.984 49.5827 128.099Z" fill="#C3EDAD"/>
<path d="M43.4123 131.511H76.3614V64.2085H40V128.099C40 129.984 41.5277 131.511 43.4123 131.511Z" stroke="black" stroke-width="3" stroke-miterlimit="10" stroke-linecap="round" stroke-linejoin="round"/>
<path d="M102.379 92.3848C101.123 92.3848 100.104 91.3665 100.104 90.1101V64.2085H76.3612V131.511H140.869C142.753 131.511 144.281 129.984 144.281 128.099V92.3848H102.379Z" fill="#EAF6FF"/>
<path d="M76.3612 64.2085H86.7854V131.511H76.3612V64.2085Z" fill="#D8ECFE"/>
<path d="M76.3612 64.2085V131.511H140.869C142.753 131.511 144.281 129.984 144.281 128.099V121.879M144.281 113.921V92.3848" stroke="black" stroke-width="3" stroke-miterlimit="10" stroke-linecap="round" stroke-linejoin="round"/>
<path d="M105.855 92.385V99.4369C105.855 99.7386 105.975 100.028 106.188 100.241C106.402 100.455 106.691 100.574 106.993 100.574H113.362C113.664 100.574 113.953 100.455 114.166 100.241C114.38 100.028 114.5 99.7386 114.5 99.4369V92.385H105.855Z" fill="#FEA95C"/>
<path d="M125.873 92.385V99.4369C125.873 99.7386 125.993 100.028 126.206 100.241C126.42 100.455 126.709 100.574 127.011 100.574H133.38C133.682 100.574 133.971 100.455 134.184 100.241C134.398 100.028 134.518 99.7386 134.518 99.4369V92.385H125.873Z" fill="#FD8087"/>
<path d="M93.3437 118.773H86.9744C86.6727 118.773 86.3833 118.653 86.17 118.439C85.9567 118.226 85.8369 117.937 85.8369 117.635V111.266C85.8369 110.964 85.9567 110.675 86.17 110.461C86.3833 110.248 86.6727 110.128 86.9744 110.128H93.3437C93.6454 110.128 93.9347 110.248 94.1481 110.461C94.3614 110.675 94.4812 110.964 94.4812 111.266V117.635C94.4812 117.937 94.3614 118.226 94.1481 118.439C93.9347 118.653 93.6454 118.773 93.3437 118.773ZM93.3437 100.574H86.9744C86.6727 100.574 86.3833 100.454 86.17 100.241C85.9567 100.028 85.8369 99.7385 85.8369 99.4368V93.0674C85.8369 92.7658 85.9567 92.4764 86.17 92.2631C86.3833 92.0498 86.6727 91.9299 86.9744 91.9299H93.3437C93.6454 91.9299 93.9347 92.0498 94.1481 92.2631C94.3614 92.4764 94.4812 92.7658 94.4812 93.0674V99.4368C94.4812 99.7385 94.3614 100.028 94.1481 100.241C93.9347 100.454 93.6454 100.574 93.3437 100.574Z" fill="#88DD5A"/>
<path d="M93.3437 118.773H86.9744C86.6727 118.773 86.3833 118.653 86.17 118.439C85.9567 118.226 85.8369 117.937 85.8369 117.635V111.266C85.8369 110.964 85.9567 110.675 86.17 110.461C86.3833 110.248 86.6727 110.128 86.9744 110.128H93.3437C93.6454 110.128 93.9347 110.248 94.1481 110.461C94.3614 110.675 94.4812 110.964 94.4812 111.266V117.635C94.4812 117.937 94.3614 118.226 94.1481 118.439C93.9347 118.653 93.6454 118.773 93.3437 118.773ZM93.3437 100.574H86.9744C86.6727 100.574 86.3833 100.454 86.17 100.241C85.9567 100.028 85.8369 99.7385 85.8369 99.4368V93.0674C85.8369 92.7658 85.9567 92.4764 86.17 92.2631C86.3833 92.0498 86.6727 91.9299 86.9744 91.9299H93.3437C93.6454 91.9299 93.9347 92.0498 94.1481 92.2631C94.3614 92.4764 94.4812 92.7658 94.4812 93.0674V99.4368C94.4812 99.7385 94.3614 100.028 94.1481 100.241C93.9347 100.454 93.6454 100.574 93.3437 100.574Z" stroke="black" stroke-width="3" stroke-miterlimit="10" stroke-linecap="round" stroke-linejoin="round"/>
<path d="M113.362 118.772H106.992C106.691 118.772 106.401 118.652 106.188 118.439C105.975 118.226 105.855 117.936 105.855 117.635V111.265C105.855 110.964 105.975 110.674 106.188 110.461C106.401 110.248 106.691 110.128 106.992 110.128H113.362C113.663 110.128 113.953 110.248 114.166 110.461C114.379 110.674 114.499 110.964 114.499 111.265V117.635C114.499 117.936 114.379 118.226 114.166 118.439C113.953 118.652 113.663 118.772 113.362 118.772Z" fill="#FEA95C"/>
<path d="M105.855 92.385V99.4369C105.855 99.7386 105.975 100.028 106.188 100.241C106.402 100.455 106.691 100.574 106.993 100.574H113.362C113.664 100.574 113.953 100.455 114.166 100.241C114.38 100.028 114.5 99.7386 114.5 99.4369V92.385H105.855ZM113.362 118.773H106.992C106.691 118.773 106.401 118.653 106.188 118.44C105.975 118.226 105.855 117.937 105.855 117.635V111.266C105.855 110.964 105.975 110.675 106.188 110.461C106.401 110.248 106.691 110.128 106.992 110.128H113.362C113.663 110.128 113.953 110.248 114.166 110.461C114.379 110.675 114.499 110.964 114.499 111.266V117.635C114.499 117.937 114.379 118.226 114.166 118.44C113.953 118.653 113.663 118.773 113.362 118.773Z" stroke="black" stroke-width="3" stroke-miterlimit="10" stroke-linecap="round" stroke-linejoin="round"/>
<path d="M133.38 118.772H127.011C126.709 118.772 126.42 118.652 126.206 118.439C125.993 118.226 125.873 117.936 125.873 117.635V111.265C125.873 110.964 125.993 110.674 126.206 110.461C126.42 110.248 126.709 110.128 127.011 110.128H133.38C133.682 110.128 133.971 110.248 134.184 110.461C134.398 110.674 134.518 110.964 134.518 111.265V117.635C134.517 117.936 134.398 118.226 134.184 118.439C133.971 118.652 133.682 118.772 133.38 118.772Z" fill="#FD8087"/>
<path d="M125.873 92.385V99.4369C125.873 99.7386 125.993 100.028 126.206 100.241C126.42 100.455 126.709 100.574 127.011 100.574H133.38C133.682 100.574 133.971 100.455 134.184 100.241C134.398 100.028 134.518 99.7386 134.518 99.4369V92.385H125.873ZM133.38 118.773H127.011C126.709 118.773 126.42 118.653 126.206 118.44C125.993 118.226 125.873 117.937 125.873 117.635V111.266C125.873 110.964 125.993 110.675 126.206 110.461C126.42 110.248 126.709 110.128 127.011 110.128H133.38C133.682 110.128 133.971 110.248 134.184 110.461C134.398 110.675 134.518 110.964 134.518 111.266V117.635C134.517 117.937 134.398 118.226 134.184 118.439C133.971 118.653 133.682 118.773 133.38 118.773Z" stroke="black" stroke-width="3" stroke-miterlimit="10" stroke-linecap="round" stroke-linejoin="round"/>
<path d="M93.3437 82.3756H86.9744C86.6727 82.3756 86.3833 82.2557 86.17 82.0424C85.9567 81.8291 85.8369 81.5398 85.8369 81.2381V74.8687C85.8369 74.567 85.9567 74.2777 86.17 74.0644C86.3833 73.851 86.6727 73.7312 86.9744 73.7312H93.3437C93.6454 73.7312 93.9347 73.851 94.1481 74.0644C94.3614 74.2777 94.4812 74.567 94.4812 74.8687V81.2381C94.4813 81.3875 94.4519 81.5354 94.3947 81.6734C94.3376 81.8114 94.2538 81.9369 94.1481 82.0425C94.0425 82.1481 93.9171 82.2319 93.7791 82.2891C93.6411 82.3462 93.4931 82.3756 93.3437 82.3756Z" fill="#88DD5A"/>
<path d="M93.3437 82.3756H86.9744C86.6727 82.3756 86.3833 82.2557 86.17 82.0424C85.9567 81.8291 85.8369 81.5398 85.8369 81.2381V74.8687C85.8369 74.567 85.9567 74.2777 86.17 74.0644C86.3833 73.851 86.6727 73.7312 86.9744 73.7312H93.3437C93.6454 73.7312 93.9347 73.851 94.1481 74.0644C94.3614 74.2777 94.4812 74.567 94.4812 74.8687V81.2381C94.4813 81.3875 94.4519 81.5354 94.3947 81.6734C94.3376 81.8114 94.2538 81.9369 94.1481 82.0425C94.0425 82.1481 93.9171 82.2319 93.7791 82.2891C93.6411 82.3462 93.4931 82.3756 93.3437 82.3756Z" stroke="black" stroke-width="3" stroke-miterlimit="10" stroke-linecap="round" stroke-linejoin="round"/>
<path d="M100.104 48.0127H43.4123C41.5279 48.0127 40 49.5404 40 51.425V64.2088H100.104V48.0127Z" fill="#88DD5A"/>
<path d="M52.995 48.0127H43.4123C41.5277 48.0127 40 49.5404 40 51.425V64.2088H49.5827V51.425C49.5827 49.5404 51.1104 48.0127 52.995 48.0127Z" fill="#62B435"/>
<path d="M53.7555 48.0127H43.4123C41.5277 48.0127 40 49.5404 40 51.425V64.2088H100.104V48.0127H61.7133M50.9271 75.3657H66.6712M50.9271 84.0035H66.6712M50.9271 92.6413H66.6712M50.9271 109.917H66.6712M50.9271 118.555H66.6712" stroke="black" stroke-width="3" stroke-miterlimit="10" stroke-linecap="round" stroke-linejoin="round"/>
<path d="M150.725 92.3849H102.379C101.123 92.3849 100.104 91.3665 100.104 90.1101V41.764C100.104 40.5076 101.123 39.4893 102.379 39.4893H150.725C151.982 39.4893 153 40.5076 153 41.764V90.1101C153 91.3665 151.982 92.3849 150.725 92.3849Z" fill="#88DD5A"/>
<path d="M108.288 90.1101V41.764C108.288 40.5076 109.307 39.4893 110.563 39.4893H102.379C101.123 39.4893 100.104 40.5076 100.104 41.764V90.1101C100.104 91.3665 101.123 92.3849 102.379 92.3849H110.563C109.307 92.3851 108.288 91.3665 108.288 90.1101Z" fill="#62B435"/>
<path d="M150.725 92.3849H102.379C101.123 92.3849 100.104 91.3665 100.104 90.1101V41.764C100.104 40.5076 101.123 39.4893 102.379 39.4893H150.725C151.982 39.4893 153 40.5076 153 41.764V90.1101C153 91.3665 151.982 92.3849 150.725 92.3849Z" stroke="black" stroke-width="3" stroke-miterlimit="10" stroke-linecap="round" stroke-linejoin="round"/>
<path d="M130.093 54.2979L128.198 56.4292C128.112 56.5258 128.007 56.6031 127.889 56.656C127.771 56.709 127.643 56.7363 127.514 56.7364H114.501C114.381 56.7364 114.262 56.76 114.151 56.806C114.04 56.852 113.939 56.9195 113.854 57.0045C113.769 57.0895 113.701 57.1904 113.655 57.3014C113.609 57.4125 113.586 57.5315 113.586 57.6517V73.2112C113.586 73.3314 113.609 73.4504 113.655 73.5615C113.701 73.6725 113.769 73.7734 113.854 73.8584C113.939 73.9434 114.04 74.0109 114.151 74.0569C114.262 74.1029 114.381 74.1265 114.501 74.1265H138.603C138.846 74.1265 139.078 74.0301 139.25 73.8584C139.422 73.6868 139.518 73.4539 139.518 73.2112V54.9058C139.518 54.6631 139.422 54.4302 139.25 54.2586C139.078 54.0869 138.846 53.9905 138.603 53.9905H130.777C130.647 53.9906 130.52 54.018 130.402 54.071C130.284 54.124 130.178 54.2013 130.093 54.2979Z" fill="white"/>
<path d="M121.283 73.2111V57.6517C121.283 57.5315 121.306 57.4125 121.352 57.3014C121.398 57.1903 121.466 57.0894 121.551 57.0044C121.636 56.9194 121.737 56.852 121.848 56.806C121.959 56.76 122.078 56.7363 122.198 56.7363H114.501C114.258 56.7363 114.026 56.8328 113.854 57.0044C113.682 57.1761 113.586 57.4089 113.586 57.6517V73.2111C113.586 73.4539 113.682 73.6867 113.854 73.8584C114.026 74.0301 114.258 74.1265 114.501 74.1265H122.198C122.078 74.1265 121.959 74.1029 121.848 74.0569C121.737 74.0109 121.636 73.9435 121.551 73.8585C121.466 73.7735 121.398 73.6725 121.352 73.5615C121.306 73.4504 121.283 73.3314 121.283 73.2111Z" fill="#D8ECFE"/>
<path d="M139.518 60.7177V54.9058C139.518 54.6631 139.422 54.4302 139.25 54.2586C139.079 54.0869 138.846 53.9905 138.603 53.9905H130.777C130.515 53.9905 130.266 54.1023 130.093 54.2976L128.198 56.4292C128.112 56.5258 128.007 56.6031 127.889 56.656C127.771 56.709 127.643 56.7363 127.514 56.7364H114.501C114.258 56.7364 114.025 56.8328 113.854 57.0045C113.682 57.1761 113.586 57.409 113.586 57.6517V73.2112C113.586 73.4539 113.682 73.6868 113.854 73.8584C114.025 74.0301 114.258 74.1265 114.501 74.1265H138.603C138.846 74.1265 139.078 74.0301 139.25 73.8584C139.422 73.6868 139.518 73.4539 139.518 73.2112V68.6755M113.586 81.8608H133.376" stroke="black" stroke-width="3" stroke-miterlimit="10" stroke-linecap="round" stroke-linejoin="round"/>
</svg>
