<svg width="193" height="170" viewBox="0 0 193 170" fill="none" xmlns="http://www.w3.org/2000/svg">
<path d="M57.8311 27.8099C48.6039 56.8251 42.0104 65.3664 20.4252 73.2241C-7.66552 83.4499 -13.0925 135.046 45.1409 161.836C87.078 181.129 121.68 160.933 162.873 155.163C204.066 149.393 202.006 76.4431 162.873 64.9028C123.74 53.3625 145.651 28.7121 130.822 12.2262C115.993 -4.25974 69.3651 -8.4591 57.8311 27.8099Z" fill="white"/>
<path d="M79.6349 39.5291H52.0143C46.5356 39.5291 42.0949 43.9699 42.0949 49.4485V103.273H140.387V55.7457C131.348 57.2211 123.784 48.1434 126.821 39.5291H79.6349Z" fill="#FFAB17"/>
<path d="M42.0951 103.274V129.87C42.0951 135.348 46.536 139.789 52.0141 139.789H130.468C135.946 139.789 140.387 135.348 140.387 129.87V103.274H42.0951Z" fill="white"/>
<rect x="61" y="54" width="19" height="34" rx="9.5" fill="white"/>
<rect x="92" y="56" width="11" height="10" rx="5" fill="white"/>
<rect x="112" y="77" width="11" height="10" rx="5" fill="white"/>
<path d="M150.905 43.5132C150.905 50.3448 145.367 55.883 138.535 55.883C122.144 55.2766 122.149 31.7473 138.535 31.1433C145.367 31.1433 150.905 36.6816 150.905 43.5132Z" fill="white"/>
<path d="M121.979 52.8909C121.018 52.1372 119.628 52.3053 118.874 53.2664L92.3665 87.0679C91.6128 88.0291 91.7811 89.4193 92.7421 90.173C93.6906 90.9167 95.1045 90.7442 95.8471 89.7975L122.355 55.996C123.108 55.0348 122.94 53.6446 121.979 52.8909ZM97.1944 52.4196C92.3926 52.4196 88.4863 56.343 88.4863 61.1656C88.9246 72.7525 105.466 72.7494 105.903 61.1653C105.903 56.343 101.996 52.4196 97.1944 52.4196ZM97.1944 65.4883C94.8316 65.4883 92.9095 63.5492 92.9095 61.1656C93.1256 55.4387 101.264 55.44 101.48 61.1656C101.479 63.5492 99.5571 65.4883 97.1944 65.4883ZM108.344 81.8983C108.344 86.7209 112.25 90.6443 117.052 90.6443C128.588 90.205 128.585 73.5898 117.051 73.1524C112.25 73.1526 108.344 77.076 108.344 81.8983ZM121.337 81.8983C121.337 84.282 119.414 86.2211 117.052 86.2211C111.375 86.0044 111.377 77.7914 117.052 77.5756C119.414 77.5758 121.337 79.5149 121.337 81.8983ZM69.9709 50.3257C62.9504 50.3257 57.239 56.0371 57.239 63.0576V79.8822C57.881 96.754 82.0667 96.741 82.7028 79.8822V63.0576C82.7028 56.0371 76.9914 50.3257 69.9709 50.3257ZM78.2796 79.882C77.8605 90.8922 62.0773 90.884 61.6622 79.882V63.0574C62.0813 52.047 77.8645 52.0556 78.2796 63.0574V79.882ZM93.3587 116.566C95.844 116.489 95.8423 112.883 93.3587 112.806H88.9333C88.4347 112.806 87.9566 113.004 87.604 113.357C87.2515 113.71 87.0534 114.188 87.0534 114.686V127.794C87.1304 130.279 90.7368 130.278 90.8131 127.794V122.996H92.9367C95.4221 122.919 95.4203 119.312 92.9367 119.236H90.8131V116.566H93.3587ZM104.569 116.578C107.054 116.501 107.052 112.895 104.569 112.818H100.165C99.666 112.818 99.1879 113.016 98.8354 113.369C98.4828 113.721 98.2848 114.2 98.2848 114.698V127.782C98.2848 128.281 98.4828 128.759 98.8354 129.111C99.1879 129.464 99.666 129.662 100.165 129.662H104.569C107.054 129.585 107.052 125.979 104.569 125.902H102.044V123.12H104.162C106.648 123.043 106.646 119.437 104.162 119.36H102.044V116.578L104.569 116.578ZM116.212 116.578C118.698 116.501 118.696 112.895 116.212 112.818H111.808C111.31 112.818 110.832 113.016 110.479 113.369C110.127 113.721 109.929 114.2 109.929 114.698V127.782C109.929 128.281 110.127 128.759 110.479 129.111C110.832 129.464 111.31 129.662 111.808 129.662H116.212C118.698 129.585 118.696 125.979 116.212 125.902H113.688V123.12H115.806C118.291 123.043 118.289 119.437 115.806 119.36H113.688V116.578L116.212 116.578ZM129.522 119.58C127.939 118.997 126.462 118.362 125.969 118.146C125.733 117.94 125.729 117.669 125.751 117.516C125.778 117.327 125.919 116.862 126.64 116.645C128.375 116.122 130.006 117.398 130.063 117.443C130.446 117.763 130.94 117.917 131.437 117.872C131.933 117.827 132.392 117.587 132.711 117.204C133.03 116.821 133.184 116.327 133.14 115.831C133.095 115.334 132.854 114.876 132.471 114.556C132.343 114.448 129.282 111.923 125.556 113.045C123.647 113.62 122.295 115.129 122.029 116.982C121.779 118.726 122.535 120.404 124.003 121.361C124.086 121.415 124.173 121.463 124.264 121.503C124.341 121.537 126.166 122.35 128.221 123.108C128.631 123.259 129.955 123.816 129.806 124.65C129.191 126.715 125.652 126.036 124.516 124.622C124.179 124.264 123.714 124.052 123.222 124.032C122.73 124.013 122.249 124.187 121.884 124.518C121.519 124.848 121.299 125.309 121.27 125.801C121.241 126.293 121.406 126.776 121.73 127.147C124.958 130.893 132.411 130.701 133.507 125.311C133.852 123.379 132.986 120.858 129.522 119.58ZM72.6365 113.26C68.3051 113.26 64.781 116.784 64.781 121.116C65.1759 131.523 80.0986 131.52 80.4921 121.116C80.4921 116.784 76.9681 113.26 72.6365 113.26ZM72.6365 125.212C70.378 125.212 68.5407 123.374 68.5407 121.116C68.7466 115.69 76.5271 115.691 76.7324 121.116C76.7324 123.374 74.895 125.212 72.6365 125.212ZM59.7717 113.043H59.7531C59.2546 113.048 58.7784 113.251 58.4293 113.607C58.0802 113.963 57.8868 114.443 57.8916 114.941L57.9542 121.407L52.7548 113.878C52.5271 113.548 52.1999 113.3 51.8209 113.169C51.4419 113.038 51.0311 113.032 50.6484 113.151C50.2657 113.271 49.9311 113.509 49.6936 113.832C49.4561 114.155 49.328 114.545 49.3281 114.946V127.309C49.4051 129.794 53.0115 129.792 53.0878 127.309V120.977L58.0206 128.119C58.5598 128.899 59.4645 129.228 60.3255 128.959C61.2011 128.686 61.767 127.874 61.767 126.873L61.6513 114.905C61.6464 114.41 61.4462 113.936 61.0942 113.588C60.7423 113.239 60.267 113.044 59.7717 113.043Z" fill="black"/>
<path d="M153.117 43.5133C152.953 27.9077 131.952 23.4334 125.339 37.3175H99.1513C97.93 37.3175 96.9397 38.3077 96.9397 39.5291C96.9397 40.7506 97.93 41.7407 99.1513 41.7407H124.061C122.961 50.1034 129.758 57.9322 138.175 58.0905V101.062H44.3065V49.4485C44.3065 45.1985 47.7643 41.7407 52.0143 41.7407H79.6349C80.8563 41.7407 81.8465 40.7506 81.8465 39.5291C81.8465 38.3077 80.8563 37.3175 79.6349 37.3175H52.0143C45.3252 37.3175 39.8833 42.7596 39.8833 49.4485L39.8836 129.869C39.8836 136.558 45.3252 142 52.0141 142H130.468C137.157 142 142.599 136.558 142.599 129.869L142.598 57.5144C148.667 55.7505 153.117 50.1436 153.117 43.5133ZM138.535 33.355C144.137 33.355 148.693 37.912 148.693 43.5133C148.021 56.9761 129.046 56.9679 128.378 43.5129C128.378 38.0005 133.025 33.355 138.535 33.355ZM130.468 137.577H52.0141C47.7643 137.577 44.3067 134.119 44.3067 129.869V105.485H138.175V129.87C138.175 134.119 134.718 137.577 130.468 137.577Z" fill="black"/>
<path d="M135.451 48.3959C136.274 49.2527 137.755 49.2527 138.579 48.3959L144.271 42.7031C145.135 41.8395 145.135 40.4391 144.271 39.5755C143.407 38.7118 142.007 38.7118 141.143 39.5755L137.015 43.7043L135.565 42.2546C134.701 41.391 133.301 41.391 132.437 42.2546C131.573 43.1182 131.573 44.5186 132.437 45.3822L135.451 48.3959ZM87.3462 40.3761C87.7092 41.2474 88.6086 41.8019 89.5499 41.7344C90.5128 41.6652 91.3295 40.9511 91.5449 40.0134C91.9744 38.1424 89.8644 36.6597 88.2417 37.6397C87.3173 38.1981 86.9378 39.3797 87.3462 40.3761Z" fill="black"/>
</svg>
