<svg width="29" height="29" viewBox="0 0 29 29" fill="none" xmlns="http://www.w3.org/2000/svg">
<rect x="0.970703" y="0.469849" width="28" height="28" rx="14" fill="white"/>
<g clip-path="url(#clip0_352_8878)">
<path d="M19.0791 13.7477L11.7158 9.09412C11.5917 9.01569 11.4498 8.97285 11.3044 8.97C11.159 8.96716 11.0156 9.00441 10.8888 9.07793C10.762 9.15145 10.6564 9.25859 10.5829 9.38831C10.5094 9.51803 10.4707 9.66566 10.4707 9.816V19.124C10.4708 19.2743 10.5096 19.4218 10.5831 19.5515C10.6566 19.6811 10.7622 19.7882 10.889 19.8617C11.0157 19.9352 11.1591 19.9725 11.3044 19.9697C11.4498 19.9669 11.5917 19.9242 11.7158 19.8459L19.0791 15.1923C19.1988 15.1166 19.2976 15.0105 19.3662 14.884C19.4347 14.7575 19.4707 14.615 19.4707 14.47C19.4707 14.325 19.4347 14.1825 19.3662 14.056C19.2976 13.9295 19.1988 13.8234 19.0791 13.7477Z" fill="#74CA45"/>
</g>
<defs>
<clipPath id="clip0_352_8878">
<rect width="12" height="12" fill="white" transform="translate(8.9707 8.46985)"/>
</clipPath>
</defs>
</svg>
