<svg width="506" height="372" viewBox="0 0 506 372" fill="none" xmlns="http://www.w3.org/2000/svg">
<g clip-path="url(#clip0_256_4618)">
<path opacity="0.53" d="M120.003 360.135C122.765 357.348 122.765 352.831 120.003 350.045C117.241 347.258 112.763 347.258 110.001 350.045C107.239 352.831 107.239 357.348 110.001 360.135C112.763 362.921 117.241 362.921 120.003 360.135Z" fill="#FFAC33"/>
<path opacity="0.53" d="M488.841 237.872C494.828 237.872 499.681 232.975 499.681 226.936C499.681 220.896 494.828 216 488.841 216C482.853 216 478 220.896 478 226.936C478 232.975 482.853 237.872 488.841 237.872Z" fill="#FFAC33"/>
<path opacity="0.53" d="M214.034 9.98473C214.91 6.23878 212.61 2.48536 208.897 1.60123C205.184 0.717106 201.463 3.03708 200.587 6.78303C199.71 10.529 202.01 14.2824 205.723 15.1665C209.437 16.0506 213.157 13.7307 214.034 9.98473Z" fill="#FFAC33"/>
<path d="M18.6748 16.1938C23.1299 15.2856 27.6022 15.2728 30.96 16.1304C32.6374 16.5588 34.0726 17.214 35.084 18.1167C35.9792 18.9157 36.5415 19.9109 36.6299 21.0845L99.8545 21.3062H99.8594L100.219 21.3159C107.621 21.6255 113.49 28.2717 113.649 36.3179L113.653 36.7085L112.814 308.041C112.788 316.224 106.682 322.929 99.0801 322.932L99.0811 322.933L31.8906 323.27C31.1565 324.6 29.8898 325.773 28.0283 326.737L27.918 326.793L27.7939 326.792C18.2952 326.717 11.3169 324.81 6.68945 321.659C2.06102 318.506 -0.187212 314.124 -0.242188 309.191C-0.250578 309.148 -0.255847 309.111 -0.257812 309.094C-0.264452 309.036 -0.270063 308.964 -0.275391 308.882C-0.286113 308.718 -0.296153 308.491 -0.305664 308.208C-0.324731 307.639 -0.342432 306.825 -0.358398 305.784C-0.390342 303.701 -0.415815 300.699 -0.436523 296.911C-0.477944 289.333 -0.498321 278.601 -0.5 265.762C-0.503358 240.085 -0.433423 205.978 -0.318359 171.816C-0.203295 137.654 -0.042744 103.437 0.136719 77.5405C0.22645 64.5923 0.320301 53.7231 0.416016 45.981C0.463869 42.1102 0.512419 39.0198 0.560547 36.8413C0.5846 35.7526 0.608719 34.8895 0.632812 34.27C0.64485 33.9606 0.656614 33.7087 0.668945 33.519C0.677119 33.3933 0.688726 33.2758 0.701172 33.1831C0.670472 28.3342 2.95357 24.5267 6.3418 21.7202C9.72368 18.9191 14.2177 17.1026 18.6748 16.1938Z" fill="#538D33" stroke="black"/>
<path d="M8.48386 144.534C10.0492 144.569 11.3388 143.333 11.3529 141.787L11.958 70.9451C11.972 69.3751 10.6917 68.0598 9.11467 68.0247C7.53766 67.9874 6.23867 69.2443 6.22465 70.8143L5.65926 141.658C5.64758 143.205 6.91619 144.499 8.48152 144.537L8.48386 144.534Z" fill="#36661B"/>
<path d="M28.9218 326.344L111.964 326.25C119.51 326.264 125.647 319.653 125.678 311.478L126.687 32.4125C126.717 24.0555 120.554 17.2054 112.917 17.1166L29.6344 16.0372C21.9363 15.9485 15.6796 22.6887 15.6656 31.0854L15.1726 311.457C15.1586 319.669 21.3148 326.332 28.9218 326.344Z" fill="#74CA45"/>
<path d="M27.2443 324.365C27.7466 324.435 28.2606 324.47 28.7723 324.47L111.793 324.246C118.279 324.251 123.608 318.452 123.634 311.317L124.619 32.5576C124.645 25.2613 119.293 19.257 112.732 19.1752L29.4732 17.958C29.2816 17.958 29.0877 17.958 28.8984 17.965C25.8192 18.0818 22.9502 19.4603 20.8124 21.841C18.628 24.2731 17.4248 27.5089 17.4201 30.9549L16.9085 311.609C16.8968 318.069 21.3241 323.55 27.2443 324.365Z" fill="#0D0D0D"/>
<path d="M21.7118 32.4399L21.1558 312.064L119.603 312.057L120.545 33.2506L21.7118 32.4399Z" fill="white"/>
<mask id="mask0_256_4618" style="mask-type:luminance" maskUnits="userSpaceOnUse" x="21" y="32" width="100" height="281">
<path d="M21.6254 32.4399L21.0693 312.064L119.517 312.057L120.458 33.2506L21.6254 32.4399Z" fill="white"/>
</mask>
<g mask="url(#mask0_256_4618)">
<path d="M124.056 59.0737H3.96973V321.507H124.056V59.0737Z" fill="#E6E6E6"/>
<path d="M138.696 288.619L-56.0781 229.538L-48.3636 223.123L134.64 270.711L138.696 288.619Z" fill="#CEC6C5"/>
<path d="M-57.8938 229.88L-59.0564 233.892L162.563 298.111L163.726 294.099L-57.8938 229.88Z" fill="white"/>
<mask id="path-13-outside-1_256_4618" maskUnits="userSpaceOnUse" x="4.38428" y="129.633" width="144" height="184" fill="black">
<rect fill="white" x="4.38428" y="129.633" width="144" height="184"/>
<path d="M48.2578 163.084C62.526 164.523 74.5736 172.028 77.9541 182.247H143.878L146.688 190.284H78.7676C77.3676 202.024 64.8167 212.047 47.6104 214.139L46.503 312.138H30.127L34.9571 214.141C34.953 214.14 34.9484 214.14 34.9444 214.14C15.9317 211.81 3.36526 199.634 5.65236 186.207C7.72935 174 21.6095 164.703 37.7744 163.084V163.083L39.5752 130.633H48.6709L48.2578 163.084ZM42.8018 169.238C40.9562 169.238 39.1549 169.374 37.4121 169.633V169.63L37.4092 169.631C26.4382 171.245 17.4526 177.847 16.3613 186.204C15.2002 195.115 23.3123 203.04 35.4424 205.112C37.4002 205.451 39.4467 205.629 41.5586 205.629C43.6705 205.629 45.7429 205.451 47.7217 205.112H47.7197C59.9924 203.031 68.6459 195.115 68.0899 186.204C67.571 177.848 59.0353 171.253 48.1748 169.631V169.633C46.4508 169.374 44.6473 169.238 42.8018 169.238Z"/>
</mask>
<path d="M48.2578 163.084C62.526 164.523 74.5736 172.028 77.9541 182.247H143.878L146.688 190.284H78.7676C77.3676 202.024 64.8167 212.047 47.6104 214.139L46.503 312.138H30.127L34.9571 214.141C34.953 214.14 34.9484 214.14 34.9444 214.14C15.9317 211.81 3.36526 199.634 5.65236 186.207C7.72935 174 21.6095 164.703 37.7744 163.084V163.083L39.5752 130.633H48.6709L48.2578 163.084ZM42.8018 169.238C40.9562 169.238 39.1549 169.374 37.4121 169.633V169.63L37.4092 169.631C26.4382 171.245 17.4526 177.847 16.3613 186.204C15.2002 195.115 23.3123 203.04 35.4424 205.112C37.4002 205.451 39.4467 205.629 41.5586 205.629C43.6705 205.629 45.7429 205.451 47.7217 205.112H47.7197C59.9924 203.031 68.6459 195.115 68.0899 186.204C67.571 177.848 59.0353 171.253 48.1748 169.631V169.633C46.4508 169.374 44.6473 169.238 42.8018 169.238Z" fill="#FCD08F"/>
<path d="M48.2578 163.084L47.7579 163.078L47.752 163.536L48.2077 163.581L48.2578 163.084ZM77.9541 182.247L77.4794 182.404L77.5929 182.747H77.9541V182.247ZM143.878 182.247L144.35 182.082L144.233 181.747H143.878V182.247ZM146.688 190.284V190.784H147.393L147.16 190.119L146.688 190.284ZM78.7676 190.284V189.784H78.3237L78.2711 190.225L78.7676 190.284ZM47.6104 214.139L47.55 213.642L47.1154 213.695L47.1104 214.133L47.6104 214.139ZM46.503 312.138V312.638H46.9973L47.0029 312.143L46.503 312.138ZM30.127 312.138L29.6276 312.113L29.6017 312.638H30.127V312.138ZM34.9571 214.141L35.4564 214.165L35.4793 213.701L35.0181 213.644L34.9571 214.141ZM34.9444 214.14L35.0055 213.643L35.0052 213.643L34.9444 214.14ZM5.65236 186.207L6.14527 186.291L6.14528 186.291L5.65236 186.207ZM37.7744 163.084L37.8243 163.581L38.2744 163.536V163.084H37.7744ZM37.7744 163.083L37.2752 163.055L37.2744 163.069V163.083H37.7744ZM39.5752 130.633V130.133H39.1022L39.076 130.605L39.5752 130.633ZM48.6709 130.633L49.1709 130.639L49.1773 130.133H48.6709V130.633ZM42.8018 169.238V168.738V169.238ZM37.4121 169.633H36.9121V170.213L37.4857 170.127L37.4121 169.633ZM37.4121 169.63H37.9121V168.936L37.254 169.156L37.4121 169.63ZM37.4092 169.631L37.482 170.126L37.5256 170.119L37.5673 170.105L37.4092 169.631ZM16.3613 186.204L15.8656 186.139L15.8655 186.139L16.3613 186.204ZM35.4424 205.112L35.5277 204.62L35.5266 204.619L35.4424 205.112ZM41.5586 205.629L41.5586 206.129H41.5586V205.629ZM47.7217 205.112L47.8061 205.605L47.7217 204.612V205.112ZM47.7197 205.112L47.6361 204.619L47.7197 205.612V205.112ZM68.0899 186.204L67.5908 186.235L67.5908 186.235L68.0899 186.204ZM48.1748 169.631L48.2487 169.136L47.6748 169.051V169.631H48.1748ZM48.1748 169.633L48.1005 170.127L48.6748 170.214V169.633H48.1748ZM48.2578 163.084L48.2077 163.581C62.3713 165.01 74.1854 172.446 77.4794 182.404L77.9541 182.247L78.4288 182.09C74.9618 171.609 62.6807 164.036 48.308 162.587L48.2578 163.084ZM77.9541 182.247V182.747H143.878V182.247V181.747H77.9541V182.247ZM143.878 182.247L143.406 182.412L146.217 190.449L146.688 190.284L147.16 190.119L144.35 182.082L143.878 182.247ZM146.688 190.284V189.784H78.7676V190.284V190.784H146.688V190.284ZM78.7676 190.284L78.2711 190.225C76.9101 201.638 64.643 211.565 47.55 213.642L47.6104 214.139L47.6707 214.635C64.9904 212.53 77.8251 202.41 79.2641 190.343L78.7676 190.284ZM47.6104 214.139L47.1104 214.133L46.003 312.132L46.503 312.138L47.0029 312.143L48.1103 214.144L47.6104 214.139ZM46.503 312.138V311.638H30.127V312.138V312.638H46.503V312.138ZM30.127 312.138L30.6264 312.162L35.4564 214.165L34.9571 214.141L34.4577 214.116L29.6276 312.113L30.127 312.138ZM34.9571 214.141L35.0181 213.644C35.0058 213.643 34.9957 213.642 34.9895 213.642C34.9837 213.641 34.9785 213.641 34.9781 213.641C34.9764 213.641 34.9794 213.641 34.9831 213.641C34.9872 213.642 34.9952 213.642 35.0055 213.643L34.9444 214.14L34.8832 214.636C34.8955 214.637 34.9057 214.638 34.9119 214.639C34.9177 214.639 34.9229 214.639 34.9233 214.639C34.9251 214.639 34.9221 214.639 34.9184 214.639C34.9143 214.639 34.9063 214.638 34.896 214.637L34.9571 214.141ZM34.9444 214.14L35.0052 213.643C25.5853 212.489 17.7974 208.899 12.6569 203.974C7.52125 199.053 5.03454 192.812 6.14527 186.291L5.65236 186.207L5.15946 186.123C3.98308 193.029 6.63606 199.59 11.965 204.696C17.2891 209.797 25.2908 213.461 34.8836 214.636L34.9444 214.14ZM5.65236 186.207L6.14528 186.291C7.15552 180.353 11.0442 175.083 16.7184 171.084C22.3909 167.086 29.8181 164.383 37.8243 163.581L37.7744 163.084L37.7246 162.586C29.5658 163.404 21.9704 166.159 16.1424 170.266C10.316 174.372 6.22619 179.853 5.15945 186.123L5.65236 186.207ZM37.7744 163.084H38.2744V163.083H37.7744H37.2744V163.084H37.7744ZM37.7744 163.083L38.2737 163.111L40.0744 130.661L39.5752 130.633L39.076 130.605L37.2752 163.055L37.7744 163.083ZM39.5752 130.633V131.133H48.6709V130.633V130.133H39.5752V130.633ZM48.6709 130.633L48.171 130.626L47.7579 163.078L48.2578 163.084L48.7578 163.09L49.1709 130.639L48.6709 130.633ZM42.8018 169.238V168.738C40.9318 168.738 39.1059 168.875 37.3385 169.138L37.4121 169.633L37.4857 170.127C39.204 169.872 40.9806 169.738 42.8018 169.738V169.238ZM37.4121 169.633H37.9121V169.63H37.4121H36.9121V169.633H37.4121ZM37.4121 169.63L37.254 169.156L37.2511 169.157L37.4092 169.631L37.5673 170.105L37.5702 170.104L37.4121 169.63ZM37.4092 169.631L37.3364 169.136C26.2666 170.765 16.9991 177.458 15.8656 186.139L16.3613 186.204L16.8571 186.269C17.906 178.236 26.6097 171.725 37.482 170.126L37.4092 169.631ZM16.3613 186.204L15.8655 186.139C14.6526 195.447 23.1167 203.514 35.3582 205.605L35.4424 205.112L35.5266 204.619C23.5079 202.566 15.7478 194.782 16.8572 186.269L16.3613 186.204ZM35.4424 205.112L35.3572 205.605C37.3436 205.949 39.4186 206.129 41.5586 206.129L41.5586 205.629V205.129C39.4747 205.129 37.4567 204.953 35.5277 204.62L35.4424 205.112ZM41.5586 205.629V206.129C43.6984 206.129 45.799 205.949 47.8061 205.605L47.7217 205.112L47.6373 204.619C45.6869 204.953 43.6427 205.129 41.5586 205.129V205.629ZM47.7217 205.112V204.612H47.7197V205.112V205.612H47.7217V205.112ZM47.7197 205.112L47.8034 205.605C54.0194 204.551 59.3447 202.015 63.0549 198.586C66.7667 195.156 68.8783 190.811 68.5889 186.173L68.0899 186.204L67.5908 186.235C67.8575 190.508 65.9203 194.576 62.3762 197.852C58.8304 201.129 53.6927 203.592 47.6361 204.619L47.7197 205.112ZM68.0899 186.204L68.5889 186.173C68.0484 177.469 59.2088 170.773 48.2487 169.136L48.1748 169.631L48.101 170.125C58.8617 171.732 67.0936 178.227 67.5908 186.235L68.0899 186.204ZM48.1748 169.631H47.6748V169.633H48.1748H48.6748V169.631H48.1748ZM48.1748 169.633L48.2492 169.138C46.4999 168.875 44.6716 168.738 42.8018 168.738V169.238L42.8018 169.738C44.623 169.738 46.4016 169.872 48.1005 170.127L48.1748 169.633Z" fill="black" mask="url(#path-13-outside-1_256_4618)"/>
<path d="M21.6581 156.351H2.79468L6.67763 147.064H26.4335L21.6581 156.351Z" fill="white"/>
<path d="M35.0616 147.064H30.1203L25.179 156.351H34.4004L35.0616 147.064Z" fill="white"/>
<path d="M28.1856 162.942C30.0944 162.615 32.0288 162.569 33.9563 162.552L34.2203 158.831H23.8541L20.5833 164.975C23.006 164.094 25.5549 163.391 28.1833 162.94L28.1856 162.942Z" fill="white"/>
<path d="M42.7065 171.911C48.2858 171.911 53.4159 173.449 57.2026 175.998C60.9887 178.547 63.4502 182.122 63.6323 186.193L63.6431 186.599C63.6753 190.769 61.3113 194.605 57.4653 197.414C53.4942 200.315 47.9244 202.139 41.6948 202.139C35.4654 202.139 30.0154 200.314 26.2368 197.41C22.4574 194.505 20.337 190.505 20.8257 186.177L20.8755 185.797C21.4553 181.888 24.1089 178.461 27.939 175.995C31.8946 173.449 37.1269 171.911 42.7065 171.911Z" fill="#74CA45" stroke="black" stroke-width="0.5"/>
<path d="M43.0073 173.31C43.0073 173.31 61.352 175.464 59.0414 184.896C56.5556 195.045 46.3692 195.045 47.9346 188.503C49.4275 182.263 43.9885 180.905 41.1149 178.053C38.3019 175.261 38.2248 173.424 43.0096 173.31H43.0073Z" fill="#B2E596"/>
<path d="M51.8245 144.347L51.8572 160.447C51.8572 160.447 76.9165 165.316 80.8251 180.266H134.21L120.545 144.635L51.8245 144.345V144.347Z" fill="#E6E6E6"/>
<path d="M109.814 208.661H86.3528L83.3367 194.514H104.592L109.814 208.661Z" fill="white"/>
<path d="M138.96 208.661H115.501L109.744 194.514H131L138.96 208.661Z" fill="white"/>
<path d="M117.882 230.524H91.0139L87.1123 212.219H111.125L117.882 230.524Z" fill="white"/>
<path d="M151.26 230.524H124.393L116.947 212.219H140.96L151.26 230.524Z" fill="white"/>
<path d="M127.671 260.814L119.736 235.552H92.0862L94.6141 252.71L127.671 260.814Z" fill="white"/>
<path d="M70.2767 212.219C66.8026 215.597 62.5692 218.698 57.5789 220.508L57.934 230.524H84.6497L81.4233 212.219H70.2767Z" fill="white"/>
<path d="M-52.0292 239.82C-50.5924 239.85 26.3541 262.942 26.3541 262.942L24.1766 292.971H-69.0959L-52.0292 239.82Z" fill="#F17228"/>
<path d="M123.832 59.5522H4.71509V145.479H123.832V59.5522Z" fill="white"/>
<path d="M59.0017 235.222L84.9277 236.077L86.2991 252.284L58.8381 244.43L59.0017 235.222Z" fill="white"/>
<path d="M18.0553 215.072L14.0042 235.65L29.7836 239.489L31.9166 219.016L18.0553 215.072Z" fill="white"/>
</g>
<path d="M90.8295 76.6999L79.7156 76.6088L43.9934 32.623L55.1587 32.7165L90.8295 76.6999Z" fill="#F17228"/>
<path d="M79.7159 76.6093L68.6091 76.5182L32.8308 32.5325L43.9937 32.6236L79.7159 76.6093Z" fill="#F1E3E0"/>
<path d="M68.609 76.5168L57.4928 76.4257L21.6748 32.4399L32.8307 32.5311L68.609 76.5168Z" fill="#F17228"/>
<path d="M101.936 76.7911L90.8295 76.7L55.1587 32.7166L66.3146 32.8077L101.936 76.7911Z" fill="#F1E3E0"/>
<path d="M124.155 76.9701L113.05 76.879L77.4775 32.8979L88.6334 32.9891L124.155 76.9701Z" fill="#F1E3E0"/>
<path d="M156.393 77.2348L146.373 77.153L110.952 33.1743L121.008 33.2561L156.393 77.2348Z" fill="#F17228"/>
<path d="M146.373 77.1532L135.269 77.0621L99.7964 33.0811L110.952 33.1745L146.373 77.1532Z" fill="#F1E3E0"/>
<path d="M113.05 76.8793L101.936 76.7905L66.3147 32.8071L77.4776 32.8982L113.05 76.8793Z" fill="#F17228"/>
<path d="M135.268 77.0624L124.155 76.9713L88.6333 32.9902L99.7962 33.0814L135.268 77.0624Z" fill="#F17228"/>
<path d="M68.6089 76.5171L68.6136 83.213C68.6183 90.3084 57.5185 90.2173 57.5068 83.1219L57.4951 76.426L68.6089 76.5171Z" fill="#C65C1F"/>
<path d="M79.7157 76.6087V83.3046C79.7087 90.3999 68.6182 90.3088 68.6136 83.2134L68.6089 76.5176L79.7157 76.6087Z" fill="#F1C5BC"/>
<path d="M90.8297 76.6995L90.818 83.3954C90.8063 90.4908 79.7065 90.3996 79.7112 83.3043V76.6084L90.8297 76.6995Z" fill="#C65C1F"/>
<path d="M101.936 76.7911L101.918 83.4869C101.899 90.5823 90.8062 90.4912 90.8179 83.3958L90.8296 76.7L101.936 76.7911Z" fill="#F1C5BC"/>
<path d="M113.05 76.8799L113.024 83.5758C112.996 90.6712 101.899 90.5801 101.918 83.4847L101.936 76.7888L113.05 76.8799Z" fill="#C65C1F"/>
<path d="M124.155 76.9708L124.122 83.6666C124.087 90.762 112.996 90.6709 113.024 83.5755L113.05 76.8796L124.157 76.9708H124.155Z" fill="#F1C5BC"/>
<path d="M135.268 77.0623L135.226 83.7582C135.182 90.8512 124.084 90.7624 124.119 83.6671L124.152 76.9712L135.266 77.0623H135.268Z" fill="#C65C1F"/>
<path d="M146.373 77.1529L146.324 83.8488C146.273 90.9418 135.182 90.853 135.226 83.7576L135.269 77.0618L146.373 77.1529Z" fill="#F1C5BC"/>
<path d="M156.393 77.2344L156.337 83.9302C156.279 91.0233 146.273 90.9415 146.324 83.8485L146.373 77.1526L156.393 77.2344Z" fill="#C65C1F"/>
<path d="M57.4928 76.4257L58.3642 76.5472L21.6257 76.2201L21.6748 32.4399L57.4928 76.4257Z" fill="#F17228"/>
<path d="M53.9252 254.192C48.7339 249.019 56.918 236.604 68.9897 224.899C73.861 220.175 79.3676 215.568 84.8813 211.598C85.0706 211.503 85.2318 211.388 85.3533 211.26C85.4351 211.201 85.5192 211.141 85.6009 211.082C85.6009 211.024 85.5916 210.961 85.5729 210.9C85.5986 210.813 85.6079 210.722 85.5962 210.631L82.2974 193.347L107.922 193.102C108.301 193.102 108.656 192.913 108.868 192.6C109.081 192.284 109.121 191.885 108.978 191.534L104.343 180.145C104.168 179.715 103.752 179.434 103.287 179.434H79.9284C79.3676 178.07 77.9518 175.126 75.1389 171.954C71.6765 168.045 65.3358 163.029 54.8037 161.321C52.4627 161.225 52.5702 163.337 54.4392 163.571C62.3196 164.847 68.6837 168.148 73.3586 173.381C76.8538 177.294 78.043 180.885 78.0546 180.92C78.2065 181.392 78.6434 181.712 79.141 181.712H102.52L106.228 190.824H80.6246C78.9962 190.868 78.5125 191.973 78.5523 193.385L80.3232 209.215C64.0812 218.297 45.8743 230.27 37.5593 237.618C26.31 247.561 26.4385 264.981 40.1293 277.784C71.3284 306.957 121.86 326.587 174.724 339.67C280.772 365.917 351.176 370.645 358.209 371.285C382.189 373.255 413.325 369.615 410.463 342.535C407.598 315.455 452.956 317.274 457.845 316.064C404.036 313.913 99.0324 299.147 53.9252 254.196V254.192Z" fill="#CEC6C5"/>
<path d="M83.6802 290.968C96.9528 296.862 112.407 302.18 129.201 306.976C130.107 305.598 131.689 302.986 132.161 302.374C115.877 298.299 100.873 293.732 87.9229 288.622C86.5118 289.41 85.0983 290.19 83.6802 290.968Z" fill="white"/>
<path d="M42.5844 255.166C42.2736 255.21 40.9186 255.636 40.3462 255.848C41.0588 259.056 43.0073 262.661 45.4066 265.588C45.7734 266.02 46.1543 266.448 46.5444 266.876C47.3551 266.31 48.1658 265.742 48.9789 265.177C46.4393 262.404 43.9254 258.881 42.5867 255.164L42.5844 255.166Z" fill="white"/>
<path d="M62.1885 225.033C64.1557 223.507 66.2116 221.956 68.4054 220.262C68.1531 220.178 67.8985 220.096 67.6438 220.017C65.4897 221.444 63.2305 222.96 60.9736 224.544C61.3778 224.71 61.782 224.871 62.1885 225.033Z" fill="white"/>
<path d="M58.3033 227.502C55.5395 229.476 52.8106 231.544 50.3108 233.67C50.8575 234.018 51.4346 234.326 52.0093 234.618C54.4507 232.214 56.9436 230.121 59.593 228.032C59.1607 227.859 58.7309 227.682 58.301 227.504L58.3033 227.502Z" fill="white"/>
<path d="M48.9767 238.187C48.3225 237.828 47.673 237.438 47.0702 236.998C41.949 241.886 39.4025 246.28 39.8697 251.78C40.5356 251.78 41.9163 251.701 42.5985 251.593C42.4841 245.64 46.2689 241.159 48.9767 238.187Z" fill="white"/>
<path d="M53.4436 273.343C58.3779 277.366 64.2911 281.181 71.022 284.798C72.2416 284.149 73.4564 283.492 74.6713 282.836C67.4241 279.317 61.1324 275.565 55.9925 271.57C55.1421 272.161 54.294 272.75 53.4436 273.341V273.343Z" fill="white"/>
<path d="M156.627 307.952C154.753 309.55 152.882 311.148 151.008 312.746C171.722 317.844 193.767 322.271 215.813 326.115C217.885 324.764 222.85 320.55 224.373 319.442C201.395 316.265 178.308 312.468 156.629 307.952H156.627Z" fill="white"/>
<path d="M371.462 334.066C349.917 332.568 301.52 328.424 272.291 325.291C268.646 327.973 264.997 330.65 261.347 333.327C288.843 337.287 336.03 342.35 357.585 344.799C362.176 341.177 366.813 337.612 371.462 334.068V334.066Z" fill="white"/>
<path d="M49.7783 165.822C55.2443 165.822 59.6754 164.404 59.6754 162.654C59.6754 160.904 55.2443 159.485 49.7783 159.485C44.3122 159.485 39.8811 160.904 39.8811 162.654C39.8811 164.404 44.3122 165.822 49.7783 165.822Z" fill="#3C3836"/>
<path d="M53.3382 162.378C53.3382 163.07 51.5858 163.632 49.4229 163.632C47.2599 163.632 45.5076 163.07 45.5076 162.378C45.5076 161.687 47.2599 161.125 49.4229 161.125C51.5858 161.125 53.3382 161.687 53.3382 162.378Z" fill="white"/>
<path d="M49.8672 111.25C60.152 111.25 68.4892 119.584 68.4893 129.87C68.4893 132.412 67.3353 135.512 65.5713 138.755C63.811 141.991 61.4602 145.339 59.1055 148.367C56.7515 151.395 54.3973 154.098 52.6309 156.045C51.7478 157.018 51.0119 157.802 50.4971 158.342C50.2397 158.612 50.0371 158.821 49.8994 158.963C49.8881 158.975 49.8767 158.985 49.8662 158.996C49.8559 158.986 49.8451 158.974 49.834 158.963C49.6964 158.821 49.4946 158.612 49.2373 158.342C48.7226 157.801 47.9873 157.017 47.1045 156.044C45.3385 154.097 42.9842 151.393 40.6309 148.365C38.2768 145.337 35.9277 141.989 34.168 138.753C32.4043 135.51 31.25 132.41 31.25 129.87C31.25 119.589 39.5876 111.25 49.8672 111.25ZM49.8672 118.936C43.8492 118.936 38.9727 123.813 38.9727 129.832C38.9727 135.851 43.8492 140.729 49.8672 140.729C55.885 140.728 60.7666 135.851 60.7666 129.832C60.7666 123.813 55.885 118.936 49.8672 118.936Z" fill="#F17228" stroke="black" stroke-width="0.5"/>
<path d="M391.448 50.8968C391.497 50.2532 391.536 49.6097 391.536 48.9564C391.536 35.2755 380.449 24.1885 366.768 24.1885C353.087 24.1885 342 35.2755 342 48.9564C342 49.6097 342.029 50.2532 342.088 50.8968H391.458H391.448Z" fill="#F1EFE9"/>
<path d="M472.821 50.8968C472.87 50.2532 472.909 49.6097 472.909 48.9564C472.909 35.2755 461.822 24.1885 448.141 24.1885C434.46 24.1885 423.373 35.2755 423.373 48.9564C423.373 49.6097 423.402 50.2532 423.451 50.8968H472.821Z" fill="#F1EFE9"/>
<path d="M493.893 50.8971C493.961 50.2633 494 49.61 494 48.9566C494 39.2835 486.16 31.4436 476.487 31.4436C466.814 31.4436 458.974 39.2835 458.974 48.9566C458.974 49.61 459.013 50.2633 459.081 50.8971H493.893Z" fill="#F1EFE9"/>
<path d="M444.328 50.8955C444.523 49.3841 444.62 47.8434 444.62 46.2833C444.62 26.2447 428.375 9.99927 408.337 9.99927C388.298 9.99927 372.052 26.2447 372.052 46.2833C372.052 47.8434 372.15 49.3841 372.345 50.8955H444.328Z" fill="#F1EFE9"/>
<path d="M200.497 48.4939C200.47 48.1437 200.453 47.788 200.453 47.4269C200.453 39.9035 206.554 33.8027 214.078 33.8027C221.601 33.8027 227.702 39.9035 227.702 47.4269C227.702 47.788 227.685 48.1437 227.658 48.4939H200.503H200.497Z" fill="#F1EFE9"/>
<path d="M155.745 48.4939C155.718 48.1437 155.702 47.788 155.702 47.4269C155.702 39.9035 161.802 33.8027 169.326 33.8027C176.849 33.8027 182.95 39.9035 182.95 47.4269C182.95 47.788 182.934 48.1437 182.906 48.4939H155.751H155.745Z" fill="#F1EFE9"/>
<path d="M171.416 48.4928C171.312 47.6612 171.258 46.8131 171.258 45.954C171.258 34.9344 180.193 25.9993 191.212 25.9993C202.232 25.9993 211.167 34.9344 211.167 45.954C211.167 46.8131 211.112 47.6612 211.008 48.4928H171.416Z" fill="#F1EFE9"/>
<path d="M143.261 100.499C145.732 100.499 147.736 102.502 147.736 104.973V134.504C147.736 136.975 145.732 138.979 143.261 138.979H92.6753C90.2045 138.979 88.2017 136.975 88.2017 134.504V104.973L88.2075 104.743C88.3272 102.379 90.2816 100.499 92.6753 100.499H143.261Z" fill="white" stroke="#120F0F"/>
<path d="M99.8669 128.195L100.43 129.926H102.25L100.778 130.996L101.339 132.727L99.8669 131.657L98.3951 132.727L98.9558 130.996L97.4839 129.926H99.3039L99.8669 128.195Z" fill="#F17228"/>
<path d="M108.815 128.194L109.378 129.926H111.198L109.726 130.996L110.289 132.727L108.815 131.657L107.343 132.727L107.906 130.996L106.434 129.926H108.254L108.815 128.194Z" fill="#F17228"/>
<path d="M117.766 128.194L118.329 129.926H120.149L118.674 130.996L119.237 132.727L117.766 131.657L116.291 132.727L116.854 130.996L115.383 129.926H117.203L117.766 128.194Z" fill="#F17228"/>
<path d="M126.714 128.194L127.277 129.926H129.097L127.625 130.996L128.188 132.727L126.714 131.657L125.242 132.727L125.805 130.996L124.331 129.926H126.151L126.714 128.194Z" fill="#F17228"/>
<path d="M135.664 128.194L136.225 129.926H138.047L136.573 130.996L137.136 132.727L135.664 131.657L134.19 132.727L134.753 130.996L133.281 129.926H135.101L135.664 128.194Z" fill="#F17228"/>
<path d="M137.019 110.295H124.403C123.835 110.295 123.377 109.835 123.377 109.27C123.377 108.702 123.837 108.244 124.403 108.244H137.019C137.587 108.244 138.045 108.704 138.045 109.27C138.045 109.837 137.584 110.295 137.019 110.295Z" fill="#538D33"/>
<path d="M137.019 114.781H120.66C120.092 114.781 119.635 114.321 119.635 113.756C119.635 113.188 120.095 112.73 120.66 112.73H137.019C137.587 112.73 138.045 113.19 138.045 113.756C138.045 114.323 137.584 114.781 137.019 114.781Z" fill="#538D33"/>
<path d="M137.019 119.266H120.66C120.092 119.266 119.635 118.806 119.635 118.241C119.635 117.673 120.095 117.215 120.66 117.215H137.019C137.587 117.215 138.045 117.675 138.045 118.241C138.045 118.808 137.584 119.266 137.019 119.266Z" fill="#538D33"/>
<path d="M137.019 123.752H120.66C120.092 123.752 119.635 123.292 119.635 122.727C119.635 122.159 120.095 121.701 120.66 121.701H137.019C137.587 121.701 138.045 122.161 138.045 122.727C138.045 123.295 137.584 123.752 137.019 123.752Z" fill="#538D33"/>
<path d="M112.649 107.504H98.0867C96.9821 107.504 96.0867 108.399 96.0867 109.504V122.204C96.0867 123.308 96.9821 124.204 98.0867 124.204H112.649C113.753 124.204 114.649 123.308 114.649 122.204V109.504C114.649 108.399 113.753 107.504 112.649 107.504Z" fill="#538D33"/>
<path d="M285.1 187.334C284.214 183.767 282.519 169.899 282.721 164.937C282.923 159.974 283.626 155.901 285.857 152.887C288.089 149.873 291.231 148.215 291.231 148.215C296.893 149.755 299.707 153.349 301.194 163.783C302.112 170.223 303.641 180.561 303.641 180.561C303.641 180.561 312.085 183.607 316.825 185.832C319.506 187.085 320.05 189.513 320.05 189.513L318.966 198.699C318.966 198.699 317.579 200.904 313.489 200.625C308.809 200.308 297.869 197.268 293.281 195.861C288.692 194.455 286.717 193.833 285.105 187.34L285.1 187.334Z" fill="white" stroke="#303030" stroke-linecap="round" stroke-linejoin="round"/>
<path d="M316.991 188.886C327.185 188.078 329.057 189.871 329.672 192.657C330.287 195.443 330.935 197.536 326.294 197.687C321.66 197.838 316.564 197.632 316.564 197.632C316.564 197.632 313.084 194.082 316.984 188.891L316.991 188.886Z" fill="#FFC4B0"/>
<path opacity="0.2" d="M316.991 188.886C327.185 188.078 329.057 189.871 329.672 192.657C330.287 195.443 330.935 197.536 326.294 197.687C321.66 197.838 316.564 197.632 316.564 197.632C316.564 197.632 313.084 194.082 316.984 188.891L316.991 188.886Z" fill="#FFC4B0"/>
<path d="M308.422 197.034C310.417 198.561 313.68 198.014 315.467 196.938C317.228 196.609 316.14 194.826 315.362 193.947C312.754 190.71 304.732 194.2 308.429 197.029L308.422 197.034Z" fill="#FFC4B0"/>
<path opacity="0.2" d="M308.422 197.034C310.417 198.561 313.68 198.014 315.467 196.938C317.228 196.609 316.14 194.826 315.362 193.947C312.754 190.71 304.732 194.2 308.429 197.029L308.422 197.034Z" fill="#303030"/>
<path d="M303.475 180.606C300.566 179.755 298.279 179.354 296.37 179.612" stroke="#303030" stroke-linecap="round" stroke-linejoin="round"/>
<path d="M317.962 224.122C320.347 213.758 318.855 209.703 310.957 204.986C303.292 200.405 289.721 196.419 268.885 188.303L244.166 184.37C237.689 195.963 238.668 204.526 247.552 211.28C258.53 219.625 284.91 222.552 288.859 223.274C294.638 224.334 296.496 224.63 298.853 225.005C298.239 226.049 297.565 227.3 296.922 228.708C295.323 232.224 294.555 241.084 293.929 244.895C292.512 253.599 292.542 255.454 291.079 259.448C290.497 261.03 288.436 262.189 287.681 264.698C287.311 265.933 286.973 267.759 287.774 269.251C288.427 270.467 289.643 271.199 291.029 271.461C294.57 272.13 298.197 272.262 301.658 273.31C303.75 273.942 305.737 274.902 307.789 275.673C309.698 276.393 311.663 276.951 313.653 277.338C315.843 277.769 318.095 277.975 320.28 277.737C322.002 277.548 325.169 277.104 325.608 275.2C325.997 273.523 323.902 272.645 322.597 271.999C319.049 270.246 315.558 268.32 312.366 265.991C309.18 263.669 305.374 260.493 306.522 256.654C307.413 253.669 308.321 252.045 310.908 246.976C313.488 241.906 316.184 231.861 317.968 224.123L317.962 224.122Z" fill="#FFC4B0"/>
<path d="M303.49 222.599C301.964 223.281 300.376 223.918 298.761 224.205" stroke="#303030" stroke-linecap="round" stroke-linejoin="round"/>
<path d="M292.13 248.965C291.377 249.038 291.154 249.322 291.094 250.769C291.033 252.216 290.609 256.416 289.028 259.004C287.446 261.592 286.081 263.855 285.896 266.931C285.711 270.007 287.188 271.942 291.663 272.843C296.137 273.743 297.509 272.991 300.24 273.859C302.971 274.727 307.703 277.421 314.661 278.18C321.619 278.94 324.214 277.012 324.698 275.405C325.184 273.793 324.134 272.698 320.999 271.324C317.864 269.951 313.511 267.77 310.934 265.44C308.358 263.111 306.497 261.359 305.98 260.064C305.463 258.769 305.96 257.112 306.68 255.548C307.482 253.806 308.14 252.569 307.161 252.089L306.618 253.234C306.618 253.234 305.136 255.118 298.484 253.942C293.31 253.024 291.893 250.559 291.893 250.559L292.135 248.972L292.13 248.965Z" fill="#303030"/>
<path d="M311.182 276.616L321.688 278.309C323.701 278.634 325.437 277.365 325.475 276.703C325.642 273.799 324.512 272.35 320.128 270.509C317.46 269.388 315.946 268.568 313.721 266.896C311.145 264.961 306.668 260.502 305.647 259.451C304.324 258.08 300.689 257.679 298.676 259.767L311.182 276.61L311.182 276.616Z" fill="#74CA45"/>
<path d="M311.407 277.025C311.367 275.41 311.181 272.468 311.061 270.845C311.031 270.454 310.997 270.051 310.783 269.705C310.664 269.507 310.492 269.341 310.319 269.174C306.924 265.91 303.204 262.952 299.227 260.366C298.561 259.936 297.835 259.496 297.052 259.502C296.429 259.511 295.879 259.803 295.354 260.087C294.383 260.617 292.899 261.877 290.814 261.465C288.741 261.062 289.626 258.615 289.626 258.615C289.626 258.615 289.831 257.835 290.082 256.913C288.636 256.524 288.445 257.122 288.128 257.803C287.667 258.789 287.39 260.048 286.646 262.385C286.105 264.079 285.716 264.201 285.047 270.148C285.141 272.377 287.437 273.157 291.054 273.741L311.413 277.026L311.407 277.025Z" fill="#74CA45"/>
<path d="M308.938 269.789C310.479 268.394 314.041 267.206 316.501 268.399" stroke="#303030" stroke-linecap="round" stroke-linejoin="round"/>
<path d="M312.598 265.922C311.294 266.354 310.513 267.052 309.531 268.222" stroke="#303030" stroke-linecap="round" stroke-linejoin="round"/>
<path d="M313.742 266.892C312.197 266.603 309.961 266.672 306.196 266.668" stroke="#303030" stroke-linecap="round" stroke-linejoin="round"/>
<path d="M309.833 263.481C308.53 263.913 307.878 264.462 306.896 265.631" stroke="#303030" stroke-linecap="round" stroke-linejoin="round"/>
<path d="M310.971 264.454C309.427 264.165 307.19 264.233 303.426 264.23" stroke="#303030" stroke-linecap="round" stroke-linejoin="round"/>
<path d="M307.172 260.732C305.865 261.165 304.98 262.171 303.995 263.343" stroke="#303030" stroke-linecap="round" stroke-linejoin="round"/>
<path d="M308.201 262.015C306.656 261.726 304.419 261.795 300.655 261.791" stroke="#303030" stroke-linecap="round" stroke-linejoin="round"/>
<path d="M286.331 263.721C286.629 264.235 287.024 264.691 287.56 265.049C288.631 265.772 289.973 266.1 291.229 265.942C293.2 265.693 294.856 264.324 296.867 264.372C298.328 264.406 299.691 265.198 300.931 265.999C303.221 267.479 306.782 270.135 307.191 270.906C307.6 271.676 307.752 273.913 307.9 276.07" stroke="#303030" stroke-linecap="round" stroke-linejoin="round"/>
<path d="M323.232 281.006C321.416 281.164 311.667 279.65 311.667 279.65L291.729 276.684C288.018 276.131 286.055 275.732 285.241 274.439C284.766 273.678 284.584 272.538 284.951 270.81C286.35 272.238 285.916 272.522 292.259 273.465C298.603 274.409 314.071 276.753 317.442 277.212C319.785 277.528 323.392 278.348 325.068 277.158C325.546 277.893 325.998 280.77 323.232 281.006Z" fill="white" stroke="#303030" stroke-linecap="round" stroke-linejoin="round"/>
<path d="M311.489 246.596L311.585 247.091L311.586 247.092L311.587 247.091C311.588 247.091 311.589 247.091 311.591 247.09C311.594 247.09 311.598 247.089 311.603 247.088C311.612 247.086 311.625 247.084 311.64 247.081C311.671 247.075 311.714 247.066 311.766 247.053C311.872 247.026 312.02 246.984 312.199 246.92C312.557 246.793 313.043 246.578 313.569 246.223C314.629 245.51 315.836 244.242 316.502 242.034C317.009 240.362 317.215 237.699 317.44 234.986C317.669 232.233 317.917 229.394 318.485 227.247L318.486 227.248C320.075 221.21 321.149 216.427 319.828 211.882L319.692 211.443L319.569 211.085C318.936 209.311 317.974 207.752 316.206 206.131C314.571 204.632 312.252 203.084 308.883 201.255L307.374 200.453C303.152 198.254 295.426 195.234 288.783 192.771C285.456 191.538 282.39 190.442 280.157 189.653C279.041 189.259 278.132 188.942 277.502 188.723C277.187 188.614 276.942 188.529 276.776 188.472C276.693 188.443 276.629 188.421 276.586 188.406C276.565 188.399 276.549 188.393 276.538 188.389C276.533 188.387 276.528 188.386 276.526 188.385C276.524 188.385 276.523 188.385 276.522 188.385L276.522 188.384C276.522 188.384 276.522 188.384 276.375 188.859L276.521 188.384L276.479 188.369L244.386 183.49L244.214 183.715C238.699 190.937 237.084 200.551 242.807 208.1L243.031 208.387C245.395 211.343 249.364 213.874 253.278 215.838C257.334 217.873 261.405 219.333 263.753 220.043L264.819 220.353C270.275 221.885 277.554 223.144 283.595 224.034C286.821 224.509 289.702 224.881 291.777 225.134C292.815 225.26 293.652 225.357 294.229 225.422C294.354 225.436 294.467 225.448 294.567 225.459C294.515 225.736 294.445 226.103 294.362 226.527C294.176 227.479 293.927 228.718 293.675 229.87C293.41 231.069 293.022 232.425 292.654 234.169L292.499 234.941C292.296 235.991 291.996 237.078 292.011 238.169C292.027 239.311 292.376 240.469 293.403 241.759L293.403 241.76C296.005 245.034 300.611 246.339 304.439 246.851C306.372 247.109 308.145 247.171 309.434 247.168C310.08 247.167 310.605 247.149 310.97 247.131C311.153 247.122 311.296 247.114 311.393 247.108C311.442 247.104 311.48 247.102 311.505 247.1C311.518 247.099 311.527 247.098 311.534 247.097C311.537 247.097 311.54 247.097 311.542 247.097L311.545 247.096L311.489 246.596ZM311.489 246.596L311.546 247.096L311.565 247.095L311.584 247.091L311.489 246.596Z" fill="#74CA45" stroke="#303030"/>
<path d="M240.747 302.785C253.632 293.147 255.574 274.225 245.084 260.521C234.594 246.818 215.645 243.522 202.759 253.161C189.874 262.799 187.932 281.721 198.422 295.425C208.912 309.128 227.862 312.423 240.747 302.785Z" fill="black" stroke="#303030" stroke-linecap="round" stroke-linejoin="round"/>
<path d="M245.219 303.259C258.035 293.53 259.848 274.592 249.268 260.959C238.689 247.325 219.723 244.16 206.907 253.889C194.091 263.617 192.279 282.556 202.858 296.189C213.438 309.822 232.403 312.988 245.219 303.259Z" fill="#3C3836" stroke="#303030" stroke-linecap="round" stroke-linejoin="round"/>
<path d="M239.166 295.798C248.115 289.155 249.505 276.055 242.272 266.539C235.038 257.022 221.919 254.694 212.97 261.337C204.021 267.981 202.63 281.081 209.864 290.597C217.098 300.113 230.216 302.442 239.166 295.798Z" fill="#F1EFE9" stroke="#303030" stroke-linecap="round" stroke-linejoin="round"/>
<path d="M232.236 286.32C236.236 283.216 236.719 277.224 233.316 272.937C229.914 268.649 223.913 267.69 219.914 270.794C215.915 273.898 215.431 279.89 218.834 284.178C222.236 288.465 228.237 289.424 232.236 286.32Z" fill="#D1D1D1"/>
<path d="M229.984 279.223C229.764 281.237 227.829 282.579 225.67 282.216C223.51 281.852 221.933 279.92 222.153 277.906C222.373 275.893 224.307 274.551 226.467 274.914C228.626 275.277 230.204 277.21 229.984 279.223Z" fill="#F17228"/>
<path d="M226.874 284.319C219.119 284.962 216.648 274.42 223.991 272.592C227.66 271.64 232.02 274.577 232.141 278.265C231.196 273.508 224.64 271.44 221.607 275.011C218.483 278.507 221.808 284.304 226.874 284.319Z" fill="#F17228"/>
<path d="M224.804 279.3C224.991 279.504 225.182 279.673 225.405 279.831C226.041 280.276 226.795 280.491 227.544 280.469C237.482 280.096 253.588 276.725 259.076 275.511L258.61 261.702C246.16 269.384 231.931 273.408 226.324 274.423L226.322 274.434C225.868 274.528 225.421 274.709 225.036 275.01C223.716 276.049 223.612 277.973 224.81 279.301L224.804 279.3Z" fill="#F17228" stroke="#303030" stroke-linecap="round" stroke-linejoin="round"/>
<path d="M228.301 278.532C228.23 279.174 227.616 279.611 226.926 279.498C226.236 279.385 225.739 278.772 225.811 278.124C225.883 277.477 226.497 277.046 227.186 277.159C227.876 277.272 228.373 277.885 228.301 278.532Z" fill="#303030"/>
<path d="M382.449 321.681C395.264 311.953 397.077 293.014 386.498 279.381C375.918 265.748 356.953 262.582 344.137 272.311C331.321 282.04 329.508 300.978 340.088 314.612C350.667 328.245 369.633 331.41 382.449 321.681Z" fill="black" stroke="#303030" stroke-linecap="round" stroke-linejoin="round"/>
<path d="M386.609 322.365C399.495 312.726 401.436 293.804 390.946 280.101C380.457 266.397 361.507 263.102 348.622 272.74C335.737 282.379 333.795 301.301 344.285 315.004C354.775 328.707 373.724 332.003 386.609 322.365Z" fill="#3C3836" stroke="#303030" stroke-linecap="round" stroke-linejoin="round"/>
<path d="M380.551 314.92C389.569 308.369 391.09 295.287 383.948 285.701C376.806 276.114 363.706 273.654 354.687 280.205C345.669 286.756 344.148 299.838 351.29 309.424C358.432 319.01 371.533 321.471 380.551 314.92Z" fill="#F1EFE9" stroke="#303030" stroke-linecap="round" stroke-linejoin="round"/>
<path d="M373.683 305.392C377.722 302.34 378.28 296.356 374.929 292.028C371.577 287.7 365.586 286.665 361.546 289.718C357.506 292.77 356.948 298.753 360.3 303.082C363.651 307.41 369.643 308.444 373.683 305.392Z" fill="#D1D1D1"/>
<path d="M371.53 298.226C371.31 300.239 369.376 301.581 367.216 301.218C365.057 300.855 363.48 298.922 363.7 296.909C363.919 294.895 365.854 293.554 368.013 293.917C370.173 294.28 371.75 296.212 371.53 298.226Z" fill="#F17228"/>
<path d="M368.42 303.32C360.665 303.963 358.194 293.422 365.537 291.593C369.206 290.641 373.567 293.578 373.688 297.266C372.742 292.509 366.186 290.441 363.154 294.012C360.029 297.509 363.355 303.305 368.42 303.32Z" fill="#F17228"/>
<path d="M368.577 300.241C368.3 300.254 368.038 300.246 367.773 300.203C366.998 300.075 366.295 299.695 365.768 299.144C358.739 291.767 349.256 277.783 346.07 272.972L355.952 263.161C359.78 277.708 367.43 290.826 370.842 295.58L370.828 295.59C371.104 295.982 371.304 296.438 371.381 296.933C371.63 298.638 370.38 300.132 368.583 300.242L368.577 300.241Z" fill="#F17228" stroke="#303030" stroke-linecap="round" stroke-linejoin="round"/>
<path d="M368.635 297.372C368.564 298.013 367.95 298.449 367.26 298.336C366.57 298.222 366.073 297.61 366.145 296.962C366.217 296.315 366.83 295.885 367.52 295.998C368.209 296.112 368.707 296.724 368.635 297.372Z" fill="#303030"/>
<path d="M339.864 278.136C341.298 279.724 343.8 279.902 345.252 278.508C350.848 273.125 358.857 269.801 368.054 271.274C375.871 272.526 380.447 274.6 382.469 275.717C383.335 276.193 384.344 276.332 385.279 276.099L389.407 275.082C391.805 274.49 392.697 271.807 391.145 269.846C388.051 265.949 382.218 260.545 373.108 259.446C360.76 257.948 352.582 259.618 344.623 267.613C342.505 269.74 340.796 271.944 339.426 274.133C338.655 275.368 338.823 276.97 339.87 278.137L339.864 278.136Z" fill="#F17228" stroke="#303030"/>
<path d="M362.941 259.256C355.899 259.818 350.253 262.391 344.712 268.027C342.561 270.212 340.825 272.477 339.433 274.727C338.649 275.996 338.819 277.644 339.882 278.844C340.28 279.29 340.755 279.614 341.271 279.845L362.934 259.255L362.941 259.256Z" fill="#303030"/>
<path d="M373.56 261.705C378.678 261.98 385.643 266.119 388.858 270.539" stroke="#F17228" stroke-linecap="round" stroke-linejoin="round"/>
<path d="M345.483 212.025L344.147 208.194C343.679 206.849 342.17 206.043 340.756 206.377L334.296 207.894C332.857 208.235 332.055 209.622 332.495 210.997L334.236 216.408L362.161 221.489L362.66 217.173C362.66 217.173 358.403 214.063 345.488 212.037L345.483 212.025Z" fill="#303030" stroke="#303030" stroke-linecap="round" stroke-linejoin="round"/>
<path d="M348.123 209.19L346.536 213.912C348.992 214.34 351.302 214.967 353.449 215.83L355.616 210.549C352.979 210.15 350.286 209.805 348.123 209.19Z" fill="#303030"/>
<path d="M336.534 197.655L334.105 198.284L337.383 209.514L339.813 208.885L336.534 197.655Z" fill="#303030" stroke="#303030" stroke-linecap="round" stroke-linejoin="round"/>
<path d="M210.679 228.611L204.37 224.393L200.624 232.163L204.358 233.296L210.679 228.611Z" fill="#303030" stroke="#303030" stroke-linecap="round" stroke-linejoin="round"/>
<path d="M198.477 228.107L199.855 225.265C200.544 223.839 202.377 223.323 203.884 224.126L204.54 224.473L200.742 232.326L199.855 231.854C198.437 231.101 197.836 229.446 198.484 228.108L198.477 228.107Z" fill="#D1D1D1" stroke="#303030" stroke-linecap="round" stroke-linejoin="round"/>
<path d="M313.281 279.912L273.012 274.13L272.652 277.1L312.921 282.882L313.281 279.912Z" fill="#303030" stroke="#303030" stroke-linecap="round" stroke-linejoin="round"/>
<path d="M261.579 275.599L253.151 258.36L278.134 246.402L274.555 277.65L261.579 275.599Z" fill="#303030" stroke="#303030" stroke-linecap="round" stroke-linejoin="round"/>
<path d="M373.819 254.521L364.911 252.407C361.667 251.635 359.441 248.655 359.795 245.547C360.149 242.445 362.965 240.259 366.266 240.526L375.331 241.264C378.045 246.19 377.542 250.605 373.82 254.515L373.819 254.521Z" fill="#303030"/>
<path d="M372.887 252.932C375.946 249.783 376.359 246.224 374.125 242.261C371.999 245.554 371.586 249.113 372.887 252.932Z" fill="#F17228"/>
<path d="M202.25 246.295L202.533 246.559C202.975 246.972 203.015 247.654 202.622 248.078L187.987 263.852C187.593 264.276 186.912 264.285 186.47 263.872L186.187 263.608C185.745 263.195 185.705 262.513 186.099 262.089L200.734 246.315C201.127 245.891 201.808 245.882 202.25 246.295Z" fill="#303030" stroke="#303030" stroke-linecap="round" stroke-linejoin="round"/>
<path d="M226.373 231.315C226.116 231.274 225.866 231.128 225.711 230.903L208.897 206.638C208.609 206.221 208.715 205.678 209.135 205.421C209.555 205.17 210.13 205.303 210.425 205.721L227.238 229.986C227.527 230.403 227.421 230.946 227.001 231.202C226.814 231.314 226.592 231.35 226.379 231.316L226.373 231.315Z" fill="#303030" stroke="#303030" stroke-linecap="round" stroke-linejoin="round"/>
<path d="M214.89 229.773C214.634 229.733 214.383 229.587 214.228 229.362L197.414 205.097C197.126 204.68 197.232 204.137 197.652 203.88C198.072 203.629 198.648 203.762 198.942 204.18L215.756 228.445C216.044 228.862 215.938 229.404 215.518 229.661C215.331 229.773 215.11 229.808 214.896 229.774L214.89 229.773Z" fill="#303030" stroke="#303030" stroke-linecap="round" stroke-linejoin="round"/>
<path d="M185.3 201.343L223.547 206.808C224.369 206.925 224.966 207.603 224.879 208.321C224.792 209.038 224.054 209.525 223.232 209.408L184.985 203.943C184.164 203.825 183.567 203.148 183.654 202.43C183.741 201.713 184.479 201.225 185.3 201.343Z" fill="#303030" stroke="#303030" stroke-linecap="round" stroke-linejoin="round"/>
<path d="M214.324 204.982L177.204 198.895C175.701 198.649 174.631 197.095 174.817 195.42L178.715 160.383C178.901 158.713 180.273 157.554 181.775 157.8L218.896 163.887C220.398 164.133 221.469 165.687 221.283 167.363L217.385 202.399C217.199 204.069 215.826 205.228 214.324 204.982Z" fill="#303030" stroke="#303030" stroke-linecap="round" stroke-linejoin="round"/>
<path d="M228.393 206.871L191.272 200.784C189.77 200.538 188.699 198.984 188.885 197.308L192.783 162.272C192.969 160.602 194.342 159.443 195.844 159.689L232.965 165.776C234.467 166.022 235.537 167.576 235.351 169.251L231.453 204.288C231.267 205.958 229.895 207.117 228.393 206.871Z" fill="#74CA45" stroke="#303030" stroke-linecap="round" stroke-linejoin="round"/>
<path d="M215.785 161.395L179.234 155.636C177.755 155.403 176.704 153.893 176.89 152.26L178.168 141.078C178.354 139.45 179.708 138.314 181.187 138.547L217.738 144.306C219.217 144.539 220.269 146.048 220.082 147.682L218.804 158.864C218.618 160.492 217.264 161.628 215.785 161.395Z" fill="#303030" stroke="#303030" stroke-linecap="round" stroke-linejoin="round"/>
<path d="M227.642 162.987L191.092 157.228C189.613 156.995 188.561 155.485 188.748 153.852L190.026 142.67C190.212 141.042 191.566 139.906 193.045 140.139L229.595 145.898C231.074 146.131 232.126 147.641 231.939 149.274L230.661 160.456C230.475 162.084 229.121 163.22 227.642 162.987Z" fill="#538D33" stroke="#303030" stroke-linecap="round" stroke-linejoin="round"/>
<path d="M215.178 142.075L217.785 142.444C219.539 142.693 220.815 144.139 220.625 145.679L213.259 205.455" stroke="#F17228" stroke-linecap="round" stroke-linejoin="round"/>
<path d="M211.511 141.582L214.118 141.952C215.872 142.201 217.147 143.647 216.958 145.187L209.592 204.962" stroke="#F17228" stroke-linecap="round" stroke-linejoin="round"/>
<path d="M377.103 237.708L332.19 289.547C327.03 295.504 318.831 298.291 310.539 296.905L264.146 289.148C261.404 288.678 259.433 286.209 259.729 283.61L260.885 273.478L304.854 280.458C307.843 280.933 310.716 279.607 312.084 277.137L332.336 240.374C333.418 238.407 333.689 236.085 333.099 233.847L330.767 225.065C330.137 222.687 330.554 220.171 332.091 218.33C332.934 217.319 334.14 216.435 335.863 216.049C341.042 214.903 347.872 216.168 352.877 217.856C357.881 219.544 359.792 220.969 360.345 220.076C360.891 219.181 357.756 217.065 355.34 216.121L356.009 215.176C356.009 215.176 362.863 217.526 370.011 223.859C374.293 227.653 376.516 231.271 377.606 233.564C378.279 234.974 378.096 236.575 377.114 237.716L377.103 237.708Z" fill="#F17228" stroke="#303030" stroke-linecap="round" stroke-linejoin="round"/>
<path d="M369.996 222.161C362.829 215.802 354.968 212.499 354.968 212.499L354.513 213.664C356.936 214.613 361.65 217.356 360.309 218.363C359.457 219.002 357.839 217.829 352.82 216.134C347.802 214.439 340.953 213.168 335.759 214.319C334.026 214.7 332.816 215.593 331.976 216.609C331.804 216.822 331.649 217.037 331.499 217.266C340.687 222.832 348.492 227.991 354.712 237.179C359.564 244.349 362.94 250.903 358.653 257.399L377.114 236.072C378.104 234.933 378.287 233.32 377.607 231.904C376.508 229.601 374.278 225.974 369.99 222.166L369.996 222.161Z" fill="#FFAB17"/>
<path d="M350.161 216.698C355.257 219.416 360.668 223.969 365.64 230.376C372.838 229.35 375.658 227.971 375.658 227.971" stroke="#303030" stroke-linecap="round" stroke-linejoin="round"/>
<path d="M340.818 217.896C340.766 218.346 340.342 218.648 339.867 218.573C339.393 218.498 339.051 218.074 339.103 217.624C339.154 217.174 339.579 216.871 340.053 216.946C340.528 217.021 340.869 217.446 340.818 217.896Z" fill="#303030" stroke="#303030" stroke-linecap="round" stroke-linejoin="round"/>
<path d="M345.798 218.565C345.747 219.015 345.322 219.318 344.848 219.243C344.374 219.167 344.032 218.743 344.083 218.293C344.135 217.843 344.559 217.54 345.034 217.616C345.508 217.691 345.85 218.115 345.798 218.565Z" fill="#303030" stroke="#303030" stroke-linecap="round" stroke-linejoin="round"/>
<path d="M347.048 237.515C353.459 248.901 350.209 254.377 345.811 257.982C339.423 263.217 328.609 270.702 328.609 270.702" stroke="#303030" stroke-linecap="round" stroke-linejoin="round"/>
<path d="M375.648 232.718C374.551 230.421 372.326 226.804 368.046 223.007C366.402 221.552 364.777 220.306 363.248 219.25" stroke="#F17228" stroke-linecap="round" stroke-linejoin="round"/>
<path d="M189.428 244.436L231.487 267.047C232.906 267.811 234.597 267.874 235.991 267.211L278.558 247.019C280.6 246.048 281.864 244.068 281.855 241.855L281.852 241.082C281.839 238.321 279.861 235.805 277.036 234.959L234.179 222.097C228.931 220.521 223.354 220.949 218.673 223.287L194.472 235.38C193.75 235.74 193.602 236.661 194.168 237.274L195.404 238.62L189.351 241.647C188.207 242.217 188.257 243.803 189.434 244.436L189.428 244.436Z" fill="#F17228" stroke="#303030" stroke-linecap="round" stroke-linejoin="round"/>
<path d="M196.947 243.408L235.526 263.952" stroke="#303030" stroke-linecap="round" stroke-linejoin="round"/>
<path d="M281.857 240.745C281.844 238.006 279.871 235.512 277.051 234.674L234.295 221.929C229.06 220.367 223.496 220.794 218.826 223.113L194.685 235.111C193.965 235.468 193.817 236.382 194.382 236.989L195.616 238.323L217.434 227.484C218.959 226.727 220.692 226.379 222.454 226.476C223.979 226.558 225.471 226.973 226.838 227.682C231.526 230.125 242.964 236.095 248.462 238.983C263.13 246.689 261.127 254.861 252.133 259.102L278.579 246.628C280.622 245.666 281.876 243.701 281.867 241.506L281.864 240.74L281.857 240.745Z" fill="#FFAB17" stroke="#F17228" stroke-linecap="round" stroke-linejoin="round"/>
<path d="M222.748 217.228L283.852 235.005C285.806 235.574 287.753 234.437 287.968 232.605L288.954 224.218C289.149 222.561 287.836 220.993 286.024 220.719L223.934 211.327C222.123 211.053 220.494 212.177 220.299 213.834C220.124 215.322 221.171 216.772 222.754 217.229L222.748 217.228Z" fill="#303030" stroke="#303030" stroke-linecap="round" stroke-linejoin="round"/>
<path d="M231.947 224.165L275.321 236.527" stroke="#F17228" stroke-linecap="round" stroke-linejoin="round"/>
<path d="M249.315 235.064C260.633 238.716 270.703 241.9 272.917 242.785C275.131 243.671 276.757 246.783 272.21 248.901" stroke="#303030" stroke-linecap="round" stroke-linejoin="round"/>
<path d="M351.525 190.052C343.746 189.165 336.995 190.018 336.166 197.934C335.337 205.844 343.981 207.967 350.917 209.196C359.657 210.749 364.855 210.919 368.014 208.853C371.471 206.596 370.022 199.219 365.847 195.433C362.456 192.361 357.808 190.768 351.525 190.052Z" fill="#F17228" stroke="#F17228" stroke-linecap="round" stroke-linejoin="round"/>
<path d="M361.681 192.265C361.288 192.357 360.926 192.502 360.618 192.726C359.75 193.349 359.513 194.54 359.712 195.599C360.416 199.314 364.22 203.086 362.982 206.934C362.493 208.466 361.069 209.559 359.5 210.112C359.342 210.17 359.18 210.216 359.024 210.263C363.055 210.52 365.89 210.089 367.912 208.764C371.447 206.449 369.967 198.876 365.699 194.99C364.517 193.912 363.176 193.018 361.674 192.27L361.681 192.265Z" fill="#FFAB17"/>
<path d="M341.481 193.164C346.046 191.637 351.231 191.634 355.982 193.16C356.202 193.229 356.433 193.312 356.566 193.491C356.706 193.67 356.759 193.906 356.734 194.123C356.285 198.048 357.636 199.1 359.386 202.534C360.356 204.44 360.169 206.071 358.637 207.134" stroke="#303030" stroke-linecap="round" stroke-linejoin="round"/>
<path d="M260.514 282.602C264.384 283.218 267.861 280.744 268.278 277.077C268.696 273.409 265.896 269.936 262.025 269.32C258.155 268.704 254.678 271.178 254.261 274.845C253.843 278.513 256.643 281.986 260.514 282.602Z" fill="#F17228" stroke="#303030" stroke-linecap="round" stroke-linejoin="round"/>
<path d="M264.719 276.51C264.514 278.315 262.802 279.533 260.897 279.23C258.993 278.927 257.614 277.217 257.82 275.412C258.025 273.608 259.737 272.39 261.642 272.693C263.546 272.996 264.925 274.706 264.719 276.51Z" fill="#F9F8F6" stroke="#F17228" stroke-linecap="round" stroke-linejoin="round"/>
<path d="M219.918 227.053C223.003 227.544 225.773 225.573 226.106 222.651C226.439 219.728 224.208 216.961 221.123 216.47C218.039 215.979 215.268 217.95 214.936 220.873C214.603 223.795 216.834 226.562 219.918 227.053Z" fill="white" stroke="#303030" stroke-linecap="round" stroke-linejoin="round"/>
<path d="M223.271 222.2C223.107 223.641 221.745 224.61 220.224 224.368C218.703 224.126 217.607 222.765 217.771 221.324C217.935 219.883 219.297 218.914 220.818 219.156C222.339 219.399 223.435 220.759 223.271 222.2Z" fill="#F17228" stroke="#F17228" stroke-linecap="round" stroke-linejoin="round"/>
<path d="M327.703 198.551L328.095 195.196L340.655 197.113C341.51 197.243 342.136 197.987 342.044 198.778L341.986 199.277C341.894 200.062 341.125 200.599 340.263 200.467L327.703 198.551Z" fill="#303030" stroke="#303030" stroke-linecap="round" stroke-linejoin="round"/>
<path d="M328.336 192.182L327.94 192.121C327.326 192.027 326.775 192.409 326.71 192.975L325.829 200.536C325.763 201.102 326.207 201.637 326.82 201.732L327.216 201.793C327.83 201.887 328.38 201.505 328.446 200.939L329.327 193.378C329.393 192.812 328.949 192.277 328.336 192.182Z" fill="#F17228"/>
<path d="M313.732 192.47L326.712 194.485L326.141 199.423L313.162 197.408C312.52 197.309 312.059 196.749 312.128 196.152L312.45 193.367C312.519 192.77 313.09 192.371 313.732 192.47Z" fill="#F17228"/>
<path d="M326.712 194.171L326.007 199.423" stroke="#303030" stroke-linecap="round" stroke-linejoin="round"/>
<path d="M336.654 184.632C338.601 188.076 337.165 191.742 333.269 197.099" stroke="#303030" stroke-linecap="round" stroke-linejoin="round"/>
<path d="M334.281 179.314C334.136 179.491 334.015 179.672 333.907 179.85C333.161 181.076 332.552 182.525 332.207 183.928C331.683 186.023 332.81 188.008 335.064 186.442C336.943 185.139 342.424 178.703 338.042 177.632C336.588 177.278 335.141 178.254 334.288 179.315L334.281 179.314Z" fill="#303030" stroke="#303030" stroke-linecap="round" stroke-linejoin="round"/>
<path d="M303.891 223.615C306.361 214.76 305.587 209.028 299.245 204.788C295.207 202.084 276.367 195.559 276.367 195.559C276.367 195.559 274.767 191.54 265.234 187.825L240.527 183.888C234.035 195.515 233.693 205.114 242.534 211.967C250.561 218.19 270.644 220.479 274.597 221.203C280.39 222.267 282.253 222.564 284.615 222.94C284 223.987 283.324 225.242 282.68 226.654C281.077 230.181 280.308 239.066 279.681 242.889C278.26 251.618 278.29 253.479 276.824 257.485C276.241 259.072 274.175 260.234 273.417 262.75C273.047 263.989 272.709 265.82 273.512 267.316C274.166 268.536 275.384 269.271 276.774 269.533C280.324 270.204 283.96 270.337 287.429 271.389C289.527 272.023 291.519 272.986 293.575 273.76C295.489 274.482 297.459 275.042 299.454 275.431C301.649 275.863 303.906 276.07 306.097 275.831C307.823 275.643 310.998 275.197 311.438 273.288C311.828 271.606 309.733 270.726 308.419 270.077C304.862 268.318 301.363 266.386 298.163 264.05C294.97 261.721 291.154 258.535 292.305 254.684C293.197 251.69 294.045 249.195 296.632 244.11C299.218 239.026 301.749 231.278 303.885 223.614L303.891 223.615Z" fill="#FFC4B0"/>
<path d="M291.309 254.439C292.242 251.383 293.129 248.836 295.835 243.645C298.542 238.454 301.378 229.683 304.702 222.256" stroke="#303030" stroke-linecap="round" stroke-linejoin="round"/>
<path d="M289.344 220.7C287.818 221.381 286.23 222.018 284.615 222.305" stroke="#303030" stroke-linecap="round" stroke-linejoin="round"/>
<path d="M277.983 247.066C277.23 247.138 277.007 247.422 276.946 248.869C276.886 250.317 276.462 254.516 274.881 257.103C273.3 259.691 271.934 261.953 271.749 265.029C271.564 268.105 273.042 270.04 277.517 270.941C281.992 271.841 283.363 271.089 286.095 271.958C288.826 272.826 293.558 275.52 300.516 276.28C307.474 277.04 310.069 275.112 310.554 273.506C311.039 271.894 309.989 270.799 306.854 269.425C303.719 268.052 299.371 265.872 296.789 263.541C294.206 261.21 292.351 259.46 291.834 258.165C291.317 256.87 291.814 255.213 292.534 253.649C293.335 251.908 293.993 250.671 293.014 250.191L292.472 251.335C292.472 251.335 290.989 253.219 284.337 252.043C279.163 251.124 277.746 248.659 277.746 248.659L277.988 247.073L277.983 247.066Z" fill="#303030"/>
<path d="M297.036 274.716L307.542 276.409C309.555 276.734 311.292 275.465 311.33 274.803C311.496 271.9 310.367 270.451 305.982 268.61C303.314 267.489 301.8 266.669 299.575 264.997C296.999 263.062 292.521 258.603 291.501 257.552C290.178 256.181 286.543 255.779 284.529 257.867L297.037 274.71L297.036 274.716Z" fill="#74CA45"/>
<path d="M311.246 274.701C311.413 271.791 310.283 270.338 305.894 268.493C303.223 267.369 301.708 266.547 299.481 264.871C297.901 263.687 295.826 261.759 294.053 260.041" stroke="#303030" stroke-linecap="round" stroke-linejoin="round"/>
<path d="M297.262 275.126C297.222 273.511 297.035 270.569 296.916 268.947C296.886 268.555 296.851 268.152 296.638 267.806C296.518 267.608 296.346 267.442 296.174 267.276C292.778 264.012 289.058 261.053 285.081 258.468C284.415 258.037 283.688 257.597 282.906 257.603C282.283 257.612 281.732 257.904 281.208 258.189C280.237 258.718 278.753 259.978 276.668 259.566C274.595 259.162 275.48 256.716 275.48 256.716C275.48 256.716 275.684 255.936 275.936 255.014C274.489 254.625 274.299 255.222 273.982 255.904C273.52 256.89 273.243 258.148 272.5 260.485C271.959 262.179 271.569 262.301 270.901 268.248C270.995 270.477 273.291 271.257 276.908 271.841L297.268 275.127L297.262 275.126Z" fill="#74CA45"/>
<path d="M295.352 268.237C296.894 266.842 299.959 265.768 302.419 266.961" stroke="#303030" stroke-linecap="round" stroke-linejoin="round"/>
<path d="M298.458 264.024C297.154 264.456 296.373 265.154 295.391 266.323" stroke="#303030" stroke-linecap="round" stroke-linejoin="round"/>
<path d="M299.596 264.993C298.051 264.704 295.815 264.772 292.05 264.769" stroke="#303030" stroke-linecap="round" stroke-linejoin="round"/>
<path d="M295.687 261.582C294.384 262.014 293.732 262.563 292.75 263.732" stroke="#303030" stroke-linecap="round" stroke-linejoin="round"/>
<path d="M296.826 262.554C295.281 262.265 293.044 262.334 289.28 262.33" stroke="#303030" stroke-linecap="round" stroke-linejoin="round"/>
<path d="M293.026 258.833C291.719 259.266 290.834 260.272 289.85 261.444" stroke="#303030" stroke-linecap="round" stroke-linejoin="round"/>
<path d="M294.055 260.116C292.51 259.827 290.273 259.895 286.509 259.892" stroke="#303030" stroke-linecap="round" stroke-linejoin="round"/>
<path d="M272.185 261.822C272.482 262.336 272.878 262.791 273.414 263.15C274.484 263.872 275.826 264.2 277.082 264.042C279.054 263.794 280.71 262.425 282.721 262.473C284.182 262.507 285.545 263.299 286.785 264.1C289.075 265.58 292.636 268.236 293.045 269.007C293.455 269.777 293.606 272.014 293.754 274.171" stroke="#303030" stroke-linecap="round" stroke-linejoin="round"/>
<path d="M309.086 279.107C307.27 279.265 297.521 277.75 297.521 277.75L277.583 274.784C273.872 274.232 271.909 273.832 271.095 272.539C270.62 271.778 270.438 270.638 270.805 268.911C272.204 270.339 271.77 270.622 278.113 271.566C284.457 272.51 299.925 274.854 303.296 275.313C305.639 275.629 309.246 276.45 310.922 275.26C311.4 275.994 311.852 278.871 309.086 279.107Z" fill="white" stroke="#303030" stroke-linecap="round" stroke-linejoin="round"/>
<path d="M276.828 189.077L278.553 194.402C287.335 197.422 293.248 199.561 300.064 203.07L300.063 203.07C303.07 204.615 305.643 207.478 306.644 210.738L306.735 211.054L306.736 211.055L306.845 211.49C307.341 213.665 307.161 215.883 306.841 217.97L306.768 218.445L306.759 218.443C306.284 221.433 305.582 224.883 304.898 228.318C304.266 231.491 303.651 234.653 303.241 237.456L303.079 238.633C302.962 239.547 302.829 240.503 302.549 241.426L302.548 241.425C302.158 242.731 301.804 243.55 301.034 244.576L300.73 244.338L300.715 244.358L300.869 244.471C300.499 245.004 300.002 245.619 299.235 246.111C298.464 246.606 297.449 246.96 296.065 247.018L296.05 247.019L296.035 247.018C292.232 246.954 288.32 246.159 285.11 245C283.505 244.421 282.064 243.746 280.896 243.019C279.737 242.298 278.807 241.501 278.269 240.66L278.269 240.659L278.257 240.64C278.247 240.624 278.232 240.602 278.215 240.573C278.181 240.517 278.135 240.436 278.08 240.333C277.97 240.127 277.827 239.83 277.688 239.457C277.409 238.713 277.139 237.656 277.182 236.411L277.198 236.096C277.307 234.417 277.853 231.294 278.377 228.558C278.658 227.089 278.935 225.716 279.143 224.71C279.237 224.254 279.317 223.873 279.376 223.593C279.172 223.558 278.914 223.513 278.611 223.46C277.8 223.318 276.668 223.12 275.379 222.895C272.802 222.445 269.599 221.888 267.098 221.456L267.098 221.455C264.614 221.023 259.939 220.382 254.873 218.963C249.812 217.544 244.296 215.334 240.127 211.725L240.127 211.724C235.744 207.925 234.647 203.049 235.03 198.046C235.412 193.069 237.266 187.894 238.846 183.412L238.976 183.041L239.367 183.102L276.41 188.718L276.727 188.766L276.828 189.077Z" fill="#74CA45" stroke="#303030"/>
<path d="M283.247 215.942C281.331 217.176 279.502 220.705 278.867 223.89" stroke="#303030" stroke-linecap="round" stroke-linejoin="round"/>
<path d="M295.576 170.003C297.909 164.069 299.928 157.656 295.651 151.027C293.067 147.02 281.983 144.123 275.372 144.527C266.769 145.053 260.652 147.542 253.584 157.37C248.358 164.63 242.848 171.847 239.236 180.896C238.641 182.389 238.514 184.403 239.349 185.683C240.184 186.964 244.592 192.643 258.165 194.762C286.351 199.157 289.146 192.963 289.146 192.963C289.146 192.963 291.482 189.246 291.503 180.761C291.503 180.761 294.086 173.801 295.574 170.014L295.576 170.003Z" fill="white" stroke="#303030"/>
<path d="M281.557 139.753C281.557 139.753 273.774 138.187 270.504 138.448C267.234 138.709 266.393 140.631 266.393 140.631C266.393 140.631 262.629 141.447 258.782 144.431C253.89 148.231 258.935 151.158 258.935 151.158L277.765 144.847L281.564 139.748L281.557 139.753Z" fill="white"/>
<path d="M280.28 141.151C275.079 139.893 271.78 139.709 271.154 141.106C270.521 142.503 277.082 145.435 277.082 145.435L280.28 141.151Z" fill="#303030"/>
<path d="M279.052 150.75C269.052 143.379 260.823 149.377 258.892 151.296" stroke="#303030" stroke-linecap="round" stroke-linejoin="round"/>
<path d="M266.659 143.49C265.903 142.727 265.598 141.663 266.014 140.551" stroke="#303030" stroke-linecap="round" stroke-linejoin="round"/>
<path d="M304.181 129.396C306.132 122.661 301.969 115.345 294.883 113.053C287.797 110.762 280.472 114.364 278.522 121.098C276.571 127.833 280.734 135.15 287.82 137.441C294.905 139.732 302.231 136.13 304.181 129.396Z" fill="#303030"/>
<path d="M303.849 133.267C304.121 131.481 304.165 131.205 304.536 128.927C305.177 124.993 303.806 121.824 303.806 121.824C302.554 120.291 294.186 115.784 287.577 120.06C287.903 123.765 285.673 126.124 285.666 126.123C286.309 127.423 286.45 129.304 285.982 130.469C285.531 131.583 283.867 130.988 283.367 129.805C282.802 128.47 281.286 127.13 279.789 126.762C277.844 126.287 276.32 127.036 275.784 128.302C275.152 129.8 276.031 131.221 277.272 132.079C278.513 132.938 280.307 133.371 281.711 132.91C281.363 134.879 281.735 136.319 282.406 137.535L277.263 144.47C277.263 144.47 282.767 149.689 287.78 151.715C292.365 153.567 290.964 148.64 290.964 148.64L292.952 145.293C295.158 145.827 297.204 145.905 299.174 145.239C301.72 144.37 302.961 142.331 303.39 139.331C303.623 137.716 303.598 134.873 303.843 133.266L303.849 133.267Z" fill="#FFC4B0"/>
<path d="M292.582 136.986C293.936 138.022 295.808 138.379 297.258 138.245" stroke="#303030" stroke-linecap="round" stroke-linejoin="round"/>
<path d="M299.545 129.38C299.859 128.662 300.587 128.385 301.359 128.426C302.125 128.471 303.196 128.819 303.263 129.989C302.844 131.092 300.391 131.091 299.551 129.381L299.545 129.38Z" fill="white"/>
<path d="M302.619 130.436C302.301 130.896 301.607 130.991 301.068 130.645C300.528 130.3 300.352 129.642 300.67 129.182C300.988 128.723 301.682 128.628 302.222 128.973C302.762 129.318 302.937 129.976 302.619 130.436Z" fill="#303030"/>
<path d="M300.622 129.164L301.66 129.814L300.409 129.691L300.622 129.164Z" fill="white"/>
<path d="M303.405 129.739C303.033 128.869 302.194 128.558 301.429 128.515C300.67 128.472 299.838 128.862 299.576 129.342" stroke="#303030" stroke-linecap="round" stroke-linejoin="round"/>
<path d="M290.561 128.056C290.946 127.245 291.895 126.96 292.901 127.038C293.906 127.121 295.32 127.568 295.447 128.908C294.939 130.156 291.727 130.056 290.561 128.056Z" fill="white"/>
<path d="M294.644 129.449C294.281 129.978 293.486 130.085 292.871 129.687C292.257 129.289 292.054 128.539 292.417 128.01C292.78 127.482 293.575 127.374 294.189 127.772C294.804 128.171 295.007 128.921 294.644 129.449Z" fill="#303030"/>
<path d="M292.36 127.994L293.547 128.736L292.12 128.602L292.36 127.994Z" fill="white"/>
<path d="M295.627 128.625C295.108 127.612 293.994 127.222 292.996 127.143C291.999 127.063 290.921 127.473 290.597 128.018" stroke="#303030" stroke-linecap="round" stroke-linejoin="round"/>
<path d="M298.214 126.561C298.866 128.483 299.791 130.806 300.186 132.109C300.621 133.514 299.853 135.657 296.619 134.576" stroke="#303030" stroke-linecap="round" stroke-linejoin="round"/>
<path d="M278.264 128.981C278.65 128.827 279.54 128.834 280.367 129.23C281.195 129.625 281.808 130.402 281.938 131.214" stroke="#303030" stroke-linecap="round" stroke-linejoin="round"/>
<path d="M279.593 130.153C279.873 130.045 280.84 129.827 281.641 130.413" stroke="#303030" stroke-linecap="round" stroke-linejoin="round"/>
<path d="M290.114 125.393C291.448 124.356 293.609 124.138 295.443 124.805" stroke="#303030" stroke-linecap="round" stroke-linejoin="round"/>
<path d="M300.976 125.641C302.591 125.641 304.01 126.225 304.504 126.955" stroke="#303030" stroke-linecap="round" stroke-linejoin="round"/>
<path d="M277.159 145.065C277.159 145.065 282.772 150.374 287.488 152.056C291.017 153.313 290.982 150.965 290.755 149.699" stroke="#303030" stroke-linecap="round" stroke-linejoin="round"/>
<path d="M292.713 145.48C287.281 143.697 285.268 141.245 283.842 139.259C283.935 142.175 286.922 145.878 291.524 147.477L292.713 145.475L292.713 145.48Z" fill="#303030"/>
<path d="M275.964 133.054L279.747 136.11C281.35 137.401 283.615 137.486 285.16 136.303C286.407 135.348 286.922 133.755 286.479 132.214L285.016 127.144L288.22 122.307C288.22 122.307 299.739 120.251 306.941 124.289C306.912 113.029 292.466 105.982 282.062 111.272C271.041 116.881 273.534 127.731 274.687 131.235C274.922 131.94 275.37 132.567 275.964 133.054Z" fill="#74CA45" stroke="#303030"/>
<path d="M275.889 133.148L279.649 136.168C281.242 137.444 283.493 137.528 285.028 136.358C286.267 135.413 286.779 133.838 286.338 132.315L284.883 127.303L288.066 122.52C288.066 122.52 299.513 120.484 306.67 124.475" stroke="#303030" stroke-linecap="round" stroke-linejoin="round"/>
<path d="M282.355 133.428C282.294 133.973 281.775 134.338 281.196 134.243C280.616 134.148 280.196 133.629 280.256 133.085C280.317 132.54 280.836 132.175 281.416 132.27C281.995 132.365 282.416 132.883 282.355 133.428Z" fill="#303030"/>
<path d="M279.011 131.342C278.95 131.887 278.431 132.251 277.852 132.156C277.272 132.062 276.851 131.543 276.912 130.998C276.973 130.454 277.492 130.089 278.071 130.184C278.651 130.279 279.072 130.797 279.011 131.342Z" fill="#303030"/>
<path d="M288.222 122.148C293.804 124.333 299.817 126.74 304.975 127.357C310.132 127.975 311.575 127.031 306.657 124.006C302.653 121.181 294.268 120.991 288.222 122.148Z" fill="#303030"/>
<path d="M292.38 111.541C298.401 112.484 302.421 115.47 304.153 120.12" stroke="white" stroke-linecap="round" stroke-linejoin="round"/>
<path d="M268.806 151.7C273.809 151.782 275.306 153.43 278.057 163.516C279.828 170.006 281.586 176.608 283.331 183.323C286.62 183.772 295.26 185.613 298.539 186.137C301.638 186.633 304.73 187.127 307.827 187.639C310.621 188.104 313.496 187.919 316.316 188.057C318.585 188.171 321.083 187.84 322.905 189.22C323.567 189.725 324.373 190.532 324.88 191.686C325.3 192.641 325.511 193.644 325.574 194.653C325.603 195.099 325.549 195.567 325.271 195.906C324.942 196.307 323.85 196.605 323.526 195.996C323.499 196.666 323.458 197.345 323.167 197.949C322.871 198.547 322.279 199.046 321.564 199.061C320.855 199.076 320.101 198.464 320.166 197.789C320.013 198.374 319.732 198.945 319.231 199.296C318.729 199.647 317.976 199.725 317.44 199.361C316.606 198.794 316.726 197.64 316.857 196.708C317.193 194.363 314.579 193.776 312.959 195.14C311.972 195.972 311.668 196.591 310.569 196.999C309.509 197.394 308.505 197.358 307.116 197.08C305.733 196.798 304.756 196.307 303.108 196.25C299.776 196.136 295.7 196.386 291.641 196.378C287.896 196.373 283.822 196.67 280.092 195.883C276.525 195.134 271.152 196.719 268.335 188.12C265.218 178.597 262.634 167.637 262.634 167.637C261.847 160.863 263.555 154.001 268.808 151.683L268.806 151.7Z" fill="#FFC4B0"/>
<path d="M317.413 191.56C318.426 192.357 319.302 193.455 319.616 194.643C319.93 195.831 319.693 197.118 319.537 198.31" stroke="#303030" stroke-linecap="round" stroke-linejoin="round"/>
<path d="M319.995 189.827C320.956 190.549 321.637 191.565 322.061 192.642C322.484 193.718 322.668 194.858 322.752 195.994" stroke="#303030" stroke-linecap="round" stroke-linejoin="round"/>
<path d="M265.45 187.514C264.543 183.851 260.684 171.295 260.476 166.838C260.273 162.381 260.837 157.503 263.123 154.403C265.414 151.305 267.948 150.08 270.207 150.134C276.395 150.278 278.655 158.223 280.319 164.627C281.983 171.03 284.21 181.559 284.21 181.559C284.21 181.559 295.216 183.089 299.096 184.06C302.112 184.816 302.298 186.687 302.298 186.687L298.922 186.161C298.922 186.161 297.124 187.427 296.566 190.95C296.009 194.472 297.741 197.266 297.741 197.266L300.011 197.174C300.011 197.174 299.847 200.082 294.929 200.22C290.135 200.354 279.993 198.778 274.939 197.498C269.928 196.23 267.098 194.163 265.451 187.502L265.45 187.514Z" fill="white" stroke="#303030" stroke-linecap="round" stroke-linejoin="round"/>
<path d="M284.286 181.815C280.452 181.597 276.95 182.461 274.554 185.231" stroke="#303030" stroke-linecap="round" stroke-linejoin="round"/>
<path d="M298.252 185.976L303.425 186.792C303.425 186.792 302.097 187.806 301.331 190.802C300.566 193.797 302.079 197.008 302.079 197.008L297.055 197.15C294.971 193.441 295.542 188.461 298.246 185.975L298.252 185.976Z" fill="white" stroke="#303030" stroke-linecap="round" stroke-linejoin="round"/>
<path d="M211.669 96.6687C217.17 91.1671 226.09 91.1671 231.592 96.6687C237.094 102.17 237.094 111.09 231.592 116.592C226.09 122.094 217.17 122.094 211.669 116.592C206.167 111.09 206.167 102.17 211.669 96.6687Z" fill="#74CA45" stroke="#120F0F"/>
<path d="M220.799 113.667L214 103.046L215.142 101.838L220.775 107.167L237.805 92L238.912 93.4088L220.799 113.667Z" fill="#FFAB17"/>
<path d="M174 163.5L142 156" stroke="black" stroke-linecap="round"/>
<path d="M166 169L148 165" stroke="black" stroke-linecap="round"/>
<path d="M174 156L156 152" stroke="black" stroke-linecap="round"/>
<path d="M150 150L132 146" stroke="black" stroke-linecap="round"/>
<path d="M170.5 178.5L135 170" stroke="black" stroke-linecap="round"/>
<path d="M489 127L479.282 133.373L489.66 138.602L489 127ZM464.42 216.072L465.281 215.552L464.42 216.072ZM472.843 204.179L472.814 205.185L472.84 205.186L472.865 205.186L472.843 204.179ZM445.044 216.072L445.633 216.889L445.044 216.072ZM484.216 219.47L483.248 219.197L484.216 219.47ZM401.021 227.844C401.576 227.872 402.049 227.446 402.078 226.891C402.107 226.336 401.68 225.862 401.125 225.833L401.021 227.844ZM407.227 225.993C406.671 225.994 406.222 226.445 406.223 227.001C406.224 227.557 406.675 228.007 407.231 228.006L407.227 225.993ZM413.452 227.794C414.007 227.756 414.426 227.276 414.388 226.722C414.35 226.167 413.869 225.748 413.315 225.786L413.452 227.794ZM419.358 225.138C418.808 225.219 418.429 225.731 418.51 226.281C418.592 226.831 419.104 227.21 419.654 227.128L419.358 225.138ZM425.788 225.931C426.328 225.799 426.658 225.255 426.526 224.715C426.395 224.175 425.85 223.844 425.31 223.976L425.788 225.931ZM431.109 222.243C430.586 222.43 430.313 223.006 430.499 223.529C430.686 224.053 431.262 224.326 431.785 224.139L431.109 222.243ZM437.564 221.713C438.064 221.47 438.271 220.867 438.028 220.368C437.784 219.868 437.182 219.66 436.682 219.904L437.564 221.713ZM441.954 216.953C441.485 217.251 441.347 217.874 441.646 218.342C441.945 218.811 442.567 218.949 443.036 218.65L441.954 216.953ZM447.7 215.446C448.161 215.135 448.282 214.509 447.971 214.049C447.66 213.588 447.034 213.467 446.574 213.778L447.7 215.446ZM450.937 211.019C450.459 211.302 450.299 211.919 450.582 212.397C450.864 212.876 451.481 213.035 451.96 212.753L450.937 211.019ZM456.379 210.334C456.875 210.084 457.074 209.478 456.823 208.982C456.572 208.486 455.967 208.287 455.471 208.538L456.379 210.334ZM460.168 206.371C459.655 206.585 459.412 207.174 459.626 207.687C459.839 208.2 460.429 208.443 460.942 208.229L460.168 206.371ZM465.647 206.507C466.178 206.342 466.474 205.777 466.309 205.247C466.143 204.716 465.579 204.42 465.048 204.585L465.647 206.507ZM470.158 203.367C469.608 203.449 469.229 203.961 469.31 204.51C469.392 205.06 469.904 205.44 470.454 205.358L470.158 203.367ZM475.406 205.4C475.951 205.51 476.481 205.157 476.591 204.612C476.7 204.067 476.347 203.536 475.802 203.427L475.406 205.4ZM481.192 206.056C480.772 205.692 480.136 205.737 479.772 206.157C479.408 206.576 479.452 207.212 479.872 207.576L481.192 206.056ZM482.759 211.69C482.967 212.205 483.554 212.454 484.069 212.246C484.584 212.038 484.833 211.451 484.625 210.936L482.759 211.69ZM485.647 216.776C485.669 216.22 485.236 215.753 484.681 215.731C484.125 215.709 483.658 216.142 483.636 216.697L485.647 216.776ZM481.971 221.978C481.66 222.438 481.78 223.064 482.24 223.375C482.7 223.687 483.326 223.567 483.638 223.107L481.971 221.978ZM477.303 226.994C477.857 226.953 478.273 226.47 478.232 225.916C478.191 225.362 477.708 224.946 477.154 224.987L477.303 226.994ZM471.553 223.007C471.108 222.674 470.477 222.764 470.144 223.209C469.811 223.654 469.901 224.285 470.346 224.618L471.553 223.007ZM465.484 219.502C465.811 219.951 466.44 220.05 466.89 219.723C467.339 219.395 467.438 218.766 467.11 218.317L465.484 219.502ZM463.921 212.994C463.687 212.49 463.088 212.271 462.584 212.505C462.08 212.739 461.861 213.337 462.095 213.841L463.921 212.994ZM460.075 207.972C460.203 208.513 460.746 208.848 461.286 208.719C461.827 208.591 462.162 208.048 462.033 207.507L460.075 207.972ZM461.18 201.73C461.143 201.175 460.664 200.755 460.109 200.792C459.554 200.829 459.135 201.309 459.172 201.863L461.18 201.73ZM459.183 195.72C459.147 196.275 459.568 196.754 460.122 196.79C460.677 196.826 461.156 196.405 461.192 195.851L459.183 195.72ZM461.887 189.986C461.979 189.438 461.609 188.919 461.061 188.827C460.513 188.735 459.994 189.104 459.902 189.652L461.887 189.986ZM461.16 183.693C461.025 184.232 461.352 184.778 461.891 184.914C462.43 185.05 462.977 184.723 463.112 184.184L461.16 183.693ZM464.753 178.463C464.923 177.934 464.631 177.367 464.102 177.198C463.572 177.028 463.006 177.32 462.836 177.849L464.753 178.463ZM464.839 172.121C464.643 172.641 464.905 173.222 465.425 173.418C465.945 173.615 466.526 173.352 466.722 172.832L464.839 172.121ZM468.953 167.293C469.171 166.782 468.933 166.19 468.422 165.972C467.911 165.754 467.32 165.992 467.102 166.503L468.953 167.293ZM469.575 160.98C469.339 161.483 469.556 162.082 470.06 162.318C470.563 162.554 471.162 162.336 471.398 161.833L469.575 160.98ZM474.015 156.45C474.265 155.953 474.065 155.348 473.569 155.098C473.072 154.848 472.467 155.048 472.217 155.545L474.015 156.45ZM474.994 150.189C474.733 150.68 474.919 151.29 475.409 151.551C475.9 151.812 476.509 151.627 476.771 151.136L474.994 150.189ZM479.642 145.869C479.912 145.383 479.737 144.771 479.251 144.5C478.766 144.23 478.153 144.405 477.883 144.891L479.642 145.869ZM480.844 139.645C480.569 140.128 480.736 140.743 481.219 141.018C481.702 141.294 482.316 141.126 482.592 140.644L480.844 139.645ZM485.592 135.415C485.868 134.933 485.701 134.318 485.219 134.042C484.736 133.766 484.121 133.933 483.845 134.415L485.592 135.415ZM486.764 129.2C486.502 129.69 486.687 130.3 487.177 130.563C487.667 130.825 488.277 130.64 488.539 130.15L486.764 129.2ZM398 226.644L397.926 227.648C398.95 227.724 399.982 227.79 401.021 227.844L401.073 226.838L401.125 225.833C400.102 225.78 399.085 225.715 398.074 225.64L398 226.644ZM407.229 226.999L407.231 228.006C409.29 228.002 411.367 227.937 413.452 227.794L413.384 226.79L413.315 225.786C411.278 225.926 409.246 225.989 407.227 225.993L407.229 226.999ZM419.506 226.133L419.654 227.128C421.701 226.824 423.748 226.43 425.788 225.931L425.549 224.954L425.31 223.976C423.334 224.459 421.348 224.841 419.358 225.138L419.506 226.133ZM431.447 223.191L431.785 224.139C433.729 223.446 435.658 222.642 437.564 221.713L437.123 220.808L436.682 219.904C434.846 220.798 432.986 221.574 431.109 222.243L431.447 223.191ZM442.495 217.801L443.036 218.65C443.909 218.094 444.774 217.507 445.633 216.889L445.044 216.072L444.456 215.256C443.629 215.852 442.795 216.417 441.954 216.953L442.495 217.801ZM445.044 216.072L445.633 216.889C446.324 216.391 447.014 215.91 447.7 215.446L447.137 214.612L446.574 213.778C445.87 214.254 445.164 214.746 444.456 215.256L445.044 216.072ZM451.449 211.886L451.96 212.753C453.465 211.865 454.943 211.06 456.379 210.334L455.925 209.436L455.471 208.538C453.996 209.283 452.48 210.109 450.937 211.019L451.449 211.886ZM460.555 207.3L460.942 208.229C462.615 207.532 464.194 206.96 465.647 206.507L465.348 205.546L465.048 204.585C463.531 205.058 461.894 205.652 460.168 206.371L460.555 207.3ZM470.306 204.363L470.454 205.358C471.381 205.22 472.172 205.167 472.814 205.185L472.843 204.179L472.872 203.173C472.081 203.151 471.167 203.217 470.158 203.367L470.306 204.363ZM472.843 204.179L472.865 205.186C473.774 205.166 474.62 205.243 475.406 205.4L475.604 204.414L475.802 203.427C474.866 203.239 473.871 203.15 472.821 203.173L472.843 204.179ZM480.532 206.816L479.872 207.576C481.153 208.688 482.122 210.116 482.759 211.69L483.692 211.313L484.625 210.936C483.882 209.099 482.738 207.398 481.192 206.056L480.532 206.816ZM484.641 216.737L483.636 216.697C483.602 217.56 483.472 218.402 483.248 219.197L484.216 219.47L485.185 219.744C485.455 218.787 485.608 217.788 485.647 216.776L484.641 216.737ZM484.216 219.47L483.248 219.197C482.96 220.216 482.525 221.161 481.971 221.978L482.804 222.542L483.638 223.107C484.319 222.101 484.842 220.958 485.185 219.744L484.216 219.47ZM477.228 225.991L477.154 224.987C475.564 225.105 473.663 224.587 471.553 223.007L470.949 223.812L470.346 224.618C472.756 226.423 475.127 227.156 477.303 226.994L477.228 225.991ZM466.297 218.909L467.11 218.317C466.505 217.486 465.894 216.567 465.281 215.552L464.42 216.072L463.559 216.593C464.199 217.653 464.841 218.621 465.484 219.502L466.297 218.909ZM464.42 216.072L465.281 215.552C464.779 214.72 464.326 213.867 463.921 212.994L463.008 213.418L462.095 213.841C462.531 214.78 463.017 215.698 463.559 216.593L464.42 216.072ZM461.054 207.74L462.033 207.507C461.591 205.644 461.312 203.715 461.18 201.73L460.176 201.797L459.172 201.863C459.31 203.949 459.604 205.99 460.075 207.972L461.054 207.74ZM460.188 195.786L461.192 195.851C461.317 193.927 461.553 191.968 461.887 189.986L460.894 189.819L459.902 189.652C459.558 191.694 459.313 193.721 459.183 195.72L460.188 195.786ZM462.136 183.938L463.112 184.184C463.59 182.284 464.142 180.374 464.753 178.463L463.795 178.156L462.836 177.849C462.213 179.796 461.65 181.747 461.16 183.693L462.136 183.938ZM465.781 172.477L466.722 172.832C467.424 170.974 468.172 169.125 468.953 167.293L468.027 166.898L467.102 166.503C466.311 168.358 465.552 170.234 464.839 172.121L465.781 172.477ZM470.486 161.406L471.398 161.833C472.252 160.007 473.129 158.21 474.015 156.45L473.116 155.997L472.217 155.545C471.324 157.32 470.438 159.135 469.575 160.98L470.486 161.406ZM475.883 150.663L476.771 151.136C477.738 149.321 478.701 147.561 479.642 145.869L478.762 145.38L477.883 144.891C476.937 146.591 475.968 148.362 474.994 150.189L475.883 150.663ZM481.718 140.144L482.592 140.644C483.663 138.77 484.668 137.029 485.592 135.415L484.719 134.915L483.845 134.415C482.928 136.016 481.913 137.775 480.844 139.645L481.718 140.144Z" fill="#FFA43A"/>
<rect width="33.9277" height="34.2323" rx="8.05144" transform="matrix(0.949989 -0.312284 0.306105 0.951998 441 164.595)" fill="#FC8A06"/>
<g clip-path="url(#clip1_256_4618)">
<path fill-rule="evenodd" clip-rule="evenodd" d="M465.103 167.34C467.241 167.149 468.377 168.064 469.847 169.355L466.142 170.573L465.103 167.34ZM454.559 174.53C454.949 174.402 455.292 174.497 455.434 174.938C455.553 175.309 455.35 175.709 454.98 175.832L450.919 177.167C450.547 177.289 450.343 177.689 450.463 178.061C450.583 178.433 450.981 178.636 451.352 178.514L457.402 176.525C457.777 176.402 458.174 176.605 458.294 176.977C458.413 177.349 458.209 177.75 457.838 177.872L451.785 179.861C451.414 179.983 451.21 180.384 451.329 180.756C451.449 181.128 451.847 181.331 452.218 181.209L453.697 180.723L454.347 182.744C454.467 183.116 454.865 183.318 455.236 183.196L456.587 182.752C457.211 183.862 458.541 184.394 459.777 183.988C461.013 183.582 461.779 182.36 461.638 181.092L468.464 178.848C469.087 179.958 470.417 180.49 471.653 180.084C472.889 179.677 473.656 178.456 473.515 177.188L474.687 176.802C475.058 176.68 475.262 176.28 475.142 175.908L473.843 171.866C473.207 169.889 471.084 170.442 471.081 170.439L465.903 172.141C465.532 172.263 465.134 172.061 465.015 171.689L463.715 167.647L451.525 171.654C451.153 171.776 450.949 172.176 451.069 172.549L451.546 174.031L450.739 174.296C450.368 174.418 450.164 174.818 450.283 175.19C450.403 175.563 450.801 175.765 451.172 175.643L454.559 174.53ZM471.414 176.342C472.05 176.666 472.302 177.448 471.975 178.088C471.451 179.119 469.943 179.004 469.591 177.906C469.238 176.809 470.39 175.82 471.414 176.342ZM459.537 180.246C460.174 180.57 460.425 181.352 460.099 181.992C459.574 183.023 458.067 182.908 457.714 181.811C457.361 180.713 458.514 179.724 459.537 180.246Z" fill="white"/>
</g>
</g>
<defs>
<clipPath id="clip0_256_4618">
<rect width="506" height="372" fill="white" transform="translate(0 -0.000488281)"/>
</clipPath>
<clipPath id="clip1_256_4618">
<rect width="24.1543" height="24.1543" fill="white" transform="matrix(0.949989 -0.312284 0.306105 0.951998 447.185 167.866)"/>
</clipPath>
</defs>
</svg>
