<svg width="149" height="30" viewBox="0 0 149 30" fill="none" xmlns="http://www.w3.org/2000/svg">
<g clip-path="url(#clip0_170_3953)">
<path d="M21.9883 20.5992C21.5931 21.6441 21.0826 22.4838 19.964 22.4838H5.33351C4.68018 22.4995 4.14219 21.9711 4.14692 21.3448C4.15259 20.7406 4.66127 20.2325 5.29096 20.2251H16.1036C16.9404 20.2251 17.658 19.6385 17.8159 18.8274L21.5137 1.89382C21.7709 0.79171 22.5197 0.00831435 23.6382 0.00831435L26.1873 0.00184763L27.18 0H41.2934C42.3315 0 43.1863 0.844368 43.1863 1.8698C43.1863 2.89524 42.3315 3.73961 41.2934 3.73961H28.9519C28.394 3.74792 27.8362 3.75531 27.2784 3.76363C26.7555 3.76363 26.2818 3.97333 25.9396 4.31237C25.5982 4.64957 25.3855 5.11702 25.3855 5.63435C25.3855 6.6524 26.2062 7.47921 27.2301 7.50323C27.2462 7.50508 27.2623 7.50508 27.2784 7.50508H31.8753C32.9069 7.52079 33.7436 8.36238 33.7436 9.37396C33.7436 10.3948 32.8917 11.2419 31.8508 11.2438C30.3399 11.2438 27.3162 11.2428 25.8053 11.2419C25.6852 11.2419 25.5188 11.253 25.3278 11.302C24.8664 11.4221 24.5733 11.6853 24.4684 11.7907C24.0495 12.2055 23.9559 12.6923 23.9304 12.8623" fill="#12AD2A"/>
<path d="M22.5656 10.4317C22.5779 10.3329 22.6006 10.2359 22.6289 10.1426L22.5656 10.4317Z" fill="#12AD2A"/>
<path d="M14.5927 5.11516H1.56668C0.441548 5.11516 -0.31579 6.40019 0.129536 7.55126L3.17496 15.4009C3.42268 16.0384 3.98714 16.4522 4.61211 16.4522H13.1802C13.9261 16.4522 14.5681 15.8647 14.7137 15.0499L16.1263 7.20206C16.3192 6.12119 15.5798 5.11516 14.5927 5.11516ZM11.9832 13.848C11.8092 14.0392 11.5728 14.1584 11.309 14.1584H6.05209C5.52546 14.1584 5.09904 13.6836 5.09904 13.096C5.09904 12.8032 5.20588 12.538 5.37796 12.344C5.55193 12.1528 5.7883 12.0336 6.05209 12.0336H11.309C11.8357 12.0336 12.2621 12.5103 12.2621 13.096C12.2621 13.3889 12.1552 13.6558 11.9832 13.848ZM12.9372 9.50421C12.7632 9.69544 12.5268 9.81461 12.263 9.81461H3.65716C3.13053 9.81461 2.70411 9.33977 2.70411 8.75222C2.70411 8.45937 2.81095 8.19239 2.98303 8.00024C3.15511 7.80901 3.39526 7.68983 3.65716 7.68983H12.263C12.7897 7.68983 13.2161 8.16467 13.2161 8.75222C13.2161 9.04507 13.1092 9.31205 12.9372 9.50421Z" fill="#12AD2A"/>
<path d="M10.6349 30C11.6834 30 12.5334 29.1695 12.5334 28.145C12.5334 27.1205 11.6834 26.2899 10.6349 26.2899C9.58635 26.2899 8.73634 27.1205 8.73634 28.145C8.73634 29.1695 9.58635 30 10.6349 30Z" fill="#12AD2A"/>
<path d="M18.3038 30C19.3523 30 20.2023 29.1695 20.2023 28.145C20.2023 27.1205 19.3523 26.2899 18.3038 26.2899C17.2552 26.2899 16.4052 27.1205 16.4052 28.145C16.4052 29.1695 17.2552 30 18.3038 30Z" fill="#12AD2A"/>
<path d="M44.387 20.5023L43.3914 10.3024C43.2468 8.81598 41.9694 7.68153 40.4415 7.68153C39.3381 7.68153 38.3264 8.27924 37.8149 9.23539L32.0701 19.9683C31.9283 20.2334 31.864 20.5096 31.864 20.7785C31.864 21.6967 32.6166 22.531 33.6576 22.531C34.362 22.531 35.0002 22.1291 35.2905 21.5027L36.305 19.3161C36.3532 19.2117 36.4619 19.1498 36.5792 19.1498C36.5792 19.1498 36.5801 19.1498 36.5811 19.1498H40.277C40.4339 19.1498 40.5625 19.2717 40.5673 19.4251L40.606 20.7314C40.6211 21.233 40.8386 21.6829 41.1799 22.0062C41.5222 22.3314 41.9883 22.53 42.5017 22.53C43.6212 22.53 44.4958 21.5877 44.3899 20.5004L44.387 20.5023ZM38.1033 16.4088C37.8925 16.4088 37.7516 16.1963 37.8395 16.0079L38.4598 14.6721C39.114 13.2558 39.1566 13.1995 39.7645 11.738C39.809 11.5902 39.9536 11.5006 40.0926 11.5209C40.2042 11.5375 40.2987 11.6235 40.3299 11.738C40.3479 12.114 40.3659 12.4928 40.3772 12.8762C40.3933 13.411 40.3933 13.7473 40.4235 14.673L40.467 16.1178C40.4718 16.2776 40.3403 16.4097 40.1768 16.4097H38.1033V16.4088Z" fill="#12AD2A"/>
<path d="M46.7924 18.8228C47.4164 18.3414 48.2948 18.3525 48.915 18.8385C49.5976 19.3734 50.3975 19.6985 51.1766 19.6985C52.2526 19.6985 52.9532 19.2191 52.9532 18.3969C52.9532 17.7345 52.2753 17.437 51.2229 16.7978L49.9134 15.9987C48.5103 15.1303 47.6688 14.0568 47.6688 12.2064C47.6688 9.53379 50.1706 7.40901 53.2567 7.40901C54.3979 7.40901 55.5107 7.76745 56.4884 8.40489C57.362 8.97396 57.4613 10.1925 56.6964 10.8955C56.1404 11.4064 55.2999 11.4683 54.6645 11.0562C54.1918 10.7495 53.6897 10.5629 53.1158 10.5629C52.0398 10.5629 51.5028 11.1338 51.5028 11.8424C51.5028 12.4595 52.1571 12.733 53.373 13.4877L54.7761 14.333C56.2492 15.2014 56.8335 16.1381 56.8335 17.874C56.8335 20.5928 54.5426 22.809 50.8949 22.809C49.5031 22.809 48.0631 22.409 46.7735 21.4159C45.9197 20.7582 45.9376 19.4842 46.7914 18.8265L46.7924 18.8228Z" fill="#12AD2A"/>
<path d="M60.0652 10.8123H60.0368C59.0516 10.8123 58.3113 9.93472 58.4985 8.99058C58.6413 8.27092 59.2861 7.75174 60.0368 7.75174H68.255C69.2402 7.75174 69.9805 8.62936 69.7933 9.5735C69.6506 10.2932 69.0058 10.8123 68.255 10.8123H66.9994C66.2515 10.8123 65.6077 11.3288 65.463 12.0466L63.6202 21.1554C63.45 21.9951 62.6965 22.6002 61.82 22.6002C60.6637 22.6002 59.7957 21.5683 60.0198 20.4598L61.6016 12.6396C61.7926 11.6937 61.0523 10.8123 60.0652 10.8123Z" fill="#12AD2A"/>
<path d="M73.6869 18.8228C74.3109 18.3414 75.1893 18.3525 75.8095 18.8385C76.4922 19.3734 77.292 19.6985 78.0711 19.6985C79.1462 19.6985 79.8477 19.2191 79.8477 18.3969C79.8477 17.7345 79.1698 17.437 78.1175 16.7978L76.808 15.9987C75.4048 15.1303 74.5634 14.0568 74.5634 12.2064C74.5634 9.53379 77.0651 7.40901 80.1512 7.40901C81.2924 7.40901 82.4053 7.76745 83.3829 8.40489C84.2565 8.97396 84.3558 10.1925 83.5909 10.8955C83.035 11.4064 82.1944 11.4683 81.5591 11.0562C81.0863 10.7495 80.5842 10.5629 80.0103 10.5629C78.9353 10.5629 78.3973 11.1338 78.3973 11.8424C78.3973 12.4595 79.0516 12.733 80.2675 13.4877L81.6706 14.333C83.1437 15.2014 83.728 16.1381 83.728 17.874C83.728 20.5928 81.4361 22.809 77.7894 22.809C76.3976 22.809 74.9576 22.409 73.667 21.4159C72.8133 20.7582 72.8312 19.4842 73.685 18.8265L73.6869 18.8228Z" fill="#12AD2A"/>
<path d="M88.7902 7.68246C89.9474 7.68246 90.8145 8.71991 90.5819 9.82849L90.3124 11.1117C90.0798 12.2193 90.9468 13.2577 92.1041 13.2577H92.8945C93.7682 13.2577 94.5208 12.6535 94.6891 11.8156L95.2309 9.12546C95.3991 8.28756 96.1518 7.68339 97.0254 7.68339H97.0311C98.1855 7.68339 99.0506 8.71529 98.8247 9.8211L96.5167 21.0963C96.3456 21.9314 95.5949 22.5328 94.7231 22.5328H94.7193C93.563 22.5328 92.6969 21.4972 92.9267 20.3905L93.2992 18.5983C93.529 17.4906 92.6629 16.4559 91.5066 16.4559H90.7142C89.8397 16.4559 89.087 17.061 88.9197 17.8999L88.2815 21.0889C88.1132 21.9277 87.3615 22.5328 86.4869 22.5328H86.4832C85.3287 22.5328 84.4636 21.5009 84.6896 20.3951L86.9975 9.11992C87.1686 8.28479 87.9194 7.68339 88.7911 7.68339L88.7902 7.68246Z" fill="#12AD2A"/>
<path d="M103.001 7.68246C104.158 7.68246 105.026 8.71714 104.799 9.82572L102.493 21.0907C102.322 21.9286 101.568 22.531 100.695 22.531C99.5375 22.531 98.6696 21.4963 98.8965 20.3877L101.203 9.12269C101.374 8.28479 102.127 7.68246 103.001 7.68246Z" fill="#12AD2A"/>
<path d="M106.887 10.5481C107.228 8.88157 108.726 7.68153 110.466 7.68153H112.478C115.494 7.68153 117.856 8.7781 117.856 11.7482C117.856 16.0883 114.512 17.6874 110.701 17.6874H110.092C109.548 17.6874 109.081 18.0625 108.975 18.5835L108.468 21.088C108.298 21.9268 107.545 22.531 106.669 22.531C105.513 22.531 104.645 21.4972 104.872 20.3886L106.886 10.5472L106.887 10.5481ZM111.144 14.8097C113.062 14.8097 114.161 13.9413 114.161 12.2969C114.161 11.1089 113.342 10.5611 111.962 10.5611C111.175 10.5611 110.498 11.107 110.348 11.8618L110.026 13.4868C109.89 14.1732 110.428 14.8097 111.143 14.8097H111.144Z" fill="#12AD2A"/>
<path d="M124.941 7.68246C126.098 7.68246 126.965 8.71991 126.733 9.82849L126.463 11.1117C126.231 12.2193 127.098 13.2577 128.255 13.2577H129.045C129.919 13.2577 130.672 12.6535 130.84 11.8156L131.382 9.12546C131.55 8.28756 132.303 7.68339 133.176 7.68339H133.182C134.336 7.68339 135.201 8.71529 134.976 9.8211L132.668 21.0963C132.496 21.9314 131.746 22.5328 130.874 22.5328H130.87C129.714 22.5328 128.848 21.4972 129.078 20.3905L129.45 18.5983C129.68 17.4906 128.814 16.4559 127.657 16.4559H126.865C125.991 16.4559 125.238 17.061 125.071 17.8999L124.432 21.0889C124.264 21.9277 123.512 22.5328 122.638 22.5328H122.634C121.48 22.5328 120.614 21.5009 120.84 20.3951L123.148 9.11992C123.32 8.28479 124.07 7.68339 124.942 7.68339L124.941 7.68246Z" fill="#12AD2A"/>
<path d="M138.977 7.68246C140.135 7.68246 141.003 8.71714 140.776 9.82664L139.578 15.6781C139.463 16.4116 139.347 17.0749 139.408 17.7548C139.511 18.9105 140.567 19.7974 141.742 19.6302C142.887 19.4667 143.551 18.4255 144.021 16.0892L145.463 9.08297C145.63 8.26816 146.363 7.68246 147.213 7.68246C148.342 7.68246 149.188 8.69404 148.963 9.77491L147.668 15.9987C146.733 20.6593 144.769 22.8063 141.308 22.8063C137.521 22.8063 135.651 21.1157 135.651 17.4601C135.651 16.7747 135.838 15.7243 135.978 14.9474L137.178 9.12177C137.35 8.28479 138.102 7.68246 138.977 7.68246Z" fill="#12AD2A"/>
<path d="M103.689 6.62006C104.738 6.62006 105.588 5.78954 105.588 4.76504C105.588 3.74054 104.738 2.91002 103.689 2.91002C102.641 2.91002 101.791 3.74054 101.791 4.76504C101.791 5.78954 102.641 6.62006 103.689 6.62006Z" fill="#12AD2A"/>
</g>
<defs>
<clipPath id="clip0_170_3953">
<rect width="149" height="30" fill="white"/>
</clipPath>
</defs>
</svg>
