<svg width="90" height="91" viewBox="0 0 90 91" fill="none" xmlns="http://www.w3.org/2000/svg">
<rect y="0.293945" width="90" height="90" rx="16" fill="#FFEFEC"/>
<path d="M75.5 18.1142C72.0541 18.1142 67.7973 14.604 67.7973 9.79395C67.7973 14.8676 63.601 18.1142 60.5 18.1142C63.6685 18.1142 68.4335 23.0381 68.4335 26.7939C68.4335 22.7328 71.9189 18.1142 75.5 18.1142Z" fill="#F17228"/>
<path opacity="0.4" d="M82.3199 53.5072C80.0713 53.5072 77.2937 51.1584 77.2937 47.9399C77.2937 51.3348 74.5556 53.5072 72.5321 53.5072C74.5996 53.5072 77.7089 56.8019 77.7089 59.3149C77.7089 56.5975 79.9832 53.5072 82.3199 53.5072Z" fill="#F17228"/>
<path opacity="0.4" d="M22.4375 22.74C20.8438 22.74 18.875 21.0752 18.875 18.7939C18.875 21.2002 16.9342 22.74 15.5 22.74C16.9655 22.74 19.1693 25.0752 19.1693 26.8564C19.1693 24.9304 20.7812 22.74 22.4375 22.74Z" fill="#F17228"/>
<path d="M35 77.0414C31.6689 77.0414 27.554 73.562 27.554 68.7939C27.554 73.8232 23.4976 77.0414 20.5 77.0414C23.5629 77.0414 28.1691 81.9223 28.1691 85.6453C28.1691 81.6196 31.5383 77.0414 35 77.0414Z" fill="#F17228"/>
<path d="M58.3334 35.2939L40 53.6273L31.6667 45.2939" stroke="#F17228" stroke-width="5" stroke-linecap="round" stroke-linejoin="round"/>
</svg>
