<svg width="31" height="31" viewBox="0 0 31 31" fill="none" xmlns="http://www.w3.org/2000/svg">
<path d="M25.3466 0.733141C20.4094 -0.963617 10.5996 0.355063 5.85309 3.962C-8.99065 15.2419 7.53355 27.6124 20.7097 24.5174C33.8858 21.4224 33.2381 3.44517 25.3466 0.733141Z" fill="#74CA45" fill-opacity="0.28"/>
<path d="M16.5907 8.42682H6.52327V7.7147C6.52327 7.11803 7.00697 6.63428 7.60369 6.63428H14.9531C15.5498 6.63428 16.5907 7.11798 16.5907 7.7147V8.42682Z" fill="#74CA45"/>
<path d="M16.0472 6.63428H14.6408C15.2374 6.63428 15.7212 7.11798 15.7212 7.7147V8.42682H17.1276V7.7147C17.1275 7.11798 16.6438 6.63428 16.0472 6.63428Z" fill="#488F21"/>
<path d="M16.1021 26.2554H7.54875C7.41286 26.2554 7.28205 26.2038 7.18278 26.111C7.08351 26.0182 7.0232 25.8912 7.01405 25.7556L5.97595 10.3769L6.52326 9.89209H17.1276L17.1772 10.3769L16.6368 25.7556C16.6276 25.8912 16.5673 26.0182 16.4681 26.111C16.3688 26.2038 16.238 26.2555 16.1021 26.2554Z" fill="#F3F0F3"/>
<path d="M17.1275 9.89209H15.7212L16.2685 10.3769L16.1399 12.2821C16.1334 12.3766 16.0986 12.467 16.0399 12.5414C15.9812 12.6158 15.9014 12.6708 15.811 12.6991C15.2158 12.8861 14.7829 13.4427 14.7829 14.0987V15.5516C14.7829 15.7038 14.7203 15.8487 14.6118 15.9556C14.3188 16.244 14.1731 16.6606 14.233 17.0765L14.2346 17.0872L15.3539 23.9247L15.2303 25.7558C15.2212 25.8914 15.1609 26.0184 15.0616 26.1112C14.9623 26.204 14.8315 26.2556 14.6956 26.2556H16.102C16.2378 26.2556 16.3687 26.204 16.4679 26.1112C16.5672 26.0184 16.6275 25.8914 16.6367 25.7558L17.6748 10.3771L17.1275 9.89209Z" fill="#E2DEE2"/>
<path d="M5.65383 8.2334H16.6793L17.8905 8.32532C17.9503 8.32531 18.0084 8.34529 18.0555 8.38206C18.1026 8.41884 18.136 8.47031 18.1505 8.52829L18.5372 9.96988C18.5795 10.139 18.4515 10.3028 18.2772 10.3028L17.0509 10.377H5.25187C5.07755 10.377 4.94962 10.2132 4.9919 10.0441L5.39386 8.43632C5.40837 8.37835 5.44183 8.3269 5.48893 8.29013C5.53603 8.25337 5.59407 8.2334 5.65383 8.2334Z" fill="#74CA45"/>
<path d="M18.6589 10.0441L18.2569 8.43637C18.2425 8.37839 18.209 8.32692 18.1619 8.29014C18.1148 8.25337 18.0567 8.23339 17.997 8.2334H16.5906C16.6503 8.23339 16.7084 8.25337 16.7555 8.29014C16.8026 8.32692 16.8361 8.37839 16.8506 8.43637L17.2525 10.0441C17.2948 10.2133 17.1669 10.3771 16.9925 10.3771H18.3989C18.5733 10.3771 18.7012 10.2133 18.6589 10.0441Z" fill="#488F21"/>
<path d="M17.891 20.9469H6.52335C6.40105 20.9469 6.28332 20.9004 6.19397 20.8169C6.10463 20.7334 6.05036 20.619 6.04213 20.497L5.55515 17.9151L5.35204 14.9064C5.33324 14.6279 5.55412 14.3916 5.83326 14.3916H14.7829L17.891 20.9469Z" fill="#74CA45"/>
<path d="M17.891 20.9469L16.9642 14.3916H14.7829V15.9916C14.7829 16.302 14.5298 16.5527 14.2195 16.5497C13.9407 16.547 13.6385 16.5444 13.518 16.5444L9.02437 16.5443C7.75247 16.5443 6.53953 17.0272 5.55511 17.9152L5.72939 20.4971C5.73762 20.6191 5.7919 20.7334 5.88124 20.8169C5.97058 20.9005 6.08831 20.9469 6.21061 20.9469H17.891V20.9469Z" fill="#488F21"/>
<path d="M22.7029 20.9408H24.4077L24.7681 16.5354L24.4077 15.1563C24.4077 14.4802 23.8597 13.9321 23.1836 13.9321H23.0466C22.9554 13.9321 22.868 13.9683 22.8036 14.0328C22.7392 14.0972 22.703 14.1846 22.703 14.2757L22.4335 16.4974L22.7029 20.9408Z" fill="#FFE177"/>
<path d="M22.7029 19.8779H20.9982L20.6303 16.6137L20.9982 14.0933C20.9982 13.4172 21.5462 12.8691 22.2223 12.8691H22.3593C22.4045 12.8691 22.4491 12.878 22.4908 12.8953C22.5325 12.9126 22.5704 12.9379 22.6023 12.9698C22.6342 13.0017 22.6595 13.0396 22.6768 13.0812C22.694 13.1229 22.7029 13.1676 22.7029 13.2127V19.8779ZM26.1059 19.8779H24.4012V14.0933C24.4012 13.4172 24.9492 12.8692 25.6253 12.8692H25.7623C25.8074 12.8692 25.8521 12.8781 25.8938 12.8953C25.9355 12.9126 25.9734 12.9379 26.0053 12.9698C26.0372 13.0017 26.0625 13.0396 26.0798 13.0813C26.097 13.123 26.1059 13.1677 26.1059 13.2128V19.8779Z" fill="#FFB301"/>
<path d="M15.9079 19.5232H17.6047L18.0205 16.6138L17.6047 14.9752C17.6047 14.3023 17.0592 13.7568 16.3863 13.7568H16.2499C16.1592 13.7568 16.0722 13.7929 16.0081 13.857C15.9439 13.9211 15.9079 14.0081 15.9079 14.0988V19.5232Z" fill="#FFE177"/>
<path d="M19.3014 20.1018H17.6046V14.3444C17.6046 13.6715 18.1501 13.126 18.823 13.126H18.9594C19.0501 13.126 19.1371 13.162 19.2012 13.2261C19.2654 13.2903 19.3014 13.3773 19.3014 13.468L19.6053 16.0799L19.3014 20.1018Z" fill="#FFB301"/>
<path d="M24.2363 28.2462L23.2115 28.3123H18.3331L17.7788 28.2149C17.6921 28.2149 17.6089 28.1805 17.5476 28.1191C17.4863 28.0578 17.4518 27.9747 17.4518 27.8879L17.3846 26.673L21.0659 26.4585L24.5302 26.6729L24.5632 27.9193C24.5632 27.9622 24.5548 28.0048 24.5383 28.0444C24.5219 28.0841 24.4978 28.1201 24.4675 28.1505C24.4371 28.1808 24.4011 28.2049 24.3614 28.2213C24.3217 28.2378 24.2792 28.2462 24.2363 28.2462Z" fill="#F69790"/>
<path d="M18.9501 26.6523C19.0224 26.6287 19.0932 26.6009 19.1622 26.5691L17.3846 26.6727V27.9851C17.3846 28.0718 17.419 28.155 17.4803 28.2163C17.5416 28.2776 17.6248 28.3121 17.7115 28.3121H18.3331C18.6948 27.8497 18.9209 27.2764 18.9501 26.6523ZM24.6293 26.6727V27.985C24.6293 28.0279 24.6209 28.0705 24.6044 28.1101C24.588 28.1498 24.5639 28.1859 24.5335 28.2163C24.5032 28.2467 24.4671 28.2707 24.4274 28.2872C24.3877 28.3036 24.3452 28.3121 24.3022 28.3121H23.1128C23.1558 28.3121 23.1983 28.3036 23.238 28.2872C23.2777 28.2707 23.3138 28.2467 23.3441 28.2163C23.3745 28.1859 23.3986 28.1498 23.415 28.1101C23.4315 28.0705 23.4399 28.0279 23.4399 27.985V26.6727L24.0977 26.5049L24.6293 26.6727Z" fill="#E3766E"/>
<path d="M19.3014 20.728H20.9982V13.0323C20.9982 12.3594 20.4527 11.814 19.7798 11.814H19.6434C19.5527 11.814 19.4657 11.85 19.4016 11.9141C19.3374 11.9783 19.3014 12.0653 19.3014 12.156V20.728Z" fill="#FFE177"/>
<path d="M26.4399 16.8462C26.4399 16.8462 25.9804 16.4311 25.9068 16.4144C25.6954 16.3665 25.4767 16.3615 25.2633 16.3996C25.05 16.4377 24.8465 16.5182 24.6649 16.6362C24.5126 16.7356 24.3857 16.8692 24.2945 17.0265C23.6636 18.1102 22.3514 18.7593 21.0069 18.7593C19.6625 18.7593 18.3509 18.1101 17.72 17.0266C17.6287 16.8693 17.5019 16.7356 17.3495 16.6363L17.3489 16.6359C17.0859 16.465 16.779 16.374 16.4653 16.374C16.1516 16.374 15.8447 16.465 15.5817 16.636L15.4286 16.7355C15.4029 16.7522 15.3817 16.7751 15.367 16.802C15.3524 16.829 15.3447 16.8592 15.3447 16.8899C15.3447 16.8987 15.3592 16.9183 15.3604 16.9272L16.9946 26.1768C17.0009 26.2207 17.0228 26.2609 17.0564 26.2899C17.0899 26.319 17.1328 26.335 17.1772 26.335L18.9486 26.6731H23.4912L24.7264 26.5809C24.7707 26.5809 24.8136 26.5649 24.8472 26.5358C24.8807 26.5068 24.9027 26.4666 24.909 26.4227L26.5219 17.0272C26.527 16.9924 26.5219 16.9568 26.5074 16.9247C26.4928 16.8927 26.4694 16.8654 26.4399 16.8462Z" fill="#F69790"/>
<path d="M18.9489 26.664C18.9493 26.6368 18.9579 26.6103 18.9735 26.5881C18.9892 26.5658 19.0112 26.5487 19.0367 26.5391C19.7845 26.2618 20.3176 25.6154 20.3176 24.7697C20.3179 24.4956 20.261 24.2245 20.1505 23.9737C20.1423 23.9553 20.1381 23.9354 20.1381 23.9152C20.1381 23.895 20.1423 23.8751 20.1505 23.8566C20.261 23.6059 20.3179 23.3348 20.3176 23.0607C20.3176 22.1689 19.7248 21.4129 18.9125 21.1662C18.8645 21.1516 18.8292 21.1113 18.8184 21.0623C18.5923 20.0419 18.0892 19.0702 17.3675 18.2908C16.7866 17.6635 16.1053 17.1932 15.367 16.8995L15.3447 16.8894L16.918 26.5145C16.9243 26.5585 16.9462 26.5986 16.9798 26.6277C17.0133 26.6568 17.0562 26.6728 17.1006 26.6728H18.9486L18.9489 26.664ZM26.6674 16.9162L25.096 26.5146C25.0896 26.5586 25.0676 26.5987 25.034 26.6278C25.0005 26.6568 24.9576 26.6728 24.9132 26.6728H23.4912C23.9149 26.6007 24.261 26.2569 24.3437 25.823L25.9068 16.4141C26.0362 16.4487 26.3345 16.572 26.4327 16.6358L26.5851 16.735C26.6147 16.7542 26.6381 16.7815 26.6527 16.8136C26.6673 16.8457 26.6724 16.8813 26.6674 16.9162Z" fill="#E3766E"/>
<path d="M4.71389 22.2808V22.2783C4.71389 19.8977 6.64378 17.6689 9.02442 17.6689H12.3679L13.5156 17.781C15.8962 17.781 17.4518 20.1665 17.4518 22.2783L4.71389 22.2808Z" fill="#FF9801"/>
<path d="M17.8284 22.278V22.2806H16.3167V22.278C16.3167 19.8976 14.3868 17.6689 12.0064 17.6689H13.5181C15.8984 17.6689 17.8284 19.8976 17.8284 22.278Z" fill="#F57C00"/>
<path d="M4.71389 24.6953H17.4518V26.5143C17.4518 27.5074 16.9558 28.1958 15.9627 28.1958L14.7202 28.3124H6.51206C5.51892 28.3124 4.71384 27.5073 4.71384 26.5142L4.71389 24.6953Z" fill="#FF9801"/>
<path d="M17.8284 24.6948V26.5139C17.8284 27.507 17.0231 28.3123 16.0305 28.3123H14.5415C15.5347 28.3123 16.3399 27.507 16.3399 26.5139L16.3253 24.6948H17.8284Z" fill="#F57C00"/>
<path d="M4.206 25.6243C3.73411 25.6243 3.35156 25.2417 3.35156 24.7698C3.35156 24.2979 3.73411 23.9154 4.206 23.9154L5.04225 23.6099H17.3218L17.5792 23.9154C18.0511 23.9154 18.6609 24.2979 18.6609 24.7698C18.6609 25.2417 18.0697 25.6243 17.5979 25.6243H13.2966L12.6386 25.1709L11.6346 25.6243H4.206Z" fill="#795548"/>
<path d="M18.3381 23.9156L18.0468 23.4346L17.4005 23.9156C17.8724 23.9156 18.255 24.2981 18.255 24.77C18.255 25.2419 17.8724 25.6245 17.4005 25.6245H18.3381C18.81 25.6245 19.1926 25.242 19.1926 24.77C19.1926 24.2981 18.81 23.9156 18.3381 23.9156Z" fill="#5B3A2E"/>
<path d="M10.8974 23.9151L13.737 26.1935C13.7619 26.2136 13.793 26.2245 13.825 26.2245C13.857 26.2245 13.888 26.2136 13.913 26.1935L16.7525 23.9151L13.7773 23.7334L10.8974 23.9151Z" fill="#F57C00"/>
<path d="M8.55637 23.9151L11.3959 26.1935C11.4209 26.2136 11.4519 26.2245 11.4839 26.2245C11.5159 26.2245 11.547 26.2136 11.5719 26.1935L14.4115 23.9151L11.4362 23.7334L8.55637 23.9151Z" fill="#FF9801"/>
<path d="M4.206 23.9154C3.73411 23.9154 3.35156 23.5329 3.35156 23.061C3.35156 22.5891 3.73411 22.2065 4.206 22.2065H17.616C18.0878 22.2065 18.661 22.5891 18.661 23.061C18.661 23.5329 18.0738 23.9154 17.6019 23.9154H4.206Z" fill="#4CAF50"/>
<path d="M18.3381 22.2065H17.4005C17.8724 22.2065 18.255 22.5891 18.255 23.061C18.255 23.5329 17.8724 23.9154 17.4005 23.9154H18.3381C18.81 23.9154 19.1926 23.5329 19.1926 23.061C19.1926 22.5891 18.81 22.2065 18.3381 22.2065Z" fill="#8ED884"/>
<path d="M17.6655 10.5159L17.4088 14.3195M6.23864 14.269L5.98969 10.5803M15.8203 10.3771H18.3989C18.5733 10.3771 18.7012 10.2135 18.6591 10.0442L18.2569 8.43643C18.2425 8.37844 18.2091 8.32694 18.162 8.29015C18.115 8.25335 18.0569 8.2334 17.9972 8.23346H5.65359C5.59387 8.23347 5.53586 8.25346 5.4888 8.29024C5.44174 8.32702 5.40834 8.37848 5.39391 8.43643L4.99172 10.0442C4.94953 10.2135 5.0775 10.3771 5.25187 10.3771H14.1797M5.65087 19.3326L5.35209 14.9062C5.3333 14.6277 5.55417 14.3914 5.83331 14.3914H15.8288M6.52326 8.05834V7.65475C6.52326 7.09117 6.98016 6.63428 7.54373 6.63428H16.1071C16.6707 6.63428 17.1276 7.09117 17.1276 7.65475V8.09021M17.6047 15.053C17.6047 14.3801 17.0593 13.8346 16.3864 13.8346H16.25C16.1593 13.8346 16.0723 13.8706 16.0081 13.9348C15.944 13.9989 15.908 14.0859 15.908 14.1766V16.4117M20.9983 18.6142V13.1101C20.9983 12.4372 20.4528 11.8917 19.7799 11.8917H19.6435C19.5528 11.8917 19.4658 11.9278 19.4017 11.9919C19.3375 12.056 19.3015 12.143 19.3015 12.2337V13.5457" stroke="black" stroke-width="0.6" stroke-miterlimit="10" stroke-linecap="round" stroke-linejoin="round"/>
<path d="M17.6047 16.7872V14.4222C17.6047 13.7493 18.1502 13.2039 18.8231 13.2039H18.9595C19.0502 13.2039 19.1372 13.2399 19.2013 13.304C19.2655 13.3682 19.3015 13.4552 19.3015 13.5459V18.2394M24.4077 16.8032V15.2342C24.4077 14.5581 23.8597 14.0101 23.1836 14.0101H23.0466C23.0015 14.0101 22.9568 14.0189 22.9151 14.0362C22.8735 14.0535 22.8356 14.0788 22.8037 14.1107C22.7718 14.1426 22.7465 14.1805 22.7292 14.2222C22.7119 14.2639 22.703 14.3085 22.703 14.3537V18.3191M20.9982 14.1714C20.9982 13.4953 21.5463 12.9473 22.2223 12.9473H22.3593C22.4045 12.9473 22.4491 12.9562 22.4908 12.9734C22.5325 12.9907 22.5704 13.016 22.6023 13.0479C22.6342 13.0798 22.6595 13.1177 22.6768 13.1594C22.6941 13.2011 22.7029 13.2457 22.7029 13.2909V14.3537" stroke="black" stroke-width="0.6" stroke-miterlimit="10" stroke-linecap="round" stroke-linejoin="round"/>
<path d="M24.4012 15.2342V14.1714C24.4012 13.4953 24.9492 12.9473 25.6253 12.9473H25.7623C25.8534 12.9473 25.9408 12.9835 26.0052 13.0479C26.0697 13.1123 26.1059 13.1997 26.1059 13.2909V16.4118M15.5648 18.1585L15.3675 16.9524C15.3572 16.8811 15.389 16.8108 15.449 16.7719L15.6018 16.673C15.8638 16.5026 16.1696 16.4118 16.4821 16.4117C16.7946 16.4116 17.1004 16.5022 17.3625 16.6725L17.3629 16.673C17.5147 16.7721 17.6412 16.9054 17.7323 17.062C18.3609 18.1416 19.6678 18.7885 21.007 18.7885C22.3467 18.7885 23.654 18.1416 24.2826 17.062C24.3736 16.9055 24.4997 16.7719 24.6515 16.673C24.9137 16.5027 25.2195 16.4121 25.5321 16.4121C25.8446 16.4121 26.1505 16.5027 26.4126 16.673L26.565 16.7719C26.625 16.8108 26.6568 16.8811 26.6465 16.9524L25.7723 22.2919M17.9512 26.6733H24.899C24.9904 26.6733 25.0678 26.6058 25.0809 26.5153L25.507 23.9114M24.6921 26.8404V27.7631C24.6921 28.0666 24.4461 28.3126 24.1427 28.3126H17.8712C17.6355 28.3126 17.4345 28.1642 17.3565 27.9557" stroke="black" stroke-width="0.6" stroke-miterlimit="10" stroke-linecap="round" stroke-linejoin="round"/>
<path d="M9.09469 17.6742C9.14484 17.6723 9.19547 17.6714 9.24609 17.6714H13.298C15.7566 17.6714 17.7577 19.6289 17.8284 22.0706M4.71469 22.1292C4.74469 20.28 5.88187 18.7003 7.49156 18.0234M4.71375 25.7194V26.4754C4.71375 27.5198 5.56031 28.3659 6.60469 28.3659H12.1158M17.8303 25.7194V26.4754C17.8303 27.5198 16.9838 28.3659 15.9394 28.3659H13.7564M4.206 23.9155C3.73411 23.9155 3.35156 23.5329 3.35156 23.061C3.35156 22.5891 3.73411 22.2066 4.206 22.2066H18.3381C18.81 22.2066 19.1925 22.5891 19.1925 23.061C19.1925 23.5329 18.81 23.9155 18.3381 23.9155M10.667 25.6301H4.206C3.73411 25.6301 3.35156 25.2476 3.35156 24.7757C3.35156 24.3038 3.73411 23.9212 4.206 23.9212H18.3381C18.81 23.9212 19.1925 24.3038 19.1925 24.7757C19.1925 25.2476 18.81 25.6301 18.3381 25.6301H14.7277" stroke="black" stroke-width="0.6" stroke-miterlimit="10" stroke-linecap="round" stroke-linejoin="round"/>
<path d="M12.4275 25.5656L13.7969 26.2528L16.9377 23.9658M8.61946 23.9658L11.4839 26.2642L14.3483 23.9658" stroke="black" stroke-width="0.6" stroke-miterlimit="10" stroke-linecap="round" stroke-linejoin="round"/>
</svg>
