<svg width="28" height="28" viewBox="0 0 28 28" fill="none" xmlns="http://www.w3.org/2000/svg">
<path fill-rule="evenodd" clip-rule="evenodd" d="M25.1987 10.1947L26.1591 11.1547C26.9194 11.9013 27.3329 12.9147 27.3329 13.9813C27.3462 15.048 26.9327 16.0627 26.1858 16.8213C26.1769 16.8311 26.168 16.8397 26.1591 16.8483C26.1547 16.8526 26.1502 16.8569 26.1458 16.8613L25.1987 17.808C24.8253 18.1813 24.6119 18.688 24.6119 19.2227V20.5947C24.6119 22.808 22.8112 24.6093 20.5971 24.6093H19.2232C18.6897 24.6093 18.1829 24.8213 17.8094 25.1947L16.8491 26.1547C16.0621 26.9427 15.0351 27.328 14.008 27.328C12.981 27.328 11.9539 26.9427 11.167 26.1693L10.1933 25.1947C9.81984 24.8213 9.31299 24.6093 8.77947 24.6093H7.40563C5.1915 24.6093 3.39085 22.808 3.39085 20.5947V19.2227C3.39085 18.688 3.17744 18.1813 2.80397 17.7947L1.84362 16.848C0.283053 15.2893 0.269715 12.7413 1.83028 11.1693L2.80397 10.1947C3.17744 9.82132 3.39085 9.31465 3.39085 8.76799V7.40799C3.39085 5.19465 5.1915 3.39598 7.40563 3.39598H8.77947C9.31299 3.39598 9.81984 3.18132 10.1933 2.80798L11.1537 1.84798C12.7142 0.275985 15.2618 0.275985 16.8357 1.83598L17.8094 2.80798C18.1829 3.18132 18.6897 3.39598 19.2232 3.39598H20.5971C22.8112 3.39598 24.6119 5.19465 24.6119 7.40799V8.78265C24.6119 9.31465 24.8253 9.82132 25.1987 10.1947ZM11.9698 17.2606C12.1685 17.4515 12.4262 17.5457 12.684 17.543C12.9417 17.5417 13.1981 17.445 13.394 17.2515L18.5928 12.1262C18.9835 11.7405 18.9794 11.1207 18.5848 10.7403C18.1888 10.3598 17.5512 10.3624 17.1606 10.7481L12.6692 15.1752L10.8302 13.4075C10.4342 13.027 9.79798 13.0309 9.40602 13.4167C9.01541 13.8024 9.01943 14.4221 9.41542 14.8026L11.9698 17.2606Z" fill="#F17228"/>
</svg>
