<svg width="25" height="24" viewBox="0 0 25 24" fill="none" xmlns="http://www.w3.org/2000/svg">
<path fill-rule="evenodd" clip-rule="evenodd" d="M15.9385 12.4978C15.9385 10.761 14.5301 9.35254 12.7932 9.35254C11.0564 9.35254 9.64795 10.761 9.64795 12.4978C9.64795 14.2346 11.0564 15.6431 12.7932 15.6431C14.5301 15.6431 15.9385 14.2346 15.9385 12.4978Z" stroke="#120F0F" stroke-width="1.5" stroke-linecap="round" stroke-linejoin="round"/>
<path fill-rule="evenodd" clip-rule="evenodd" d="M12.7927 20.2002C20.838 20.2002 21.7959 17.7897 21.7959 12.5665C21.7959 8.90545 21.3117 6.94651 18.2622 6.1044C17.9822 6.01598 17.6717 5.84756 17.4201 5.57072C17.0138 5.12545 16.7169 3.75809 15.7359 3.3444C14.7548 2.93177 10.8148 2.95072 9.84955 3.3444C8.88534 3.73914 8.57166 5.12545 8.16534 5.57072C7.91376 5.84756 7.60429 6.01598 7.32324 6.1044C4.27376 6.94651 3.78955 8.90545 3.78955 12.5665C3.78955 17.7897 4.74745 20.2002 12.7927 20.2002Z" stroke="#120F0F" stroke-width="1.5" stroke-linecap="round" stroke-linejoin="round"/>
<path d="M17.7045 9H17.7135" stroke="#120F0F" stroke-width="1.5" stroke-linecap="round" stroke-linejoin="round"/>
</svg>
