<svg width="55" height="53" viewBox="0 0 55 53" fill="none" xmlns="http://www.w3.org/2000/svg">
<ellipse cx="27.1014" cy="26.4795" rx="27.1014" ry="26.4795" fill="#F17228"/>
<path d="M40.2316 26.2385C40.2316 33.6023 34.2621 39.5718 26.8983 39.5718C19.5345 39.5718 13.5649 33.6023 13.5649 26.2385C13.5649 18.8747 19.5345 12.9052 26.8983 12.9052C34.2621 12.9052 40.2316 18.8747 40.2316 26.2385Z" fill="white"/>
<path fill-rule="evenodd" clip-rule="evenodd" d="M26.8983 19.9052C27.4506 19.9052 27.8983 20.3529 27.8983 20.9052V25.8243L30.9387 28.8647C31.3292 29.2552 31.3292 29.8884 30.9387 30.2789C30.5482 30.6694 29.915 30.6694 29.5245 30.2789L26.1912 26.9456C26.0036 26.7581 25.8983 26.5037 25.8983 26.2385V20.9052C25.8983 20.3529 26.346 19.9052 26.8983 19.9052Z" fill="#F17228"/>
</svg>
