<svg width="48" height="48" viewBox="0 0 48 48" fill="none" xmlns="http://www.w3.org/2000/svg">
<circle cx="24" cy="24" r="24" fill="#F4F4F4"/>
<path fill-rule="evenodd" clip-rule="evenodd" d="M23.9999 33.5999C29.3018 33.5999 33.5999 29.3018 33.5999 23.9999C33.5999 18.698 29.3018 14.3999 23.9999 14.3999C18.698 14.3999 14.3999 18.698 14.3999 23.9999C14.3999 29.3018 18.698 33.5999 23.9999 33.5999ZM22.4484 20.7514C21.9798 20.2827 21.22 20.2827 20.7514 20.7514C20.2827 21.22 20.2827 21.9798 20.7514 22.4484L22.3028 23.9999L20.7514 25.5514C20.2827 26.02 20.2827 26.7798 20.7514 27.2484C21.22 27.7171 21.9798 27.7171 22.4484 27.2484L23.9999 25.697L25.5514 27.2484C26.02 27.7171 26.7798 27.7171 27.2484 27.2484C27.7171 26.7798 27.7171 26.02 27.2484 25.5514L25.697 23.9999L27.2484 22.4484C27.7171 21.9798 27.7171 21.22 27.2484 20.7514C26.7798 20.2827 26.02 20.2827 25.5514 20.7514L23.9999 22.3028L22.4484 20.7514Z" fill="#FA4069"/>
</svg>
