<svg width="48" height="48" viewBox="0 0 48 48" fill="none" xmlns="http://www.w3.org/2000/svg">
<circle cx="24" cy="24" r="24" fill="#F4F4F4"/>
<path fill-rule="evenodd" clip-rule="evenodd" d="M23.9999 33.5999C29.3018 33.5999 33.5999 29.3018 33.5999 23.9999C33.5999 18.698 29.3018 14.3999 23.9999 14.3999C18.698 14.3999 14.3999 18.698 14.3999 23.9999C14.3999 29.3018 18.698 33.5999 23.9999 33.5999ZM28.4484 22.4484C28.9171 21.9798 28.9171 21.22 28.4484 20.7514C27.9798 20.2827 27.22 20.2827 26.7514 20.7514L22.7999 24.7028L21.2484 23.1514C20.7798 22.6827 20.02 22.6827 19.5514 23.1514C19.0827 23.62 19.0827 24.3798 19.5514 24.8484L21.9514 27.2484C22.42 27.7171 23.1798 27.7171 23.6484 27.2484L28.4484 22.4484Z" fill="#538D33"/>
</svg>
