<svg width="165" height="27" viewBox="0 0 165 27" fill="none" xmlns="http://www.w3.org/2000/svg">
<path d="M43.66 19.92C43.7667 20.12 43.82 20.2933 43.82 20.44C43.8333 20.5733 43.7933 20.7 43.7 20.82C43.6067 20.9267 43.46 21.0267 43.26 21.12C42.94 21.2667 42.6867 21.3 42.5 21.22C42.3267 21.14 42.1667 20.9467 42.02 20.64L37.02 10L32.06 20.62C31.9133 20.9267 31.7467 21.12 31.56 21.2C31.3867 21.28 31.1333 21.2467 30.8 21.1C30.6 21.02 30.4533 20.92 30.36 20.8C30.28 20.68 30.2467 20.5333 30.26 20.36C30.2867 20.1867 30.3533 19.9867 30.46 19.76L36.2 7.78C36.28 7.62 36.3933 7.49333 36.54 7.4C36.7 7.29333 36.8667 7.24 37.04 7.24C37.16 7.24 37.2733 7.26 37.38 7.3C37.4867 7.34 37.58 7.4 37.66 7.48C37.74 7.56 37.8067 7.66667 37.86 7.8L43.66 19.92ZM33.26 17.22L33.94 15.68H40.14L40.8 17.22H33.26ZM49.3942 21.24C48.7009 21.24 48.0476 21.1267 47.4342 20.9C46.8342 20.6733 46.3009 20.3467 45.8342 19.92C45.3809 19.4933 45.0209 18.9867 44.7542 18.4C44.5009 17.8 44.3742 17.12 44.3742 16.36C44.3742 15.6 44.5009 14.9267 44.7542 14.34C45.0209 13.74 45.3809 13.2267 45.8342 12.8C46.2876 12.3733 46.8142 12.0467 47.4142 11.82C48.0276 11.5933 48.6742 11.48 49.3542 11.48C49.8076 11.48 50.2542 11.5533 50.6942 11.7C51.1342 11.8333 51.5209 12.0133 51.8542 12.24C52.2009 12.4533 52.4476 12.68 52.5942 12.92C52.7276 13.0933 52.8209 13.24 52.8742 13.36C52.9409 13.4667 52.9476 13.5933 52.8942 13.74C52.8409 13.8467 52.7676 13.9467 52.6742 14.04C52.5809 14.12 52.4876 14.1867 52.3942 14.24C52.1542 14.4267 51.9142 14.4533 51.6742 14.32C51.5276 14.1733 51.3609 14.04 51.1742 13.92C51.0009 13.7867 50.8142 13.6667 50.6142 13.56C50.4142 13.4533 50.2076 13.3733 49.9942 13.32C49.7942 13.2533 49.5809 13.22 49.3542 13.22C48.7276 13.22 48.1742 13.3533 47.6942 13.62C47.2142 13.8733 46.8409 14.24 46.5742 14.72C46.3209 15.1867 46.1942 15.7333 46.1942 16.36C46.1942 16.9867 46.3209 17.5333 46.5742 18C46.8409 18.4667 47.2076 18.8333 47.6742 19.1C48.1542 19.3667 48.7009 19.5 49.3142 19.5C49.5942 19.5 49.8609 19.4667 50.1142 19.4C50.3809 19.32 50.6276 19.22 50.8542 19.1C51.0809 18.9667 51.2676 18.8267 51.4142 18.68C51.5476 18.5867 51.6609 18.5067 51.7542 18.44C51.8476 18.3733 51.9609 18.34 52.0942 18.34C52.2009 18.34 52.3142 18.3867 52.4342 18.48C52.5542 18.56 52.6809 18.6867 52.8142 18.86C52.9209 18.98 52.9809 19.1067 52.9942 19.24C53.0209 19.3733 53.0009 19.5 52.9342 19.62C52.8676 19.74 52.7609 19.86 52.6142 19.98C52.4009 20.1933 52.1142 20.4 51.7542 20.6C51.4076 20.7867 51.0276 20.94 50.6142 21.06C50.2009 21.18 49.7942 21.24 49.3942 21.24ZM59.3552 21.24C58.6618 21.24 58.0085 21.1267 57.3952 20.9C56.7952 20.6733 56.2618 20.3467 55.7952 19.92C55.3418 19.4933 54.9818 18.9867 54.7152 18.4C54.4618 17.8 54.3352 17.12 54.3352 16.36C54.3352 15.6 54.4618 14.9267 54.7152 14.34C54.9818 13.74 55.3418 13.2267 55.7952 12.8C56.2485 12.3733 56.7752 12.0467 57.3752 11.82C57.9885 11.5933 58.6352 11.48 59.3152 11.48C59.7685 11.48 60.2152 11.5533 60.6552 11.7C61.0952 11.8333 61.4818 12.0133 61.8152 12.24C62.1618 12.4533 62.4085 12.68 62.5552 12.92C62.6885 13.0933 62.7818 13.24 62.8352 13.36C62.9018 13.4667 62.9085 13.5933 62.8552 13.74C62.8018 13.8467 62.7285 13.9467 62.6352 14.04C62.5418 14.12 62.4485 14.1867 62.3552 14.24C62.1152 14.4267 61.8752 14.4533 61.6352 14.32C61.4885 14.1733 61.3218 14.04 61.1352 13.92C60.9618 13.7867 60.7752 13.6667 60.5752 13.56C60.3752 13.4533 60.1685 13.3733 59.9552 13.32C59.7552 13.2533 59.5418 13.22 59.3152 13.22C58.6885 13.22 58.1352 13.3533 57.6552 13.62C57.1752 13.8733 56.8018 14.24 56.5352 14.72C56.2818 15.1867 56.1552 15.7333 56.1552 16.36C56.1552 16.9867 56.2818 17.5333 56.5352 18C56.8018 18.4667 57.1685 18.8333 57.6352 19.1C58.1152 19.3667 58.6618 19.5 59.2752 19.5C59.5552 19.5 59.8218 19.4667 60.0752 19.4C60.3418 19.32 60.5885 19.22 60.8152 19.1C61.0418 18.9667 61.2285 18.8267 61.3752 18.68C61.5085 18.5867 61.6218 18.5067 61.7152 18.44C61.8085 18.3733 61.9218 18.34 62.0552 18.34C62.1618 18.34 62.2752 18.3867 62.3952 18.48C62.5152 18.56 62.6418 18.6867 62.7752 18.86C62.8818 18.98 62.9418 19.1067 62.9552 19.24C62.9818 19.3733 62.9618 19.5 62.8952 19.62C62.8285 19.74 62.7218 19.86 62.5752 19.98C62.3618 20.1933 62.0752 20.4 61.7152 20.6C61.3685 20.7867 60.9885 20.94 60.5752 21.06C60.1618 21.18 59.7552 21.24 59.3552 21.24ZM69.5114 21.3C68.7114 21.3 67.9981 21.1667 67.3714 20.9C66.7447 20.6333 66.2114 20.2733 65.7714 19.82C65.3447 19.3533 65.0181 18.82 64.7914 18.22C64.5647 17.62 64.4514 16.9733 64.4514 16.28C64.4514 15.36 64.6647 14.54 65.0914 13.82C65.5181 13.1 66.1047 12.5333 66.8514 12.12C67.6114 11.6933 68.4781 11.48 69.4514 11.48C70.1181 11.48 70.7114 11.5867 71.2314 11.8C71.7647 12 72.2181 12.2733 72.5914 12.62C72.9647 12.9667 73.2514 13.3533 73.4514 13.78C73.6514 14.2067 73.7514 14.6333 73.7514 15.06C73.7514 15.74 73.5914 16.22 73.2714 16.5C72.9514 16.7667 72.5581 16.9 72.0914 16.9H66.3114C66.2981 17.4867 66.4514 17.9933 66.7714 18.42C67.1047 18.8333 67.5181 19.1533 68.0114 19.38C68.5181 19.6067 69.0247 19.72 69.5314 19.72C69.9047 19.72 70.2247 19.7 70.4914 19.66C70.7581 19.62 70.9914 19.5667 71.1914 19.5C71.3914 19.4333 71.5647 19.3667 71.7114 19.3C71.8581 19.2333 71.9847 19.1667 72.0914 19.1C72.2114 19.0333 72.3247 18.9867 72.4314 18.96C72.5514 18.9333 72.6647 18.9467 72.7714 19C72.8914 19.04 72.9847 19.1267 73.0514 19.26C73.1314 19.3667 73.1847 19.4667 73.2114 19.56C73.2381 19.6533 73.2514 19.7533 73.2514 19.86C73.2514 20.0467 73.0914 20.2533 72.7714 20.48C72.4514 20.7067 72.0047 20.9 71.4314 21.06C70.8714 21.22 70.2314 21.3 69.5114 21.3ZM66.3114 15.72H71.3314C71.5847 15.72 71.7714 15.6867 71.8914 15.62C72.0247 15.5533 72.0914 15.3733 72.0914 15.08C72.0914 14.7067 71.9781 14.3733 71.7514 14.08C71.5247 13.7733 71.2114 13.5267 70.8114 13.34C70.4247 13.1533 69.9781 13.06 69.4714 13.06C68.8847 13.06 68.3447 13.18 67.8514 13.42C67.3714 13.6467 66.9914 13.96 66.7114 14.36C66.4314 14.76 66.2981 15.2133 66.3114 15.72ZM80.6522 21.12C79.9989 21.12 79.4055 21 78.8722 20.76C78.3389 20.52 77.8855 20.1867 77.5122 19.76C77.1389 19.32 76.8455 18.8067 76.6322 18.22C76.4322 17.6333 76.3389 16.9867 76.3522 16.28C76.3522 15.5867 76.4522 14.9467 76.6522 14.36C76.8522 13.7733 77.1389 13.2667 77.5122 12.84C77.8989 12.4 78.3522 12.0667 78.8722 11.84C79.4055 11.6 79.9989 11.48 80.6522 11.48C81.2655 11.48 81.8389 11.6 82.3722 11.84C82.9189 12.08 83.3922 12.42 83.7922 12.86C84.2055 13.2867 84.5255 13.8 84.7522 14.4C84.9922 15 85.1122 15.6467 85.1122 16.34C85.1122 17.0333 84.9922 17.6733 84.7522 18.26C84.5255 18.8467 84.2055 19.3533 83.7922 19.78C83.3922 20.2067 82.9189 20.54 82.3722 20.78C81.8389 21.0067 81.2655 21.12 80.6522 21.12ZM76.4922 25.14C76.2389 25.14 76.0455 25.1 75.9122 25.02C75.7922 24.9533 75.7055 24.8533 75.6522 24.72C75.6122 24.5867 75.5922 24.4267 75.5922 24.24V12.42C75.5922 12.2333 75.6122 12.0733 75.6522 11.94C75.6922 11.8067 75.7722 11.7067 75.8922 11.64C76.0255 11.56 76.2189 11.52 76.4722 11.52C76.7655 11.52 76.9789 11.5667 77.1122 11.66C77.2589 11.7533 77.3455 11.92 77.3722 12.16V24.22C77.3855 24.4067 77.3722 24.5667 77.3322 24.7C77.2922 24.8467 77.2055 24.9533 77.0722 25.02C76.9522 25.1 76.7589 25.14 76.4922 25.14ZM80.3922 19.48C80.9522 19.48 81.4589 19.3467 81.9122 19.08C82.3655 18.8 82.7189 18.42 82.9722 17.94C83.2389 17.46 83.3722 16.9133 83.3722 16.3C83.3722 15.6733 83.2389 15.1267 82.9722 14.66C82.7189 14.1933 82.3655 13.8333 81.9122 13.58C81.4722 13.3133 80.9655 13.18 80.3922 13.18C79.8322 13.18 79.3255 13.3133 78.8722 13.58C78.4322 13.8467 78.0789 14.2133 77.8122 14.68C77.5589 15.1467 77.4322 15.6867 77.4322 16.3C77.4322 16.9133 77.5589 17.46 77.8122 17.94C78.0789 18.42 78.4322 18.8 78.8722 19.08C79.3255 19.3467 79.8322 19.48 80.3922 19.48ZM91.6013 21.2C90.9746 21.2 90.4413 21.14 90.0013 21.02C89.5746 20.9 89.2213 20.7133 88.9413 20.46C88.6613 20.2067 88.4613 19.88 88.3413 19.48C88.2213 19.0667 88.1613 18.56 88.1613 17.96V9.12C88.1613 8.93333 88.1813 8.77333 88.2213 8.64C88.2613 8.50667 88.3413 8.40667 88.4613 8.34C88.5813 8.26 88.7679 8.22 89.0213 8.22C89.2746 8.22 89.4679 8.26 89.6013 8.34C89.7346 8.40667 89.8213 8.50667 89.8613 8.64C89.9013 8.76 89.9213 8.91333 89.9213 9.1V17.96C89.9213 18.3067 89.9479 18.5867 90.0013 18.8C90.0679 19 90.1613 19.1533 90.2813 19.26C90.4146 19.3667 90.5879 19.4333 90.8013 19.46C91.0146 19.4867 91.2746 19.5 91.5813 19.5C91.7946 19.5 91.9679 19.52 92.1013 19.56C92.2346 19.6 92.3346 19.68 92.4013 19.8C92.4679 19.92 92.5013 20.1 92.5013 20.34C92.5013 20.5933 92.4613 20.7867 92.3813 20.92C92.3146 21.04 92.2079 21.1133 92.0613 21.14C91.9279 21.18 91.7746 21.2 91.6013 21.2ZM87.1213 11.74L89.0413 11.76L91.8213 11.72C92.0079 11.72 92.1679 11.74 92.3013 11.78C92.4346 11.8067 92.5346 11.8867 92.6013 12.02C92.6813 12.14 92.7213 12.3267 92.7213 12.58C92.7213 12.8333 92.6879 13.0267 92.6213 13.16C92.5546 13.28 92.4546 13.36 92.3213 13.4C92.1879 13.44 92.0279 13.46 91.8413 13.46L89.1013 13.42L87.0813 13.44C86.8013 13.44 86.6079 13.3733 86.5013 13.24C86.4079 13.1067 86.3613 12.8867 86.3613 12.58C86.3613 12.2867 86.4213 12.0733 86.5413 11.94C86.6613 11.8067 86.8546 11.74 87.1213 11.74ZM103.691 21.24C102.998 21.24 102.344 21.1267 101.731 20.9C101.131 20.6733 100.598 20.3467 100.131 19.92C99.6778 19.4933 99.3178 18.9867 99.0511 18.4C98.7978 17.8 98.6711 17.12 98.6711 16.36C98.6711 15.6 98.7978 14.9267 99.0511 14.34C99.3178 13.74 99.6778 13.2267 100.131 12.8C100.584 12.3733 101.111 12.0467 101.711 11.82C102.324 11.5933 102.971 11.48 103.651 11.48C104.104 11.48 104.551 11.5533 104.991 11.7C105.431 11.8333 105.818 12.0133 106.151 12.24C106.498 12.4533 106.744 12.68 106.891 12.92C107.024 13.0933 107.118 13.24 107.171 13.36C107.238 13.4667 107.244 13.5933 107.191 13.74C107.138 13.8467 107.064 13.9467 106.971 14.04C106.878 14.12 106.784 14.1867 106.691 14.24C106.451 14.4267 106.211 14.4533 105.971 14.32C105.824 14.1733 105.658 14.04 105.471 13.92C105.298 13.7867 105.111 13.6667 104.911 13.56C104.711 13.4533 104.504 13.3733 104.291 13.32C104.091 13.2533 103.878 13.22 103.651 13.22C103.024 13.22 102.471 13.3533 101.991 13.62C101.511 13.8733 101.138 14.24 100.871 14.72C100.618 15.1867 100.491 15.7333 100.491 16.36C100.491 16.9867 100.618 17.5333 100.871 18C101.138 18.4667 101.504 18.8333 101.971 19.1C102.451 19.3667 102.998 19.5 103.611 19.5C103.891 19.5 104.158 19.4667 104.411 19.4C104.678 19.32 104.924 19.22 105.151 19.1C105.378 18.9667 105.564 18.8267 105.711 18.68C105.844 18.5867 105.958 18.5067 106.051 18.44C106.144 18.3733 106.258 18.34 106.391 18.34C106.498 18.34 106.611 18.3867 106.731 18.48C106.851 18.56 106.978 18.6867 107.111 18.86C107.218 18.98 107.278 19.1067 107.291 19.24C107.318 19.3733 107.298 19.5 107.231 19.62C107.164 19.74 107.058 19.86 106.911 19.98C106.698 20.1933 106.411 20.4 106.051 20.6C105.704 20.7867 105.324 20.94 104.911 21.06C104.498 21.18 104.091 21.24 103.691 21.24ZM113.667 21.32C113.014 21.32 112.387 21.1933 111.787 20.94C111.201 20.6867 110.674 20.34 110.207 19.9C109.741 19.4467 109.374 18.92 109.107 18.32C108.841 17.72 108.707 17.0667 108.707 16.36C108.707 15.6667 108.834 15.0267 109.087 14.44C109.341 13.84 109.694 13.3133 110.147 12.86C110.601 12.4067 111.121 12.0533 111.707 11.8C112.307 11.5333 112.947 11.4 113.627 11.4C114.547 11.4 115.374 11.62 116.107 12.06C116.854 12.4867 117.447 13.0733 117.887 13.82C118.327 14.5667 118.547 15.4067 118.547 16.34C118.547 17.0733 118.414 17.7467 118.147 18.36C117.881 18.96 117.521 19.48 117.067 19.92C116.614 20.36 116.094 20.7067 115.507 20.96C114.921 21.2 114.307 21.32 113.667 21.32ZM113.627 19.58C114.187 19.58 114.707 19.44 115.187 19.16C115.667 18.88 116.054 18.4933 116.347 18C116.641 17.5067 116.787 16.9467 116.787 16.32C116.787 15.6933 116.647 15.14 116.367 14.66C116.101 14.18 115.727 13.8067 115.247 13.54C114.767 13.2733 114.221 13.14 113.607 13.14C113.021 13.14 112.487 13.28 112.007 13.56C111.541 13.84 111.161 14.22 110.867 14.7C110.587 15.18 110.447 15.7267 110.447 16.34C110.447 16.98 110.594 17.5467 110.887 18.04C111.181 18.52 111.567 18.9 112.047 19.18C112.541 19.4467 113.067 19.58 113.627 19.58ZM124.859 21.32C124.205 21.32 123.579 21.1933 122.979 20.94C122.392 20.6867 121.865 20.34 121.399 19.9C120.932 19.4467 120.565 18.92 120.299 18.32C120.032 17.72 119.899 17.0667 119.899 16.36C119.899 15.6667 120.025 15.0267 120.279 14.44C120.532 13.84 120.885 13.3133 121.339 12.86C121.792 12.4067 122.312 12.0533 122.899 11.8C123.499 11.5333 124.139 11.4 124.819 11.4C125.739 11.4 126.565 11.62 127.299 12.06C128.045 12.4867 128.639 13.0733 129.079 13.82C129.519 14.5667 129.739 15.4067 129.739 16.34C129.739 17.0733 129.605 17.7467 129.339 18.36C129.072 18.96 128.712 19.48 128.259 19.92C127.805 20.36 127.285 20.7067 126.699 20.96C126.112 21.2 125.499 21.32 124.859 21.32ZM124.819 19.58C125.379 19.58 125.899 19.44 126.379 19.16C126.859 18.88 127.245 18.4933 127.539 18C127.832 17.5067 127.979 16.9467 127.979 16.32C127.979 15.6933 127.839 15.14 127.559 14.66C127.292 14.18 126.919 13.8067 126.439 13.54C125.959 13.2733 125.412 13.14 124.799 13.14C124.212 13.14 123.679 13.28 123.199 13.56C122.732 13.84 122.352 14.22 122.059 14.7C121.779 15.18 121.639 15.7267 121.639 16.34C121.639 16.98 121.785 17.5467 122.079 18.04C122.372 18.52 122.759 18.9 123.239 19.18C123.732 19.4467 124.259 19.58 124.819 19.58ZM139.11 19.64C139.363 19.84 139.497 20.0333 139.51 20.22C139.537 20.4067 139.443 20.6267 139.23 20.88C139.07 21.0667 138.923 21.1867 138.79 21.24C138.67 21.3067 138.543 21.3133 138.41 21.26C138.277 21.22 138.123 21.1267 137.95 20.98L133.43 17.3V20.3C133.43 20.4867 133.403 20.6467 133.35 20.78C133.31 20.9133 133.23 21.0133 133.11 21.08C132.99 21.16 132.797 21.2 132.53 21.2C132.29 21.2 132.103 21.16 131.97 21.08C131.837 21.0133 131.75 20.9133 131.71 20.78C131.683 20.6333 131.67 20.4667 131.67 20.28V7.94C131.67 7.75333 131.69 7.59333 131.73 7.46C131.77 7.32667 131.857 7.22667 131.99 7.16C132.123 7.08 132.31 7.04 132.55 7.04C132.817 7.04 133.01 7.08 133.13 7.16C133.25 7.22667 133.33 7.33333 133.37 7.48C133.41 7.61333 133.43 7.77333 133.43 7.96V15.04L136.73 11.88C136.877 11.7333 137.017 11.6333 137.15 11.58C137.297 11.5133 137.437 11.5 137.57 11.54C137.717 11.58 137.863 11.6867 138.01 11.86C138.25 12.1267 138.363 12.3533 138.35 12.54C138.35 12.7133 138.23 12.9133 137.99 13.14L134.75 16.2L139.11 19.64ZM142.435 21.2C142.182 21.2 141.989 21.16 141.855 21.08C141.735 21.0133 141.655 20.9133 141.615 20.78C141.575 20.6467 141.555 20.4867 141.555 20.3V12.4C141.555 12.2133 141.575 12.0533 141.615 11.92C141.655 11.7867 141.735 11.6867 141.855 11.62C141.989 11.5533 142.189 11.52 142.455 11.52C142.709 11.52 142.895 11.56 143.015 11.64C143.135 11.7067 143.215 11.8067 143.255 11.94C143.295 12.0733 143.315 12.24 143.315 12.44V20.32C143.315 20.5067 143.295 20.6667 143.255 20.8C143.215 20.9333 143.129 21.0333 142.995 21.1C142.875 21.1667 142.689 21.2 142.435 21.2ZM142.435 9.12C142.142 9.12 141.922 9.08 141.775 9C141.629 8.90667 141.529 8.78 141.475 8.62C141.435 8.46 141.415 8.27333 141.415 8.06C141.415 7.84667 141.442 7.66667 141.495 7.52C141.549 7.36 141.649 7.24667 141.795 7.18C141.942 7.1 142.162 7.06 142.455 7.06C142.735 7.06 142.949 7.1 143.095 7.18C143.242 7.26 143.335 7.38 143.375 7.54C143.429 7.7 143.455 7.88667 143.455 8.1C143.455 8.31333 143.429 8.5 143.375 8.66C143.335 8.80667 143.242 8.92 143.095 9C142.949 9.08 142.729 9.12 142.435 9.12ZM150.488 21.3C149.688 21.3 148.975 21.1667 148.348 20.9C147.721 20.6333 147.188 20.2733 146.748 19.82C146.321 19.3533 145.995 18.82 145.768 18.22C145.541 17.62 145.428 16.9733 145.428 16.28C145.428 15.36 145.641 14.54 146.068 13.82C146.495 13.1 147.081 12.5333 147.828 12.12C148.588 11.6933 149.455 11.48 150.428 11.48C151.095 11.48 151.688 11.5867 152.208 11.8C152.741 12 153.195 12.2733 153.568 12.62C153.941 12.9667 154.228 13.3533 154.428 13.78C154.628 14.2067 154.728 14.6333 154.728 15.06C154.728 15.74 154.568 16.22 154.248 16.5C153.928 16.7667 153.535 16.9 153.068 16.9H147.288C147.275 17.4867 147.428 17.9933 147.748 18.42C148.081 18.8333 148.495 19.1533 148.988 19.38C149.495 19.6067 150.001 19.72 150.508 19.72C150.881 19.72 151.201 19.7 151.468 19.66C151.735 19.62 151.968 19.5667 152.168 19.5C152.368 19.4333 152.541 19.3667 152.688 19.3C152.835 19.2333 152.961 19.1667 153.068 19.1C153.188 19.0333 153.301 18.9867 153.408 18.96C153.528 18.9333 153.641 18.9467 153.748 19C153.868 19.04 153.961 19.1267 154.028 19.26C154.108 19.3667 154.161 19.4667 154.188 19.56C154.215 19.6533 154.228 19.7533 154.228 19.86C154.228 20.0467 154.068 20.2533 153.748 20.48C153.428 20.7067 152.981 20.9 152.408 21.06C151.848 21.22 151.208 21.3 150.488 21.3ZM147.288 15.72H152.308C152.561 15.72 152.748 15.6867 152.868 15.62C153.001 15.5533 153.068 15.3733 153.068 15.08C153.068 14.7067 152.955 14.3733 152.728 14.08C152.501 13.7733 152.188 13.5267 151.788 13.34C151.401 13.1533 150.955 13.06 150.448 13.06C149.861 13.06 149.321 13.18 148.828 13.42C148.348 13.6467 147.968 13.96 147.688 14.36C147.408 14.76 147.275 15.2133 147.288 15.72ZM159.949 21.3C159.629 21.3 159.295 21.2667 158.949 21.2C158.602 21.1333 158.262 21.04 157.929 20.92C157.609 20.7867 157.322 20.6333 157.069 20.46C156.829 20.2867 156.649 20.0933 156.529 19.88C156.462 19.7467 156.422 19.6267 156.409 19.52C156.395 19.4 156.415 19.2867 156.469 19.18C156.522 19.0733 156.602 18.9667 156.709 18.86C156.842 18.7 156.975 18.6267 157.109 18.64C157.242 18.64 157.409 18.7267 157.609 18.9C157.755 18.9933 157.929 19.1 158.129 19.22C158.329 19.3267 158.535 19.4267 158.749 19.52C158.962 19.6 159.175 19.6733 159.389 19.74C159.615 19.7933 159.835 19.82 160.049 19.82C160.662 19.82 161.155 19.7067 161.529 19.48C161.902 19.24 162.089 18.9267 162.089 18.54C162.089 18.3133 162.042 18.12 161.949 17.96C161.855 17.8 161.729 17.6667 161.569 17.56C161.409 17.44 161.229 17.34 161.029 17.26C160.829 17.18 160.602 17.1067 160.349 17.04C160.109 16.96 159.869 16.8867 159.629 16.82C159.269 16.7267 158.915 16.62 158.569 16.5C158.222 16.38 157.909 16.2267 157.629 16.04C157.349 15.84 157.122 15.5933 156.949 15.3C156.775 14.9933 156.689 14.6067 156.689 14.14C156.689 13.5933 156.829 13.12 157.109 12.72C157.389 12.32 157.782 12.0133 158.289 11.8C158.795 11.5733 159.389 11.46 160.069 11.46C160.362 11.46 160.635 11.48 160.889 11.52C161.142 11.56 161.382 11.6267 161.609 11.72C161.849 11.8 162.075 11.9 162.289 12.02C162.502 12.1267 162.709 12.26 162.909 12.42C163.149 12.58 163.275 12.7533 163.289 12.94C163.302 13.1267 163.229 13.32 163.069 13.52C162.949 13.6933 162.815 13.8067 162.669 13.86C162.522 13.9 162.375 13.86 162.229 13.74C162.015 13.58 161.789 13.44 161.549 13.32C161.309 13.2 161.062 13.1 160.809 13.02C160.555 12.94 160.295 12.9 160.029 12.9C159.695 12.9 159.395 12.9533 159.129 13.06C158.875 13.1533 158.675 13.3 158.529 13.5C158.395 13.6867 158.329 13.9 158.329 14.14C158.329 14.3533 158.382 14.5267 158.489 14.66C158.609 14.7933 158.755 14.9067 158.929 15C159.115 15.0933 159.329 15.18 159.569 15.26C159.822 15.3267 160.082 15.3933 160.349 15.46C160.735 15.5533 161.129 15.6667 161.529 15.8C161.942 15.92 162.309 16.0867 162.629 16.3C162.962 16.5 163.229 16.7733 163.429 17.12C163.642 17.4533 163.749 17.9 163.749 18.46C163.749 19.34 163.402 20.0333 162.709 20.54C162.015 21.0467 161.095 21.3 159.949 21.3Z" fill="white"/>
<path fill-rule="evenodd" clip-rule="evenodd" d="M23.2208 8.9929V8.99769C23.8208 10.4425 24.126 11.9778 24.126 13.5625C24.126 20.1776 18.741 25.5625 12.126 25.5625C5.51092 25.5625 0.125977 20.1776 0.125977 13.5625C0.125977 6.94741 5.51092 1.5625 12.126 1.5625C13.376 1.5625 14.6111 1.75725 15.787 2.13781C15.7918 2.13781 15.7918 2.14261 15.7918 2.14261H15.8068C15.8237 2.14835 15.8373 2.15859 15.8514 2.16912L15.8646 2.17889L15.8703 2.18282L15.8767 2.18691L15.8801 2.18892L15.8871 2.19268C15.9124 2.20777 15.9426 2.21257 15.9674 2.23245C15.9674 2.23245 15.9674 2.23408 15.9683 2.23544C15.9689 2.23642 15.9701 2.23725 15.9721 2.23725C15.9991 2.26474 16.0185 2.29226 16.0405 2.32342L16.0469 2.33256C16.0499 2.33644 16.0529 2.34011 16.0561 2.34372L16.0631 2.35147C16.0694 2.35837 16.0757 2.36526 16.0811 2.37293C16.0854 2.37879 16.0892 2.38512 16.0921 2.39222C16.1002 2.40628 16.1054 2.42161 16.1093 2.43762L16.1113 2.44656L16.1135 2.45748L16.1169 2.47724L16.1215 2.48988L16.1264 2.50293L16.1268 2.50391C16.1351 2.52551 16.1436 2.54785 16.147 2.57256C16.147 2.58073 16.146 2.58904 16.1449 2.59766V2.60162C16.1436 2.61284 16.1422 2.6247 16.1422 2.6377C16.1422 2.68294 16.1375 2.72272 16.1272 2.76799V2.77279C16.1214 2.78962 16.1112 2.80495 16.1014 2.81951C16.0937 2.83105 16.0863 2.84209 16.0818 2.85301C16.0668 2.8832 16.0565 2.91335 16.0366 2.93803C15.3961 3.71839 15.0464 4.69348 15.0464 5.69324C15.0464 8.08774 16.9959 10.0379 19.3911 10.0379C20.5212 10.0379 21.5909 9.60319 22.4062 8.81324C22.4129 8.80765 22.4197 8.80288 22.4264 8.79859C22.4361 8.79244 22.4458 8.78726 22.4555 8.78211C22.464 8.77761 22.4726 8.77311 22.481 8.76799C22.5112 8.74811 22.531 8.72822 22.5612 8.71313H22.5714C22.6064 8.69872 22.6469 8.69324 22.6867 8.68845C22.7113 8.68845 22.7368 8.67335 22.7614 8.67815C22.7916 8.67815 22.8163 8.68845 22.8464 8.69324C22.8814 8.69804 22.9163 8.70283 22.9465 8.71313C22.9595 8.71943 22.9706 8.7281 22.9822 8.73757L22.9885 8.74284L23.0015 8.7529C23.0412 8.77279 23.0761 8.79267 23.1111 8.82286C23.1111 8.82573 23.1111 8.82688 23.1121 8.82736C23.1128 8.82765 23.114 8.82765 23.1159 8.82765C23.1358 8.85233 23.1508 8.88249 23.166 8.91267C23.181 8.93735 23.2058 8.95244 23.2161 8.9826C23.2161 8.98562 23.2161 8.98698 23.2169 8.9884L23.2183 8.99029L23.2208 8.9929ZM3.62586 15.0621C3.62586 16.1675 4.52145 17.0624 5.6261 17.0624C6.73074 17.0624 7.62633 16.1675 7.62633 15.0621C7.62633 13.9568 6.73074 13.0619 5.6261 13.0619C4.52074 13.0619 3.62586 13.9575 3.62586 15.0621ZM8.62539 6.56206C7.80046 6.56206 7.12574 7.23748 7.12574 8.06238C7.12574 8.88731 7.80117 9.56274 8.62539 9.56206C9.45102 9.56206 10.1257 8.88731 10.1257 8.06238C10.1257 7.23677 9.45031 6.56206 8.62539 6.56206ZM11.6261 20.0624C11.6261 20.888 12.3008 21.5627 13.1257 21.5627C13.9507 21.5627 14.6261 20.8873 14.6261 20.0624C14.6261 19.2375 13.9507 18.5627 13.1257 18.5627C12.3008 18.5627 11.6261 19.2375 11.6261 20.0624ZM12.126 13.3122C12.126 14.4176 13.0216 15.3124 14.1262 15.3124C15.2309 15.3124 16.1257 14.4176 16.1264 13.3122C16.1264 12.2069 15.2309 11.312 14.1262 11.312C13.0209 11.312 12.126 12.2075 12.126 13.3122Z" fill="white"/>
</svg>
