<svg width="23" height="22" viewBox="0 0 23 22" fill="none" xmlns="http://www.w3.org/2000/svg">
<path d="M11.4999 21.6447C17.3785 21.6447 22.144 16.8792 22.144 11.0006C22.144 5.12199 17.3785 0.356445 11.4999 0.356445C5.62126 0.356445 0.855713 5.12199 0.855713 11.0006C0.855713 16.8792 5.62126 21.6447 11.4999 21.6447Z" fill="url(#paint0_linear_181_11550)"/>
<path d="M11.4999 21.8001C17.4646 21.8001 22.2999 16.9648 22.2999 11.0001C22.2999 5.0355 17.4646 0.200195 11.4999 0.200195C5.53525 0.200195 0.699951 5.0355 0.699951 11.0001C0.699951 16.9648 5.53525 21.8001 11.4999 21.8001Z" fill="url(#paint1_linear_181_11550)"/>
<path d="M11.3045 0.591011C17.2692 0.591011 22.1045 5.42634 22.1045 11.391C22.1045 13.123 21.6866 14.754 20.9619 16.2049C21.813 14.6609 22.2999 12.8879 22.2999 11.0002C22.2999 5.03552 17.4646 0.200195 11.4999 0.200195C7.2673 0.200195 3.61354 2.64095 1.84253 6.18632C3.68079 2.85172 7.22755 0.591011 11.3045 0.591011Z" fill="white" fill-opacity="0.313726"/>
<path d="M11.7486 21.4211C5.78392 21.4211 0.948591 16.5858 0.948591 10.6212C0.948591 8.48797 1.57542 6.50489 2.64285 4.83008C1.42149 6.57992 0.699951 8.7043 0.699951 11.0001C0.699951 16.9648 5.53528 21.8001 11.4999 21.8001C15.3314 21.8001 18.6885 19.7992 20.6057 16.7912C18.6539 19.5876 15.4175 21.4211 11.7486 21.4211Z" fill="white" fill-opacity="0.25098"/>
<path d="M12.0221 20.5926C6.05742 20.5926 1.22219 15.7573 1.22219 9.79267C1.22219 8.49528 1.46272 7.25692 1.88214 6.10449C1.13176 7.5754 0.699951 9.23611 0.699951 11.0006C0.699951 16.9652 5.53528 21.8005 11.4999 21.8005C16.1672 21.8005 20.1312 18.8343 21.64 14.6887C19.8539 18.19 16.2223 20.5926 12.0221 20.5926Z" fill="white" fill-opacity="0.12549"/>
<path d="M10.9848 1.21271C16.9495 1.21271 21.7848 6.04804 21.7848 12.0127C21.7848 13.5628 21.4523 15.0333 20.8642 16.3657C21.7727 14.7839 22.3 12.9553 22.3 11.0002C22.3 5.03552 17.4646 0.200195 11.4999 0.200195C7.08541 0.200195 3.29547 2.85224 1.62061 6.64708C3.48377 3.4029 6.97525 1.21271 10.9848 1.21271Z" fill="white" fill-opacity="0.25098"/>
<path d="M11.5 3.50195C7.35868 3.50195 4.00146 6.85917 4.00146 11.0004C4.00146 15.1418 7.35868 18.4989 11.5 18.4989C15.6413 18.4989 18.9984 15.1417 18.9984 11.0004C18.9985 6.85917 15.6413 3.50195 11.5 3.50195ZM11.5 17.6699C7.81655 17.6699 4.83052 14.6839 4.83052 11.0004C4.83052 7.31699 7.81655 4.33096 11.5 4.33096C15.1834 4.33096 18.1695 7.31699 18.1695 11.0004C18.1695 14.6839 15.1835 17.6699 11.5 17.6699Z" fill="url(#paint2_linear_181_11550)"/>
<g opacity="0.4">
<path d="M18.1696 11.0006C18.1696 7.31709 15.1836 4.33105 11.5001 4.33105C9.13276 4.33105 7.05863 5.56811 5.875 7.42744C7.0739 5.65566 9.10209 4.49094 11.4024 4.49094C15.0859 4.49094 18.0719 7.47697 18.0719 11.1604C18.0719 12.4765 17.6856 13.7 17.0275 14.7335C17.7484 13.6682 18.1696 12.3836 18.1696 11.0006Z" fill="white"/>
<path d="M11.5 18.499C7.35866 18.499 4.00154 15.1418 4.00154 11.0006C4.00154 9.51276 4.44021 8.12998 5.18747 6.96387C4.37723 8.16142 3.90381 9.6056 3.90381 11.1604C3.90381 15.3017 7.26102 18.6588 11.4023 18.6588C14.0559 18.6588 16.382 17.2768 17.7148 15.197C16.3669 17.1893 14.0864 18.499 11.5 18.499Z" fill="white"/>
</g>
<g opacity="0.2">
<path d="M11.2956 3.87501C15.4369 3.87501 18.794 7.23222 18.794 11.3735C18.794 12.5975 18.4947 13.7495 17.9746 14.77C18.6214 13.6616 18.9983 12.3763 18.9983 11.0005C18.9983 6.85917 15.6411 3.50195 11.4998 3.50195C8.58256 3.50195 6.06045 5.17144 4.8208 7.60379C6.12083 5.37611 8.53029 3.87501 11.2956 3.87501Z" fill="url(#paint3_linear_181_11550)"/>
<path d="M4.62622 11.3735C4.62622 15.0569 7.6123 18.0429 11.2957 18.0429C13.8982 18.0429 16.1469 16.5489 17.2459 14.3749C16.0866 16.3443 13.9506 17.6699 11.5 17.6699C7.81659 17.6699 4.83056 14.6839 4.83056 11.0005C4.83056 9.9195 5.09345 8.902 5.54993 7.99902C4.96668 8.98979 4.62622 10.1406 4.62622 11.3735Z" fill="url(#paint4_linear_181_11550)"/>
</g>
<path d="M12.4206 19.5028C6.45592 19.5028 1.62064 14.6675 1.62064 8.70287C1.62064 7.70443 1.76694 6.74198 2.02053 5.82422C1.17938 7.36132 0.699951 9.12451 0.699951 11.0003C0.699951 16.9649 5.53528 21.8002 11.4999 21.8002C16.4661 21.8002 20.6387 18.4438 21.9 13.8788C20.0665 17.2296 16.5095 19.5028 12.4206 19.5028Z" fill="url(#paint5_linear_181_11550)"/>
<path opacity="0.7" d="M5.14812 8.80307C5.25588 8.5575 5.37468 8.3176 5.50966 8.08816C5.05328 8.99114 4.79028 10.0087 4.79028 11.0896C4.79028 14.773 7.77636 17.7591 11.4598 17.7591C13.8807 17.7591 15.9907 16.4626 17.1593 14.5325C17.1877 14.4797 17.2187 14.4285 17.2458 14.3749C16.0865 16.3443 13.9505 17.6699 11.4999 17.6699C7.81649 17.6699 4.83046 14.6839 4.83046 11.0005C4.83046 9.9195 5.09336 8.902 5.54984 7.99902C5.3983 8.25635 5.2651 8.52549 5.14812 8.80307Z" fill="white"/>
<path opacity="0.4" d="M11.367 6.18575L13.2258 8.32467C13.2827 8.3902 13.3538 8.44186 13.4338 8.47573L16.0424 9.58261C16.3619 9.71816 16.4876 10.1049 16.3088 10.4024L14.849 12.8312C14.8043 12.9056 14.7771 12.9892 14.7695 13.0757L14.523 15.8987C14.4928 16.2444 14.1637 16.4835 13.8256 16.4054L11.0646 15.7675C10.98 15.7479 10.8921 15.7479 10.8075 15.7675L8.04647 16.4054C7.70831 16.4835 7.37927 16.2444 7.34908 15.8987L7.10255 13.0757C7.09501 12.9892 7.06783 12.9056 7.02306 12.8312L5.56324 10.4024C5.38444 10.105 5.51015 9.71816 5.82964 9.58261L8.43829 8.47573C8.51819 8.44182 8.58932 8.39017 8.64628 8.32467L10.5051 6.18575C10.7326 5.92376 11.1394 5.92376 11.367 6.18575Z" fill="url(#paint6_linear_181_11550)"/>
<path opacity="0.4" d="M11.6011 5.75895L13.4598 7.89793C13.5168 7.96343 13.5879 8.0151 13.6678 8.04898L16.2765 9.15582C16.596 9.29142 16.7217 9.6782 16.5429 9.97566L15.083 12.4045C15.0383 12.4789 15.0112 12.5625 15.0036 12.6489L14.7571 15.4719C14.7269 15.8176 14.3978 16.0567 14.0597 15.9786L11.2986 15.3407C11.214 15.3211 11.1261 15.3211 11.0416 15.3407L8.28051 15.9786C7.94239 16.0567 7.61335 15.8176 7.58316 15.4719L7.33659 12.6489C7.32906 12.5625 7.3019 12.4788 7.25719 12.4045L5.79737 9.97566C5.61857 9.67825 5.74428 9.29142 6.06372 9.15582L8.67238 8.04898C8.75227 8.01507 8.8234 7.96342 8.88036 7.89793L10.7392 5.75895C10.9666 5.49702 11.3734 5.49702 11.6011 5.75895Z" fill="url(#paint7_linear_181_11550)"/>
<path d="M11.931 5.4484L13.7898 7.58733C13.8467 7.65287 13.9179 7.70455 13.9978 7.73843L16.6064 8.84526C16.9259 8.98086 17.0516 9.36765 16.8728 9.6651L15.413 12.0939C15.3683 12.1683 15.3411 12.2519 15.3336 12.3383L15.087 15.1613C15.0568 15.507 14.7277 15.7461 14.3897 15.668L11.6286 15.0302C11.544 15.0106 11.4561 15.0106 11.3716 15.0302L8.61041 15.6681C8.2723 15.7462 7.94326 15.5071 7.91302 15.1614L7.66645 12.3384C7.65891 12.2519 7.63176 12.1683 7.58705 12.094L6.12718 9.66515C5.94843 9.36774 6.07409 8.98091 6.39358 8.84531L9.00224 7.73848C9.08215 7.70457 9.15328 7.65289 9.21022 7.58738L11.069 5.44845C11.2966 5.18646 11.7033 5.18646 11.931 5.4484Z" fill="url(#paint8_linear_181_11550)"/>
<g opacity="0.2">
<path d="M16.6062 8.8453L13.9976 7.73847C13.9177 7.70456 13.8466 7.65288 13.7896 7.58737L11.9308 5.44844C11.7031 5.18646 11.2964 5.18646 11.0688 5.44844L9.20998 7.58737C9.15306 7.65291 9.08192 7.70459 9.00199 7.73847L6.39334 8.8453C6.07385 8.9809 5.94819 9.36769 6.12694 9.66514L6.29201 9.93985L8.43804 9.02929C8.51794 8.99536 8.58907 8.94369 8.64603 8.87818L10.5048 6.73926C10.7325 6.47732 11.1391 6.47732 11.3668 6.73926L13.2256 8.87818C13.2825 8.94372 13.3537 8.9954 13.4336 9.02929L16.0423 10.1361C16.2103 10.2074 16.3202 10.3491 16.3649 10.5098L16.8726 9.66519C17.0515 9.36774 16.9257 8.9809 16.6062 8.8453ZM14.8489 13.3847C14.8041 13.4591 14.777 13.5427 14.7695 13.6292L14.5912 15.6701C14.8479 15.6362 15.0628 15.4367 15.0869 15.1615L15.3089 12.6195L14.8489 13.3847Z" fill="white"/>
</g>
<path opacity="0.4" d="M14.4786 15.5606L11.7175 14.9227C11.6329 14.9032 11.545 14.9032 11.4605 14.9227L8.69945 15.5606C8.36129 15.6386 8.0323 15.3997 8.00206 15.0539L7.75548 12.2309C7.74798 12.1444 7.72083 12.0608 7.67609 11.9864L6.21627 9.55762C6.09819 9.36125 6.123 9.13133 6.23864 8.95508C6.044 9.13244 5.9827 9.42433 6.12708 9.66466L7.58696 12.0935C7.63167 12.1679 7.65882 12.2515 7.66635 12.338L7.91292 15.161C7.94312 15.5066 8.2722 15.7457 8.61032 15.6676L11.3713 15.0298C11.4559 15.0102 11.5438 15.0102 11.6284 15.0298L14.3894 15.6676C14.6475 15.7273 14.8979 15.6008 15.0165 15.3844C14.8829 15.5278 14.6869 15.6087 14.4786 15.5606Z" fill="white"/>
<g opacity="0.1">
<path d="M3.16089 17.8631L17.7911 2.23381C16.0183 0.959123 13.85 0.200195 11.4998 0.200195C10.5776 0.200195 9.68731 0.328211 8.83276 0.545699L1.28735 14.4903C1.7111 15.7302 2.34484 16.8727 3.16089 17.8631ZM22.2797 11.3988C22.2846 11.2654 22.2998 11.1348 22.2998 11.0002C22.2998 8.57922 21.4935 6.35202 20.1481 4.55092L5.55038 20.0098C6.29879 20.505 7.1147 20.903 7.97793 21.2011C12.0693 18.4107 17.6903 14.553 22.2797 11.3988Z" fill="white"/>
</g>
<defs>
<linearGradient id="paint0_linear_181_11550" x1="3.77416" y1="21.1013" x2="17.1794" y2="3.57509" gradientUnits="userSpaceOnUse">
<stop stop-color="#DDE9F5"/>
<stop offset="0.246" stop-color="#A1AAB3"/>
<stop offset="1" stop-color="#EBF5FF"/>
</linearGradient>
<linearGradient id="paint1_linear_181_11550" x1="3.66107" y1="21.2488" x2="17.2626" y2="3.46592" gradientUnits="userSpaceOnUse">
<stop stop-color="#DDE9F5"/>
<stop offset="0.246" stop-color="#A1AAB3"/>
<stop offset="1" stop-color="#EBF5FF"/>
</linearGradient>
<linearGradient id="paint2_linear_181_11550" x1="16.3838" y1="5.24891" x2="5.98646" y2="17.4936" gradientUnits="userSpaceOnUse">
<stop offset="0.246" stop-color="#A1AAB3"/>
<stop offset="1" stop-color="#F0F7FF"/>
</linearGradient>
<linearGradient id="paint3_linear_181_11550" x1="16.3274" y1="5.22472" x2="9.92666" y2="12.7628" gradientUnits="userSpaceOnUse">
<stop offset="0.246" stop-color="#A1AAB3"/>
<stop offset="1" stop-color="#F0F7FF"/>
</linearGradient>
<linearGradient id="paint4_linear_181_11550" x1="12.3623" y1="10.1945" x2="6.65446" y2="16.9165" gradientUnits="userSpaceOnUse">
<stop offset="0.246" stop-color="#A1AAB3"/>
<stop offset="1" stop-color="#F0F7FF"/>
</linearGradient>
<linearGradient id="paint5_linear_181_11550" x1="8.11355" y1="15.7238" x2="14.6267" y2="6.77121" gradientUnits="userSpaceOnUse">
<stop offset="0.246" stop-color="#A1AAB3"/>
<stop offset="1" stop-color="#F0F7FF"/>
</linearGradient>
<linearGradient id="paint6_linear_181_11550" x1="9.28362" y1="14.4347" x2="6.15729" y2="20.7584" gradientUnits="userSpaceOnUse">
<stop offset="0.246" stop-color="#A1AAB3"/>
<stop offset="1" stop-color="#F0F7FF"/>
</linearGradient>
<linearGradient id="paint7_linear_181_11550" x1="9.51766" y1="14.0079" x2="6.39132" y2="20.3316" gradientUnits="userSpaceOnUse">
<stop offset="0.246" stop-color="#A1AAB3"/>
<stop offset="1" stop-color="#F0F7FF"/>
</linearGradient>
<linearGradient id="paint8_linear_181_11550" x1="5.19872" y1="18.7306" x2="15.1091" y2="6.75131" gradientUnits="userSpaceOnUse">
<stop stop-color="#DDE9F5"/>
<stop offset="0.246" stop-color="#A1AAB3"/>
<stop offset="1" stop-color="#EBF5FF"/>
</linearGradient>
</defs>
</svg>
