<svg width="80" height="80" viewBox="0 0 80 80" fill="none" xmlns="http://www.w3.org/2000/svg">
<path fill-rule="evenodd" clip-rule="evenodd" d="M18.3051 18.4806C18.3051 16.3744 20.0125 14.667 22.1186 14.667H54.5763H54.8305C54.8842 14.667 54.9377 14.6681 54.9909 14.6703C68.8408 14.8918 80 26.1881 80 40.0907C80 53.9934 68.8407 65.2897 54.9908 65.5111C54.9376 65.5133 54.8842 65.5144 54.8305 65.5144H54.5903L54.5763 65.5144L54.5622 65.5144H22.1186C20.0125 65.5144 18.3051 63.8071 18.3051 61.7009C18.3051 59.5947 20.0125 57.8873 22.1186 57.8873H29.8355C32.2864 57.8873 33.6816 54.784 32.4687 52.6544C31.9429 51.7311 30.9816 51.1077 29.9192 51.1077H20.0848C17.9786 51.1077 16.2712 49.4003 16.2712 47.2941C16.2712 45.1879 17.9786 43.4806 20.0847 43.4806H25.9768C27.7771 43.4806 29.1525 41.8909 29.1525 40.0907C29.1525 38.2905 27.7771 36.7009 25.9769 36.7009H14.8305C12.7243 36.7009 11.0169 34.9935 11.0169 32.8873C11.0169 30.7812 12.7243 29.0738 14.8305 29.0738H29.9191C30.9816 29.0738 31.9429 28.4503 32.4687 27.5271C33.6816 25.3974 32.2864 22.2941 29.8355 22.2941H22.1186C20.0125 22.2941 18.3051 20.5867 18.3051 18.4806ZM7.62712 32.8873C7.62712 34.9935 5.91973 36.7009 3.81356 36.7009C1.70739 36.7009 0 34.9935 0 32.8873C0 30.7812 1.70739 29.0738 3.81356 29.0738C5.91973 29.0738 7.62712 30.7812 7.62712 32.8873ZM11.1017 65.5144C13.2079 65.5144 14.9153 63.8071 14.9153 61.7009C14.9153 59.5947 13.2079 57.8873 11.1017 57.8873C8.99552 57.8873 7.28814 59.5947 7.28814 61.7009C7.28814 63.8071 8.99552 65.5144 11.1017 65.5144Z" fill="#74CA45"/>
<ellipse cx="54.5763" cy="40.0909" rx="20.339" ry="20.339" fill="white"/>
<g clip-path="url(#clip0_173_23593)">
<path d="M54.6611 54.0132C62.3968 54.0132 68.6677 47.7422 68.6677 40.0066C68.6677 32.271 62.3968 26 54.6611 26C46.9255 26 40.6545 32.271 40.6545 40.0066C40.6545 47.7422 46.9255 54.0132 54.6611 54.0132Z" fill="#292F33"/>
<path d="M65.8664 40.0061C65.8664 46.1945 60.8495 51.2113 54.6611 51.2113C48.4726 51.2113 43.4558 46.1945 43.4558 40.0061C43.4558 33.8176 48.4726 28.8008 54.6611 28.8008C60.8495 28.8008 65.8664 33.8176 65.8664 40.0061Z" fill="#FFC02D"/>
<path d="M55.8516 33.9625L53.7597 31.8706C53.9163 31.6885 53.9958 31.4525 53.9814 31.2127C53.9669 30.9729 53.8596 30.7482 53.6822 30.5862C53.5048 30.4243 53.2712 30.3378 53.0311 30.3452C52.791 30.3525 52.5632 30.4531 52.3961 30.6256C52.1736 30.8481 52.0896 31.1554 52.1399 31.4421C51.9458 31.4076 51.7457 31.436 51.5689 31.523C51.392 31.61 51.2475 31.7512 51.1564 31.926C51.0653 32.1008 51.0324 32.3001 51.0624 32.495C51.0925 32.6898 51.1839 32.87 51.3234 33.0092C51.6653 33.3512 52.2049 33.366 52.5683 33.062L54.6602 35.1531L55.8516 33.9625Z" fill="#FFE8B6"/>
<path d="M62.6275 41.9313C63.2232 41.3356 64.7293 38.779 62.6448 36.6945C61.1923 35.2419 60.0215 35.3251 57.8439 34.7855C56.9507 34.4872 55.7857 33.4136 55.4883 33.1162C55.19 33.4136 55.2947 34.5029 55.2947 34.5029C55.2947 34.5029 53.997 34.6083 53.6987 34.9058C53.9962 35.2032 55.3803 36.5124 55.6226 37.1262C56.2735 39.1926 56.1993 40.2439 57.6527 41.6957C60.0347 44.0776 62.0327 42.527 62.6275 41.9313Z" fill="#C1694F"/>
<path d="M47.5202 38.7704C47.5202 40.3631 50.0735 41.6541 48.4817 41.6541C48.103 41.6541 47.7281 41.5795 47.3782 41.4346C47.0283 41.2897 46.7104 41.0773 46.4426 40.8095C46.1749 40.5417 45.9625 40.2238 45.8175 39.874C45.6726 39.5241 45.598 39.1491 45.598 38.7704C45.598 38.3917 45.6726 38.0167 45.8175 37.6669C45.9625 37.317 46.1749 36.9991 46.4426 36.7313C46.7104 36.4636 47.0283 36.2511 47.3782 36.1062C47.7281 35.9613 48.103 35.8867 48.4817 35.8867C50.0744 35.8867 47.5202 37.1778 47.5202 38.7704ZM54.6759 46.5894C55.9934 47.2246 58.0837 45.6279 57.4476 46.9462C57.1419 47.5792 56.5972 48.0649 55.9334 48.2963C55.2696 48.5278 54.5411 48.4861 53.908 48.1804C53.275 47.8747 52.7893 47.33 52.5579 46.6662C52.3264 46.0024 52.3681 45.2739 52.6738 44.6408C53.3099 43.3226 53.3585 45.9533 54.6759 46.5894Z" fill="#77B255"/>
<path d="M52.1893 40.8298C53.0994 40.8298 53.8372 40.0921 53.8372 39.182C53.8372 38.2719 53.0994 37.5342 52.1893 37.5342C51.2793 37.5342 50.5415 38.2719 50.5415 39.182C50.5415 40.0921 51.2793 40.8298 52.1893 40.8298Z" fill="#F4900C"/>
<path d="M59.6046 45.7738C60.0596 45.7738 60.4285 45.4049 60.4285 44.9499C60.4285 44.4949 60.0596 44.126 59.6046 44.126C59.1495 44.126 58.7806 44.4949 58.7806 44.9499C58.7806 45.4049 59.1495 45.7738 59.6046 45.7738Z" fill="#F4900C"/>
<path d="M48.8936 44.9496C49.3487 44.9496 49.7175 44.5807 49.7175 44.1257C49.7175 43.6706 49.3487 43.3018 48.8936 43.3018C48.4386 43.3018 48.0697 43.6706 48.0697 44.1257C48.0697 44.5807 48.4386 44.9496 48.8936 44.9496Z" fill="#F4900C"/>
</g>
<defs>
<clipPath id="clip0_173_23593">
<rect width="29.661" height="29.661" fill="white" transform="translate(39.8306 25.1758)"/>
</clipPath>
</defs>
</svg>
