<svg width="48" height="48" viewBox="0 0 48 48" fill="none" xmlns="http://www.w3.org/2000/svg">
<circle cx="24" cy="24" r="24" fill="#F4F4F4"/>
<path fill-rule="evenodd" clip-rule="evenodd" d="M28.9395 15C30.2805 15 31.5705 15.53 32.5195 16.481C33.4695 17.43 34.0005 18.71 34.0005 20.05V27.95C34.0005 30.74 31.7305 33 28.9395 33H19.0605C16.2695 33 14.0005 30.74 14.0005 27.95V20.05C14.0005 17.26 16.2595 15 19.0605 15H28.9395ZM30.5305 21.54L30.6105 21.46C30.8495 21.17 30.8495 20.75 30.5995 20.46C30.4605 20.311 30.2695 20.22 30.0705 20.2C29.8605 20.189 29.6605 20.26 29.5095 20.4L25.0005 24C24.4205 24.481 23.5895 24.481 23.0005 24L18.5005 20.4C18.1895 20.17 17.7595 20.2 17.5005 20.47C17.2305 20.74 17.2005 21.17 17.4295 21.47L17.5605 21.6L22.1105 25.15C22.6705 25.59 23.3495 25.83 24.0605 25.83C24.7695 25.83 25.4605 25.59 26.0195 25.15L30.5305 21.54Z" fill="#847D79"/>
</svg>
