<svg width="55" height="53" viewBox="0 0 55 53" fill="none" xmlns="http://www.w3.org/2000/svg">
<ellipse cx="27.6014" cy="26.4795" rx="27.1014" ry="26.4795" fill="#F17228"/>
<path d="M25.8989 13.9753L18.9476 28.42C18.8314 28.6614 18.7795 28.9276 18.7967 29.1939C18.8139 29.4602 18.8997 29.718 19.0461 29.9432C19.1924 30.1685 19.3947 30.354 19.634 30.4825C19.8734 30.611 20.1421 30.6783 20.4152 30.6782H25.2874L22.1823 38.2658C21.7257 39.3813 23.228 40.255 24.014 39.3308L35.3662 25.9819C35.9867 25.2524 35.456 24.1463 34.4849 24.1463H30.1956L35.9682 14.4138C36.0388 14.295 36.0761 14.1601 36.0763 14.0227C36.0766 13.8853 36.0397 13.7502 35.9695 13.6312C35.8993 13.5121 35.7983 13.4133 35.6765 13.3445C35.5547 13.2758 35.4166 13.2397 35.2759 13.2397H27.0854C26.8366 13.24 26.593 13.3092 26.383 13.4395C26.1729 13.5697 26.0051 13.7555 25.8989 13.9753Z" fill="white"/>
</svg>
