<svg width="56" height="56" viewBox="0 0 56 56" fill="none" xmlns="http://www.w3.org/2000/svg">
<g clip-path="url(#clip0_181_9815)">
<path d="M6.90196 36.6066L1.40119 49.5372C0.557404 51.5209 1.13334 55 2.3055 55H53.6947C54.8697 55 55.4443 51.5055 54.5944 49.5266L49.0373 36.5874C48.5997 35.5682 48.0179 35 47.4127 35H8.53456C7.92576 35.0003 7.34041 35.5759 6.90196 36.6066Z" fill="white" stroke="black"/>
<path d="M33.6571 38.0034L32.5001 37L24.0001 38C25.0018 39.1216 25.7414 40.2034 26.5001 41L38.5001 47.4596H51.3189L33.6571 38.0034Z" fill="url(#paint0_linear_181_9815)"/>
<path d="M27.9995 1C19.1634 1 12.0001 8.31072 12.0001 17.3285C12.0001 24.3586 21.7224 35.5404 26.0087 40.1293C27.0927 41.2902 28.9063 41.2902 29.9903 40.1293C34.2777 35.5404 44.0001 24.3586 44.0001 17.3285C43.9999 8.31072 36.8366 1 27.9995 1ZM27.9995 23.5399C24.6382 23.5399 21.9134 20.7589 21.9134 17.3286C21.9134 13.8983 24.6383 11.1173 27.9995 11.1173C31.3606 11.1173 34.0855 13.8983 34.0855 17.3286C34.0855 20.7589 31.3606 23.5399 27.9995 23.5399Z" fill="#74CA45" stroke="black"/>
</g>
<defs>
<linearGradient id="paint0_linear_181_9815" x1="42.5001" y1="47" x2="30.6625" y2="40.9926" gradientUnits="userSpaceOnUse">
<stop stop-color="#FEFEFE" stop-opacity="0"/>
<stop offset="1" stop-color="#D7D7D7"/>
</linearGradient>
<clipPath id="clip0_181_9815">
<rect width="56" height="56" fill="white"/>
</clipPath>
</defs>
</svg>
