<svg width="57" height="56" viewBox="0 0 57 56" fill="none" xmlns="http://www.w3.org/2000/svg">
<path d="M48.5 28.5C48.5 30.733 48.1597 32.888 47.5261 34.9124C47.4575 35.1384 47.3835 35.3617 47.3041 35.5836C47.0539 36.3074 46.7635 37.0122 46.4379 37.6983C46.1648 38.2768 45.8661 38.8403 45.542 39.3878C44.8964 40.4869 44.1565 41.5226 43.3305 42.4844C42.467 43.4919 41.5118 44.4189 40.4787 45.2528C36.7916 48.2216 32.1036 50 27 50C15.1261 50 5.5 40.3739 5.5 28.5C5.5 16.6261 15.1259 7 26.9999 7C38.8739 7 48.5 16.6261 48.5 28.5Z" fill="white" fill-opacity="0.2" stroke="black"/>
<path d="M26.3272 13.5884C25.4806 13.5884 24.7942 25.9509 24.7942 26.8062C24.7942 27.3511 25.0735 27.8295 25.4948 28.1054L41.2881 44.059C43.9525 41.4684 45.9585 38.1925 47.0295 34.512C43.5028 30.9755 26.3272 13.5884 26.3272 13.5884Z" fill="url(#paint0_linear_181_9822)"/>
<path d="M26.2354 11.1177C26.0649 11.1177 25.9105 11.1769 25.7986 11.2728C25.6869 11.3685 25.6177 11.5009 25.6177 11.6472V15.5294C25.6177 15.639 25.6565 15.7409 25.7231 15.8254C25.7675 15.8817 25.8242 15.9304 25.8899 15.9684C25.9227 15.9875 25.9579 16.0038 25.9949 16.0172C26.0688 16.0439 26.15 16.0589 26.2352 16.0589C26.4058 16.0589 26.5602 15.9996 26.672 15.9037C26.7837 15.8079 26.853 15.6756 26.853 15.5293V11.6471C26.8531 11.3547 26.5765 11.1177 26.2354 11.1177Z" fill="black"/>
<path d="M26.2354 40.353C25.8942 40.353 25.6177 40.6099 25.6177 40.9266V45.1324C25.6177 45.1871 25.6284 45.2388 25.6439 45.2888C25.7175 45.529 25.9531 45.706 26.2353 45.706C26.3206 45.706 26.4018 45.6898 26.4756 45.6608C26.6973 45.5737 26.853 45.3699 26.853 45.1323V40.9265C26.8531 40.6098 26.5764 40.353 26.2354 40.353Z" fill="black"/>
<path d="M43.1618 27.5884H38.956C38.6392 27.5884 38.3824 27.8649 38.3824 28.206C38.3824 28.5472 38.6392 28.8237 38.956 28.8237H43.1618C43.4786 28.8237 43.7354 28.5472 43.7354 28.206C43.7355 27.8649 43.4786 27.5884 43.1618 27.5884Z" fill="black"/>
<path d="M14.0883 28.206C14.0883 28.0781 14.055 27.9592 13.9979 27.8606C13.9599 27.7949 13.9113 27.7381 13.8549 27.6938C13.7704 27.6272 13.6686 27.5884 13.5589 27.5884H9.6766C9.53041 27.5884 9.39806 27.6575 9.3022 27.7693C9.20645 27.8811 9.14709 28.0354 9.14709 28.2061C9.14709 28.5472 9.3841 28.8237 9.6765 28.8237H13.5587C13.7049 28.8237 13.8372 28.7546 13.9331 28.6427C14.0289 28.5309 14.0883 28.3766 14.0883 28.206Z" fill="black"/>
<path d="M35.6549 19.6134L38.6263 16.9391C38.8501 16.7377 38.8501 16.4111 38.6263 16.2097C38.4025 16.0082 38.0397 16.0083 37.8159 16.2097L34.8444 18.884C34.6205 19.0855 34.6205 19.412 34.8444 19.6134C35.0682 19.8148 35.4311 19.8148 35.6549 19.6134Z" fill="black"/>
<path d="M17.6431 36.8148C17.4417 36.591 17.115 36.591 16.9136 36.8148L14.2388 39.7862C14.0651 39.9792 14.0421 40.2752 14.168 40.4968C14.184 40.5249 14.2031 40.5512 14.2239 40.5765C14.2293 40.583 14.233 40.5903 14.2388 40.5967C14.3371 40.7059 14.4652 40.761 14.5941 40.7636C14.5972 40.7637 14.6004 40.7646 14.6035 40.7646C14.7355 40.7646 14.8675 40.7086 14.9683 40.5967L17.6431 37.6253C17.7186 37.5414 17.7659 37.438 17.7847 37.3296C17.791 37.2935 17.7941 37.2569 17.7941 37.2202C17.7942 37.0733 17.7439 36.9266 17.6431 36.8148Z" fill="black"/>
<path d="M38.6281 39.787L35.6552 36.8135C35.5852 36.7436 35.5011 36.6981 35.4125 36.6718C35.3273 36.6466 35.238 36.6398 35.1508 36.655C35.0386 36.6746 34.9311 36.7267 34.8445 36.8133C34.6205 37.0374 34.6205 37.4004 34.8445 37.6243L37.8174 40.5977C37.851 40.6313 37.8883 40.6582 37.9272 40.6817C38.1476 40.8149 38.4379 40.7882 38.6283 40.5977C38.7196 40.5064 38.7716 40.3917 38.7884 40.273C38.8127 40.1009 38.7607 39.9198 38.6281 39.787Z" fill="black"/>
<path d="M14.9688 16.2097C14.8681 16.109 14.736 16.0586 14.604 16.0586C14.5711 16.0586 14.538 16.0617 14.5055 16.068C14.4079 16.0869 14.3149 16.134 14.2394 16.2096C14.1387 16.3103 14.0883 16.4424 14.0883 16.5744C14.0883 16.6073 14.0914 16.6404 14.0977 16.6729C14.1166 16.7704 14.1637 16.8635 14.2393 16.939L16.9136 19.6135C16.9182 19.6181 16.9237 19.6211 16.9285 19.6255C16.9755 19.6692 17.0279 19.7038 17.0843 19.7267C17.1463 19.7519 17.2124 19.7645 17.2784 19.7645C17.4104 19.7645 17.5424 19.7141 17.6431 19.6134C17.7186 19.5379 17.7659 19.4447 17.7847 19.3472C17.791 19.3147 17.7941 19.2818 17.7941 19.2487C17.7941 19.1167 17.7437 18.9846 17.643 18.8839L14.9688 16.2097Z" fill="black"/>
<path d="M45.7942 37.6328C45.5205 38.2195 45.221 38.791 44.8961 39.3463C44.2488 40.4609 43.507 41.5113 42.6789 42.4867C41.8131 43.5085 40.8555 44.4485 39.8198 45.2943L24.6555 29.9741C23.7424 29.0519 23.7424 27.5567 24.6555 26.6344C24.6959 26.5936 24.7364 26.5552 24.7795 26.5184C25.6533 25.7491 26.9589 25.7491 27.8328 26.5184C27.876 26.5552 27.9164 26.5934 27.9568 26.6344C27.9972 26.6753 28.0377 26.719 28.0728 26.7627H28.0741C28.101 26.764 28.128 26.7655 28.1577 26.7668C28.2089 26.7708 28.2656 26.7736 28.3262 26.7777C28.6445 26.7981 29.0802 26.8322 29.5859 26.8786C29.7369 26.8922 29.8947 26.9073 30.0579 26.9236C30.1752 26.9358 30.2953 26.9468 30.418 26.9604C30.5219 26.9713 30.6271 26.9823 30.7348 26.9932C30.813 27.0013 30.8926 27.011 30.9722 27.0191C31.0991 27.0327 31.2258 27.0478 31.3539 27.0628C31.9635 27.1338 32.5947 27.2142 33.1974 27.3044C33.2797 27.3165 33.3619 27.329 33.443 27.3425C33.455 27.3438 33.4686 27.3452 33.4806 27.348C33.575 27.363 33.6682 27.378 33.7598 27.3917C33.8515 27.4081 33.9419 27.4231 34.031 27.438C34.0903 27.4489 34.1497 27.4586 34.2089 27.4695C34.2993 27.4858 34.3896 27.5022 34.4787 27.52C34.5232 27.5281 34.5677 27.5363 34.6108 27.5446C34.7025 27.5637 34.7901 27.5814 34.8765 27.5992C34.9035 27.6047 34.9292 27.6101 34.9548 27.6155C34.9899 27.6237 35.025 27.632 35.0588 27.6387C35.0749 27.6415 35.0911 27.6455 35.1073 27.6496C35.1573 27.6618 35.2071 27.6728 35.2542 27.6836C35.2879 27.6918 35.3202 27.7001 35.3513 27.7068C35.4767 27.7396 35.5941 27.7709 35.7047 27.8023C35.7303 27.8104 35.7559 27.8186 35.7802 27.8255C35.8005 27.831 35.8193 27.8377 35.8382 27.8433C35.8666 27.8528 35.8935 27.8624 35.9205 27.8706C35.93 27.8734 35.9394 27.876 35.9489 27.8802C36.0028 27.8993 36.0528 27.917 36.0999 27.9361C36.1039 27.9374 36.108 27.9401 36.1134 27.9415C36.139 27.9523 36.1646 27.9633 36.189 27.9729C36.2469 27.9988 36.2982 28.0234 36.3441 28.0493C36.3644 28.0615 36.3818 28.0725 36.3994 28.0834C36.456 28.1202 36.4992 28.1571 36.5275 28.1939C36.537 28.2034 36.5437 28.2144 36.5491 28.2239C36.5505 28.2266 36.5519 28.2279 36.5519 28.2294C36.5586 28.2416 36.5639 28.254 36.5667 28.2675C36.5708 28.2797 36.5721 28.2921 36.5721 28.3043L45.7942 37.6328Z" fill="url(#paint1_linear_181_9822)"/>
<path d="M27.9771 30.0588C27.129 30.0588 26.4413 29.3213 26.4413 28.4117C26.4413 27.5021 27.129 26.7646 27.9771 26.7646C28.8253 26.7646 36.7354 27.5021 36.7354 28.4117C36.7355 29.3214 28.8253 30.0588 27.9771 30.0588Z" fill="#F99623"/>
<path d="M28.0883 26.8573C28.0883 27.7158 27.3508 28.4119 26.4412 28.4119C25.5317 28.4119 24.7942 27.7158 24.7942 26.8573C24.7942 25.9988 25.5317 13.5884 26.4412 13.5884C27.3508 13.5885 28.0883 25.9988 28.0883 26.8573Z" fill="#74CA45"/>
<path d="M26.0001 31C27.3808 31 28.5001 29.8807 28.5001 28.5C28.5001 27.1193 27.3808 26 26.0001 26C24.6194 26 23.5001 27.1193 23.5001 28.5C23.5001 29.8807 24.6194 31 26.0001 31Z" fill="white"/>
<path d="M53.7396 24.6689H51.3397H51.2283C49.4845 12.4328 39.0577 3 26.4933 3C12.7119 3 1.50006 14.3479 1.50006 28.2966C1.50006 34.0522 3.46146 39.6855 7.02293 44.1587C10.5307 48.5644 15.4466 51.6861 20.8649 52.9489C21.0132 52.9836 21.1614 53 21.3075 53C22.2022 53 23.0111 52.3772 23.2205 51.4571C23.4639 50.3868 22.8041 49.3195 21.7465 49.0731C17.1826 48.0094 13.0404 45.378 10.0827 41.6632C7.03864 37.8399 5.42972 33.218 5.42972 28.2968C5.42972 16.5412 14.8788 6.9775 26.4933 6.9775C36.8862 6.9775 45.5439 14.6355 47.2504 24.669H45.1778C43.6125 24.669 42.8287 26.5844 43.9355 27.7046L48.2164 32.0375C48.9025 32.7319 50.015 32.7319 50.7011 32.0375L54.982 27.7046C56.0887 26.5843 55.3048 24.6689 53.7396 24.6689Z" fill="#74CA45" stroke="black"/>
<path d="M26 30C26.8284 30 27.5 29.3284 27.5 28.5C27.5 27.6716 26.8284 27 26 27C25.1716 27 24.5 27.6716 24.5 28.5C24.5 29.3284 25.1716 30 26 30Z" fill="#74CA45"/>
<defs>
<linearGradient id="paint0_linear_181_9822" x1="35.0631" y1="28.9667" x2="11.9046" y2="26.393" gradientUnits="userSpaceOnUse">
<stop stop-color="#C3C3C3" stop-opacity="0"/>
<stop offset="0.267" stop-color="#A4A4A4" stop-opacity="0.267"/>
<stop offset="0.542" stop-color="#8B8B8B" stop-opacity="0.542"/>
<stop offset="0.794" stop-color="#7C7C7C" stop-opacity="0.794"/>
<stop offset="1" stop-color="#777777"/>
</linearGradient>
<linearGradient id="paint1_linear_181_9822" x1="34.8147" y1="33.351" x2="25.2797" y2="22.9974" gradientUnits="userSpaceOnUse">
<stop stop-color="#C3C3C3" stop-opacity="0"/>
<stop offset="0.267" stop-color="#A4A4A4" stop-opacity="0.267"/>
<stop offset="0.542" stop-color="#8B8B8B" stop-opacity="0.542"/>
<stop offset="0.794" stop-color="#7C7C7C" stop-opacity="0.794"/>
<stop offset="1" stop-color="#777777"/>
</linearGradient>
</defs>
</svg>
