<svg width="57" height="56" viewBox="0 0 57 56" fill="none" xmlns="http://www.w3.org/2000/svg">
<g clip-path="url(#clip0_181_9803)">
<path d="M28.6715 6.21222L28.6721 6.2121C30.5143 5.83652 32.4196 6.44736 33.6968 7.83072L54.3537 30.2047C56.6359 32.6762 56.4822 36.5311 54.0094 38.8137L41.8741 50.0178L41.8741 50.0179L40.0315 51.7196L40.0301 51.7209C39.8142 51.9187 39.5882 52.0989 39.3535 52.2608M28.6715 6.21222L39.0695 51.8493M28.6715 6.21222L26.2201 6.71503L26.2199 6.71507L17.1883 8.56419L17.1866 8.56454L17.0128 8.59949L17.0121 8.59964C16.9134 8.61964 16.8161 8.64238 16.7195 8.66826C16.6666 8.68245 16.6142 8.69812 16.5687 8.71182C15.5101 9.0234 14.5873 9.64927 13.9111 10.489C13.4736 11.0302 13.1377 11.6607 12.9347 12.3527L12.9346 12.3529L9.56445 23.8565L9.56439 23.8567C9.03491 25.6668 9.49114 27.624 10.7725 29.0113C10.7725 29.0113 10.7725 29.0113 10.7725 29.0114L31.4216 51.3769L31.4217 51.3771C32.5703 52.6202 34.1169 53.2758 35.6817 53.3312M28.6715 6.21222L35.6998 52.8315M39.3535 52.2608L39.0695 51.8493M39.3535 52.2608C39.3537 52.2608 39.3538 52.2607 39.3539 52.2606L39.0695 51.8493M39.3535 52.2608C38.2504 53.0236 36.9582 53.3775 35.6817 53.3312M39.0695 51.8493C38.0578 52.549 36.8722 52.874 35.6998 52.8315M35.6817 53.3312C35.6819 53.3312 35.682 53.3312 35.6822 53.3312L35.6998 52.8315M35.6817 53.3312L35.6998 52.8315M21.8828 21.1763L21.8829 21.1764C21.9235 21.1176 21.9631 21.0546 22.0068 20.9827C22.7611 19.6669 22.3105 17.9926 20.9993 17.2356L20.9993 17.2356C20.9865 17.2282 20.9728 17.2209 20.9516 17.2095L20.949 17.2081C20.9327 17.1994 20.9111 17.1879 20.8882 17.1749C20.808 17.1336 20.7257 17.0967 20.6432 17.0636C19.394 16.5626 17.9385 17.0427 17.248 18.2404L17.2477 18.241C16.4885 19.5541 16.9374 21.2316 18.2532 21.9922C18.2532 21.9922 18.2532 21.9923 18.2532 21.9923M21.8828 21.1763L21.8152 22.0099C20.7991 22.9396 19.2602 23.1509 18.003 22.4251L18.2532 21.9923M21.8828 21.1763L21.8755 21.1876C21.8629 21.2069 21.8475 21.2285 21.8319 21.2487L21.8319 21.2486L21.8279 21.2538C21.7645 21.3382 21.6963 21.4188 21.6255 21.4939L21.6254 21.4938L21.6196 21.5002C21.5923 21.5302 21.5779 21.5451 21.5664 21.5555L21.5496 21.5709L21.5343 21.5877C21.5225 21.6006 21.5073 21.6152 21.4899 21.6302L21.4837 21.6355L21.4777 21.641C20.6177 22.4279 19.316 22.6056 18.2532 21.9923M21.8828 21.1763L18.2532 21.9923" fill="#FAF9F9" stroke="black"/>
<path d="M33.4609 14.2136L31.2479 12.8762L22.9398 7.85642C21.3451 6.89338 19.3482 6.88999 17.7502 7.84822L7.13351 14.2169C5.61801 15.1255 4.68964 16.763 4.68964 18.5309V49.9694C4.68964 53.1587 7.27537 55.7444 10.4663 55.7444H30.1149C33.3043 55.7444 35.8899 53.1587 35.8899 49.9694V18.5193C35.8901 16.7564 34.9681 15.1255 33.4609 14.2136ZM17.9201 20.6813C16.6106 19.3702 16.6106 17.2495 17.9201 15.9402C19.114 14.7463 20.9824 14.6408 22.2967 15.6252C22.3857 15.6912 22.4731 15.7638 22.5572 15.8412C22.5918 15.8742 22.6265 15.9055 22.6611 15.9402C23.9705 17.2495 23.9705 19.3703 22.6611 20.6813C22.5952 20.7456 22.5291 20.8083 22.46 20.866C22.4304 20.8924 22.399 20.9189 22.3677 20.9419C22.2671 21.0211 22.1616 21.0953 22.0543 21.1612C22.0181 21.1843 21.9817 21.2059 21.9455 21.2255C21.9093 21.2486 21.8712 21.2684 21.835 21.2866C20.5718 21.9428 18.9805 21.7417 17.9201 20.6813Z" fill="#74CA45" stroke="black"/>
<path d="M35.8901 49.9695C35.8901 49.9695 35.8901 49.8305 35.8901 49.5739L16.5176 30.2062C15.766 29.6052 14.7709 29.3042 13.5319 29.3042C10.8103 29.3042 9.44946 30.558 9.44946 33.0655V37.5912C9.44946 38.9487 9.85185 39.9354 10.6495 40.558L25.8361 55.7446H30.1151C33.3044 55.7445 35.8901 53.1588 35.8901 49.9695Z" fill="url(#paint0_linear_181_9803)"/>
<path d="M26.7086 28.4478C26.4414 28.2237 26.1439 28.1113 25.8151 28.1113C25.3679 28.1113 25.0631 28.2949 24.9005 28.6618L13.7153 51.1304C13.6341 51.2732 13.5936 51.4261 13.5936 51.589C13.5936 51.8743 13.7063 52.1341 13.9322 52.3688L17.3077 55.7444H30.115C33.3044 55.7444 35.89 53.1586 35.89 49.9694C35.89 49.9694 35.89 45.8681 35.89 40.7593V37.6743L26.7086 28.4478Z" fill="url(#paint1_linear_181_9803)"/>
<path d="M30.0031 40.5114C29.2515 39.9104 28.2562 39.6094 27.0174 39.6094C24.2958 39.6094 22.9349 40.8631 22.9349 43.3707V47.8964C22.9349 49.2538 23.3373 50.2406 24.135 50.8632L29.0163 55.7445H30.1149C33.3042 55.7445 35.8899 53.1588 35.8899 49.9695C35.8899 49.9695 35.8899 48.5731 35.8899 46.397L30.0031 40.5114Z" fill="url(#paint2_linear_181_9803)"/>
<path d="M9.44946 37.591V33.0653C9.44946 30.5577 10.8103 29.304 13.5319 29.304C14.7708 29.304 15.7661 29.605 16.5176 30.206C17.2687 30.8075 17.6447 31.7608 17.6447 33.0651V37.5909C17.6447 38.8957 17.2688 39.8489 16.5176 40.45C15.766 41.0516 14.7708 41.352 13.5319 41.352C10.8103 41.3522 9.44946 40.0984 9.44946 37.591ZM11.6206 37.5399C11.6206 38.7158 12.2576 39.3035 13.5318 39.3035C14.826 39.3035 15.4734 38.7158 15.4734 37.5399V33.1163C15.4734 31.941 14.826 31.3529 13.5318 31.3529C12.2574 31.3529 11.6206 31.941 11.6206 33.1163C11.6207 33.1163 11.6207 37.5399 11.6206 37.5399ZM13.5936 51.589C13.5936 51.426 13.6342 51.2732 13.7153 51.1304L24.9007 28.6618C25.0632 28.2949 25.368 28.1113 25.8152 28.1113C26.1439 28.1113 26.4415 28.2237 26.7087 28.4478C26.9758 28.6723 27.1096 28.9475 27.1096 29.2733C27.1096 29.4368 27.079 29.5997 27.0183 29.7626L15.832 52.1395C15.6488 52.5266 15.3035 52.7206 14.7956 52.7206C14.446 52.7206 14.1584 52.603 13.9322 52.369C13.7063 52.1342 13.5936 51.8744 13.5936 51.589ZM22.9351 47.9593V43.3991C22.9351 40.8725 24.2959 39.6093 27.0175 39.6093C28.2564 39.6093 29.2517 39.9127 30.0032 40.5185C30.7543 41.1243 31.1303 42.0848 31.1303 43.3991V47.9593C31.1303 49.2742 30.7543 50.2345 30.0032 50.8404C29.2516 51.4463 28.2564 51.7491 27.0175 51.7491C24.2958 51.7491 22.9351 50.4858 22.9351 47.9593ZM25.1062 47.9167C25.1062 49.1059 25.7432 49.7004 27.0174 49.7004C28.3116 49.7004 28.959 49.1061 28.959 47.9167V43.4415C28.959 42.2529 28.3116 41.6579 27.0174 41.6579C25.7431 41.6579 25.1062 42.2528 25.1062 43.4415V47.9167Z" fill="url(#paint3_linear_181_9803)"/>
<path d="M35.89 18.519V29.2096L22.9343 16.2539C22.8508 16.1455 22.76 16.0401 22.6619 15.9405C22.6268 15.9054 22.5916 15.8747 22.5579 15.8409C22.5345 15.8189 22.511 15.7983 22.4862 15.7794C22.4247 15.7237 22.3602 15.6726 22.2973 15.6257C21.0438 14.6871 19.2883 14.7384 18.0934 15.7811V7.66019C19.4742 6.97189 21.0951 6.95592 22.4863 7.61327C22.6399 7.68502 22.7923 7.76694 22.9402 7.85641L31.2484 12.8758L33.4608 14.2142C34.9675 15.1249 35.89 16.756 35.89 18.519Z" fill="url(#paint4_linear_181_9803)"/>
<path d="M20.2898 19.7725C19.0768 19.7725 18.0934 18.7891 18.0934 17.5761V2.19636C18.0934 0.983391 19.0768 0 20.2898 0C21.5028 0 22.4862 0.983391 22.4862 2.19636V17.576C22.4863 18.7891 21.5028 19.7725 20.2898 19.7725Z" fill="#FC8A06" stroke="black"/>
</g>
<defs>
<linearGradient id="paint0_linear_181_9803" x1="21.2097" y1="43.0216" x2="12.0501" y2="33.8619" gradientUnits="userSpaceOnUse">
<stop stop-color="#74CA45" stop-opacity="0"/>
<stop offset="1" stop-color="#59B02A"/>
</linearGradient>
<linearGradient id="paint1_linear_181_9803" x1="30.935" y1="51.0236" x2="16.8331" y2="36.9218" gradientUnits="userSpaceOnUse">
<stop stop-color="#74CA45" stop-opacity="0.164706"/>
<stop offset="1" stop-color="#59B02A"/>
</linearGradient>
<linearGradient id="paint2_linear_181_9803" x1="37.3517" y1="55.9857" x2="23.3937" y2="42.0267" gradientUnits="userSpaceOnUse">
<stop stop-color="#12AD2A" stop-opacity="0"/>
<stop offset="1" stop-color="#59B02A"/>
</linearGradient>
<linearGradient id="paint3_linear_181_9803" x1="20.2894" y1="33.8529" x2="20.2894" y2="61.3264" gradientUnits="userSpaceOnUse">
<stop stop-color="white"/>
<stop offset="1" stop-color="#E2EDF2"/>
</linearGradient>
<linearGradient id="paint4_linear_181_9803" x1="34.5224" y1="21.3758" x2="12.1426" y2="8.91554" gradientUnits="userSpaceOnUse">
<stop stop-color="#74CA59" stop-opacity="0.690196"/>
<stop offset="1" stop-color="#4A9C1E"/>
</linearGradient>
<clipPath id="clip0_181_9803">
<rect width="56" height="56" fill="white" transform="translate(0.500061)"/>
</clipPath>
</defs>
</svg>
