<svg width="16" height="20" viewBox="0 0 16 20" fill="none" xmlns="http://www.w3.org/2000/svg">
<path d="M6.31653 0.00199453C6.23185 0.00709369 6.15225 0.0441238 6.0938 0.105613C6.03535 0.167102 6.0024 0.248473 6.00159 0.333306V1.45825C5.8794 1.5162 5.79122 1.57163 5.59848 1.76563C5.29614 2.06796 4.99884 2.5832 4.99884 3.33274V5.66829C4.99884 6.21628 5.45235 6.66601 6.00159 6.66601H6.33291V4.99433C6.33291 4.9058 6.36808 4.82089 6.43068 4.75828C6.49329 4.69568 6.5782 4.6605 6.66674 4.6605C6.75527 4.6605 6.84018 4.69568 6.90279 4.75828C6.96539 4.82089 7.00057 4.9058 7.00057 4.99433V6.66601H7.66697V4.99433C7.66417 4.94885 7.67071 4.90328 7.68619 4.86043C7.70167 4.81757 7.72576 4.77834 7.75698 4.74514C7.78819 4.71195 7.82587 4.6855 7.86769 4.66742C7.90952 4.64933 7.9546 4.64001 8.00017 4.64001C8.04573 4.64001 8.09082 4.64933 8.13264 4.66742C8.17447 4.6855 8.21215 4.71195 8.24336 4.74514C8.27458 4.77834 8.29866 4.81757 8.31414 4.86043C8.32962 4.90328 8.33617 4.94885 8.33337 4.99433V6.66601H9.00103V4.99433C8.99823 4.94885 9.00477 4.90328 9.02025 4.86043C9.03573 4.81757 9.05982 4.77834 9.09104 4.74514C9.12225 4.71195 9.15993 4.6855 9.20176 4.66742C9.24358 4.64933 9.28866 4.64001 9.33423 4.64001C9.3798 4.64001 9.42488 4.64933 9.4667 4.66742C9.50853 4.6855 9.54621 4.71195 9.57742 4.74514C9.60864 4.77834 9.63273 4.81757 9.64821 4.86043C9.66369 4.90328 9.67023 4.94885 9.66743 4.99433V6.66601H9.99874C10.2636 6.66502 10.5174 6.55953 10.7049 6.37247C10.8925 6.18541 10.9986 5.9319 11.0002 5.66703V3.334H12.3343C12.3423 3.02326 12.2746 2.71524 12.137 2.43652C11.9993 2.1578 11.796 1.91673 11.5444 1.73413C11.2749 1.53384 11.1476 1.47463 11.0002 1.42676V0.333306C11.0001 0.289466 10.9913 0.246089 10.9743 0.20565C10.9574 0.165211 10.9327 0.128502 10.9016 0.09762C10.8705 0.0667379 10.8336 0.042287 10.793 0.0256634C10.7524 0.00903983 10.709 0.000569064 10.6651 0.000734808L6.31653 0.00199453ZM3.6673 3.99914C2.75021 3.99914 2.00067 4.74743 2.00067 5.66577V8.66521H13.9997V5.66703C13.9997 4.74869 13.2514 4.0004 12.333 4.0004H11.6679V5.759C11.8657 5.87489 12.0005 6.08653 12.0005 6.33344V7.0011C12.0005 7.36894 11.7032 7.66624 11.3328 7.66624H4.66879C4.58113 7.66657 4.49426 7.64957 4.41319 7.61621C4.33212 7.58286 4.25844 7.5338 4.19639 7.47187C4.13434 7.40994 4.08515 7.33635 4.05164 7.25535C4.01813 7.17434 4.00096 7.0875 4.00113 6.99984V6.33218C4.00113 6.08653 4.13718 5.87615 4.33496 5.76025V4.0004L3.6673 3.99914ZM1.52953 9.33287L0.196724 10.6657H15.8049L14.4708 9.33287H1.52953ZM1.33427 19.9991H14.6661C15.3992 19.9991 16.0001 19.3982 16.0001 18.665V11.3333H0.00146484V18.6789C0.00146484 19.3931 0.6011 19.9991 1.33427 19.9991ZM8.0008 12.3336C8.54878 12.3336 8.99977 12.7833 8.99977 13.3325C8.99977 13.4837 8.96198 13.6273 8.89899 13.7583C9.94709 13.9788 10.582 14.5759 10.9171 15.1705C11.0809 15.4628 11.1804 15.7538 11.2408 16.0007H4.76201C4.82248 15.7538 4.92074 15.4628 5.08576 15.1705C5.4196 14.5759 6.0545 13.98 7.10009 13.7596C7.03455 13.6263 7.00009 13.4798 6.99931 13.3313C6.99931 12.7833 7.45281 12.3336 8.0008 12.3336ZM4.31733 16.6671H11.6679C11.8506 16.6671 11.9992 16.8157 11.9992 16.9984C11.9985 17.3514 11.8581 17.6899 11.6085 17.9396C11.359 18.1894 11.0207 18.3302 10.6677 18.3312H5.33393C4.98086 18.3298 4.64263 18.189 4.39297 17.9393C4.1433 17.6897 4.00246 17.3514 4.00113 16.9984C4.00113 16.827 4.12962 16.6834 4.31733 16.6671Z" fill="#847D79"/>
</svg>
