<svg width="24" height="24" viewBox="0 0 24 24" fill="none" xmlns="http://www.w3.org/2000/svg">
<path d="M17.5 8.5C18.8807 8.5 20 7.38071 20 6C20 4.61929 18.8807 3.5 17.5 3.5C16.1193 3.5 15 4.61929 15 6C15 7.38071 16.1193 8.5 17.5 8.5Z" stroke="#0B0B0B" stroke-width="1.5" stroke-linecap="round" stroke-linejoin="round"/>
<path d="M6.5 14.5C7.88071 14.5 9 13.3807 9 12C9 10.6193 7.88071 9.5 6.5 9.5C5.11929 9.5 4 10.6193 4 12C4 13.3807 5.11929 14.5 6.5 14.5Z" stroke="#0B0B0B" stroke-width="1.5" stroke-linecap="round" stroke-linejoin="round"/>
<path d="M17.5 20.5C18.8807 20.5 20 19.3807 20 18C20 16.6193 18.8807 15.5 17.5 15.5C16.1193 15.5 15 16.6193 15 18C15 19.3807 16.1193 20.5 17.5 20.5Z" stroke="#0B0B0B" stroke-width="1.5" stroke-linecap="round" stroke-linejoin="round"/>
<path d="M9 13.5L15 16.5" stroke="#0B0B0B" stroke-width="1.5" stroke-linecap="round" stroke-linejoin="round"/>
<path d="M15 7.5L9 10.5" stroke="#0B0B0B" stroke-width="1.5" stroke-linecap="round" stroke-linejoin="round"/>
</svg>
