<svg width="24" height="24" viewBox="0 0 24 24" fill="none" xmlns="http://www.w3.org/2000/svg">
<g clip-path="url(#clip0_168_5394)">
<path d="M20.85 15.5681H20.7201L19.3 12.2557C19.5408 12.3613 19.8003 12.4175 20.0632 12.421C20.1675 12.421 20.2676 12.3795 20.3413 12.3058C20.4151 12.232 20.4566 12.1319 20.4566 12.0276V8.88041C20.4566 8.77608 20.4151 8.67602 20.3413 8.60224C20.2676 8.52847 20.1675 8.48702 20.0632 8.48702C19.6535 8.48924 19.2547 8.61932 18.9226 8.85911C18.5904 9.0989 18.3414 9.43642 18.2103 9.82456C18.0945 9.66294 17.9468 9.52682 17.7763 9.42464C17.6057 9.32246 17.416 9.25639 17.2189 9.23054C16.969 9.19826 16.7153 9.21428 16.4715 9.27774H16.1292C15.4644 9.27774 15.1693 8.88435 14.7051 8.24311L14.473 7.91659C14.7111 7.90445 14.9417 7.82983 15.1418 7.70023C15.2936 7.59004 15.4221 7.45096 15.52 7.29096C15.6179 7.13096 15.6832 6.9532 15.7122 6.76788C15.8401 6.69422 15.9519 6.5957 16.0411 6.47814C16.1303 6.36058 16.195 6.22635 16.2315 6.08337C16.2481 5.9706 16.2371 5.85548 16.1994 5.74789C16.1617 5.64031 16.0985 5.54349 16.0151 5.46574C15.8545 5.19073 15.7665 4.87935 15.7594 4.56093C15.861 4.55485 15.9562 4.50966 16.0252 4.43484C16.0941 4.36002 16.1314 4.26139 16.1292 4.15967C16.1293 3.74271 16.0464 3.3299 15.8856 2.94522C15.7247 2.56054 15.489 2.21166 15.1922 1.91885C14.8953 1.62603 14.5433 1.39512 14.1564 1.23953C13.7696 1.08394 13.3557 1.00677 12.9388 1.0125C12.1206 1.02861 11.3405 1.3608 10.7618 1.93944C10.1832 2.51807 9.85099 3.29824 9.83489 4.11639C9.82753 4.53351 9.9038 4.94787 10.0592 5.33503C10.2146 5.72218 10.446 6.07428 10.7397 6.37055C10.8267 6.45706 10.9187 6.5385 11.0151 6.61446C9.49657 6.98425 8.69797 8.40834 8.28884 9.6436C8.17242 9.52629 8.03391 9.43321 7.88131 9.36974C7.72871 9.30627 7.56504 9.27366 7.39977 9.27381H3.22191C3.01211 9.27346 2.80559 9.32588 2.62136 9.42625C2.43712 9.52661 2.28109 9.6717 2.16761 9.84817C2.11075 9.93581 2.09103 10.0424 2.11279 10.1446C2.13456 10.2468 2.19602 10.3362 2.28366 10.393C2.3713 10.4499 2.47794 10.4696 2.58012 10.4478C2.6823 10.4261 2.77165 10.3646 2.82851 10.277C2.8709 10.2113 2.92918 10.1574 2.99795 10.1203C3.06672 10.0831 3.14375 10.064 3.22191 10.0645H3.93395V11.2447C3.93395 11.3491 3.9754 11.4491 4.04918 11.5229C4.12295 11.5967 4.22301 11.6381 4.32735 11.6381H6.29433C6.39866 11.6381 6.49872 11.5967 6.5725 11.5229C6.64628 11.4491 6.68772 11.3491 6.68772 11.2447V10.0606H7.39977C7.46125 10.0606 7.52212 10.0727 7.57892 10.0962C7.63572 10.1198 7.68732 10.1542 7.73079 10.1977C7.77426 10.2412 7.80875 10.2928 7.83227 10.3496C7.8558 10.4064 7.86791 10.4673 7.86791 10.5287V13.5303C7.86687 13.6538 7.81709 13.7719 7.72941 13.8588C7.64173 13.9458 7.52325 13.9946 7.39977 13.9946H3.22191C3.10925 13.9977 2.99935 13.9593 2.91307 13.8868C2.82678 13.8143 2.7701 13.7127 2.75377 13.6012H3.54056C3.64489 13.6012 3.74496 13.5597 3.81873 13.4859C3.89251 13.4122 3.93395 13.3121 3.93395 13.2078C3.93395 13.1034 3.89251 13.0034 3.81873 12.9296C3.74496 12.8558 3.64489 12.8144 3.54056 12.8144H2.75377V12.0276H3.14716C3.2515 12.0276 3.35156 11.9861 3.42534 11.9124C3.49911 11.8386 3.54056 11.7385 3.54056 11.6342C3.54056 11.5298 3.49911 11.4298 3.42534 11.356C3.35156 11.2822 3.2515 11.2408 3.14716 11.2408H1.18019C1.07585 11.2408 0.97579 11.2822 0.902014 11.356C0.828238 11.4298 0.786791 11.5298 0.786791 11.6342C0.786791 11.7385 0.828238 11.8386 0.902014 11.9124C0.97579 11.9861 1.07585 12.0276 1.18019 12.0276H1.96698V12.8144H0.393395C0.289061 12.8144 0.188999 12.8558 0.115223 12.9296C0.0414469 13.0034 0 13.1034 0 13.2078C0 13.3121 0.0414469 13.4122 0.115223 13.4859C0.188999 13.5597 0.289061 13.6012 0.393395 13.6012H1.96698C1.98504 13.9198 2.12424 14.2196 2.35608 14.439C2.58791 14.6584 2.89485 14.7809 3.21404 14.7813H5.18102C4.99898 14.9599 4.84392 15.1639 4.72075 15.3872C4.1954 16.4174 3.92555 17.5589 3.93395 18.7153C3.93395 18.8196 3.9754 18.9197 4.04918 18.9935C4.12295 19.0672 4.22301 19.1087 4.32735 19.1087H5.53507C5.63575 19.8647 6.00757 20.5585 6.58139 21.061C7.15521 21.5635 7.89198 21.8404 8.6547 21.8404C9.41742 21.8404 10.1542 21.5635 10.728 21.061C11.3018 20.5585 11.6736 19.8647 11.7743 19.1087H17.7303C17.8061 19.7097 18.0536 20.2761 18.4433 20.7399C18.8331 21.2037 19.3483 21.5452 19.9273 21.7233C20.5063 21.9015 21.1245 21.9087 21.7075 21.7442C22.2905 21.5797 22.8136 21.2504 23.2141 20.7959C23.6146 20.3414 23.8754 19.7809 23.9652 19.1818C24.055 18.5827 23.97 17.9705 23.7204 17.4185C23.4708 16.8665 23.0671 16.3983 22.558 16.0701C22.0488 15.7419 21.4557 15.5676 20.85 15.5681ZM5.90093 10.8474H4.72075V10.0606H5.90093V10.8474ZM19.6698 9.34069V11.5673C19.4392 11.4862 19.2396 11.3356 19.0983 11.1361C18.9571 10.9367 18.8812 10.6984 18.8812 10.454C18.8812 10.2096 18.9571 9.97127 19.0983 9.77186C19.2396 9.57244 19.4392 9.42178 19.6698 9.34069ZM17.1048 10.0055C17.259 10.0286 17.4023 10.0989 17.515 10.2066C17.6277 10.3144 17.7043 10.4544 17.7343 10.6074L17.8365 10.8474C17.2888 11.129 16.6777 11.2644 16.0623 11.2408C16.0082 11.0071 16.0365 10.7618 16.1427 10.5467C16.2488 10.3316 16.4261 10.1598 16.6446 10.0606C16.7929 10.0125 16.9495 9.99508 17.1048 10.0095V10.0055ZM15.1654 6.16599C15.0999 6.19898 15.045 6.24961 15.0067 6.31217C14.9685 6.37473 14.9485 6.44673 14.949 6.52004C14.9461 6.61908 14.9226 6.71641 14.8799 6.80583C14.8372 6.89525 14.7764 6.97477 14.7012 7.03932C14.477 7.18881 14.06 7.15341 13.521 6.94097C13.4922 6.93779 13.4632 6.93779 13.4345 6.94097L13.3754 6.88983V5.38313C13.3754 5.27412 13.3969 5.16618 13.4386 5.06548C13.4803 4.96477 13.5415 4.87326 13.6186 4.79618C13.6956 4.71911 13.7872 4.65796 13.8879 4.61625C13.9886 4.57453 14.0965 4.55306 14.2055 4.55306H14.949C14.9614 5.0623 15.1213 5.557 15.4093 5.97716C15.3381 6.05328 15.2559 6.11827 15.1654 6.16992V6.16599ZM10.6217 4.12426C10.6413 3.51389 10.8926 2.93388 11.3244 2.50206C11.7563 2.07023 12.3363 1.81897 12.9466 1.7993H12.982C13.5401 1.79893 14.0803 1.99631 14.5066 2.35641C14.933 2.7165 15.2179 3.21601 15.311 3.76627H14.2055C13.777 3.76731 13.3664 3.93799 13.0634 4.24099C12.7604 4.54398 12.5897 4.95463 12.5887 5.38313V6.48857C12.033 6.39471 11.5293 6.10515 11.1685 5.67225C10.8078 5.23934 10.6138 4.69166 10.6217 4.1282V4.12426ZM11.8019 7.30683C13.0883 7.30683 13.5603 7.97954 14.06 8.68765C14.4219 9.20693 14.8467 9.77342 15.5549 9.97405C15.3321 10.334 15.2314 10.7561 15.2677 11.1778C14.7794 11.0712 14.3189 10.8635 13.9157 10.568C13.5126 10.2726 13.1758 9.89609 12.927 9.46264C12.9055 9.41064 12.8732 9.36385 12.8322 9.32541C12.7911 9.28697 12.7423 9.25777 12.689 9.2398C12.6357 9.22182 12.5792 9.21548 12.5232 9.2212C12.4673 9.22693 12.4132 9.24458 12.3647 9.27297C12.3161 9.30136 12.2742 9.33983 12.2418 9.38578C12.2094 9.43174 12.1872 9.48411 12.1767 9.53937C12.1663 9.59463 12.1678 9.65148 12.1812 9.70611C12.1945 9.76074 12.2195 9.81186 12.2543 9.85603C12.3969 10.0953 12.5601 10.3218 12.7421 10.5327L12.7067 10.5563C12.34 10.9781 12.082 11.4832 11.9553 12.0276H8.6547V11.6342C8.68224 11.3942 9.13071 7.30683 11.8019 7.30683ZM8.6547 13.5264V12.8144H12.1953C12.2739 12.8144 14.1622 12.838 14.1622 14.7813V16.7483H12.5887V15.9615C12.5986 15.7006 12.5545 15.4403 12.4592 15.1972C12.3639 14.9541 12.2193 14.7332 12.0347 14.5486C11.85 14.3639 11.6292 14.2194 11.386 14.124C11.1429 14.0287 10.8827 13.9846 10.6217 13.9946H8.56422C8.6243 13.8458 8.65503 13.6868 8.6547 13.5264ZM8.6547 21.0757C8.09731 21.0751 7.5581 20.8773 7.13256 20.5173C6.70703 20.1573 6.42263 19.6583 6.32973 19.1087H7.13619C7.22679 19.442 7.42455 19.7363 7.69898 19.9461C7.97341 20.1559 8.30926 20.2696 8.6547 20.2696C9.00014 20.2696 9.33599 20.1559 9.61042 19.9461C9.88485 19.7363 10.0826 19.442 10.1732 19.1087H10.9797C10.8868 19.6583 10.6024 20.1573 10.1768 20.5173C9.7513 20.8773 9.21209 21.0751 8.6547 21.0757ZM7.97806 19.1087H9.33134C9.26167 19.2261 9.16266 19.3234 9.04402 19.3909C8.92539 19.4585 8.79122 19.494 8.6547 19.494C8.51818 19.494 8.38401 19.4585 8.26538 19.3909C8.14674 19.3234 8.04773 19.2261 7.97806 19.1087ZM4.72075 18.3219C4.77094 17.4164 5.01511 16.5323 5.43673 15.7294C5.59331 15.4383 5.82699 15.1958 6.11217 15.0286C6.39735 14.8614 6.72304 14.7758 7.05358 14.7813H10.6217C10.7789 14.7728 10.9362 14.7975 11.0832 14.8538C11.2302 14.9101 11.3638 14.9968 11.4751 15.1081C11.5865 15.2194 11.6731 15.353 11.7294 15.5C11.7857 15.6471 11.8104 15.8043 11.8019 15.9615V17.1417C11.8019 17.5673 11.9399 17.9814 12.1953 18.3219H4.72075ZM13.7688 18.3219C13.5254 18.3212 13.288 18.2452 13.0894 18.1044C12.8908 17.9635 12.7406 17.7647 12.6595 17.5351H14.5556C14.6583 17.5285 14.7613 17.5434 14.8579 17.5788C14.9545 17.6143 15.0427 17.6695 15.1167 17.741C15.1908 17.8124 15.2491 17.8986 15.288 17.9939C15.3268 18.0891 15.3454 18.1915 15.3424 18.2944C15.212 18.3118 15.0806 18.321 14.949 18.3219H13.7688ZM16.2905 17.8616C16.2337 17.9259 16.1689 17.9828 16.0977 18.0308C16.0545 17.7334 15.9213 17.4563 15.7159 17.2369C15.5106 17.0174 15.2429 16.8662 14.949 16.8034V14.7813C14.9845 14.1395 14.7791 13.5074 14.3731 13.009C13.9671 12.5106 13.3897 12.1816 12.7539 12.0866C12.8547 11.7337 13.0275 11.4056 13.2614 11.1228C13.2715 11.109 13.2807 11.0945 13.2889 11.0795C13.8995 11.5748 14.6343 11.8932 15.4132 12L16.5226 16.8231C16.5849 17.1863 16.5015 17.5595 16.2905 17.8616ZM17.3094 16.6618L16.2276 12.0276C16.8932 12.0337 17.551 11.8828 18.1473 11.587L20.0042 15.9143L18.289 18.3219H16.916C17.0887 18.0852 17.2124 17.8165 17.2799 17.5315C17.3475 17.2464 17.3575 16.9507 17.3094 16.6618ZM20.85 18.3219H20.1733C20.2599 18.1719 20.3936 18.0547 20.5536 17.9884C20.7136 17.9221 20.891 17.9105 21.0583 17.9553C21.2256 18.0001 21.3735 18.0989 21.4789 18.2363C21.5843 18.3737 21.6415 18.5421 21.6415 18.7153C21.6415 18.8885 21.5843 19.0569 21.4789 19.1943C21.3735 19.3317 21.2256 19.4305 21.0583 19.4753C20.891 19.5201 20.7136 19.5085 20.5536 19.4422C20.3936 19.3759 20.2599 19.2587 20.1733 19.1087H20.85C20.9543 19.1087 21.0544 19.0672 21.1281 18.9935C21.2019 18.9197 21.2434 18.8196 21.2434 18.7153C21.2434 18.611 21.2019 18.5109 21.1281 18.4371C21.0544 18.3633 20.9543 18.3219 20.85 18.3219ZM19.2528 18.3219L19.3905 18.1291C19.3667 18.1921 19.347 18.2565 19.3315 18.3219H19.2528ZM20.85 21.0757C20.2926 21.0751 19.7534 20.8773 19.3278 20.5173C18.9023 20.1573 18.6179 19.6583 18.525 19.1087H19.3315C19.4176 19.4405 19.6098 19.7351 19.8787 19.9477C20.1477 20.1603 20.4787 20.2793 20.8215 20.2865C21.1642 20.2937 21.5 20.1888 21.7776 19.9876C22.0553 19.7865 22.2597 19.5002 22.3597 19.1723C22.4597 18.8444 22.4499 18.4928 22.3317 18.1709C22.2136 17.8491 21.9935 17.5747 21.7051 17.3894C21.4167 17.204 21.0756 17.118 20.7338 17.1443C20.392 17.1706 20.0681 17.3078 19.8114 17.5351L20.6493 16.3549H20.85C21.476 16.3549 22.0763 16.6036 22.519 17.0463C22.9617 17.4889 23.2103 18.0893 23.2103 18.7153C23.2103 19.3413 22.9617 19.9417 22.519 20.3843C22.0763 20.827 21.476 21.0757 20.85 21.0757Z" fill="#8E8E8E"/>
</g>
<defs>
<clipPath id="clip0_168_5394">
<rect width="24" height="24" fill="white"/>
</clipPath>
</defs>
</svg>
