<svg width="12" height="12" viewBox="0 0 12 12" fill="none" xmlns="http://www.w3.org/2000/svg">
<path d="M8.95925 7.16C8.82975 7.2855 8.77025 7.467 8.79975 7.645L9.24426 10.105C9.28176 10.3135 9.19376 10.5245 9.01925 10.645C8.84825 10.77 8.62075 10.785 8.43425 10.685L6.21975 9.53C6.14275 9.489 6.05725 9.467 5.96975 9.4645H5.83425C5.78725 9.4715 5.74125 9.4865 5.69925 9.5095L3.48425 10.67C3.37475 10.725 3.25075 10.7445 3.12925 10.725C2.83325 10.669 2.63575 10.387 2.68425 10.0895L3.12925 7.6295C3.15875 7.45 3.09925 7.2675 2.96975 7.14L1.16425 5.39C1.01325 5.2435 0.960755 5.0235 1.02975 4.825C1.09675 4.627 1.26775 4.4825 1.47425 4.45L3.95925 4.0895C4.14825 4.07 4.31425 3.955 4.39925 3.785L5.49425 1.54C5.52025 1.49 5.55375 1.444 5.59425 1.405L5.63925 1.37C5.66275 1.344 5.68975 1.3225 5.71975 1.305L5.77425 1.285L5.85925 1.25H6.06975C6.25775 1.2695 6.42325 1.382 6.50975 1.55L7.61925 3.785C7.69925 3.9485 7.85475 4.062 8.03426 4.0895L10.5193 4.45C10.7293 4.48 10.9048 4.625 10.9743 4.825C11.0398 5.0255 10.9833 5.2455 10.8293 5.39L8.95925 7.16Z" fill="#FFCE31"/>
</svg>
